<svg width="54" height="54" viewBox="0 0 54 54" fill="none" xmlns="http://www.w3.org/2000/svg">
<path d="M39.6562 6.75C41.748 6.75 43.5366 7.49268 45.022 8.97803C46.5073 10.4634 47.25 12.252 47.25 14.3438V39.6562C47.25 41.748 46.5073 43.5366 45.022 45.022C43.5366 46.5073 41.748 47.25 39.6562 47.25H14.3438C12.252 47.25 10.4634 46.5073 8.97803 45.022C7.49268 43.5366 6.75 41.748 6.75 39.6562V14.3438C6.75 12.252 7.49268 10.4634 8.97803 8.97803C10.4634 7.49268 12.252 6.75 14.3438 6.75H39.6562ZM19.9072 16.4268H10.125V37.1777H20.1973C22.2539 37.1777 23.9854 36.6724 25.3916 35.6616C26.7979 34.6509 27.501 33.1523 27.501 31.166C27.501 28.3887 26.2441 26.6309 23.7305 25.8926C25.6113 24.9785 26.5518 23.5371 26.5518 21.5684C26.5518 20.5664 26.3804 19.7183 26.0376 19.0239C25.6948 18.3296 25.1982 17.7979 24.5479 17.4287C23.8975 17.0596 23.2031 16.8003 22.4648 16.6509C21.7266 16.5015 20.874 16.4268 19.9072 16.4268ZM19.3271 24.8115H14.6865V19.96H18.9844C21.0762 19.96 22.1221 20.751 22.1221 22.333C22.1221 23.9854 21.1904 24.8115 19.3271 24.8115ZM19.5645 33.6445H14.6865V27.9229H19.6699C21.8496 27.9229 22.9395 28.916 22.9395 30.9023C22.9395 32.7305 21.8145 33.6445 19.5645 33.6445ZM36.7031 34.4883C35.5078 34.4883 34.5938 34.1543 33.9609 33.4863C33.3281 32.8184 33.0117 31.8779 33.0117 30.665H43.8486C43.8662 30.4893 43.875 30.2256 43.875 29.874C43.875 27.5537 43.2202 25.6157 41.9106 24.0601C40.6011 22.5044 38.8125 21.7266 36.5449 21.7266C34.2949 21.7266 32.4492 22.4824 31.0078 23.9941C29.5664 25.5059 28.8457 27.4043 28.8457 29.6895C28.8457 32.0625 29.54 33.9697 30.9287 35.4111C32.3174 36.8525 34.1895 37.5732 36.5449 37.5732C40.1484 37.5732 42.4951 35.8945 43.585 32.5371H39.9463C39.7529 33.1348 39.3354 33.6094 38.6938 33.9609C38.0522 34.3125 37.3887 34.4883 36.7031 34.4883ZM36.4395 24.8379C38.4258 24.8379 39.5156 25.9102 39.709 28.0547H33.0117C33.082 27.0703 33.4248 26.2881 34.04 25.708C34.6553 25.1279 35.4551 24.8379 36.4395 24.8379ZM32.168 17.8242H40.5791V19.8545H32.168V17.8242Z" fill="#E9EEF2"/>
</svg>
