<svg width="54" height="54" viewBox="0 0 54 54" fill="none" xmlns="http://www.w3.org/2000/svg">
<rect x="6.75" y="6.75" width="40.5" height="40.5" rx="2" fill="#E9EEF2"/>
<path d="M21.39 14.1771C23.5608 13.226 25.9379 12.8414 28.2981 13.0593C30.6584 13.2773 32.9246 14.0906 34.8842 15.423C33.264 17.6182 31.2239 19.4705 28.8824 20.8728C26.9145 18.112 24.3549 15.8245 21.39 14.1771ZM26.957 21.8891C24.926 19.1197 22.2343 16.9016 19.1265 15.4364C16.4119 17.2866 14.4314 20.0281 13.5289 23.1849C15.1202 23.5734 16.7524 23.7695 18.3905 23.769C21.3488 23.7718 24.2722 23.1303 26.957 21.8891ZM41 26.1508C40.7828 22.5713 39.1961 19.2124 36.5684 16.7696C34.8 19.1456 32.585 21.1548 30.0476 22.6847C30.7863 23.9632 31.3976 25.3113 31.8723 26.7093C34.8452 25.9052 37.951 25.7151 41 26.1508ZM32.4667 28.7799C32.8659 30.4773 33.0671 32.215 33.0662 33.9586C33.0649 35.9954 32.7891 38.0229 32.2464 39.9864C34.6279 39.0243 36.6997 37.428 38.2364 35.3714C39.7732 33.3148 40.7157 30.8765 40.9619 28.3217C38.1292 27.8803 35.2355 28.0364 32.4667 28.7799ZM29.8203 27.3726C29.386 26.0998 28.8267 24.8731 28.1507 23.7103C25.1048 25.1706 21.7689 25.9268 18.3905 25.9228C16.6098 25.9234 14.8352 25.7138 13.1037 25.2985C12.8218 27.5999 13.1169 29.9351 13.9627 32.0943C14.8084 34.2533 16.1782 36.1685 17.9488 37.6674C20.557 32.9364 24.7652 29.2872 29.8203 27.3726ZM19.7088 38.9431C22.7144 40.7804 26.3029 41.4184 29.7585 40.7295C30.5198 38.5531 30.9093 36.2641 30.9103 33.9586C30.9103 32.443 30.7417 30.9322 30.4074 29.4539C25.8211 31.2386 22.0259 34.6048 19.7088 38.9431Z" fill="#173952"/>
</svg>
