<svg width="54" height="54" viewBox="0 0 54 54" fill="none" xmlns="http://www.w3.org/2000/svg">
<path d="M42.75 6.75H11.25C8.76375 6.75 6.75 8.76375 6.75 11.25V42.75C6.75 45.2363 8.76375 47.25 11.25 47.25H28.3973V31.5877H23.1255V25.4565H28.3973V20.9452C28.3973 15.7163 31.5945 12.8655 36.261 12.8655C37.8337 12.861 39.4043 12.942 40.968 13.1017V18.5693H37.755C35.2125 18.5693 34.7175 19.7708 34.7175 21.5437V25.4475H40.7925L40.0027 31.5788H34.6815V47.25H42.75C45.2363 47.25 47.25 45.2363 47.25 42.75V11.25C47.25 8.76375 45.2363 6.75 42.75 6.75Z" fill="#E9EEF2"/>
</svg>
