<svg width="54" height="54" viewBox="0 0 54 54" fill="none" xmlns="http://www.w3.org/2000/svg">
<path d="M18 6.75C11.7878 6.75 6.75 11.7878 6.75 18V36C6.75 42.2122 11.7878 47.25 18 47.25H36C42.2122 47.25 47.25 42.2122 47.25 36V18C47.25 11.7878 42.2122 6.75 36 6.75H18ZM40.5 11.25C41.742 11.25 42.75 12.258 42.75 13.5C42.75 14.742 41.742 15.75 40.5 15.75C39.258 15.75 38.25 14.742 38.25 13.5C38.25 12.258 39.258 11.25 40.5 11.25ZM27 15.75C33.2122 15.75 38.25 20.7878 38.25 27C38.25 33.2122 33.2122 38.25 27 38.25C20.7878 38.25 15.75 33.2122 15.75 27C15.75 20.7878 20.7878 15.75 27 15.75ZM27 20.25C25.2098 20.25 23.4929 20.9612 22.227 22.227C20.9612 23.4929 20.25 25.2098 20.25 27C20.25 28.7902 20.9612 30.5071 22.227 31.773C23.4929 33.0388 25.2098 33.75 27 33.75C28.7902 33.75 30.5071 33.0388 31.773 31.773C33.0388 30.5071 33.75 28.7902 33.75 27C33.75 25.2098 33.0388 23.4929 31.773 22.227C30.5071 20.9612 28.7902 20.25 27 20.25Z" fill="#E9EEF2"/>
</svg>
