<svg width="54" height="54" viewBox="0 0 54 54" fill="none" xmlns="http://www.w3.org/2000/svg">
<path d="M42.75 6.75H11.25C8.76375 6.75 6.75 8.76375 6.75 11.25V42.75C6.75 45.2362 8.76375 47.25 11.25 47.25H42.75C45.2362 47.25 47.25 45.2362 47.25 42.75V11.25C47.25 8.76375 45.2362 6.75 42.75 6.75ZM20.25 38.25H14.5733V22.5H20.25V38.25ZM17.3115 19.6132C15.5767 19.6132 14.418 18.4568 14.418 16.9133C14.418 15.3698 15.5745 14.2132 17.5027 14.2132C19.2375 14.2132 20.3962 15.3698 20.3962 16.9133C20.3962 18.4568 19.2397 19.6132 17.3115 19.6132ZM40.5 38.25H35.0055V29.6415C35.0055 27.261 33.5408 26.712 32.9918 26.712C32.4428 26.712 30.6112 27.0787 30.6112 29.6415C30.6112 30.0082 30.6112 38.25 30.6112 38.25H24.9345V22.5H30.6112V24.6983C31.3425 23.4158 32.8072 22.5 35.5545 22.5C38.3017 22.5 40.5 24.6982 40.5 29.6415V38.25Z" fill="#E9EEF2"/>
</svg>
