<svg width="137" height="78" viewBox="0 0 137 78" fill="none" xmlns="http://www.w3.org/2000/svg">
<path d="M50.5 52V46.9474V45.934V28V19.1579V9.68421V7.15789V4H58.8448L62.3825 9.84534L58.3 17.8L77.2033 34.3339L80.0539 39.044L80.2446 38.9781L80.5 24.4V10L74.4024 9.10989V4H87.7V9.09291V10.3158V31.1579V41.5937V52H79.8634L76.5591 46.6879L79.3 38.2L77.5 35.2C77.5 35.2 71.5 31 69.7 29.2C67.9 27.4 58.1463 17.0879 58.1463 17.0879L57.9558 17.1209V45.934L63.7978 46.9231V52H50.5Z" fill="#3E2C0F"/>
<path d="M69.0824 52C65.5731 52 62.3113 51.6046 59.2966 50.8137C56.282 50.0228 53.3498 48.7083 50.5 46.8701V36.1292H57.3888L58.5194 43.0867C59.7676 43.8989 61.2985 44.5508 63.1119 45.0425C64.949 45.5341 66.9392 45.78 69.0824 45.78C71.1784 45.78 72.933 45.5128 74.3462 44.9784C75.7829 44.4227 76.8779 43.6532 77.6316 42.6699C78.3852 41.6867 78.7621 40.5218 78.7621 39.1751C78.7621 37.9354 78.4324 36.8345 77.7729 35.8727C77.1134 34.9108 76.0183 34.0559 74.4875 33.3077C72.9566 32.5382 70.884 31.8329 68.2697 31.1916C64.4309 30.2511 61.2161 29.1396 58.6254 27.8571C56.0583 26.5746 54.1152 25.0356 52.7963 23.2401C51.5009 21.4447 50.8533 19.3285 50.8533 16.8918C50.8533 14.391 51.5952 12.1787 53.0789 10.2549C54.5862 8.33119 56.6706 6.81358 59.3319 5.70209C61.9933 4.5906 65.0667 4.02416 68.5525 4.00279C72.3678 3.96004 75.7357 4.40891 78.6561 5.3494C81.6 6.2899 85.6744 9.44268 87.7 10.9603V19H80.5V14.2L78.0909 12.5313C77.1252 11.9115 75.8653 11.3878 74.3108 10.9603C72.7799 10.5114 70.9664 10.287 68.8704 10.287C67.0804 10.287 65.5025 10.5542 64.1365 11.0886C62.7704 11.6229 61.6988 12.3817 60.9217 13.365C60.1445 14.3268 59.7558 15.4811 59.7558 16.8277C59.7558 18.0033 60.0973 19.0294 60.7804 19.9057C61.4634 20.7821 62.6056 21.5836 64.2071 22.3104C65.8086 23.0157 67.9754 23.7317 70.7074 24.4585C76.2892 25.8051 80.5168 27.6647 83.39 30.0374C86.2633 32.41 87.7 35.4345 87.7 39.111C87.7 41.6974 86.9228 43.963 85.3683 45.9081C83.8375 47.8319 81.6707 49.3281 78.8681 50.397C76.089 51.4657 72.8271 52 69.0824 52Z" fill="#3E2C0F"/>
<path d="M9.32812 70.1641C8.55208 70.1641 7.83073 70.0677 7.16406 69.875C6.4974 69.6823 5.84896 69.362 5.21875 68.9141V66.2969H6.74219L6.99219 67.9922C7.26823 68.1901 7.60677 68.349 8.00781 68.4688C8.41406 68.5885 8.85417 68.6484 9.32812 68.6484C9.79167 68.6484 10.1797 68.5833 10.4922 68.4531C10.8099 68.3177 11.0521 68.1302 11.2188 67.8906C11.3854 67.651 11.4688 67.3672 11.4688 67.0391C11.4688 66.737 11.3958 66.4688 11.25 66.2344C11.1042 66 10.862 65.7917 10.5234 65.6094C10.1849 65.4219 9.72656 65.25 9.14844 65.0938C8.29948 64.8646 7.58854 64.5938 7.01562 64.2812C6.44792 63.9688 6.01823 63.5938 5.72656 63.1562C5.4401 62.7188 5.29688 62.2031 5.29688 61.6094C5.29688 61 5.46094 60.4609 5.78906 59.9922C6.1224 59.5234 6.58333 59.1536 7.17188 58.8828C7.76042 58.612 8.4401 58.474 9.21094 58.4688C10.0547 58.4583 10.7995 58.5677 11.4453 58.7969C12.0964 59.026 12.6458 59.3255 13.0938 59.6953V62.1406H11.6016L11.3203 60.5469C11.1068 60.3958 10.8281 60.2682 10.4844 60.1641C10.1458 60.0547 9.74479 60 9.28125 60C8.88542 60 8.53646 60.0651 8.23438 60.1953C7.93229 60.3255 7.69531 60.5104 7.52344 60.75C7.35156 60.9844 7.26562 61.2656 7.26562 61.5938C7.26562 61.8802 7.34115 62.1302 7.49219 62.3438C7.64323 62.5573 7.89583 62.7526 8.25 62.9297C8.60417 63.1016 9.08333 63.276 9.6875 63.4531C10.9219 63.7812 11.8568 64.2344 12.4922 64.8125C13.1276 65.3906 13.4453 66.1276 13.4453 67.0234C13.4453 67.6536 13.2734 68.2057 12.9297 68.6797C12.5911 69.1484 12.112 69.513 11.4922 69.7734C10.8776 70.0339 10.1562 70.1641 9.32812 70.1641ZM17.3281 70.1641C16.4688 70.1641 15.7995 69.9427 15.3203 69.5C14.8411 69.0573 14.6016 68.4479 14.6016 67.6719C14.6016 67.1406 14.7474 66.6745 15.0391 66.2734C15.3307 65.8724 15.7578 65.5599 16.3203 65.3359C16.8828 65.1068 17.5651 64.9922 18.3672 64.9922H19.6562V64.2812C19.6562 63.8333 19.5208 63.4766 19.25 63.2109C18.9844 62.9453 18.5964 62.8125 18.0859 62.8125C17.7943 62.8125 17.5365 62.849 17.3125 62.9219C17.0885 62.9896 16.888 63.0885 16.7109 63.2188L16.5312 64.3594H15.0859L15.0703 62.2734C15.487 62.0026 15.9505 61.7891 16.4609 61.6328C16.9714 61.4714 17.5391 61.3906 18.1641 61.3906C19.237 61.3906 20.0807 61.6432 20.6953 62.1484C21.3151 62.6484 21.625 63.3672 21.625 64.3047V68.0312C21.625 68.1458 21.625 68.2578 21.625 68.3672C21.6302 68.4766 21.638 68.5833 21.6484 68.6875L22.5078 68.7969V70H19.9375C19.8854 69.8177 19.8359 69.6406 19.7891 69.4688C19.7474 69.2969 19.7161 69.125 19.6953 68.9531C19.4141 69.3073 19.0729 69.599 18.6719 69.8281C18.276 70.0521 17.8281 70.1641 17.3281 70.1641ZM17.7734 68.6406C18.1693 68.6406 18.5391 68.5495 18.8828 68.3672C19.2266 68.1797 19.4844 67.9453 19.6562 67.6641V66.25H18.3438C17.7552 66.25 17.3099 66.388 17.0078 66.6641C16.7109 66.9349 16.5625 67.2526 16.5625 67.6172C16.5625 67.9453 16.6667 68.1979 16.875 68.375C17.0833 68.5521 17.3828 68.6406 17.7734 68.6406ZM23.3672 70V68.7969L24.5469 68.5625V59.2578L23.2969 59.0234V57.8125H26.5078V68.5625L27.6094 68.7969V70H23.3672ZM28.7656 70V68.8359L29.5078 68.7031L29.4844 68.6719L27.4844 66.0312L28.6641 64.6484L31.7031 68.5781L32.8281 68.7969V70H28.7656ZM26.3203 67.6328L25.4453 66.3828L29.1172 62.8984L29.1406 62.8672L28.2578 62.75V61.5469H32.3359V62.7578L31.25 63.0078L26.3203 67.6328ZM37.2031 70.1641C36.599 70.1641 36.0339 70.1068 35.5078 69.9922C34.987 69.8724 34.4635 69.6979 33.9375 69.4688L33.9141 67.2344H35.3281L35.625 68.4531C35.849 68.5521 36.0781 68.6302 36.3125 68.6875C36.5521 68.7396 36.8177 68.7656 37.1094 68.7656C37.6719 68.7656 38.0677 68.6667 38.2969 68.4688C38.5312 68.2708 38.6484 68.026 38.6484 67.7344C38.6484 67.4531 38.526 67.2135 38.2812 67.0156C38.0417 66.8125 37.5807 66.638 36.8984 66.4922C35.888 66.2734 35.1432 65.9557 34.6641 65.5391C34.1901 65.1172 33.9531 64.5703 33.9531 63.8984C33.9531 63.4349 34.0755 63.0156 34.3203 62.6406C34.5703 62.2656 34.9349 61.9661 35.4141 61.7422C35.8984 61.513 36.4922 61.3984 37.1953 61.3984C37.8359 61.3984 38.4036 61.4661 38.8984 61.6016C39.3984 61.7318 39.8229 61.9062 40.1719 62.125L40.2188 64.2734H38.8203L38.5781 63.1562C38.4167 63.0417 38.2292 62.9531 38.0156 62.8906C37.8021 62.8281 37.5573 62.7969 37.2812 62.7969C36.849 62.7969 36.5078 62.8932 36.2578 63.0859C36.0078 63.2734 35.8828 63.5104 35.8828 63.7969C35.8828 63.9635 35.9219 64.1146 36 64.25C36.0833 64.3854 36.2396 64.5104 36.4688 64.625C36.7031 64.7344 37.0443 64.8411 37.4922 64.9453C38.5911 65.2005 39.3776 65.5339 39.8516 65.9453C40.3255 66.3568 40.5625 66.901 40.5625 67.5781C40.5625 68.3333 40.2865 68.9531 39.7344 69.4375C39.1823 69.9219 38.3385 70.1641 37.2031 70.1641ZM41.5547 70V68.7969L42.7266 68.5625V59.2578L41.4844 59.0234V57.8125H44.6875V62.6406C44.9635 62.2448 45.3047 61.9375 45.7109 61.7188C46.1172 61.5 46.5755 61.3906 47.0859 61.3906C47.9557 61.3906 48.638 61.6693 49.1328 62.2266C49.6328 62.7786 49.8828 63.6328 49.8828 64.7891V68.5625L51.0547 68.7969V70H46.8125V68.7969L47.9219 68.5625V64.7734C47.9219 64.1276 47.7917 63.6615 47.5312 63.375C47.2708 63.0885 46.888 62.9453 46.3828 62.9453C46.0234 62.9453 45.6979 63.026 45.4062 63.1875C45.1198 63.3438 44.8802 63.5651 44.6875 63.8516V68.5625L45.7969 68.7969V70H41.5547ZM51.8672 70V68.7969L53.0391 68.5625V62.9922L51.7969 62.7578V61.5469H55.0078V68.5625L56.1719 68.7969V70H51.8672ZM52.9609 59.6328V57.8125H55.0078V59.6328H52.9609ZM61.0156 70V68.7969L62.2578 68.5625V60.0703L61.0156 59.8359V58.625H62.2578H64.25L69.4688 66.9297L69.5156 66.9141V60.0703L68.0781 59.8359V58.625H71.2891H72.5312V59.8359L71.2891 60.0703V70H69.4219L64.0781 61.7266L64.0312 61.7344V68.5625L65.4688 68.7969V70H61.0156ZM73.4609 70V68.7969L74.6328 68.5625V62.9922L73.3906 62.7578V61.5469H76.6016V68.5625L77.7656 68.7969V70H73.4609ZM74.5547 59.6328V57.8125H76.6016V59.6328H74.5547ZM82.3828 73.4141C81.9661 73.4141 81.5026 73.3568 80.9922 73.2422C80.487 73.1328 80.0417 72.9792 79.6562 72.7812L80.0625 71.3438C80.3958 71.4948 80.763 71.6172 81.1641 71.7109C81.5651 71.8047 81.9453 71.8516 82.3047 71.8516C82.9505 71.8516 83.4219 71.6719 83.7188 71.3125C84.0208 70.9583 84.1719 70.4557 84.1719 69.8047V69.1406C83.9115 69.474 83.6016 69.7292 83.2422 69.9062C82.8828 70.0781 82.4714 70.1641 82.0078 70.1641C81.3203 70.1641 80.7266 69.9922 80.2266 69.6484C79.7318 69.3047 79.3516 68.8229 79.0859 68.2031C78.8255 67.5833 78.6953 66.8646 78.6953 66.0469V65.8828C78.6953 64.9818 78.8255 64.1953 79.0859 63.5234C79.3516 62.8516 79.7292 62.3281 80.2188 61.9531C80.7135 61.5781 81.3021 61.3906 81.9844 61.3906C82.5 61.3906 82.9479 61.4974 83.3281 61.7109C83.7083 61.9193 84.0312 62.2188 84.2969 62.6094L84.4453 61.5469H86.1406V69.8125C86.1406 70.5469 85.9922 71.1823 85.6953 71.7188C85.3984 72.2604 84.9688 72.6771 84.4062 72.9688C83.8438 73.2656 83.1693 73.4141 82.3828 73.4141ZM82.5391 68.6094C82.9193 68.6094 83.2422 68.5286 83.5078 68.3672C83.7786 68.2057 84 67.9714 84.1719 67.6641V63.8984C84 63.6016 83.7786 63.3698 83.5078 63.2031C83.237 63.0312 82.9167 62.9453 82.5469 62.9453C82.1146 62.9453 81.7578 63.0703 81.4766 63.3203C81.2005 63.5651 80.9948 63.9089 80.8594 64.3516C80.7292 64.7891 80.6641 65.2995 80.6641 65.8828V66.0469C80.6641 66.8281 80.8125 67.4505 81.1094 67.9141C81.4115 68.3776 81.888 68.6094 82.5391 68.6094ZM85.875 63.0312L85.0469 61.5469H87.1562V62.7578L85.875 63.0312ZM91.5391 70.1641C90.6328 70.1641 89.9245 69.8776 89.4141 69.3047C88.9089 68.7266 88.6562 67.8307 88.6562 66.6172V62.9922L87.7031 62.7578V61.5469H88.6562H90.625V66.6328C90.625 67.362 90.7396 67.875 90.9688 68.1719C91.2031 68.4635 91.5625 68.6094 92.0469 68.6094C92.474 68.6094 92.8359 68.526 93.1328 68.3594C93.4349 68.1875 93.6745 67.9453 93.8516 67.6328V62.9922L92.7891 62.7578V61.5469H93.8516H95.8203V68.5625L96.8203 68.7969V70H94.0781L93.9453 68.8516C93.6797 69.2734 93.3411 69.599 92.9297 69.8281C92.5234 70.0521 92.0599 70.1641 91.5391 70.1641ZM101.039 70.1641C100.357 70.1641 99.7734 69.9922 99.2891 69.6484C98.8047 69.3047 98.4323 68.8255 98.1719 68.2109C97.9167 67.5911 97.7891 66.8698 97.7891 66.0469V65.8828C97.7891 64.9818 97.9167 64.1953 98.1719 63.5234C98.4323 62.8516 98.8047 62.3281 99.2891 61.9531C99.7786 61.5781 100.359 61.3906 101.031 61.3906C101.516 61.3906 101.938 61.4844 102.297 61.6719C102.661 61.8542 102.974 62.1172 103.234 62.4609V59.2578L101.992 59.0234V57.8125H103.234H105.203V68.5625L106.375 68.7969V70H103.5L103.344 68.9766C103.078 69.3672 102.753 69.6641 102.367 69.8672C101.987 70.0651 101.544 70.1641 101.039 70.1641ZM101.594 68.6094C101.969 68.6094 102.292 68.5286 102.562 68.3672C102.833 68.2005 103.057 67.9609 103.234 67.6484V63.9219C103.062 63.6198 102.839 63.3828 102.562 63.2109C102.292 63.0339 101.974 62.9453 101.609 62.9453C101.182 62.9453 100.831 63.0703 100.555 63.3203C100.284 63.5651 100.083 63.9089 99.9531 64.3516C99.8229 64.7891 99.7578 65.2995 99.7578 65.8828V66.0469C99.7578 66.8281 99.901 67.4505 100.188 67.9141C100.479 68.3776 100.948 68.6094 101.594 68.6094ZM107.133 70V68.7969L108.312 68.5625V59.2578L107.062 59.0234V57.8125H110.273V68.5625L111.375 68.7969V70H107.133ZM112.531 70V68.8359L113.273 68.7031L113.25 68.6719L111.25 66.0312L112.43 64.6484L115.469 68.5781L116.594 68.7969V70H112.531ZM110.086 67.6328L109.211 66.3828L112.883 62.8984L112.906 62.8672L112.023 62.75V61.5469H116.102V62.7578L115.016 63.0078L110.086 67.6328ZM120.156 70.1641C119.297 70.1641 118.628 69.9427 118.148 69.5C117.669 69.0573 117.43 68.4479 117.43 67.6719C117.43 67.1406 117.576 66.6745 117.867 66.2734C118.159 65.8724 118.586 65.5599 119.148 65.3359C119.711 65.1068 120.393 64.9922 121.195 64.9922H122.484V64.2812C122.484 63.8333 122.349 63.4766 122.078 63.2109C121.812 62.9453 121.424 62.8125 120.914 62.8125C120.622 62.8125 120.365 62.849 120.141 62.9219C119.917 62.9896 119.716 63.0885 119.539 63.2188L119.359 64.3594H117.914L117.898 62.2734C118.315 62.0026 118.779 61.7891 119.289 61.6328C119.799 61.4714 120.367 61.3906 120.992 61.3906C122.065 61.3906 122.909 61.6432 123.523 62.1484C124.143 62.6484 124.453 63.3672 124.453 64.3047V68.0312C124.453 68.1458 124.453 68.2578 124.453 68.3672C124.458 68.4766 124.466 68.5833 124.477 68.6875L125.336 68.7969V70H122.766C122.714 69.8177 122.664 69.6406 122.617 69.4688C122.576 69.2969 122.544 69.125 122.523 68.9531C122.242 69.3073 121.901 69.599 121.5 69.8281C121.104 70.0521 120.656 70.1641 120.156 70.1641ZM120.602 68.6406C120.997 68.6406 121.367 68.5495 121.711 68.3672C122.055 68.1797 122.312 67.9453 122.484 67.6641V66.25H121.172C120.583 66.25 120.138 66.388 119.836 66.6641C119.539 66.9349 119.391 67.2526 119.391 67.6172C119.391 67.9453 119.495 68.1979 119.703 68.375C119.911 68.5521 120.211 68.6406 120.602 68.6406ZM126.391 70V68.7969L127.562 68.5625V62.9922L126.328 62.7578V61.5469H129.375L129.477 62.6094L129.492 62.7812C129.716 62.3333 129.99 61.9896 130.312 61.75C130.641 61.5104 131.023 61.3906 131.461 61.3906C131.607 61.3906 131.76 61.4036 131.922 61.4297C132.089 61.4557 132.224 61.4844 132.328 61.5156L132.102 63.3359L131 63.2734C130.641 63.2526 130.344 63.3229 130.109 63.4844C129.88 63.6458 129.688 63.8698 129.531 64.1562V68.5625L130.703 68.7969V70H126.391Z" fill="#3E2C0F"/>
</svg>
