<svg width="90" height="90" viewBox="0 0 90 90" fill="none" xmlns="http://www.w3.org/2000/svg">
<path d="M15 85V76.5789V74.89V45V30.2632V14.4737V10.2632V5H28.908L34.8042 14.7422L28 28L59.5055 55.5564L64.2566 63.4066L64.5743 63.2968L65 39V15L54.8374 13.5165V5H77V13.4882V15.5263V50.2632V67.6562V85H63.9391L58.4318 76.1466L63 62L60 57C60 57 50 50 47 47C44 44 27.7438 26.8131 27.7438 26.8131L27.4263 26.8681V74.89L37.1629 76.5386V85H15Z" fill="#173952"/>
<path d="M45.9706 85C40.1218 85 34.6854 84.3409 29.661 83.0228C24.6367 81.7047 19.7496 79.5138 15 76.4502V58.5487H26.4814L28.3657 70.1444C30.446 71.4982 32.9975 72.5847 36.0199 73.4041C39.0816 74.2235 42.3986 74.6333 45.9706 74.6333C49.464 74.6333 52.3884 74.188 54.7436 73.2973C57.1381 72.3711 58.9632 71.0886 60.2193 69.4499C61.4754 67.8111 62.1035 65.8696 62.1035 63.6251C62.1035 61.5589 61.554 59.7242 60.4549 58.1211C59.3557 56.518 57.5305 55.0931 54.9792 53.8461C52.4277 52.5636 48.9734 51.3882 44.6163 50.3193C38.2181 48.7519 32.8601 46.8993 28.5423 44.7618C24.2638 42.6243 21.0253 40.0594 18.8272 37.0668C16.6682 34.0745 15.5888 30.5475 15.5888 26.4863C15.5888 22.3183 16.8253 18.6311 19.2982 15.4249C21.8104 12.2187 25.2843 9.68929 29.7198 7.83681C34.1555 5.98433 39.2779 5.04027 45.0874 5.00465C51.4463 4.9334 57.0595 5.68152 61.9269 7.249C66.8333 8.81649 73.6241 14.0711 77 16.6005V30H65V22L60.9848 19.2189C59.3754 18.1858 57.2754 17.313 54.6846 16.6005C52.1332 15.8524 49.1107 15.4783 45.6173 15.4783C42.634 15.4783 40.0041 15.9236 37.7275 16.8143C35.4507 17.7049 33.6647 18.9696 32.3695 20.6083C31.0741 22.2114 30.4263 24.1351 30.4263 26.3795C30.4263 28.3388 30.9955 30.0489 32.1339 31.5095C33.2723 32.9702 35.176 34.3059 37.8452 35.5173C40.5144 36.6929 44.1256 37.8862 48.6791 39.0975C57.982 41.3419 65.0279 44.4412 69.8167 48.3956C74.6055 52.35 77 57.3909 77 63.5183C77 67.829 75.7046 71.605 73.1138 74.8469C70.5625 78.0532 66.9513 80.5468 62.2802 82.3283C57.6484 84.1095 52.2118 85 45.9706 85Z" fill="#173952"/>
</svg>
