<svg width="54" height="54" viewBox="0 0 54 54" fill="none" xmlns="http://www.w3.org/2000/svg">
<rect x="6.75" y="6.75" width="40.5" height="40.5" rx="2" fill="#E9EEF2"/>
<g clip-path="url(#clip0_155_390)">
<path d="M27.9688 26.7399C27.9688 32.6618 24.2749 37.4797 19.7344 37.4797C15.1939 37.4797 11.5 32.6618 11.5 26.7399C11.5 20.8179 15.1939 16 19.7344 16C24.2749 16 27.9688 20.8179 27.9688 26.7399ZM34.1445 16.6318C33.4134 16.6318 32.0345 17.0678 31.015 19.9881C30.3781 21.8123 30.0273 24.2102 30.0273 26.7399C30.0273 29.2695 30.3781 31.6674 31.015 33.4916C32.0345 36.412 33.4134 36.848 34.1445 36.848C34.8756 36.848 36.2545 36.412 37.2741 33.4916C37.911 31.6674 38.2617 29.2695 38.2617 26.7399C38.2617 24.2102 37.911 21.8123 37.2741 19.9881C36.2545 17.0678 34.8756 16.6318 34.1445 16.6318ZM41.3496 16.6318C41.0766 16.6318 40.8148 16.7649 40.6218 17.0019C40.4288 17.2388 40.3203 17.5602 40.3203 17.8953V35.5845C40.3203 35.9196 40.4288 36.2409 40.6218 36.4779C40.8148 36.7148 41.0766 36.848 41.3496 36.848C41.6226 36.848 41.8844 36.7148 42.0774 36.4779C42.2705 36.2409 42.3789 35.9196 42.3789 35.5845V17.8953C42.3789 17.5602 42.2705 17.2388 42.0774 17.0019C41.8844 16.7649 41.6226 16.6318 41.3496 16.6318Z" fill="#173952"/>
</g>
<defs>
<clipPath id="clip0_155_390">
<rect width="31" height="22" fill="white" transform="translate(11.5 16)"/>
</clipPath>
</defs>
</svg>
