<svg width="486" height="764" viewBox="0 0 486 764" fill="none" xmlns="http://www.w3.org/2000/svg">
<g opacity="0.8">
<path d="M164.154 267V236.5L281.654 216.5L299.154 342.5L217.154 426L120.154 297.5L164.154 267Z" fill="#FFCBA9" stroke="black" stroke-miterlimit="16" stroke-linecap="round" stroke-linejoin="round"/>
<path d="M130.155 71L195.655 29.5L256.655 41L286.655 91V177.5C282.632 192.854 268.319 218.668 270.934 216.693C271.219 216.429 271.443 216.218 271.605 216.066C271.998 215.695 272.015 215.671 271.605 216.066C271.489 216.177 271.34 216.321 271.155 216.5C271.071 216.581 270.998 216.645 270.934 216.693C265.508 221.74 238.367 246.309 215.155 256C207.399 257.504 202.202 257.908 191.655 258C180.359 253.257 174.724 249.563 165.655 241.5C146.188 227.284 135.411 218.858 130.655 177.5L121.655 152C120.119 119.197 123.289 102.069 130.155 71Z" fill="#FFCBA9"/>
<path d="M195.655 29.5L130.155 71C123.289 102.069 120.119 119.197 121.655 152L130.655 177.5C135.411 218.858 146.188 227.284 165.655 241.5C174.724 249.563 180.359 253.257 191.655 258C202.202 257.908 207.399 257.504 215.155 256C243.377 244.217 277.408 210.44 271.155 216.5C267.619 219.927 282.534 193.227 286.655 177.5V91L256.655 41L195.655 29.5Z" stroke="#FFCBA9" stroke-miterlimit="16" stroke-linecap="round" stroke-linejoin="round"/>
<path d="M167.5 211.5C175.032 205.584 183.267 206.252 193.654 207.501C207.137 203.783 214.718 202.575 226 205C218.893 213.861 211.812 216.571 199 221C183.239 220.837 175.664 218.275 167.5 211.5Z" fill="#7E0000"/>
<path d="M167.5 211.5C177.539 211.971 185.707 212.947 195.154 214.501C205.587 209.267 214.138 207.168 226 205M167.5 211.5C175.032 205.584 183.267 206.252 193.654 207.501C207.137 203.783 214.718 202.575 226 205M167.5 211.5C175.664 218.275 183.239 220.837 199 221C211.812 216.571 218.893 213.861 226 205" stroke="black" stroke-width="0.2" stroke-miterlimit="16" stroke-linecap="round" stroke-linejoin="round"/>
<path d="M110.654 159.5C111.376 155.499 111.91 153.328 113.154 149.5L120.655 158.5C117.481 159.249 118.654 160.5 116.154 165C112.154 169.5 109.154 179.5 110.654 184C115.232 191.313 118.029 192.876 123.155 196.5L119.655 204C114.36 198.994 111.472 195.983 107.154 188.5C105.654 185.5 105.671 177.913 108.154 173.5C110.705 168.969 110.654 162.167 110.654 159.5Z" fill="black" stroke="black"/>
<path d="M176.713 188.327C177.621 188.257 178.235 187.572 179.077 187.385C180.013 187.177 181.195 187.14 182.102 187.417C182.289 187.474 182.426 187.508 182.624 187.508C182.872 187.508 183.007 187.619 183.233 187.697C183.668 187.847 184.072 188 184.466 188.233C185.214 188.675 185.962 189.09 186.595 189.7C186.758 189.857 187.018 189.946 187.204 190.064C187.415 190.198 187.582 190.378 187.775 190.533C188.154 190.836 188.516 191.167 189.004 191.29" stroke="black" stroke-width="0.5" stroke-linecap="round"/>
<path d="M180.103 187.275C179.502 187.37 178.913 187.571 178.308 187.633C178.009 187.664 177.696 187.782 177.424 187.906C177.205 188.007 177.008 188.132 176.814 188.268C176.755 188.309 176.607 188.452 176.756 188.452" stroke="black" stroke-width="0.5" stroke-linecap="round"/>
<path d="M176.756 188.451C176.771 188.496 176.9 188.518 176.938 188.527C177.022 188.544 177.125 188.544 177.208 188.527C177.357 188.498 177.475 188.363 177.617 188.312C177.832 188.235 178.032 188.122 178.246 188.038C178.357 187.994 178.466 187.946 178.579 187.904C178.677 187.869 178.782 187.854 178.877 187.81C179.052 187.728 179.241 187.686 179.42 187.616C179.603 187.545 179.82 187.527 180.013 187.512C180.631 187.463 181.24 187.465 181.861 187.487" stroke="black" stroke-width="0.5" stroke-linecap="round"/>
<path d="M176.997 188.651C176.805 188.638 176.462 188.48 176.581 188.232C176.68 188.025 176.945 187.942 177.123 187.828C177.308 187.711 177.524 187.619 177.735 187.571C177.809 187.553 177.887 187.513 177.961 187.488C178.049 187.459 178.139 187.439 178.228 187.412C178.372 187.368 178.531 187.368 178.679 187.339C178.756 187.324 178.825 187.309 178.904 187.3C179.168 187.271 179.416 187.344 179.677 187.346C180.16 187.35 180.642 187.36 181.123 187.403" stroke="black" stroke-width="0.5" stroke-linecap="round"/>
<path d="M176.742 188.564C176.874 188.586 176.989 188.627 177.125 188.596C177.27 188.563 177.399 188.548 177.536 188.48C177.774 188.361 178.003 188.238 178.251 188.136C178.635 187.978 179.016 187.805 179.424 187.731C179.6 187.699 179.769 187.649 179.948 187.636C180.116 187.624 180.284 187.628 180.452 187.628C180.61 187.628 180.767 187.628 180.925 187.628C181.185 187.628 181.437 187.572 181.697 187.572C181.95 187.572 182.203 187.572 182.456 187.572C182.497 187.572 182.52 187.592 182.556 187.606C182.667 187.647 182.808 187.661 182.921 187.687C183.15 187.739 183.382 187.768 183.612 187.814C183.69 187.83 183.764 187.853 183.838 187.882C183.959 187.93 184.075 187.962 184.2 187.997" stroke="black" stroke-width="0.5" stroke-linecap="round"/>
<path d="M203.83 185.262C204.705 185.262 205.623 185.224 206.488 185.093C207.218 184.983 207.848 184.517 208.534 184.275C208.808 184.178 209.453 183.906 209.109 183.529C208.867 183.262 208.413 183.224 208.086 183.115C207.852 183.036 207.614 183.052 207.371 183.052C206.534 183.052 205.759 182.934 204.945 183.165C204.073 183.412 203.147 183.458 202.289 183.755C201.698 183.959 201.059 184.04 200.585 184.467C200.343 184.686 200.033 184.928 199.846 185.199C199.698 185.413 199.49 185.601 199.377 185.835C199.176 186.249 198.84 186.63 198.52 186.957C197.981 187.505 197.476 188.089 196.94 188.642" stroke="black" stroke-width="0.5" stroke-linecap="round"/>
<path d="M203.873 185.173C204.845 185.173 206.019 185.254 206.916 184.771C207.403 184.509 207.8 184.034 208.36 183.916C208.494 183.888 209.1 183.849 208.702 183.743C208.386 183.659 208.094 183.645 207.763 183.623C207.469 183.603 207.175 183.526 206.88 183.526C206.485 183.526 206.117 183.396 205.717 183.396C205.486 183.396 205.255 183.396 205.024 183.396C204.581 183.396 205.35 183.396 205.433 183.396C206.365 183.396 207.274 183.526 208.206 183.526" stroke="black" stroke-width="0.5" stroke-linecap="round"/>
<path d="M207.339 183.473C206.55 183.603 205.763 183.775 204.961 183.775C204.672 183.775 204.384 183.795 204.095 183.795C203.77 183.795 203.48 183.836 203.163 183.916C202.845 183.996 202.529 184.113 202.208 184.178C202.187 184.182 202.139 184.214 202.145 184.193C202.166 184.108 202.633 184.069 202.668 184.064C203.06 183.997 203.455 183.936 203.837 183.824C204.003 183.776 204.144 183.72 204.316 183.703C204.48 183.688 204.678 183.639 204.844 183.659C204.943 183.671 205.037 183.674 205.137 183.674C205.159 183.674 205.237 183.686 205.225 183.645C205.207 183.583 204.965 183.594 204.924 183.594C204.519 183.594 204.134 183.7 203.738 183.773C203.325 183.848 202.918 183.929 202.518 184.057C202.148 184.175 201.772 184.271 201.403 184.39C201.007 184.518 200.642 184.749 200.315 185.003" stroke="black" stroke-width="0.5" stroke-linecap="round"/>
<path d="M207.339 183.775C207.329 183.921 207.251 184.049 207.142 184.144C207.082 184.197 206.938 184.316 206.845 184.294C206.741 184.27 206.855 184.078 206.874 184.05C206.953 183.932 207.33 183.71 207.227 183.809C207.145 183.888 206.956 183.92 206.859 183.945C206.673 183.993 206.39 184.098 206.193 184.067C205.991 184.036 206.623 183.882 206.799 183.986C206.913 184.053 206.914 184.179 206.854 184.283C206.822 184.337 206.683 184.431 206.688 184.369C206.699 184.236 206.905 184.084 206.997 184.017C207.086 183.951 207.201 183.882 207.318 183.893C207.421 183.903 207.43 184.011 207.348 184.057C207.301 184.084 207.426 183.978 207.451 183.97C207.484 183.959 207.691 183.896 207.708 183.965C207.714 183.992 207.662 184.035 207.685 184.037C207.744 184.043 207.655 184.057 207.603 184.072C206.825 184.286 206.032 184.476 205.234 184.597C205.131 184.613 204.188 184.817 204.063 184.551C203.949 184.309 204.704 184.004 204.769 183.978C205.147 183.828 205.562 183.739 205.959 183.874C205.99 183.884 206.34 184.038 206.261 184.153C206.165 184.292 205.775 184.329 205.641 184.357C205.426 184.402 205.208 184.436 204.99 184.464C204.883 184.478 204.949 184.45 205.009 184.424C205.196 184.343 205.434 184.258 205.641 184.296C205.785 184.323 205.712 184.436 205.638 184.493C205.465 184.629 205.234 184.693 205.022 184.73C205.004 184.733 204.706 184.799 204.783 184.661C204.882 184.481 205.146 184.363 205.322 184.292C205.438 184.245 206.127 183.978 206.163 184.263C206.179 184.393 206.197 184.431 206.27 184.531C206.331 184.615 206.426 184.762 206.268 184.762C205.486 184.762 204.698 184.645 203.938 184.862" stroke="black" stroke-width="0.5" stroke-linecap="round"/>
<path d="M199.49 185.586C199.654 185.56 199.808 185.492 199.968 185.45C200.149 185.403 200.336 185.388 200.519 185.344C200.826 185.27 201.139 185.264 201.447 185.203C201.819 185.13 202.212 185.134 202.578 185.051C202.708 185.022 202.86 185.045 202.992 185.042C203.298 185.036 203.625 184.939 203.925 184.881C204.553 184.76 205.096 184.447 205.608 184.076" stroke="black" stroke-width="0.5" stroke-linecap="round"/>
<path d="M203.877 185.305C203.021 185.377 202.148 185.422 201.299 185.566C201.125 185.596 200.968 185.64 200.791 185.657C200.496 185.685 200.179 185.741 199.9 185.849C199.674 185.938 199.483 186.035 199.28 186.17C199.14 186.263 198.983 186.339 198.906 186.492" stroke="black" stroke-width="0.5" stroke-linecap="round"/>
<path d="M200.436 185.103C201.265 184.916 202.045 184.572 202.882 184.415C203.408 184.316 203.952 184.269 204.484 184.202C204.693 184.176 204.424 184.275 204.375 184.294C204.011 184.433 203.622 184.482 203.258 184.623C203.252 184.625 203.066 184.717 203.086 184.716C203.547 184.71 204.002 184.503 204.453 184.426C204.497 184.418 204.51 184.441 204.554 184.428C204.598 184.415 204.637 184.401 204.683 184.399C204.715 184.397 204.75 184.365 204.777 184.35C204.808 184.331 205.058 184.17 204.912 184.229C204.505 184.393 204.126 184.624 203.693 184.716C203.359 184.788 203.018 184.82 202.677 184.822C202.569 184.822 202.202 184.766 202.106 184.862" stroke="black" stroke-width="0.5" stroke-linecap="round"/>
<path d="M202.107 184.861C201.733 184.959 201.356 185.04 200.979 185.122" stroke="black" stroke-width="0.5" stroke-linecap="round"/>
<path d="M176.567 188.515C176.604 188.594 176.718 188.619 176.792 188.649C176.88 188.685 176.972 188.727 177.07 188.723C177.248 188.714 177.422 188.664 177.594 188.62C177.832 188.56 178.075 188.476 178.299 188.375C178.509 188.28 178.724 188.201 178.926 188.092C179.031 188.036 179.147 188.006 179.257 187.961C179.405 187.9 179.556 187.844 179.708 187.795C180.056 187.683 180.446 187.664 180.808 187.664C181.103 187.664 181.393 187.723 181.687 187.752C181.923 187.775 182.161 187.776 182.398 187.781C182.507 187.783 182.625 187.827 182.729 187.856C182.912 187.906 183.092 187.91 183.281 187.932C183.653 187.974 183.779 188 184.154 188" stroke="black" stroke-width="0.5" stroke-linecap="round"/>
<path d="M390.095 278.409C389.511 289.964 391.631 295.044 396.279 303.604L400.215 330L476.115 327.6L482.299 287.407C484.759 276.062 485.617 269.046 484.548 253.213C484.419 250.088 483.616 249.437 478.926 253.213C473.259 263.452 471.616 269.743 469.93 281.408C469.193 283.75 468.689 284.965 465.433 284.408L464.308 229.817C460.796 224.274 458.825 223.477 455.313 229.817L450.815 283.208C445.512 245.212 443.484 234.706 440.133 219.019C438.137 212.413 436.362 210.251 431.137 211.22C429.891 238.63 430.254 253.998 431.137 281.408C426.022 260.066 425.082 249.166 417.081 226.218C413.798 222.815 412.193 221.828 410.897 226.218C411.859 257.431 413.019 274.443 416.519 303.604H415.395C406.785 291.203 401.462 282.288 395.155 278.409C391.297 275.788 390.211 277.56 390.095 278.409Z" fill="#FFCBA9" stroke="#F8CAB1" stroke-miterlimit="16" stroke-linecap="round" stroke-linejoin="round"/>
<path d="M28.7015 598.21L16.1543 574.281L83.0725 551L111.154 659C89.0843 657.755 76.705 656.819 54.3933 644.126C49.3263 636.36 46.5918 630.916 42.4436 613.731C37.8557 607.834 35.0081 604.463 28.7015 598.21Z" fill="#F7D1BF"/>
<path d="M55.705 721.451C40.0365 684.96 97.9082 632.706 89.7042 578.421C56.6669 432.302 151.299 445.73 338.205 484.951L301.205 287.951C320.181 281.935 331.888 286.667 344.205 288.59C354.656 290.221 364.136 295.024 375.064 303.531C391.088 339.976 394.062 359.733 396.205 397.451C404.837 456.914 396.785 471.771 393.205 542.949C367.599 563.024 367.18 560.705 340.892 537.47C345.781 603.432 357.291 702.634 375.064 721.451C342.974 755.381 274.704 765.551 198.705 762.951C152.004 761.353 113.662 719.503 55.705 721.451Z" fill="#C9D0DF"/>
<path d="M64.6543 312C86.6218 312.725 111.726 286.709 126.654 291.499C160.15 345.594 178.87 373.644 221.655 408.5C259.318 373.446 280.082 353.267 301.655 294C396.063 516.141 390.564 592.07 105.482 492.302C105.512 530.072 103.051 550.469 90.578 584.289C81.7572 579.348 76.2705 568.759 66.5985 572.343C56.9265 575.926 43.1301 556.428 23.1543 594C1.19001 564.657 -8.23394 545.735 8.65411 470C3.5425 399.216 19.6297 310.515 64.6543 312Z" fill="#C9D0DF"/>
<path d="M399.085 319C439.637 320.112 456.226 320.07 477.944 319C483.547 409.584 476.503 456.507 471.07 534.113C465.638 611.719 369 557.713 369 557.713L391.624 521.076C388.327 455.213 394.49 416.114 399.085 319Z" fill="#C9D0DF"/>
<path d="M304.155 130C300.887 128.472 298.591 129.746 296.654 131C287.291 141.119 285.578 147.503 285.655 159.499V171L286.654 180.5C289.932 183.018 287.091 181.838 291.654 182C297.154 180.5 299.23 176.252 300.654 172C303.039 166.157 301.262 170.469 304.154 162C305.936 157.625 308.303 154.609 309.154 139C308.039 134.979 308.953 134.691 304.155 130Z" fill="#F7D1B0"/>
<path d="M158.154 17.5C166.16 12.6184 170.648 8.88155 178.654 4L188.154 2C193.637 3.36357 199.894 3.58745 204.832 4.4504C206.994 3.41507 209.249 2.30248 211.154 1L230.654 3.5C252.254 13.3963 261.961 21.1726 277.154 37C284.685 49.6227 287.494 56.8652 290.654 70C296.505 92.9684 298.549 105.886 300.654 129C308.092 167.889 310.982 190.665 314.154 232.5C328.369 249.946 334.662 269.537 336.654 293C336.895 312.865 334.132 323.828 322.154 343C303.781 348.958 293.293 351.755 274.154 355.5C252.919 358.046 241.345 356.368 222.654 335C237.234 327.694 244.177 321.126 254.154 305C263.461 271.958 268.132 253.098 269.154 215C275.183 204.177 277.751 196.175 280.654 178L283.154 162C280.626 148.607 282.139 142.315 282.654 128C279.039 112.664 286.302 104.839 277.154 88.5C272.768 79.1117 269.57 73.622 261.154 63C255.27 54.5704 249.091 49.6702 241.154 42C230.169 36.0549 213.363 31.6749 201.654 30.5C195.992 34.21 194.15 38.6887 187.154 40C180.159 41.3113 154.964 57.5288 153.154 59C143.953 63.2142 140.411 67.9979 134.654 75L127.154 104C123.343 123.296 121.016 137.41 129.154 171.5L131.154 178C141.523 216.027 149.625 228.108 165.654 240.5C165.459 252.411 167.154 266 165.154 271C163.154 276 146.47 285.648 132.154 293H113.654C88.4473 302.319 97.2617 304.439 80.6543 311C78.5553 305.379 76.7937 294.824 76.1543 286C77.0732 273.46 79.004 266.81 84.6543 255.5C91.8133 240.501 96.1542 232.706 104.654 220C118.814 204.649 124.046 195.294 131.154 178L129.154 171.5C121.16 164.661 118.47 158.506 114.154 152.5C109.505 146.378 107.332 142.715 105.654 135C105.213 122.548 105.584 115.471 108.654 102.5C115.783 74.0523 119.815 60.029 134.654 37.5L158.154 17.5Z" fill="black"/>
<path d="M129.154 171.5C121.16 164.661 118.47 158.506 114.154 152.5C109.505 146.378 107.332 142.715 105.654 135C105.213 122.548 105.584 115.471 108.654 102.5C115.783 74.0523 119.815 60.029 134.654 37.5L158.154 17.5C166.16 12.6184 170.648 8.88155 178.654 4L188.154 2C197.925 4.4302 210.157 3.24034 213 8.5L201.654 23M129.154 171.5L131.154 178M129.154 171.5C121.016 137.41 123.343 123.296 127.154 104L134.654 75C140.411 67.9979 143.953 63.2142 153.154 59C154.964 57.5288 180.159 41.3113 187.154 40C194.15 38.6887 195.992 34.21 201.654 30.5M201.654 23L196.5 10.5C196.811 7.04873 205.512 4.85691 211.154 1L230.654 3.5C252.254 13.3963 261.961 21.1726 277.154 37C284.685 49.6227 287.494 56.8652 290.654 70C296.505 92.9684 298.549 105.886 300.654 129M201.654 23V30.5M131.154 178C124.046 195.294 118.814 204.649 104.654 220C96.1542 232.706 91.8133 240.501 84.6543 255.5C79.004 266.81 77.0732 273.46 76.1543 286C76.7937 294.824 78.5553 305.379 80.6543 311C97.2617 304.439 88.4473 302.319 113.654 293H132.154C146.47 285.648 163.154 276 165.154 271C167.154 266 165.459 252.411 165.654 240.5C149.625 228.108 141.523 216.027 131.154 178ZM201.654 30.5C213.363 31.6749 230.169 36.0549 241.154 42C249.091 49.6702 255.27 54.5704 261.154 63C269.57 73.622 272.768 79.1117 277.154 88.5C286.302 104.839 279.039 112.664 282.654 128C282.139 142.315 280.626 148.607 283.154 162M300.654 129C308.092 167.889 310.982 190.665 314.154 232.5C328.369 249.946 334.662 269.537 336.654 293C336.895 312.865 334.132 323.828 322.154 343C303.781 348.958 293.293 351.755 274.154 355.5C252.919 358.046 241.345 356.368 222.654 335C237.234 327.694 244.177 321.126 254.154 305C263.461 271.958 268.132 253.098 269.154 215C275.183 204.177 277.751 196.175 280.654 178L283.154 162M300.654 129L285.654 146C284.942 150.606 284.205 155.285 283.154 162" stroke="black" stroke-width="0.2"/>
<path d="M254.514 121.432C233.15 109.055 219.4 107.193 198.308 120.491C195.943 121.982 194.713 124.742 195.053 127.517C195.897 134.409 205.244 136.718 210.541 132.23C223.131 121.561 235.152 123.175 248.702 130.686C251.884 132.45 255.979 130.911 256.936 127.401C257.566 125.092 256.586 122.631 254.514 121.432Z" fill="#FFD0B2"/>
<path d="M123.385 133.715C140.819 116.231 153.618 110.873 177.433 118.26C180.104 119.088 182.006 121.435 182.396 124.204C183.364 131.079 174.933 135.729 168.655 132.764C153.733 125.717 142.539 130.388 131.395 141.15C128.778 143.677 124.424 143.25 122.591 140.108C121.385 138.041 121.695 135.41 123.385 133.715Z" fill="#FFD0B2"/>
<path d="M151.856 145.855C143.55 144.412 141.808 144.19 136.154 140.623C141.435 135.164 146.154 132.467 154.654 132C165.154 132.933 169.278 134.821 175.154 140.623C166.728 142.371 162.804 146.86 151.856 145.855Z" fill="white" stroke="black" stroke-width="0.2" stroke-miterlimit="16" stroke-linecap="round" stroke-linejoin="round"/>
<path d="M161.205 139.102C161.626 137.531 161.24 134.815 160.5 133.5L158 133L157.27 132.909C155.108 132.638 152.915 132.763 150.798 133.277C150.798 133 150.7 133.409 150.639 133.504C150.434 133.826 150.234 134.239 150.131 134.52L150.112 134.571L150.086 134.619C149.982 134.812 149.876 135.18 149.654 136.007C148.799 139.198 150.692 142.475 153.882 143.33C157.072 144.185 160.35 142.293 161.205 139.102Z" fill="black"/>
<path d="M150.5 134L150.894 133.169M161.205 139.102C161.626 137.531 161.24 134.815 160.5 133.5L158 133L157.27 132.909C155.108 132.638 152.915 132.763 150.798 133.277V133.277C150.798 133 150.7 133.409 150.639 133.504C150.434 133.826 150.234 134.239 150.131 134.52L150.112 134.571L150.086 134.619C149.982 134.812 149.876 135.18 149.654 136.007C148.799 139.198 150.692 142.475 153.882 143.33C157.072 144.185 160.35 142.293 161.205 139.102Z" stroke="black" stroke-width="1.5"/>
<path d="M159.154 143C159.707 143 160.154 142.552 160.154 142C160.154 141.448 159.707 141 159.154 141C158.602 141 158.154 141.448 158.154 142C158.154 142.552 158.602 143 159.154 143Z" fill="white"/>
<path d="M169.154 132.5C164.429 129.465 160.993 128.625 153.154 129C145.371 130.246 142.246 132.006 137.654 136" stroke="black" stroke-width="0.2" stroke-miterlimit="16" stroke-linecap="round" stroke-linejoin="round"/>
<path d="M215.654 134C212.921 135.953 210.388 138.048 207.654 140C215.972 142.139 218.846 143.73 229.654 142.5C237.853 140.734 243.073 138.865 248.654 134.5L237.654 132C233.311 130.986 230.354 129.508 225.654 130C220.876 130.442 219.856 131.311 215.654 134Z" fill="white" stroke="black" stroke-width="0.2" stroke-miterlimit="16" stroke-linecap="round" stroke-linejoin="round"/>
<path d="M222.377 136.841C221.959 135.282 222.773 132.309 223.499 131L228 130.5L231 131L233.393 131.767C233.394 131.788 233.395 131.809 233.396 131.832C233.397 131.849 233.397 131.867 233.398 131.886C233.4 131.934 233.403 131.987 233.405 132.039L233.414 132.209L233.495 132.358C233.6 132.551 233.706 132.919 233.927 133.746C234.782 136.937 232.889 140.214 229.699 141.069C226.51 141.923 223.232 140.031 222.377 136.841ZM233.372 131.543V131.544L233.311 131.661L233.31 131.66L233.372 131.543Z" fill="black"/>
<path d="M233.374 131.539L233.654 131M222.377 136.841C221.959 135.282 222.773 132.309 223.499 131L228 130.5L231 131L233.393 131.767C233.394 131.788 233.395 131.809 233.396 131.832C233.397 131.849 233.397 131.867 233.398 131.886C233.4 131.934 233.403 131.987 233.405 132.039L233.414 132.209L233.495 132.358C233.6 132.551 233.706 132.919 233.927 133.746C234.782 136.937 232.889 140.214 229.699 141.069C226.51 141.923 223.232 140.031 222.377 136.841ZM233.372 131.543V131.544L233.311 131.661L233.31 131.66L233.372 131.543Z" stroke="black" stroke-width="1.5"/>
<path d="M224.154 141C224.707 141 225.154 140.552 225.154 140C225.154 139.448 224.707 139 224.154 139C223.602 139 223.154 139.448 223.154 140C223.154 140.552 223.602 141 224.154 141Z" fill="white"/>
<path d="M207.654 137.5C211.257 135.118 210.981 133.947 213.154 131.5C215.454 128.567 216.654 127 222.654 125.502C233.154 124.5 237.68 127.292 245.654 132" stroke="black" stroke-width="0.2" stroke-miterlimit="16" stroke-linecap="round" stroke-linejoin="round"/>
<path d="M162.154 109L168.587 114.574C168.943 114.883 168.71 115.469 168.239 115.456C159.712 115.217 155.695 115.601 147.154 117.5C139.654 119.5 135.062 122.053 126.654 127C129.944 121.881 129.817 119.093 136.654 114.5C144.304 111.033 153.125 107.878 162.154 109Z" fill="black"/>
<path d="M227.154 113.499C216.225 112.647 210.94 113.81 201.361 116.78C201.023 116.885 200.684 116.614 200.715 116.262C201.23 110.448 202.204 109.791 205.654 108C210.506 105.481 220.591 104.869 230.154 105.499C249.979 110.633 253.3 115.071 259.154 122.999C248.514 117.264 241.751 114.92 227.154 113.499Z" fill="black"/>
<path d="M162.154 109L168.587 114.574C168.943 114.883 168.71 115.469 168.239 115.456C159.712 115.217 155.695 115.601 147.154 117.5C139.654 119.5 135.062 122.053 126.654 127C129.944 121.881 129.817 119.093 136.654 114.5C144.304 111.033 153.125 107.878 162.154 109Z" stroke="black"/>
<path d="M227.154 113.499C216.225 112.647 210.94 113.81 201.361 116.78C201.023 116.885 200.684 116.614 200.715 116.262C201.23 110.448 202.204 109.791 205.654 108C210.506 105.481 220.591 104.869 230.154 105.499C249.979 110.633 253.3 115.071 259.154 122.999C248.514 117.264 241.751 114.92 227.154 113.499Z" stroke="black"/>
</g>
</svg>
