<svg width="746" height="81" viewBox="0 0 746 81" fill="none" xmlns="http://www.w3.org/2000/svg">
<path d="M1.39648 69.2182V67.803L2.75495 67.5442V58.3367L1.39648 58.0778V56.654H11.0787V59.9676H9.26171L9.1319 58.4575H5.10845V61.8143H9.45205V63.6351H5.10845V67.4233H9.35688L9.48668 65.8786H11.2864V69.2182H1.39648ZM12.6708 69.2182V67.803L13.9341 67.5442V61.5641L12.5757 61.3052V59.8813H16.1059L16.2097 61.1067C16.5155 60.6637 16.8961 60.3215 17.3519 60.0798C17.8076 59.8324 18.3353 59.7087 18.9353 59.7087C19.541 59.7087 20.0601 59.8439 20.4927 60.1143C20.9254 60.3847 21.2513 60.7903 21.4705 61.3311C21.759 60.8248 22.1368 60.4279 22.604 60.1402C23.0712 59.8525 23.6164 59.7087 24.2393 59.7087C25.1738 59.7087 25.9093 60.0251 26.4457 60.658C26.9822 61.2908 27.2505 62.2515 27.2505 63.5402V67.5442L28.5137 67.803V69.2182H23.7375V67.803L24.897 67.5442V63.5315C24.897 62.7894 24.7729 62.2745 24.5249 61.9869C24.2826 61.6934 23.9221 61.5468 23.4433 61.5468C23.0107 61.5468 22.6501 61.6791 22.3617 61.9437C22.0733 62.2084 21.8743 62.5478 21.7647 62.962V67.5442L22.8636 67.803V69.2182H18.321V67.803L19.4198 67.5442V63.5315C19.4198 62.8182 19.2958 62.309 19.0478 62.0041C18.7998 61.6993 18.4364 61.5468 17.9575 61.5468C17.5653 61.5468 17.2308 61.6273 16.9539 61.7884C16.677 61.9437 16.452 62.1681 16.279 62.4615V67.5442L17.4384 67.803V69.2182H12.6708ZM29.3444 72.808V71.3841L30.5903 71.1252V61.5641L29.2232 61.3052V59.8813H32.7275L32.8573 60.9773C33.14 60.5688 33.4832 60.2553 33.887 60.0366C34.2908 59.8181 34.7696 59.7087 35.3233 59.7087C36.079 59.7087 36.725 59.9159 37.2615 60.3301C37.8037 60.7385 38.219 61.3138 38.5075 62.0559C38.7959 62.798 38.9401 63.6609 38.9401 64.6447V64.8259C38.9401 65.7406 38.7959 66.5431 38.5075 67.2335C38.219 67.9181 37.8037 68.4502 37.2615 68.8299C36.725 69.2096 36.0761 69.3994 35.3146 69.3994C34.7955 69.3994 34.3398 69.3074 33.9476 69.1233C33.5553 68.9392 33.2178 68.6688 32.9352 68.3121V71.1252L34.2158 71.3841V72.808H29.3444ZM34.6051 67.5959C35.2858 67.5959 35.7848 67.3456 36.1021 66.8451C36.4193 66.3447 36.578 65.6716 36.578 64.8259V64.6447C36.578 64.0291 36.5058 63.4913 36.3616 63.0311C36.2232 62.565 36.0068 62.2026 35.7127 61.9437C35.4185 61.6791 35.0436 61.5468 34.5879 61.5468C34.2129 61.5468 33.8841 61.6331 33.6014 61.8057C33.3245 61.9725 33.1024 62.2084 32.9352 62.5132V66.6984C33.1024 66.9861 33.3245 67.2076 33.6014 67.3629C33.8841 67.5182 34.2187 67.5959 34.6051 67.5959ZM43.2232 69.3994C42.2829 69.3994 41.5416 69.1549 40.9994 68.6659C40.463 68.1712 40.1947 67.4953 40.1947 66.6381C40.1947 66.0512 40.3534 65.5364 40.6706 65.0934C40.9937 64.6447 41.4667 64.2966 42.0896 64.0493C42.7184 63.7961 43.4827 63.6696 44.3826 63.6696H45.7151V62.9361C45.7151 62.4643 45.5738 62.0847 45.2911 61.7971C45.0143 61.5094 44.6047 61.3655 44.0624 61.3655C43.7683 61.3655 43.5029 61.4029 43.2664 61.4778C43.0357 61.5468 42.828 61.6475 42.6434 61.7797L42.4444 63.0311H40.7312L40.7139 60.6666C41.1869 60.379 41.7061 60.1489 42.2713 59.9763C42.8425 59.7979 43.4769 59.7087 44.1749 59.7087C45.3806 59.7087 46.3294 59.9907 47.0216 60.5544C47.7196 61.1125 48.0686 61.9149 48.0686 62.962V66.94C48.0686 67.0666 48.0686 67.1903 48.0686 67.3112C48.0744 67.4319 48.0859 67.5499 48.1032 67.6649L49.0636 67.803V69.2182H46.0785C46.015 69.0399 45.9545 68.8586 45.8968 68.6745C45.8449 68.4847 45.8074 68.2949 45.7843 68.105C45.4786 68.4904 45.1123 68.804 44.6855 69.0456C44.2643 69.2815 43.7769 69.3994 43.2232 69.3994ZM43.8028 67.6305C44.2009 67.6305 44.5729 67.5384 44.9191 67.3543C45.2709 67.1702 45.5363 66.9372 45.7151 66.6553V65.1365H44.374C43.7683 65.1365 43.3097 65.2775 42.9982 65.5594C42.6924 65.8355 42.5396 66.1635 42.5396 66.5431C42.5396 66.8883 42.6492 67.1558 42.8684 67.3456C43.0876 67.5355 43.3991 67.6305 43.8028 67.6305ZM53.4159 69.3908C52.5853 69.3908 51.9392 69.1607 51.4777 68.7005C51.022 68.2345 50.7942 67.4981 50.7942 66.4914V61.5468H49.4703V59.8813H50.7942V57.6032H53.139V59.8813H54.9301V61.5468H53.139V66.4914C53.139 66.871 53.2197 67.1443 53.3813 67.3112C53.5428 67.478 53.7591 67.5614 54.0302 67.5614C54.1802 67.5614 54.3446 67.5499 54.5234 67.5268C54.7023 67.5039 54.8522 67.4808 54.9733 67.4578L55.1983 69.1233C54.9388 69.1981 54.6503 69.2614 54.3331 69.3131C54.0216 69.3649 53.7158 69.3908 53.4159 69.3908ZM56.0203 69.2182V67.803L57.2749 67.5442V57.4393L55.9079 57.1803V55.7566H59.6198V61.0808C59.9198 60.6494 60.289 60.3128 60.7273 60.0712C61.1715 59.8296 61.6734 59.7087 62.2329 59.7087C63.1904 59.7087 63.9432 60.0194 64.4912 60.6407C65.045 61.2563 65.3219 62.2113 65.3219 63.5056V67.5442L66.5765 67.803V69.2182H61.8089V67.803L62.9684 67.5442V63.4884C62.9684 62.7923 62.8328 62.2947 62.5617 61.9955C62.2906 61.6964 61.8925 61.5468 61.3676 61.5468C60.9985 61.5468 60.6639 61.6273 60.3639 61.7884C60.064 61.9437 59.8159 62.1681 59.6198 62.4615V67.5442L60.7792 67.803V69.2182H56.0203ZM67.3985 69.2182V67.803L68.6531 67.5442V61.5641L67.2946 61.3052V59.8813H71.0066V67.5442L72.2612 67.803V69.2182H67.3985ZM68.5666 57.8362V55.7566H71.0066V57.8362H68.5666ZM73.3774 69.2182V67.7944L78.3007 61.5468H75.5666L75.2985 63.1346H73.5678V59.8813H81.1301V61.4001L76.4142 67.5182H79.3477L79.694 65.8355H81.3641V69.2182H73.3774ZM86.9276 69.3994C86.0394 69.3994 85.2634 69.2038 84.5996 68.8126C83.9425 68.4157 83.4315 67.8721 83.0682 67.1817C82.705 66.4856 82.5233 65.6917 82.5233 64.8V64.4462C82.5233 63.5315 82.6961 62.7175 83.0424 62.0041C83.3946 61.2851 83.8849 60.7241 84.5132 60.3215C85.1423 59.913 85.8688 59.7087 86.6936 59.7087C87.5419 59.7087 88.2545 59.8785 88.8311 60.2178C89.4078 60.5516 89.8434 61.0319 90.1373 61.659C90.4319 62.286 90.5788 63.0397 90.5788 63.9198V65.2228H84.9636L84.9459 65.2746C84.9688 65.7233 85.0699 66.1232 85.2486 66.4741C85.4273 66.8193 85.6783 67.0925 86.0017 67.2939C86.3244 67.4953 86.7172 67.5959 87.1787 67.5959C87.6689 67.5959 88.1156 67.5326 88.5195 67.4061C88.9293 67.2795 89.3184 67.0925 89.6876 66.8451L90.3625 68.3035C89.9874 68.6142 89.5119 68.8759 88.9345 69.0887C88.3578 69.2959 87.6889 69.3994 86.9276 69.3994ZM84.9894 63.6264H88.3637V63.4021C88.3637 63.0109 88.3061 62.6715 88.1909 62.3839C88.075 62.0904 87.8963 61.8632 87.6542 61.7021C87.4179 61.541 87.1093 61.4605 86.7283 61.4605C86.382 61.4605 86.0852 61.5555 85.8371 61.7453C85.589 61.9294 85.3933 62.1825 85.2486 62.5046C85.1046 62.821 85.0094 63.1806 84.9636 63.5833L84.9894 63.6264Z" fill="#602C0B"/>
<path d="M150.545 69.2181V67.8029L151.912 67.5182V58.3625L150.545 58.0778V56.6539H151.912H155.953C157.077 56.6539 158.064 56.9186 158.912 57.4478C159.765 57.9771 160.431 58.7049 160.911 59.6311C161.389 60.5573 161.629 61.6215 161.629 62.8239V63.0568C161.629 64.2419 161.392 65.3005 160.92 66.2324C160.452 67.1586 159.794 67.8892 158.947 68.4243C158.104 68.9535 157.121 69.2181 155.996 69.2181H150.545ZM154.265 67.4146H155.875C156.596 67.4146 157.207 67.2248 157.709 66.8451C158.211 66.4654 158.594 65.9477 158.86 65.2919C159.131 64.636 159.266 63.891 159.266 63.0568V62.8066C159.266 61.9609 159.131 61.2131 158.86 60.563C158.594 59.9072 158.211 59.3952 157.709 59.027C157.207 58.653 156.596 58.4661 155.875 58.4661H154.265V67.4146ZM167.235 69.3994C166.347 69.3994 165.571 69.2038 164.908 68.8126C164.25 68.4157 163.74 67.872 163.377 67.1817C163.014 66.4856 162.831 65.6916 162.831 64.8V64.4461C162.831 63.5314 163.005 62.7175 163.351 62.0041C163.702 61.285 164.193 60.724 164.822 60.3214C165.45 59.9129 166.177 59.7087 167.002 59.7087C167.85 59.7087 168.562 59.8784 169.139 60.2178C169.716 60.5515 170.152 61.0318 170.446 61.6589C170.74 62.2859 170.887 63.0396 170.887 63.9198V65.2228H165.271L165.254 65.2746C165.277 65.7233 165.378 66.1231 165.557 66.474C165.736 66.8192 165.987 67.0925 166.31 67.2938C166.633 67.4952 167.025 67.5959 167.486 67.5959C167.977 67.5959 168.424 67.5325 168.828 67.406C169.237 67.2794 169.627 67.0925 169.996 66.8451L170.671 68.3034C170.296 68.6141 169.82 68.8759 169.243 69.0887C168.666 69.2958 167.997 69.3994 167.235 69.3994ZM165.297 63.6263H168.672V63.4021C168.672 63.0108 168.615 62.6714 168.499 62.3838C168.384 62.0904 168.205 61.8631 167.963 61.7021C167.726 61.541 167.417 61.4604 167.037 61.4604C166.691 61.4604 166.394 61.5554 166.146 61.7452C165.898 61.9293 165.701 62.1824 165.557 62.5046C165.413 62.821 165.318 63.1806 165.271 63.5833L165.297 63.6263ZM171.891 69.2181V67.8029L173.249 67.5441V61.5467H171.839V59.8813H173.249V59.1651C173.249 58.0203 173.599 57.1372 174.296 56.5159C174.994 55.8888 175.972 55.5753 177.229 55.5753C177.668 55.5753 178.097 55.6213 178.519 55.7134C178.946 55.7996 179.439 55.9262 179.998 56.0931L179.652 57.9569C179.271 57.8362 178.902 57.7384 178.545 57.6636C178.187 57.583 177.826 57.5427 177.463 57.5427C176.823 57.5427 176.353 57.6808 176.053 57.9569C175.752 58.2273 175.602 58.63 175.602 59.1651V59.8813H181.21V67.5441L182.559 67.8029V69.2181H177.593V67.8029L178.856 67.5441V61.5467H175.602V67.5441L176.866 67.8029V69.2181H171.891ZM183.399 69.2181V67.8029L184.653 67.5441V61.564L183.304 61.3051V59.8813H186.834L186.947 61.2274C187.258 60.75 187.644 60.3789 188.106 60.1143C188.573 59.8439 189.101 59.7087 189.689 59.7087C190.629 59.7087 191.365 60.005 191.896 60.5975C192.432 61.1843 192.701 62.1077 192.701 63.3675V67.5441L193.955 67.8029V69.2181H189.187V67.8029L190.338 67.5441V63.3847C190.338 62.7175 190.206 62.2457 189.94 61.9695C189.675 61.6876 189.28 61.5467 188.755 61.5467C188.363 61.5467 188.019 61.633 187.725 61.8056C187.437 61.9725 187.197 62.2112 187.007 62.5218V67.5441L188.115 67.8029V69.2181H183.399ZM199.198 69.3994C198.31 69.3994 197.534 69.2038 196.871 68.8126C196.213 68.4157 195.703 67.872 195.339 67.1817C194.976 66.4856 194.795 65.6916 194.795 64.8V64.4461C194.795 63.5314 194.967 62.7175 195.314 62.0041C195.665 61.285 196.155 60.724 196.784 60.3214C197.413 59.9129 198.14 59.7087 198.965 59.7087C199.812 59.7087 200.525 59.8784 201.102 60.2178C201.679 60.5515 202.115 61.0318 202.408 61.6589C202.702 62.2859 202.85 63.0396 202.85 63.9198V65.2228H197.234L197.217 65.2746C197.24 65.7233 197.341 66.1231 197.52 66.474C197.698 66.8192 197.95 67.0925 198.272 67.2938C198.596 67.4952 198.988 67.5959 199.449 67.5959C199.939 67.5959 200.387 67.5325 200.791 67.406C201.2 67.2794 201.59 67.0925 201.959 66.8451L202.634 68.3034C202.259 68.6141 201.782 68.8759 201.206 69.0887C200.629 69.2958 199.96 69.3994 199.198 69.3994ZM197.26 63.6263H200.635V63.4021C200.635 63.0108 200.577 62.6714 200.461 62.3838C200.346 62.0904 200.168 61.8631 199.925 61.7021C199.688 61.541 199.38 61.4604 198.999 61.4604C198.653 61.4604 198.356 61.5554 198.108 61.7452C197.86 61.9293 197.664 62.1824 197.52 62.5046C197.376 62.821 197.281 63.1806 197.234 63.5833L197.26 63.6263Z" fill="#602C0B"/>
<path d="M282.342 69.2182V67.803L283.7 67.5442V58.3367L282.342 58.0778V56.654H287.412V58.0778L286.054 58.3367V67.5442L287.412 67.803V69.2182H282.342ZM292.119 69.3994C291.375 69.3994 290.735 69.2096 290.198 68.8299C289.662 68.4502 289.249 67.9181 288.961 67.2335C288.678 66.5431 288.537 65.7406 288.537 64.8259V64.6447C288.537 63.6609 288.678 62.798 288.961 62.0559C289.249 61.3138 289.662 60.7385 290.198 60.3301C290.735 59.9159 291.372 59.7087 292.11 59.7087C292.641 59.7087 293.103 59.8123 293.495 60.0194C293.887 60.2207 294.225 60.5113 294.507 60.891V57.4393L293.149 57.1803V55.7566H294.507H296.861V67.5442L298.115 67.803V69.2182H294.827L294.646 68.0877C294.351 68.5192 293.997 68.8471 293.582 69.0715C293.166 69.2901 292.679 69.3994 292.119 69.3994ZM292.803 67.5614C293.189 67.5614 293.523 67.478 293.806 67.3112C294.089 67.1443 294.322 66.9056 294.507 66.5949V62.5564C294.328 62.24 294.098 61.9926 293.815 61.8143C293.532 61.6359 293.201 61.5468 292.82 61.5468C292.376 61.5468 292.01 61.6791 291.721 61.9437C291.438 62.2026 291.228 62.565 291.089 63.0311C290.957 63.4913 290.89 64.0291 290.89 64.6447V64.8259C290.89 65.6716 291.04 66.3389 291.34 66.8279C291.641 67.3169 292.128 67.5614 292.803 67.5614ZM303.428 69.3994C302.54 69.3994 301.764 69.2038 301.1 68.8126C300.443 68.4157 299.932 67.8721 299.569 67.1817C299.206 66.4856 299.024 65.6917 299.024 64.8V64.4462C299.024 63.5315 299.197 62.7175 299.543 62.0041C299.895 61.2851 300.385 60.7241 301.014 60.3215C301.642 59.913 302.37 59.7087 303.194 59.7087C304.042 59.7087 304.755 59.8785 305.332 60.2178C305.909 60.5516 306.344 61.0319 306.638 61.659C306.933 62.286 307.08 63.0397 307.08 63.9198V65.2228H301.464L301.447 65.2746C301.47 65.7233 301.571 66.1232 301.749 66.4741C301.928 66.8193 302.179 67.0925 302.503 67.2939C302.825 67.4953 303.217 67.5959 303.679 67.5959C304.169 67.5959 304.616 67.5326 305.02 67.4061C305.429 67.2795 305.819 67.0925 306.188 66.8451L306.863 68.3035C306.488 68.6142 306.012 68.8759 305.435 69.0887C304.859 69.2959 304.19 69.3994 303.428 69.3994ZM301.49 63.6264H304.865V63.4021C304.865 63.0109 304.807 62.6715 304.691 62.3839C304.576 62.0904 304.397 61.8632 304.155 61.7021C303.919 61.541 303.61 61.4605 303.229 61.4605C302.883 61.4605 302.586 61.5555 302.338 61.7453C302.09 61.9294 301.893 62.1825 301.749 62.5046C301.605 62.821 301.51 63.1806 301.464 63.5833L301.49 63.6264ZM311.432 69.3994C310.492 69.3994 309.75 69.1549 309.208 68.6659C308.672 68.1712 308.404 67.4953 308.404 66.6381C308.404 66.0512 308.562 65.5364 308.879 65.0934C309.202 64.6447 309.675 64.2966 310.298 64.0493C310.927 63.7961 311.691 63.6696 312.591 63.6696H313.923V62.9361C313.923 62.4643 313.782 62.0847 313.5 61.7971C313.223 61.5094 312.813 61.3655 312.271 61.3655C311.977 61.3655 311.711 61.4029 311.475 61.4778C311.244 61.5468 311.036 61.6475 310.852 61.7797L310.653 63.0311H308.94L308.923 60.6666C309.395 60.379 309.915 60.1489 310.48 59.9763C311.051 59.7979 311.686 59.7087 312.383 59.7087C313.589 59.7087 314.538 59.9907 315.23 60.5544C315.928 61.1125 316.277 61.9149 316.277 62.962V66.94C316.277 67.0666 316.277 67.1903 316.277 67.3112C316.283 67.4319 316.294 67.5499 316.312 67.6649L317.272 67.803V69.2182H314.287C314.224 69.0399 314.163 68.8586 314.105 68.6745C314.053 68.4847 314.016 68.2949 313.993 68.105C313.687 68.4904 313.321 68.804 312.894 69.0456C312.473 69.2815 311.985 69.3994 311.432 69.3994ZM312.011 67.6305C312.41 67.6305 312.781 67.5384 313.128 67.3543C313.48 67.1702 313.745 66.9372 313.923 66.6553V65.1365H312.583C311.977 65.1365 311.518 65.2775 311.207 65.5594C310.901 65.8355 310.749 66.1635 310.749 66.5431C310.749 66.8883 310.858 67.1558 311.077 67.3456C311.296 67.5355 311.608 67.6305 312.011 67.6305ZM321.624 69.3908C320.794 69.3908 320.148 69.1607 319.686 68.7005C319.231 68.2345 319.003 67.4981 319.003 66.4914V61.5468H317.679V59.8813H319.003V57.6032H321.348V59.8813H323.139V61.5468H321.348V66.4914C321.348 66.871 321.428 67.1443 321.59 67.3112C321.751 67.478 321.968 67.5614 322.239 67.5614C322.389 67.5614 322.553 67.5499 322.732 67.5268C322.911 67.5039 323.061 67.4808 323.182 67.4578L323.407 69.1233C323.147 69.1981 322.859 69.2614 322.542 69.3131C322.23 69.3649 321.924 69.3908 321.624 69.3908ZM328.607 69.3994C327.719 69.3994 326.943 69.2038 326.28 68.8126C325.622 68.4157 325.112 67.8721 324.748 67.1817C324.384 66.4856 324.203 65.6917 324.203 64.8V64.4462C324.203 63.5315 324.376 62.7175 324.722 62.0041C325.074 61.2851 325.564 60.7241 326.193 60.3215C326.822 59.913 327.548 59.7087 328.374 59.7087C329.221 59.7087 329.934 59.8785 330.511 60.2178C331.087 60.5516 331.523 61.0319 331.817 61.659C332.111 62.286 332.258 63.0397 332.258 63.9198V65.2228H326.643L326.625 65.2746C326.649 65.7233 326.749 66.1232 326.929 66.4741C327.108 66.8193 327.359 67.0925 327.681 67.2939C328.005 67.4953 328.397 67.5959 328.858 67.5959C329.348 67.5959 329.795 67.5326 330.199 67.4061C330.609 67.2795 330.998 67.0925 331.367 66.8451L332.042 68.3035C331.668 68.6142 331.191 68.8759 330.615 69.0887C330.037 69.2959 329.368 69.3994 328.607 69.3994ZM326.669 63.6264H330.043V63.4021C330.043 63.0109 329.986 62.6715 329.87 62.3839C329.755 62.0904 329.577 61.8632 329.334 61.7021C329.097 61.541 328.789 61.4605 328.408 61.4605C328.062 61.4605 327.765 61.5555 327.517 61.7453C327.268 61.9294 327.073 62.1825 326.929 62.5046C326.784 62.821 326.689 63.1806 326.643 63.5833L326.669 63.6264Z" fill="#602C0B"/>
<path d="M409.707 69.2182V67.803L411.074 67.5182V58.3626L409.707 58.0778V56.654H411.074H415.115C416.239 56.654 417.226 56.9186 418.074 57.4479C418.928 57.9772 419.594 58.7049 420.073 59.6311C420.551 60.5573 420.791 61.6216 420.791 62.8239V63.0569C420.791 64.242 420.554 65.3005 420.082 66.2325C419.614 67.1587 418.956 67.8893 418.109 68.4243C417.266 68.9535 416.283 69.2182 415.158 69.2182H409.707ZM413.428 67.4147H415.037C415.758 67.4147 416.369 67.2249 416.871 66.8451C417.373 66.4655 417.757 65.9477 418.022 65.2919C418.293 64.636 418.428 63.891 418.428 63.0569V62.8067C418.428 61.961 418.293 61.2131 418.022 60.5631C417.757 59.9073 417.373 59.3953 416.871 59.0271C416.369 58.6531 415.758 58.4661 415.037 58.4661H413.428V67.4147ZM426.398 69.3994C425.509 69.3994 424.733 69.2038 424.07 68.8126C423.412 68.4157 422.902 67.8721 422.539 67.1817C422.176 66.4856 421.993 65.6917 421.993 64.8V64.4462C421.993 63.5315 422.167 62.7175 422.513 62.0041C422.865 61.2851 423.355 60.7241 423.984 60.3215C424.612 59.913 425.339 59.7087 426.164 59.7087C427.012 59.7087 427.724 59.8785 428.301 60.2178C428.878 60.5516 429.314 61.0319 429.608 61.659C429.902 62.286 430.049 63.0397 430.049 63.9198V65.2228H424.433L424.417 65.2746C424.439 65.7233 424.541 66.1232 424.719 66.4741C424.898 66.8193 425.149 67.0925 425.472 67.2939C425.795 67.4953 426.187 67.5959 426.649 67.5959C427.139 67.5959 427.586 67.5326 427.99 67.4061C428.399 67.2795 428.789 67.0925 429.158 66.8451L429.833 68.3035C429.458 68.6142 428.982 68.8759 428.405 69.0887C427.828 69.2959 427.16 69.3994 426.398 69.3994ZM424.459 63.6264H427.834V63.4021C427.834 63.0109 427.777 62.6715 427.661 62.3839C427.546 62.0904 427.367 61.8632 427.125 61.7021C426.888 61.541 426.579 61.4605 426.199 61.4605C425.853 61.4605 425.556 61.5555 425.308 61.7453C425.06 61.9294 424.863 62.1825 424.719 62.5046C424.575 62.821 424.48 63.1806 424.433 63.5833L424.459 63.6264ZM435.241 69.3994C434.554 69.3994 433.914 69.3362 433.32 69.2096C432.731 69.0773 432.154 68.8846 431.59 68.6314L431.563 66.0772H433.224L433.554 67.4233C433.778 67.5268 434.015 67.6074 434.263 67.6649C434.511 67.7225 434.791 67.7512 435.102 67.7512C435.696 67.7512 436.114 67.6534 436.357 67.4578C436.605 67.2565 436.729 67.0062 436.729 66.7071C436.729 66.4194 436.599 66.1721 436.339 65.9649C436.08 65.7521 435.578 65.568 434.834 65.4127C433.721 65.1768 432.902 64.823 432.377 64.3513C431.852 63.8738 431.59 63.264 431.59 62.5219C431.59 62.0041 431.722 61.5353 431.988 61.1153C432.259 60.6954 432.662 60.3589 433.199 60.1057C433.735 59.8468 434.407 59.7174 435.215 59.7174C435.925 59.7174 436.562 59.7893 437.127 59.9331C437.698 60.0769 438.179 60.261 438.572 60.4854L438.615 62.9534H436.963L436.695 61.728C436.527 61.6072 436.331 61.5152 436.106 61.4518C435.881 61.3829 435.627 61.3483 435.345 61.3483C434.883 61.3483 434.522 61.4461 434.263 61.6417C434.009 61.8373 433.882 62.0847 433.882 62.3839C433.882 62.5564 433.926 62.7146 434.012 62.8584C434.099 63.0023 434.266 63.1375 434.514 63.264C434.768 63.3848 435.137 63.4999 435.621 63.6092C436.81 63.8796 437.666 64.2391 438.191 64.6879C438.722 65.1365 438.987 65.7464 438.987 66.5172C438.987 67.3687 438.676 68.0619 438.052 68.5969C437.436 69.1319 436.498 69.3994 435.241 69.3994ZM440.129 69.2182V67.803L441.384 67.5442V61.5641L440.025 61.3052V59.8813H443.738V67.5442L444.992 67.803V69.2182H440.129ZM441.298 57.8362V55.7566H443.738V57.8362H441.298ZM450.037 72.9892C449.569 72.9892 449.047 72.9259 448.471 72.7994C447.894 72.6785 447.386 72.5089 446.947 72.2902L447.415 70.5989C447.802 70.7715 448.217 70.9067 448.661 71.0045C449.111 71.108 449.532 71.1598 449.924 71.1598C450.622 71.1598 451.132 70.9671 451.456 70.5817C451.778 70.1962 451.94 69.6583 451.94 68.968V68.2949C451.657 68.6516 451.323 68.9248 450.937 69.1147C450.55 69.3045 450.106 69.3994 449.604 69.3994C448.843 69.3994 448.188 69.2096 447.64 68.8299C447.092 68.4502 446.671 67.9181 446.377 67.2335C446.088 66.5431 445.944 65.7406 445.944 64.8259V64.6447C445.944 63.6609 446.088 62.798 446.377 62.0559C446.671 61.3138 447.086 60.7385 447.622 60.3301C448.165 59.9159 448.814 59.7087 449.569 59.7087C450.135 59.7087 450.622 59.8267 451.032 60.0625C451.447 60.2927 451.799 60.6234 452.087 61.0549L452.261 59.8813H454.302V68.9766C454.302 69.7934 454.132 70.5011 453.792 71.0994C453.452 71.7034 452.961 72.1694 452.321 72.4973C451.686 72.8252 450.925 72.9892 450.037 72.9892ZM450.262 67.5614C450.648 67.5614 450.98 67.4808 451.256 67.3198C451.533 67.1587 451.761 66.9285 451.94 66.6294V62.5219C451.767 62.217 451.539 61.9783 451.256 61.8057C450.974 61.6331 450.645 61.5468 450.27 61.5468C449.814 61.5468 449.439 61.6791 449.146 61.9437C448.857 62.2026 448.643 62.565 448.505 63.0311C448.367 63.4913 448.297 64.0291 448.297 64.6447V64.8259C448.297 65.6716 448.451 66.3389 448.756 66.8279C449.067 67.3169 449.569 67.5614 450.262 67.5614ZM453.991 61.6072L452.987 59.8813H455.41V61.3052L453.991 61.6072ZM456.128 69.2182V67.803L457.383 67.5442V61.5641L456.033 61.3052V59.8813H459.563L459.676 61.2275C459.987 60.75 460.374 60.379 460.835 60.1143C461.303 59.8439 461.83 59.7087 462.418 59.7087C463.359 59.7087 464.094 60.005 464.625 60.5976C465.161 61.1843 465.43 62.1077 465.43 63.3676V67.5442L466.684 67.803V69.2182H461.917V67.803L463.067 67.5442V63.3848C463.067 62.7175 462.935 62.2457 462.669 61.9696C462.404 61.6877 462.009 61.5468 461.484 61.5468C461.092 61.5468 460.749 61.6331 460.454 61.8057C460.166 61.9725 459.926 62.2113 459.736 62.5219V67.5442L460.844 67.803V69.2182H456.128Z" fill="#602C0B"/>
<path d="M554.422 69.2181V67.8029L555.78 67.5441V58.4574H553.366L553.202 60.0107H551.428V56.6539H562.503V60.0107H560.721L560.557 58.4574H558.133V67.5441L559.501 67.8029V69.2181H554.422ZM567.262 69.3994C566.374 69.3994 565.598 69.2038 564.934 68.8125C564.277 68.4156 563.766 67.872 563.403 67.1816C563.04 66.4856 562.858 65.6916 562.858 64.8V64.4461C562.858 63.5314 563.031 62.7174 563.377 62.0041C563.729 61.285 564.219 60.724 564.848 60.3214C565.477 59.9129 566.204 59.7087 567.028 59.7087C567.877 59.7087 568.589 59.8784 569.166 60.2178C569.743 60.5515 570.178 61.0318 570.472 61.6589C570.767 62.2859 570.914 63.0396 570.914 63.9198V65.2228H565.298L565.281 65.2745C565.304 65.7233 565.405 66.1231 565.583 66.474C565.762 66.8192 566.013 67.0925 566.337 67.2938C566.659 67.4952 567.051 67.5958 567.513 67.5958C568.003 67.5958 568.45 67.5325 568.854 67.406C569.263 67.2794 569.653 67.0925 570.022 66.8451L570.697 68.3034C570.322 68.6141 569.847 68.8759 569.269 69.0887C568.693 69.2958 568.024 69.3994 567.262 69.3994ZM565.324 63.6263H568.699V63.402C568.699 63.0108 568.641 62.6714 568.525 62.3838C568.41 62.0904 568.231 61.8631 567.989 61.7021C567.753 61.541 567.444 61.4604 567.063 61.4604C566.717 61.4604 566.42 61.5554 566.172 61.7452C565.924 61.9293 565.727 62.1824 565.583 62.5046C565.439 62.821 565.344 63.1805 565.298 63.5833L565.324 63.6263ZM576.105 69.3994C575.418 69.3994 574.778 69.3361 574.185 69.2095C573.596 69.0772 573.019 68.8845 572.454 68.6313L572.428 66.0771H574.089L574.418 67.4232C574.643 67.5268 574.879 67.6073 575.127 67.6649C575.376 67.7224 575.655 67.7511 575.967 67.7511C576.561 67.7511 576.979 67.6534 577.221 67.4578C577.47 67.2564 577.594 67.0062 577.594 66.707C577.594 66.4194 577.464 66.172 577.204 65.9649C576.945 65.7521 576.442 65.568 575.698 65.4126C574.585 65.1768 573.766 64.8229 573.241 64.3512C572.716 63.8738 572.454 63.264 572.454 62.5218C572.454 62.0041 572.586 61.5352 572.852 61.1153C573.123 60.6953 573.527 60.3588 574.063 60.1056C574.6 59.8467 575.271 59.7174 576.079 59.7174C576.789 59.7174 577.426 59.7892 577.992 59.933C578.562 60.0768 579.044 60.2609 579.437 60.4853L579.479 62.9533H577.827L577.559 61.7279C577.391 61.6072 577.196 61.5151 576.97 61.4518C576.745 61.3828 576.492 61.3482 576.209 61.3482C575.748 61.3482 575.387 61.446 575.127 61.6416C574.873 61.8373 574.746 62.0846 574.746 62.3838C574.746 62.5563 574.79 62.7146 574.876 62.8584C574.963 63.0022 575.13 63.1374 575.378 63.264C575.632 63.3847 576.002 63.4998 576.486 63.6091C577.674 63.8795 578.531 64.2391 579.055 64.6878C579.586 65.1365 579.851 65.7463 579.851 66.5172C579.851 67.3686 579.54 68.0618 578.917 68.5968C578.3 69.1318 577.362 69.3994 576.105 69.3994ZM584.663 69.3907C583.832 69.3907 583.186 69.1606 582.724 68.7004C582.269 68.2344 582.041 67.4981 582.041 66.4913V61.5467H580.717V59.8813H582.041V57.6032H584.386V59.8813H586.177V61.5467H584.386V66.4913C584.386 66.871 584.466 67.1442 584.628 67.3111C584.79 67.4779 585.006 67.5613 585.277 67.5613C585.427 67.5613 585.591 67.5498 585.77 67.5268C585.949 67.5038 586.099 67.4808 586.22 67.4578L586.445 69.1232C586.185 69.198 585.897 69.2613 585.58 69.3131C585.268 69.3648 584.962 69.3907 584.663 69.3907Z" fill="#602C0B"/>
<path d="M672.932 69.2181V67.8029L674.29 67.5441V58.3367L672.932 58.0778V56.6539H678.002V58.0778L676.643 58.3367V67.5441L678.002 67.8029V69.2181H672.932ZM682.692 69.3907C681.861 69.3907 681.215 69.1606 680.754 68.7004C680.297 68.2344 680.07 67.4981 680.07 66.4913V61.5467H678.746V59.8813H680.07V57.6032H682.415V59.8813H684.206V61.5467H682.415V66.4913C682.415 66.871 682.496 67.1442 682.657 67.3111C682.818 67.4779 683.035 67.5613 683.306 67.5613C683.456 67.5613 683.62 67.5498 683.799 67.5268C683.978 67.5038 684.128 67.4808 684.249 67.4578L684.474 69.1232C684.214 69.198 683.926 69.2613 683.609 69.3131C683.297 69.3648 682.992 69.3907 682.692 69.3907ZM689.675 69.3994C688.786 69.3994 688.01 69.2038 687.347 68.8125C686.689 68.4156 686.178 67.872 685.815 67.1816C685.452 66.4856 685.27 65.6916 685.27 64.8V64.4461C685.27 63.5314 685.443 62.7174 685.789 62.0041C686.141 61.285 686.632 60.724 687.26 60.3214C687.889 59.9129 688.616 59.7087 689.44 59.7087C690.289 59.7087 691.001 59.8784 691.578 60.2178C692.155 60.5515 692.59 61.0318 692.884 61.6589C693.179 62.2859 693.326 63.0396 693.326 63.9198V65.2228H687.71L687.693 65.2745C687.716 65.7233 687.817 66.1231 687.996 66.474C688.174 66.8192 688.425 67.0925 688.749 67.2938C689.071 67.4952 689.463 67.5958 689.925 67.5958C690.416 67.5958 690.863 67.5325 691.266 67.406C691.676 67.2794 692.065 67.0925 692.435 66.8451L693.109 68.3034C692.734 68.6141 692.259 68.8759 691.681 69.0887C691.105 69.2958 690.436 69.3994 689.675 69.3994ZM687.736 63.6263H691.111V63.402C691.111 63.0108 691.053 62.6714 690.938 62.3838C690.822 62.0904 690.643 61.8631 690.401 61.7021C690.165 61.541 689.856 61.4604 689.475 61.4604C689.129 61.4604 688.832 61.5554 688.584 61.7452C688.336 61.9293 688.14 62.1824 687.996 62.5046C687.852 62.821 687.756 63.1805 687.71 63.5833L687.736 63.6263ZM694.675 69.2181V67.8029L695.93 67.5441V61.564L694.58 61.3051V59.8813H698.11L698.214 61.0462L698.231 61.2447C698.468 60.7442 698.762 60.3645 699.114 60.1056C699.466 59.841 699.882 59.7087 700.36 59.7087C700.516 59.7087 700.683 59.7231 700.862 59.7518C701.047 59.7749 701.203 59.8065 701.33 59.8467L701.061 62.0127L699.824 61.9437C699.449 61.9264 699.14 61.9954 698.898 62.1507C698.661 62.3061 698.457 62.5276 698.284 62.8152V67.5441L699.538 67.8029V69.2181H694.675ZM705.119 69.3994C704.179 69.3994 703.437 69.1549 702.896 68.6659C702.359 68.1711 702.091 67.4952 702.091 66.638C702.091 66.0512 702.249 65.5363 702.567 65.0933C702.89 64.6447 703.363 64.2966 703.985 64.0492C704.614 63.7961 705.379 63.6695 706.279 63.6695H707.611V62.9361C707.611 62.4643 707.47 62.0846 707.187 61.797C706.91 61.5093 706.501 61.3655 705.958 61.3655C705.664 61.3655 705.399 61.4029 705.162 61.4777C704.932 61.5467 704.724 61.6474 704.539 61.7797L704.341 63.031H702.628L702.61 60.6665C703.083 60.3789 703.602 60.1488 704.168 59.9762C704.738 59.7978 705.373 59.7087 706.071 59.7087C707.276 59.7087 708.226 59.9906 708.918 60.5544C709.615 61.1124 709.965 61.9149 709.965 62.9619V66.94C709.965 67.0666 709.965 67.1903 709.965 67.3111C709.97 67.4319 709.982 67.5498 709.999 67.6649L710.96 67.8029V69.2181H707.975C707.911 69.0398 707.851 68.8586 707.793 68.6745C707.741 68.4846 707.704 68.2948 707.68 68.105C707.374 68.4904 707.008 68.8039 706.581 69.0455C706.161 69.2814 705.673 69.3994 705.119 69.3994ZM705.699 67.6304C706.097 67.6304 706.469 67.5383 706.815 67.3543C707.167 67.1702 707.432 66.9371 707.611 66.6552V65.1365H706.27C705.664 65.1365 705.206 65.2774 704.894 65.5593C704.589 65.8354 704.436 66.1634 704.436 66.5431C704.436 66.8882 704.545 67.1557 704.764 67.3456C704.984 67.5354 705.295 67.6304 705.699 67.6304ZM715.312 69.3907C714.481 69.3907 713.835 69.1606 713.374 68.7004C712.918 68.2344 712.69 67.4981 712.69 66.4913V61.5467H711.367V59.8813H712.69V57.6032H715.035V59.8813H716.826V61.5467H715.035V66.4913C715.035 66.871 715.116 67.1442 715.277 67.3111C715.439 67.4779 715.655 67.5613 715.926 67.5613C716.076 67.5613 716.241 67.5498 716.419 67.5268C716.598 67.5038 716.749 67.4808 716.87 67.4578L717.094 69.1232C716.835 69.198 716.546 69.2613 716.229 69.3131C715.918 69.3648 715.612 69.3907 715.312 69.3907ZM722.294 69.3994C721.406 69.3994 720.63 69.2038 719.967 68.8125C719.309 68.4156 718.799 67.872 718.436 67.1816C718.072 66.4856 717.89 65.6916 717.89 64.8V64.4461C717.89 63.5314 718.064 62.7174 718.41 62.0041C718.761 61.285 719.252 60.724 719.881 60.3214C720.509 59.9129 721.236 59.7087 722.061 59.7087C722.909 59.7087 723.621 59.8784 724.198 60.2178C724.775 60.5515 725.211 61.0318 725.505 61.6589C725.799 62.2859 725.946 63.0396 725.946 63.9198V65.2228H720.33L720.313 65.2745C720.336 65.7233 720.437 66.1231 720.616 66.474C720.795 66.8192 721.046 67.0925 721.368 67.2938C721.692 67.4952 722.084 67.5958 722.545 67.5958C723.036 67.5958 723.483 67.5325 723.887 67.406C724.296 67.2794 724.686 67.0925 725.055 66.8451L725.73 68.3034C725.355 68.6141 724.879 68.8759 724.302 69.0887C723.725 69.2958 723.056 69.3994 722.294 69.3994ZM720.356 63.6263H723.731V63.402C723.731 63.0108 723.674 62.6714 723.558 62.3838C723.442 62.0904 723.264 61.8631 723.022 61.7021C722.785 61.541 722.476 61.4604 722.096 61.4604C721.749 61.4604 721.453 61.5554 721.205 61.7452C720.956 61.9293 720.76 62.1824 720.616 62.5046C720.472 62.821 720.377 63.1805 720.33 63.5833L720.356 63.6263Z" fill="#602C0B"/>
<path d="M64.7361 18.4091C64.7361 8.24204 56.4718 0 46.2772 0C36.0827 0 27.8184 8.24204 27.8184 18.4091C27.8184 28.5761 36.0827 36.8182 46.2772 36.8182C56.4718 36.8182 64.7361 28.5761 64.7361 18.4091Z" fill="#602C0B"/>
<path d="M195.426 18.4091C195.426 8.24204 187.161 0 176.967 0C166.772 0 158.508 8.24204 158.508 18.4091C158.508 28.5761 166.772 36.8182 176.967 36.8182C187.161 36.8182 195.426 28.5761 195.426 18.4091Z" fill="#602C0B"/>
<path d="M326.115 18.4091C326.115 8.24204 317.851 0 307.656 0C297.462 0 289.197 8.24204 289.197 18.4091C289.197 28.5761 297.462 36.8182 307.656 36.8182C317.851 36.8182 326.115 28.5761 326.115 18.4091Z" fill="#602C0B"/>
<path d="M456.803 18.4091C456.803 8.24204 448.538 0 438.344 0C428.149 0 419.885 8.24204 419.885 18.4091C419.885 28.5761 428.149 36.8182 438.344 36.8182C448.538 36.8182 456.803 28.5761 456.803 18.4091Z" fill="#602C0B"/>
<path d="M587.492 18.4091C587.492 8.24204 579.228 0 569.033 0C558.839 0 550.574 8.24204 550.574 18.4091C550.574 28.5761 558.839 36.8182 569.033 36.8182C579.228 36.8182 587.492 28.5761 587.492 18.4091Z" fill="#602C0B"/>
<path d="M718.181 18.4091C718.181 8.24204 709.917 0 699.723 0C689.528 0 681.264 8.24204 681.264 18.4091C681.264 28.5761 689.528 36.8182 699.723 36.8182C709.917 36.8182 718.181 28.5761 718.181 18.4091Z" fill="#602C0B"/>
<path d="M46.2773 16.9364H699.721" stroke="#602C0B" stroke-width="4"/>
</svg>
