<svg width="554" height="410" viewBox="0 0 554 410" fill="none" xmlns="http://www.w3.org/2000/svg">
<g filter="url(#filter0_d_296_5325)">
<g clip-path="url(#clip0_296_5325)">
<path d="M549.191 0H4V402H549.191V0Z" fill="#FFF7CA"/>
<path d="M276.6 197.316L215.939 257.988C182.436 291.497 128.118 291.497 94.6154 257.988C77.8638 241.234 69.4882 218.866 69.4883 196.906" stroke="#663F06" stroke-width="30" stroke-linecap="round"/>
<path d="M308.607 207.393L298 196.787L276.787 218L287.393 228.607L308.607 207.393ZM320.393 261.607C326.251 267.464 335.749 267.464 341.607 261.607C347.464 255.749 347.464 246.251 341.607 240.393L320.393 261.607ZM287.393 228.607L320.393 261.607L341.607 240.393L308.607 207.393L287.393 228.607Z" fill="#F09700"/>
<path d="M336.678 257.824C370.18 291.332 424.498 291.332 458 257.824C474.752 241.07 483.695 218.865 483.695 196.906" stroke="#F4B54B" stroke-width="30" stroke-linecap="round"/>
<path d="M215.936 136.479C182.433 102.971 128.116 102.971 94.6131 136.479C77.862 153.234 69.4864 175.193 69.4863 197.151" stroke="#3E2C0F" stroke-width="30" stroke-linecap="round"/>
<path d="M253.393 194.607L264 205.213L285.213 184L274.607 173.393L253.393 194.607ZM231.607 130.393C225.749 124.536 216.251 124.536 210.393 130.393C204.536 136.251 204.536 145.749 210.393 151.607L231.607 130.393ZM274.607 173.393L231.607 130.393L210.393 151.607L253.393 194.607L274.607 173.393Z" fill="#F09700"/>
<path d="M276.594 197.152L337.255 136.479C370.757 102.971 425.075 102.971 458.578 136.479C475.33 153.234 483.705 175.193 483.705 197.152" stroke="#FD5E00" stroke-width="30" stroke-linecap="round"/>
<path d="M70.0234 69.5926V67.9136L71.5104 67.6258V57.5994L70.0234 57.3116V55.6229H80.8634V59.3936H78.7146L78.5899 57.7817H74.3115V61.2933H79.0408V63.4521H74.3115V67.4434H78.8201L78.9449 65.7739H81.0744V69.5926H70.0234ZM82.5326 69.5926V67.9136L83.8851 67.6258V61.1878L82.3887 60.8999V59.2113H86.4851L86.5997 60.5833C86.9321 60.0844 87.3479 59.7006 87.8473 59.4319C88.3523 59.1569 88.9344 59.0194 89.5925 59.0194C90.258 59.0194 90.8269 59.1665 91.3001 59.4607C91.7798 59.755 92.1383 60.1995 92.3749 60.7944C92.695 60.2379 93.11 59.803 93.6216 59.4896C94.1332 59.1761 94.7349 59.0194 95.4258 59.0194C96.449 59.0194 97.2545 59.368 97.8431 60.0652C98.4374 60.7624 98.7345 61.8242 98.7345 63.2506V67.6258L100.088 67.9136V69.5926H94.7251V67.9136L95.9341 67.6258V63.241C95.9341 62.4735 95.8056 61.9425 95.5502 61.6483C95.3005 61.3477 94.9363 61.1974 94.4566 61.1974C94.0219 61.1974 93.6535 61.3221 93.3531 61.5715C93.0527 61.8146 92.8349 62.1376 92.7007 62.5406V67.6258L93.8328 67.9136V69.5926H88.7772V67.9136L89.9093 67.6258V63.241C89.9093 62.4926 89.7816 61.9649 89.5254 61.6579C89.2765 61.3509 88.9057 61.1974 88.4129 61.1974C88.0167 61.1974 87.6745 61.2774 87.3864 61.4373C87.0991 61.5972 86.8625 61.8274 86.6767 62.128V67.6258L87.8857 67.9136V69.5926H82.5326ZM100.97 73.584V71.8953L102.322 71.6074V61.1878L100.826 60.8999V59.2113H104.894L105.028 60.4202C105.335 59.9725 105.706 59.627 106.14 59.3839C106.576 59.1409 107.093 59.0194 107.695 59.0194C108.532 59.0194 109.249 59.2497 109.844 59.7102C110.438 60.1644 110.892 60.8008 111.206 61.6195C111.525 62.4383 111.685 63.3945 111.685 64.4883V64.6898C111.685 65.7132 111.525 66.6087 111.206 67.3763C110.892 68.1375 110.435 68.7323 109.834 69.1609C109.239 69.583 108.52 69.7941 107.675 69.7941C107.119 69.7941 106.627 69.695 106.198 69.4967C105.776 69.292 105.415 68.9945 105.114 68.6044V71.6074L106.467 71.8953V73.584H100.97ZM106.841 67.6449C107.557 67.6449 108.075 67.3795 108.395 66.8485C108.721 66.3177 108.884 65.5981 108.884 64.6898V64.4883C108.884 63.8294 108.811 63.257 108.663 62.7709C108.517 62.2783 108.289 61.8946 107.982 61.6195C107.682 61.3381 107.295 61.1974 106.821 61.1974C106.438 61.1974 106.099 61.2837 105.805 61.4564C105.517 61.6291 105.287 61.8754 105.114 62.1952V66.743C105.287 67.0373 105.517 67.2611 105.805 67.4146C106.099 67.5681 106.444 67.6449 106.841 67.6449ZM116.405 69.7941C115.376 69.7941 114.557 69.5191 113.949 68.969C113.341 68.4125 113.038 67.6577 113.038 66.7047C113.038 66.0522 113.214 65.4798 113.566 64.9872C113.923 64.4947 114.448 64.1077 115.139 63.8263C115.836 63.5449 116.693 63.4041 117.709 63.4041H119.081V62.6365C119.081 62.1376 118.934 61.7346 118.64 61.4276C118.352 61.1142 117.917 60.9575 117.335 60.9575C117.035 60.9575 116.766 60.9959 116.53 61.0727C116.293 61.143 116.076 61.2453 115.877 61.3797L115.656 62.7517H113.642L113.604 60.0556C114.148 59.7486 114.736 59.4991 115.369 59.3072C116.002 59.1153 116.709 59.0194 117.489 59.0194C118.845 59.0194 119.916 59.3361 120.702 59.9693C121.489 60.5961 121.883 61.4948 121.883 62.6654V66.9445C121.883 67.0852 121.883 67.226 121.883 67.3666C121.889 67.501 121.901 67.6322 121.921 67.76L123.005 67.9136V69.5926H119.532C119.462 69.4135 119.392 69.2216 119.321 69.017C119.251 68.8123 119.199 68.6076 119.167 68.4029C118.835 68.8251 118.442 69.1641 117.988 69.4199C117.54 69.6694 117.013 69.7941 116.405 69.7941ZM117.153 67.7216C117.543 67.7216 117.914 67.6353 118.266 67.4626C118.618 67.2835 118.89 67.05 119.081 66.7622V65.1216H117.7C117.086 65.1216 116.619 65.2622 116.3 65.5437C115.986 65.8251 115.829 66.1642 115.829 66.5608C115.829 66.9317 115.945 67.2196 116.175 67.4243C116.411 67.6226 116.738 67.7216 117.153 67.7216ZM127.734 69.7941C126.769 69.7941 126.023 69.5287 125.499 68.9977C124.981 68.4669 124.722 67.6258 124.722 66.4744V61.1782H123.292V59.2113H124.722V56.6687H127.514V59.2113H129.423V61.1782H127.514V66.4648C127.514 66.8678 127.596 67.1556 127.763 67.3283C127.935 67.501 128.169 67.5874 128.463 67.5874C128.623 67.5874 128.789 67.5778 128.962 67.5585C129.141 67.533 129.294 67.5074 129.423 67.4818L129.663 69.5062C129.374 69.5894 129.061 69.6566 128.722 69.7077C128.39 69.7653 128.061 69.7941 127.734 69.7941ZM130.564 69.5926V67.9136L131.917 67.6258V56.6015L130.421 56.3137V54.6251H134.708V60.5353C135.034 60.0556 135.437 59.6846 135.917 59.4223C136.403 59.1537 136.953 59.0194 137.567 59.0194C138.609 59.0194 139.434 59.368 140.041 60.0652C140.655 60.756 140.962 61.8274 140.962 63.2794V67.6258L142.306 67.9136V69.5926H136.953V67.9136L138.162 67.6258V63.2602C138.162 62.5119 138.021 61.9809 137.74 61.6675C137.458 61.3541 137.045 61.1974 136.502 61.1974C136.124 61.1974 135.779 61.2774 135.466 61.4373C135.159 61.5908 134.906 61.8178 134.708 62.1184V67.6258L135.917 67.9136V69.5926H130.564ZM143.121 69.5926V67.9136L144.473 67.6258V61.1878L142.977 60.8999V59.2113H147.274V67.6258L148.618 67.9136V69.5926H143.121ZM144.378 57.0141V54.6251H147.274V57.0141H144.378ZM149.797 69.5926V67.9424L155.198 61.1685H152.397L152.08 62.9436H150.028V59.2113H158.556V61.0055L153.462 67.5874H156.398L156.81 65.6781H158.777V69.5926H149.797ZM165.003 69.7941C164.011 69.7941 163.145 69.5767 162.403 69.1417C161.661 68.7004 161.085 68.0959 160.676 67.3283C160.273 66.5608 160.072 65.6845 160.072 64.6994V64.3156C160.072 63.2858 160.264 62.3743 160.647 61.5811C161.031 60.7816 161.571 60.1548 162.269 59.7006C162.972 59.2401 163.8 59.013 164.753 59.0194C165.693 59.0194 166.483 59.2049 167.122 59.5759C167.762 59.9469 168.248 60.481 168.581 61.1782C168.913 61.8754 169.079 62.7197 169.079 63.7111V65.2367H162.978L162.96 65.2942C162.997 65.7484 163.109 66.1546 163.295 66.5128C163.487 66.8646 163.755 67.1428 164.101 67.3475C164.446 67.5458 164.865 67.6449 165.357 67.6449C165.869 67.6449 166.345 67.581 166.786 67.453C167.234 67.3187 167.669 67.1236 168.091 66.8678L168.849 68.5947C168.42 68.9402 167.88 69.228 167.228 69.4583C166.582 69.6822 165.84 69.7941 165.003 69.7941ZM162.997 63.385H166.461V63.1355C166.461 62.7133 166.403 62.3519 166.288 62.0513C166.179 61.7443 166 61.5076 165.751 61.3413C165.508 61.175 165.191 61.0918 164.801 61.0918C164.43 61.0918 164.117 61.191 163.861 61.3893C163.605 61.5811 163.403 61.8466 163.257 62.1856C163.116 62.5246 163.02 62.9084 162.969 63.337L162.997 63.385Z" fill="#3E2C0F"/>
<path d="M70.0234 347.145V345.465L71.5104 345.178V335.152L70.0234 334.864V333.175H75.7984V334.864L74.3115 335.152V345.178L75.7984 345.465V347.145H70.0234ZM80.9306 347.346C80.1056 347.346 79.3957 347.135 78.8009 346.713C78.2126 346.284 77.7617 345.69 77.4484 344.928C77.135 344.16 76.9783 343.265 76.9783 342.242V342.041C76.9783 340.947 77.135 339.99 77.4484 339.172C77.7681 338.353 78.2222 337.716 78.8105 337.262C79.3989 336.801 80.1024 336.571 80.921 336.571C81.4902 336.571 81.9889 336.687 82.4175 336.917C82.8459 337.14 83.2168 337.461 83.5302 337.876V334.154L82.0337 333.865V332.177H83.5302H86.3312V345.178L87.6745 345.465V347.145H83.9044L83.6933 345.878C83.3671 346.358 82.9771 346.722 82.523 346.972C82.0753 347.222 81.5445 347.346 80.9306 347.346ZM81.7651 345.168C82.1553 345.168 82.4974 345.085 82.7916 344.918C83.0858 344.752 83.332 344.512 83.5302 344.199V339.795C83.3384 339.462 83.0954 339.207 82.8012 339.028C82.507 338.842 82.1681 338.749 81.7843 338.749C81.3175 338.749 80.9338 338.89 80.6332 339.172C80.339 339.447 80.1216 339.83 79.9809 340.323C79.8465 340.816 79.7794 341.388 79.7794 342.041V342.242C79.7794 343.15 79.9329 343.866 80.2399 344.391C80.5468 344.909 81.0553 345.168 81.7651 345.168ZM93.516 347.346C92.5255 347.346 91.6586 347.128 90.917 346.693C90.1745 346.252 89.5991 345.648 89.1898 344.88C88.787 344.113 88.5856 343.237 88.5856 342.251V341.868C88.5856 340.838 88.7772 339.927 89.1611 339.133C89.545 338.333 90.0853 337.707 90.7827 337.253C91.4859 336.792 92.3143 336.565 93.2672 336.571C94.2069 336.571 94.9968 336.756 95.6362 337.128C96.2763 337.499 96.7617 338.033 97.0949 338.73C97.4272 339.427 97.5934 340.271 97.5934 341.263V342.789H91.4925L91.4728 342.846C91.5113 343.301 91.6234 343.707 91.8092 344.065C92.0008 344.417 92.2693 344.695 92.6147 344.9C92.9602 345.098 93.3793 345.197 93.8713 345.197C94.3829 345.197 94.8593 345.133 95.3005 345.005C95.7483 344.871 96.183 344.675 96.6054 344.42L97.3634 346.147C96.9344 346.492 96.3942 346.78 95.7418 347.01C95.0959 347.234 94.3542 347.346 93.516 347.346ZM91.5113 340.937H94.9747V340.687C94.9747 340.266 94.9166 339.904 94.802 339.603C94.6931 339.296 94.5139 339.06 94.265 338.893C94.0219 338.727 93.7051 338.644 93.3146 338.644C92.9438 338.644 92.6303 338.743 92.3749 338.941C92.1187 339.133 91.9173 339.399 91.7708 339.737C91.63 340.076 91.5342 340.46 91.4826 340.889L91.5113 340.937ZM102.381 347.346C101.351 347.346 100.532 347.071 99.9248 346.521C99.3165 345.965 99.0128 345.21 99.0128 344.257C99.0128 343.604 99.1888 343.032 99.5408 342.539C99.8986 342.046 100.423 341.66 101.114 341.378C101.811 341.097 102.668 340.956 103.685 340.956H105.057V340.189C105.057 339.69 104.909 339.286 104.615 338.979C104.327 338.667 103.892 338.509 103.31 338.509C103.01 338.509 102.742 338.548 102.505 338.625C102.268 338.695 102.051 338.798 101.853 338.932L101.632 340.304H99.6178L99.5793 337.608C100.123 337.301 100.711 337.051 101.344 336.86C101.977 336.667 102.684 336.571 103.464 336.571C104.82 336.571 105.891 336.888 106.678 337.521C107.465 338.148 107.858 339.046 107.858 340.217V344.497C107.858 344.638 107.858 344.778 107.858 344.918C107.864 345.053 107.877 345.184 107.896 345.312L108.98 345.465V347.145H105.508C105.437 346.965 105.367 346.774 105.296 346.569C105.226 346.364 105.175 346.16 105.143 345.955C104.81 346.377 104.417 346.716 103.963 346.972C103.515 347.222 102.988 347.346 102.381 347.346ZM103.129 345.274C103.518 345.274 103.889 345.187 104.241 345.014C104.593 344.836 104.865 344.602 105.057 344.314V342.673H103.676C103.062 342.673 102.594 342.814 102.275 343.096C101.961 343.377 101.804 343.716 101.804 344.113C101.804 344.484 101.92 344.772 102.15 344.977C102.386 345.175 102.713 345.274 103.129 345.274ZM113.709 347.346C112.744 347.346 111.999 347.081 111.474 346.549C110.956 346.019 110.697 345.178 110.697 344.026V338.73H109.268V336.763H110.697V334.221H113.489V336.763H115.398V338.73H113.489V344.017C113.489 344.42 113.571 344.707 113.738 344.88C113.911 345.053 114.144 345.139 114.438 345.139C114.598 345.139 114.764 345.13 114.937 345.111C115.116 345.085 115.27 345.059 115.398 345.034L115.638 347.059C115.349 347.141 115.037 347.208 114.697 347.26C114.365 347.317 114.036 347.346 113.709 347.346ZM121.432 347.346C120.44 347.346 119.574 347.128 118.832 346.693C118.09 346.252 117.515 345.648 117.105 344.88C116.703 344.113 116.501 343.237 116.501 342.251V341.868C116.501 340.838 116.693 339.927 117.077 339.133C117.46 338.333 118.001 337.707 118.698 337.253C119.401 336.792 120.229 336.565 121.182 336.571C122.122 336.571 122.912 336.756 123.552 337.128C124.191 337.499 124.677 338.033 125.01 338.73C125.342 339.427 125.509 340.271 125.509 341.263V342.789H119.407L119.388 342.846C119.427 343.301 119.539 343.707 119.724 344.065C119.916 344.417 120.185 344.695 120.529 344.9C120.875 345.098 121.294 345.197 121.787 345.197C122.298 345.197 122.775 345.133 123.216 345.005C123.664 344.871 124.099 344.675 124.52 344.42L125.278 346.147C124.85 346.492 124.31 346.78 123.657 347.01C123.011 347.234 122.269 347.346 121.432 347.346ZM119.427 340.937H122.89V340.687C122.89 340.266 122.832 339.904 122.717 339.603C122.609 339.296 122.429 339.06 122.18 338.893C121.937 338.727 121.621 338.644 121.23 338.644C120.859 338.644 120.546 338.743 120.29 338.941C120.034 339.133 119.833 339.399 119.686 339.737C119.545 340.076 119.449 340.46 119.398 340.889L119.427 340.937Z" fill="#663F06"/>
<path d="M419.562 69.5927V67.9136L421.069 67.597V57.6378L419.562 57.3116V55.623H421.069H425.693C426.94 55.623 428.04 55.9172 428.993 56.5057C429.946 57.0878 430.687 57.8969 431.218 58.9331C431.755 59.963 432.024 61.1463 432.024 62.4831V62.7422C432.024 64.0662 431.759 65.2463 431.227 66.2825C430.704 67.3123 429.968 68.1215 429.021 68.71C428.075 69.2984 426.978 69.5927 425.731 69.5927H419.562ZM423.87 67.4531H425.587C426.361 67.4531 427.017 67.2516 427.554 66.8486C428.091 66.4392 428.5 65.8796 428.781 65.1696C429.07 64.4596 429.213 63.6505 429.213 62.7422V62.4735C429.213 61.5525 429.07 60.7401 428.781 60.0365C428.5 59.3265 428.091 58.7732 427.554 58.3766C427.017 57.9737 426.361 57.7722 425.587 57.7722H423.87V67.4531ZM438.279 69.7942C437.287 69.7942 436.421 69.5767 435.679 69.1417C434.937 68.7004 434.361 68.096 433.952 67.3284C433.549 66.5608 433.348 65.6845 433.348 64.6994V64.3157C433.348 63.2859 433.539 62.3744 433.923 61.5812C434.307 60.7817 434.847 60.1549 435.545 59.7007C436.248 59.2402 437.076 59.0131 438.029 59.0194C438.969 59.0194 439.759 59.205 440.398 59.5759C441.038 59.947 441.524 60.4811 441.857 61.1783C442.189 61.8754 442.355 62.7198 442.355 63.7112V65.2368H436.254L436.235 65.2943C436.273 65.7485 436.385 66.1547 436.571 66.5128C436.763 66.8647 437.031 67.1429 437.377 67.3476C437.722 67.5458 438.141 67.645 438.633 67.645C439.145 67.645 439.621 67.5811 440.062 67.4531C440.51 67.3188 440.945 67.1237 441.367 66.8679L442.125 68.5948C441.696 68.9402 441.156 69.2281 440.504 69.4583C439.858 69.6823 439.116 69.7942 438.279 69.7942ZM436.273 63.385H439.737V63.1356C439.737 62.7134 439.679 62.3519 439.564 62.0514C439.455 61.7444 439.276 61.5077 439.027 61.3414C438.784 61.1751 438.467 61.0919 438.077 61.0919C437.706 61.0919 437.393 61.1911 437.137 61.3894C436.881 61.5812 436.679 61.8467 436.533 62.1857C436.392 62.5247 436.296 62.9084 436.245 63.337L436.273 63.385ZM443.42 69.5927V67.9136L444.917 67.6258V61.1783H443.372V59.2113H444.917V58.5013C444.917 57.1965 445.313 56.1923 446.106 55.4886C446.906 54.7786 448.028 54.4237 449.473 54.4237C449.972 54.4237 450.464 54.4749 450.951 54.5772C451.437 54.6731 451.999 54.8138 452.638 54.9994L452.236 57.2061C451.795 57.0717 451.373 56.9662 450.969 56.8895C450.567 56.8063 450.164 56.7647 449.761 56.7647C449.064 56.7647 448.549 56.9118 448.216 57.2061C447.884 57.5004 447.718 57.9321 447.718 58.5013V59.2113H454.01V67.6258L455.498 67.9136V69.5927H449.857V67.9136L451.209 67.6258V61.1783H447.718V67.6258L449.07 67.9136V69.5927H443.42ZM456.38 69.5927V67.9136L457.723 67.6258V61.1879L456.236 60.9V59.2113H460.332L460.457 60.6985C460.802 60.1676 461.228 59.7551 461.733 59.4608C462.245 59.1666 462.827 59.0194 463.479 59.0194C464.508 59.0194 465.314 59.3489 465.896 60.0077C466.478 60.6666 466.769 61.6996 466.769 63.1067V67.6258L468.112 67.9136V69.5927H462.76V67.9136L463.959 67.6258V63.1163C463.959 62.4192 463.821 61.9266 463.546 61.6388C463.271 61.3446 462.862 61.1974 462.318 61.1974C461.916 61.1974 461.564 61.2838 461.263 61.4565C460.968 61.6228 460.723 61.8627 460.524 62.1761V67.6258L461.656 67.9136V69.5927H456.38ZM473.887 69.7942C472.896 69.7942 472.029 69.5767 471.288 69.1417C470.546 68.7004 469.97 68.096 469.56 67.3284C469.158 66.5608 468.956 65.6845 468.956 64.6994V64.3157C468.956 63.2859 469.148 62.3744 469.532 61.5812C469.916 60.7817 470.456 60.1549 471.153 59.7007C471.857 59.2402 472.685 59.0131 473.638 59.0194C474.578 59.0194 475.367 59.205 476.007 59.5759C476.647 59.947 477.132 60.4811 477.465 61.1783C477.798 61.8754 477.964 62.7198 477.964 63.7112V65.2368H471.863L471.843 65.2943C471.882 65.7485 471.994 66.1547 472.18 66.5128C472.371 66.8647 472.64 67.1429 472.985 67.3476C473.331 67.5458 473.75 67.645 474.242 67.645C474.754 67.645 475.23 67.5811 475.671 67.4531C476.119 67.3188 476.554 67.1237 476.976 66.8679L477.734 68.5948C477.305 68.9402 476.765 69.2281 476.112 69.4583C475.466 69.6823 474.725 69.7942 473.887 69.7942ZM471.882 63.385H475.345V63.1356C475.345 62.7134 475.287 62.3519 475.173 62.0514C475.064 61.7444 474.885 61.5077 474.636 61.3414C474.393 61.1751 474.076 61.0919 473.685 61.0919C473.314 61.0919 473.002 61.1911 472.746 61.3894C472.489 61.5812 472.288 61.8467 472.141 62.1857C472.001 62.5247 471.905 62.9084 471.853 63.337L471.882 63.385Z" fill="#FD5E00"/>
<path d="M259.876 320.945V319.266L261.372 318.978V309.134H258.831L258.677 310.803H256.557V306.976H269.018V310.803H266.888L266.735 309.134H264.174V318.978L265.68 319.266V320.945H259.876ZM274.265 321.146C273.274 321.146 272.408 320.929 271.665 320.494C270.924 320.053 270.348 319.448 269.939 318.68C269.536 317.913 269.335 317.037 269.335 316.051V315.668C269.335 314.638 269.526 313.727 269.91 312.934C270.294 312.134 270.834 311.507 271.531 311.053C272.235 310.592 273.063 310.365 274.016 310.372C274.956 310.372 275.746 310.557 276.385 310.929C277.025 311.299 277.511 311.833 277.843 312.531C278.176 313.228 278.343 314.072 278.343 315.063V316.589H272.242L272.222 316.647C272.26 317.101 272.373 317.507 272.558 317.865C272.75 318.217 273.018 318.495 273.364 318.7C273.709 318.898 274.128 318.997 274.62 318.997C275.132 318.997 275.609 318.933 276.05 318.806C276.498 318.671 276.932 318.476 277.355 318.22L278.112 319.947C277.684 320.292 277.143 320.581 276.491 320.811C275.845 321.034 275.103 321.146 274.265 321.146ZM272.26 314.737H275.723V314.488C275.723 314.066 275.666 313.704 275.55 313.404C275.442 313.097 275.263 312.86 275.013 312.694C274.77 312.528 274.454 312.444 274.064 312.444C273.693 312.444 273.379 312.543 273.124 312.741C272.868 312.934 272.667 313.199 272.519 313.538C272.378 313.877 272.283 314.261 272.232 314.689L272.26 314.737ZM284.108 321.146C283.334 321.146 282.611 321.073 281.939 320.926C281.275 320.779 280.635 320.568 280.021 320.292L279.992 317.356H281.939L282.314 318.853C282.531 318.962 282.768 319.049 283.023 319.113C283.286 319.177 283.583 319.208 283.916 319.208C284.543 319.208 284.984 319.106 285.239 318.901C285.495 318.697 285.623 318.441 285.623 318.133C285.623 317.846 285.486 317.593 285.211 317.376C284.942 317.152 284.402 316.957 283.59 316.791C282.362 316.534 281.457 316.138 280.875 315.601C280.292 315.063 280.002 314.376 280.002 313.538C280.002 312.962 280.146 312.438 280.433 311.964C280.728 311.491 281.172 311.11 281.767 310.823C282.368 310.535 283.135 310.391 284.069 310.391C284.85 310.391 285.563 310.468 286.208 310.622C286.861 310.768 287.408 310.964 287.849 311.206L287.878 314.046H285.94L285.643 312.684C285.47 312.556 285.265 312.46 285.029 312.397C284.798 312.332 284.536 312.3 284.242 312.3C283.749 312.3 283.372 312.399 283.11 312.598C282.848 312.796 282.716 313.052 282.716 313.365C282.716 313.544 282.761 313.711 282.851 313.865C282.947 314.018 283.132 314.162 283.407 314.296C283.682 314.43 284.082 314.558 284.606 314.68C285.892 314.974 286.829 315.368 287.417 315.86C288.005 316.346 288.3 317.031 288.3 317.913C288.3 318.879 287.948 319.66 287.245 320.254C286.547 320.849 285.502 321.146 284.108 321.146ZM293.653 321.146C292.687 321.146 291.942 320.881 291.417 320.35C290.899 319.819 290.64 318.978 290.64 317.826V312.531H289.211V310.563H290.64V308.021H293.432V310.563H295.341V312.531H293.432V317.817C293.432 318.22 293.515 318.508 293.681 318.68C293.854 318.853 294.087 318.94 294.381 318.94C294.542 318.94 294.708 318.93 294.881 318.911C295.059 318.885 295.213 318.86 295.341 318.834L295.58 320.859C295.293 320.942 294.98 321.009 294.641 321.06C294.308 321.118 293.979 321.146 293.653 321.146Z" fill="#F09700"/>
<path d="M419.562 347.145V345.465L421.069 345.149V335.189L419.562 334.864V333.175H421.069H425.693C426.94 333.175 428.04 333.469 428.993 334.058C429.946 334.64 430.687 335.449 431.218 336.485C431.755 337.515 432.024 338.699 432.024 340.035V340.294C432.024 341.618 431.759 342.798 431.227 343.834C430.704 344.864 429.968 345.673 429.021 346.262C428.075 346.851 426.978 347.145 425.731 347.145H419.562ZM423.87 345.005H425.587C426.361 345.005 427.017 344.804 427.554 344.4C428.091 343.991 428.5 343.432 428.781 342.722C429.07 342.011 429.213 341.202 429.213 340.294V340.026C429.213 339.105 429.07 338.292 428.781 337.588C428.5 336.878 428.091 336.325 427.554 335.929C427.017 335.526 426.361 335.324 425.587 335.324H423.87V345.005ZM438.279 347.346C437.287 347.346 436.421 347.128 435.679 346.693C434.937 346.252 434.361 345.648 433.952 344.88C433.549 344.113 433.348 343.237 433.348 342.251V341.868C433.348 340.838 433.539 339.927 433.923 339.133C434.307 338.333 434.847 337.707 435.545 337.253C436.248 336.792 437.076 336.565 438.029 336.571C438.969 336.571 439.759 336.756 440.398 337.128C441.038 337.499 441.524 338.033 441.857 338.73C442.189 339.427 442.355 340.271 442.355 341.263V342.789H436.254L436.235 342.846C436.273 343.301 436.385 343.707 436.571 344.065C436.763 344.417 437.031 344.695 437.377 344.9C437.722 345.098 438.141 345.197 438.633 345.197C439.145 345.197 439.621 345.133 440.062 345.005C440.51 344.871 440.945 344.675 441.367 344.42L442.125 346.147C441.696 346.492 441.156 346.78 440.504 347.01C439.858 347.234 439.116 347.346 438.279 347.346ZM436.273 340.937H439.737V340.687C439.737 340.266 439.679 339.904 439.564 339.603C439.455 339.296 439.276 339.06 439.027 338.893C438.784 338.727 438.467 338.644 438.077 338.644C437.706 338.644 437.393 338.743 437.137 338.941C436.881 339.133 436.679 339.399 436.533 339.737C436.392 340.076 436.296 340.46 436.245 340.889L436.273 340.937ZM448.121 347.346C447.347 347.346 446.624 347.272 445.953 347.126C445.288 346.978 444.648 346.767 444.034 346.492L444.006 343.556H445.953L446.327 345.053C446.544 345.162 446.781 345.248 447.037 345.312C447.299 345.376 447.596 345.408 447.929 345.408C448.555 345.408 448.997 345.306 449.253 345.101C449.508 344.896 449.637 344.64 449.637 344.333C449.637 344.046 449.499 343.793 449.224 343.576C448.955 343.351 448.415 343.157 447.602 342.99C446.375 342.734 445.47 342.338 444.888 341.801C444.306 341.263 444.015 340.576 444.015 339.737C444.015 339.162 444.159 338.637 444.447 338.164C444.741 337.691 445.185 337.31 445.78 337.023C446.381 336.734 447.148 336.59 448.082 336.59C448.862 336.59 449.575 336.667 450.221 336.821C450.874 336.968 451.42 337.163 451.862 337.406L451.89 340.246H449.953L449.656 338.884C449.483 338.756 449.278 338.66 449.042 338.596C448.812 338.531 448.549 338.5 448.255 338.5C447.762 338.5 447.386 338.599 447.123 338.798C446.861 338.996 446.73 339.251 446.73 339.565C446.73 339.744 446.774 339.91 446.864 340.064C446.96 340.217 447.146 340.361 447.421 340.496C447.695 340.63 448.095 340.758 448.619 340.88C449.905 341.174 450.842 341.567 451.43 342.059C452.019 342.546 452.313 343.23 452.313 344.113C452.313 345.079 451.961 345.859 451.258 346.454C450.56 347.049 449.515 347.346 448.121 347.346ZM453.502 347.145V345.465L454.855 345.178V338.739L453.358 338.452V336.763H457.656V345.178L458.999 345.465V347.145H453.502ZM454.759 334.566V332.177H457.656V334.566H454.759ZM464.515 351.337C463.991 351.337 463.402 351.27 462.75 351.136C462.097 351.002 461.522 350.81 461.023 350.56L461.541 348.564C461.988 348.757 462.462 348.907 462.961 349.015C463.466 349.131 463.936 349.188 464.371 349.188C465.12 349.188 465.666 348.98 466.011 348.564C466.363 348.149 466.539 347.57 466.539 346.828V346.147C466.232 346.537 465.871 346.834 465.455 347.039C465.039 347.244 464.563 347.346 464.026 347.346C463.181 347.346 462.456 347.135 461.848 346.713C461.24 346.284 460.777 345.686 460.457 344.918C460.138 344.151 459.977 343.259 459.977 342.242V342.041C459.977 340.947 460.138 339.99 460.457 339.172C460.777 338.353 461.234 337.716 461.829 337.262C462.424 336.801 463.137 336.571 463.968 336.571C464.588 336.571 465.122 336.702 465.57 336.964C466.018 337.221 466.398 337.588 466.712 338.068L466.913 336.763H469.35V346.838C469.35 347.752 469.154 348.545 468.765 349.217C468.381 349.889 467.827 350.41 467.105 350.781C466.383 351.152 465.519 351.337 464.515 351.337ZM464.813 345.168C465.209 345.168 465.551 345.091 465.839 344.938C466.126 344.778 466.36 344.548 466.539 344.247V339.737C466.36 339.424 466.123 339.181 465.829 339.008C465.541 338.836 465.205 338.749 464.822 338.749C464.342 338.749 463.952 338.89 463.652 339.172C463.351 339.447 463.13 339.83 462.99 340.323C462.849 340.809 462.778 341.381 462.778 342.041V342.242C462.778 343.15 462.936 343.866 463.248 344.391C463.562 344.909 464.083 345.168 464.813 345.168ZM468.995 338.788L467.777 336.763H470.568V338.452L468.995 338.788ZM471.326 347.145V345.465L472.669 345.178V338.739L471.182 338.452V336.763H475.278L475.403 338.251C475.748 337.719 476.173 337.307 476.679 337.013C477.19 336.719 477.772 336.571 478.424 336.571C479.454 336.571 480.26 336.901 480.842 337.56C481.424 338.219 481.715 339.251 481.715 340.659V345.178L483.058 345.465V347.145H477.705V345.465L478.904 345.178V340.668C478.904 339.971 478.766 339.479 478.492 339.191C478.217 338.897 477.808 338.749 477.264 338.749C476.861 338.749 476.509 338.836 476.208 339.008C475.914 339.175 475.668 339.415 475.47 339.728V345.178L476.602 345.465V347.145H471.326Z" fill="#F4B54B"/>
</g>
</g>
<defs>
<filter id="filter0_d_296_5325" x="0" y="0" width="554" height="410" filterUnits="userSpaceOnUse" color-interpolation-filters="sRGB">
<feFlood flood-opacity="0" result="BackgroundImageFix"/>
<feColorMatrix in="SourceAlpha" type="matrix" values="0 0 0 0 0 0 0 0 0 0 0 0 0 0 0 0 0 0 127 0" result="hardAlpha"/>
<feOffset dy="4"/>
<feGaussianBlur stdDeviation="2"/>
<feComposite in2="hardAlpha" operator="out"/>
<feColorMatrix type="matrix" values="0 0 0 0 0 0 0 0 0 0 0 0 0 0 0 0 0 0 0.25 0"/>
<feBlend mode="normal" in2="BackgroundImageFix" result="effect1_dropShadow_296_5325"/>
<feBlend mode="normal" in="SourceGraphic" in2="effect1_dropShadow_296_5325" result="shape"/>
</filter>
<clipPath id="clip0_296_5325">
<rect x="4" width="546" height="402" rx="16" fill="white"/>
</clipPath>
</defs>
</svg>
