<svg width="522" height="482" viewBox="0 0 522 482" fill="none" xmlns="http://www.w3.org/2000/svg">
<g filter="url(#filter0_d_526_1277)">
<rect x="6" y="4" width="510" height="469.424" rx="20" fill="white"/>
</g>
<path d="M133.886 341.914C121.358 312.681 119.289 280.023 128.028 249.443L261 287.441L133.886 341.914Z" fill="#FFF7CA"/>
<path d="M122.704 287.442C122.704 252.58 135.87 219.005 159.567 193.436C183.264 167.867 215.743 152.191 250.504 149.545C285.265 146.9 319.743 157.48 347.036 179.168C374.33 200.856 392.425 232.052 397.701 266.512C402.977 300.972 395.044 336.153 375.49 365.014C355.935 393.875 326.202 414.286 292.242 422.161C258.282 430.037 222.601 424.797 192.339 407.489C162.078 390.181 139.469 362.083 129.039 328.818L260.999 287.442L122.704 287.442Z" fill="#F09700"/>
<g filter="url(#filter1_d_526_1277)">
<circle cx="351.317" cy="233.441" r="6.8291" fill="#FFD181"/>
</g>
<line x1="350.963" y1="233.088" x2="391.506" y2="192.545" stroke="#FFD181"/>
<path d="M384.152 141C384.152 133.82 389.973 128 397.152 128H453.961C461.141 128 466.961 133.82 466.961 141V183C466.961 190.18 461.141 196 453.961 196H397.152C389.973 196 384.152 190.18 384.152 183V141Z" fill="#FFD181"/>
<path d="M411.133 165.73C411.806 165.73 412.454 165.843 413.076 166.069C413.702 166.295 414.26 166.655 414.75 167.149C415.245 167.643 415.635 168.3 415.92 169.118C416.21 169.932 416.357 170.931 416.361 172.116C416.361 173.228 416.236 174.221 415.984 175.094C415.737 175.964 415.381 176.703 414.917 177.312C414.452 177.922 413.892 178.386 413.236 178.706C412.579 179.021 411.846 179.179 411.037 179.179C410.163 179.179 409.392 179.011 408.723 178.674C408.054 178.333 407.515 177.871 407.106 177.287C406.701 176.699 406.456 176.038 406.37 175.305H409.1C409.206 175.783 409.43 176.153 409.771 176.418C410.112 176.678 410.534 176.808 411.037 176.808C411.889 176.808 412.537 176.437 412.98 175.695C413.423 174.95 413.647 173.929 413.651 172.634H413.562C413.366 173.017 413.101 173.347 412.769 173.624C412.437 173.897 412.055 174.108 411.625 174.257C411.199 174.406 410.745 174.481 410.263 174.481C409.492 174.481 408.804 174.3 408.199 173.938C407.593 173.575 407.116 173.077 406.767 172.442C406.417 171.807 406.243 171.082 406.243 170.268C406.238 169.391 406.441 168.609 406.85 167.923C407.259 167.237 407.83 166.7 408.563 166.312C409.3 165.92 410.157 165.726 411.133 165.73ZM411.152 167.903C410.721 167.903 410.338 168.006 410.001 168.21C409.669 168.415 409.405 168.69 409.209 169.035C409.017 169.38 408.923 169.766 408.927 170.192C408.927 170.622 409.021 171.01 409.209 171.355C409.4 171.696 409.66 171.969 409.988 172.173C410.321 172.374 410.7 172.474 411.126 172.474C411.446 172.474 411.742 172.414 412.015 172.295C412.287 172.175 412.524 172.011 412.724 171.803C412.929 171.589 413.089 171.344 413.204 171.067C413.319 170.79 413.376 170.496 413.376 170.185C413.372 169.772 413.274 169.393 413.082 169.048C412.89 168.702 412.626 168.425 412.29 168.217C411.953 168.008 411.574 167.903 411.152 167.903ZM423.162 179.179C422.178 179.179 421.302 179.019 420.535 178.7C419.772 178.376 419.174 177.935 418.739 177.376C418.304 176.818 418.087 176.185 418.087 175.478C418.087 174.933 418.211 174.432 418.458 173.976C418.709 173.516 419.05 173.134 419.481 172.832C419.911 172.525 420.392 172.329 420.925 172.244V172.154C420.226 172.013 419.66 171.675 419.225 171.138C418.79 170.597 418.573 169.968 418.573 169.252C418.573 168.575 418.771 167.972 419.167 167.443C419.564 166.911 420.107 166.493 420.797 166.19C421.492 165.884 422.28 165.73 423.162 165.73C424.044 165.73 424.831 165.884 425.521 166.19C426.216 166.497 426.761 166.917 427.157 167.45C427.554 167.978 427.754 168.579 427.758 169.252C427.754 169.972 427.532 170.601 427.093 171.138C426.655 171.675 426.092 172.013 425.406 172.154V172.244C425.93 172.329 426.405 172.525 426.831 172.832C427.262 173.134 427.603 173.516 427.854 173.976C428.11 174.432 428.24 174.933 428.244 175.478C428.24 176.185 428.02 176.818 427.586 177.376C427.151 177.935 426.55 178.376 425.783 178.7C425.02 179.019 424.147 179.179 423.162 179.179ZM423.162 177.146C423.601 177.146 423.985 177.067 424.313 176.91C424.641 176.748 424.897 176.526 425.08 176.245C425.267 175.96 425.361 175.631 425.361 175.261C425.361 174.881 425.265 174.547 425.074 174.257C424.882 173.963 424.622 173.733 424.294 173.567C423.966 173.396 423.589 173.311 423.162 173.311C422.741 173.311 422.363 173.396 422.031 173.567C421.699 173.733 421.437 173.963 421.245 174.257C421.057 174.547 420.964 174.881 420.964 175.261C420.964 175.631 421.055 175.96 421.238 176.245C421.422 176.526 421.679 176.748 422.012 176.91C422.344 177.067 422.728 177.146 423.162 177.146ZM423.162 171.298C423.529 171.298 423.855 171.223 424.14 171.074C424.426 170.925 424.65 170.718 424.812 170.454C424.973 170.19 425.054 169.885 425.054 169.54C425.054 169.199 424.973 168.901 424.812 168.645C424.65 168.385 424.428 168.183 424.147 168.038C423.866 167.888 423.537 167.814 423.162 167.814C422.792 167.814 422.464 167.888 422.178 168.038C421.892 168.183 421.669 168.385 421.507 168.645C421.349 168.901 421.27 169.199 421.27 169.54C421.27 169.885 421.351 170.19 421.513 170.454C421.675 170.718 421.899 170.925 422.184 171.074C422.47 171.223 422.796 171.298 423.162 171.298ZM437.345 176.545V175.855C437.345 175.331 437.456 174.849 437.677 174.411C437.903 173.967 438.229 173.614 438.655 173.349C439.085 173.081 439.61 172.947 440.228 172.947C440.854 172.947 441.38 173.079 441.806 173.343C442.237 173.607 442.561 173.961 442.778 174.404C443 174.843 443.11 175.327 443.11 175.855V176.545C443.11 177.07 443 177.553 442.778 177.996C442.556 178.435 442.23 178.787 441.8 179.051C441.37 179.32 440.845 179.454 440.228 179.454C439.601 179.454 439.075 179.32 438.649 179.051C438.223 178.787 437.899 178.435 437.677 177.996C437.456 177.553 437.345 177.07 437.345 176.545ZM439.205 175.855V176.545C439.205 176.848 439.277 177.134 439.422 177.402C439.571 177.67 439.84 177.805 440.228 177.805C440.615 177.805 440.88 177.673 441.02 177.408C441.165 177.144 441.237 176.857 441.237 176.545V175.855C441.237 175.544 441.169 175.254 441.033 174.986C440.897 174.717 440.628 174.583 440.228 174.583C439.844 174.583 439.578 174.717 439.429 174.986C439.279 175.254 439.205 175.544 439.205 175.855ZM430.627 169.054V168.364C430.627 167.835 430.74 167.352 430.965 166.913C431.191 166.469 431.517 166.116 431.943 165.852C432.374 165.587 432.894 165.455 433.503 165.455C434.134 165.455 434.662 165.587 435.088 165.852C435.514 166.116 435.838 166.469 436.06 166.913C436.282 167.352 436.392 167.835 436.392 168.364V169.054C436.392 169.582 436.279 170.066 436.054 170.505C435.832 170.944 435.506 171.295 435.076 171.56C434.649 171.82 434.125 171.95 433.503 171.95C432.881 171.95 432.355 171.817 431.924 171.553C431.498 171.285 431.174 170.933 430.953 170.499C430.735 170.06 430.627 169.578 430.627 169.054ZM432.5 168.364V169.054C432.5 169.365 432.572 169.653 432.717 169.917C432.866 170.181 433.128 170.313 433.503 170.313C433.895 170.313 434.161 170.181 434.302 169.917C434.447 169.653 434.519 169.365 434.519 169.054V168.364C434.519 168.053 434.451 167.763 434.315 167.494C434.179 167.226 433.908 167.092 433.503 167.092C433.124 167.092 432.862 167.228 432.717 167.501C432.572 167.773 432.5 168.061 432.5 168.364ZM431.47 179L440.47 165.909H442.145L433.145 179H431.47Z" fill="white"/>
<path d="M411.831 143.364H413.445L416.672 148.795H416.808L420.036 143.364H421.649L417.445 150.205V155H416.036V150.205L411.831 143.364ZM425.714 155.182C424.874 155.182 424.148 154.996 423.538 154.625C422.932 154.25 422.464 153.727 422.135 153.057C421.809 152.383 421.646 151.598 421.646 150.705C421.646 149.811 421.809 149.023 422.135 148.341C422.464 147.655 422.923 147.121 423.51 146.739C424.101 146.352 424.79 146.159 425.578 146.159C426.033 146.159 426.482 146.235 426.925 146.386C427.368 146.538 427.771 146.784 428.135 147.125C428.499 147.462 428.788 147.909 429.004 148.466C429.22 149.023 429.328 149.708 429.328 150.523V151.091H422.601V149.932H427.964C427.964 149.439 427.866 149 427.669 148.614C427.476 148.227 427.199 147.922 426.839 147.699C426.483 147.475 426.063 147.364 425.578 147.364C425.044 147.364 424.582 147.496 424.192 147.761C423.805 148.023 423.508 148.364 423.3 148.784C423.091 149.205 422.987 149.655 422.987 150.136V150.909C422.987 151.568 423.101 152.127 423.328 152.585C423.559 153.04 423.879 153.386 424.288 153.625C424.697 153.86 425.173 153.977 425.714 153.977C426.067 153.977 426.385 153.928 426.669 153.83C426.957 153.727 427.205 153.576 427.413 153.375C427.622 153.17 427.783 152.917 427.896 152.614L429.192 152.977C429.055 153.417 428.826 153.803 428.504 154.136C428.182 154.466 427.785 154.723 427.311 154.909C426.838 155.091 426.305 155.182 425.714 155.182ZM437.55 148.227L436.345 148.568C436.269 148.367 436.158 148.172 436.01 147.983C435.866 147.79 435.669 147.631 435.419 147.506C435.169 147.381 434.849 147.318 434.459 147.318C433.925 147.318 433.48 147.441 433.124 147.688C432.771 147.93 432.595 148.239 432.595 148.614C432.595 148.947 432.716 149.21 432.959 149.403C433.201 149.597 433.58 149.758 434.095 149.886L435.391 150.205C436.171 150.394 436.752 150.684 437.135 151.074C437.518 151.46 437.709 151.958 437.709 152.568C437.709 153.068 437.565 153.515 437.277 153.909C436.993 154.303 436.595 154.614 436.084 154.841C435.572 155.068 434.978 155.182 434.3 155.182C433.41 155.182 432.673 154.989 432.089 154.602C431.506 154.216 431.137 153.652 430.982 152.909L432.254 152.591C432.375 153.061 432.605 153.413 432.942 153.648C433.283 153.883 433.728 154 434.277 154C434.902 154 435.398 153.867 435.766 153.602C436.137 153.333 436.322 153.011 436.322 152.636C436.322 152.333 436.216 152.08 436.004 151.875C435.792 151.667 435.466 151.511 435.027 151.409L433.572 151.068C432.773 150.879 432.186 150.585 431.811 150.188C431.44 149.786 431.254 149.284 431.254 148.682C431.254 148.189 431.393 147.754 431.669 147.375C431.949 146.996 432.33 146.699 432.811 146.483C433.296 146.267 433.845 146.159 434.459 146.159C435.322 146.159 436 146.348 436.493 146.727C436.989 147.106 437.341 147.606 437.55 148.227Z" fill="#602C0B"/>
<g filter="url(#filter2_d_526_1277)">
<ellipse cx="155.809" cy="310.625" rx="8.36573" ry="7.88692" transform="rotate(-169.718 155.809 310.625)" fill="#F09700"/>
</g>
<line y1="-0.5" x2="68.2578" y2="-0.5" transform="matrix(-0.838381 0.545084 -0.593494 -0.804839 155.811 310.625)" stroke="#F09700"/>
<path d="M18 326.845C18 319.666 23.8203 313.845 31 313.845H87.8086C94.9883 313.845 100.809 319.666 100.809 326.845V368.845C100.809 376.025 94.9883 381.845 87.8086 381.845H31C23.8203 381.845 18 376.025 18 368.845V326.845Z" fill="#FFD181"/>
<path d="M46.9664 364.845V362.851L51.6262 358.536C52.0225 358.153 52.3548 357.808 52.6233 357.501C52.896 357.194 53.1027 356.894 53.2433 356.599C53.384 356.301 53.4543 355.979 53.4543 355.634C53.4543 355.251 53.3669 354.92 53.1922 354.644C53.0175 354.362 52.7789 354.147 52.4763 353.998C52.1737 353.845 51.8307 353.768 51.4472 353.768C51.0466 353.768 50.6972 353.849 50.3989 354.011C50.1006 354.173 49.8705 354.405 49.7085 354.707C49.5466 355.01 49.4656 355.37 49.4656 355.788H46.8385C46.8385 354.931 47.0324 354.188 47.4202 353.557C47.808 352.926 48.3513 352.438 49.0502 352.093C49.749 351.748 50.5544 351.575 51.4664 351.575C52.4039 351.575 53.2199 351.742 53.9145 352.074C54.6134 352.402 55.1567 352.858 55.5445 353.442C55.9323 354.026 56.1262 354.695 56.1262 355.449C56.1262 355.943 56.0281 356.431 55.8321 356.913C55.6404 357.394 55.2973 357.929 54.803 358.517C54.3087 359.101 53.6119 359.802 52.7128 360.62L50.8016 362.493V362.582H56.2987V364.845H46.9664ZM65.4697 362.391V361.7C65.4697 361.176 65.5805 360.695 65.8021 360.256C66.028 359.813 66.354 359.459 66.7801 359.195C67.2105 358.926 67.7346 358.792 68.3525 358.792C68.979 358.792 69.5052 358.924 69.9314 359.188C70.3618 359.452 70.6856 359.806 70.903 360.249C71.1246 360.688 71.2354 361.172 71.2354 361.7V362.391C71.2354 362.915 71.1246 363.398 70.903 363.842C70.6814 364.281 70.3554 364.632 69.925 364.896C69.4946 365.165 68.9704 365.299 68.3525 365.299C67.7261 365.299 67.1998 365.165 66.7737 364.896C66.3476 364.632 66.0237 364.281 65.8021 363.842C65.5805 363.398 65.4697 362.915 65.4697 362.391ZM67.3298 361.7V362.391C67.3298 362.693 67.4023 362.979 67.5471 363.247C67.6963 363.516 67.9648 363.65 68.3525 363.65C68.7403 363.65 69.0045 363.518 69.1452 363.254C69.29 362.989 69.3625 362.702 69.3625 362.391V361.7C69.3625 361.389 69.2943 361.099 69.1579 360.831C69.0216 360.563 68.7531 360.428 68.3525 360.428C67.969 360.428 67.7027 360.563 67.5535 360.831C67.4044 361.099 67.3298 361.389 67.3298 361.7ZM58.7517 354.899V354.209C58.7517 353.68 58.8646 353.197 59.0905 352.758C59.3163 352.315 59.6423 351.961 60.0684 351.697C60.4988 351.433 61.0187 351.3 61.6281 351.3C62.2588 351.3 62.7872 351.433 63.2133 351.697C63.6395 351.961 63.9633 352.315 64.1849 352.758C64.4065 353.197 64.5173 353.68 64.5173 354.209V354.899C64.5173 355.428 64.4044 355.911 64.1785 356.35C63.9569 356.789 63.6309 357.141 63.2006 357.405C62.7744 357.665 62.2503 357.795 61.6281 357.795C61.0059 357.795 60.4797 357.663 60.0493 357.398C59.6231 357.13 59.2993 356.778 59.0777 356.344C58.8604 355.905 58.7517 355.423 58.7517 354.899ZM60.6246 354.209V354.899C60.6246 355.21 60.697 355.498 60.8419 355.762C60.991 356.026 61.2531 356.158 61.6281 356.158C62.0202 356.158 62.2865 356.026 62.4271 355.762C62.572 355.498 62.6444 355.21 62.6444 354.899V354.209C62.6444 353.898 62.5763 353.608 62.4399 353.34C62.3035 353.071 62.0329 352.937 61.6281 352.937C61.2488 352.937 60.9868 353.073 60.8419 353.346C60.697 353.619 60.6246 353.906 60.6246 354.209ZM59.5954 364.845L68.5954 351.754H70.2702L61.2702 364.845H59.5954Z" fill="white"/>
<path d="M58.6481 329.209V340.845H57.2844L50.9435 331.709H50.8299V340.845H49.4208V329.209H50.7844L57.1481 338.368H57.2617V329.209H58.6481ZM64.8313 341.027C64.0434 341.027 63.3522 340.84 62.7575 340.465C62.1665 340.09 61.7044 339.565 61.3711 338.891C61.0415 338.216 60.8768 337.429 60.8768 336.527C60.8768 335.618 61.0415 334.824 61.3711 334.146C61.7044 333.468 62.1665 332.942 62.7575 332.567C63.3522 332.192 64.0434 332.004 64.8313 332.004C65.6192 332.004 66.3086 332.192 66.8995 332.567C67.4942 332.942 67.9563 333.468 68.2859 334.146C68.6192 334.824 68.7859 335.618 68.7859 336.527C68.7859 337.429 68.6192 338.216 68.2859 338.891C67.9563 339.565 67.4942 340.09 66.8995 340.465C66.3086 340.84 65.6192 341.027 64.8313 341.027ZM64.8313 339.822C65.4298 339.822 65.9222 339.669 66.3086 339.362C66.695 339.055 66.9809 338.652 67.1665 338.152C67.3522 337.652 67.445 337.11 67.445 336.527C67.445 335.944 67.3522 335.4 67.1665 334.896C66.9809 334.393 66.695 333.985 66.3086 333.675C65.9222 333.364 65.4298 333.209 64.8313 333.209C64.2328 333.209 63.7404 333.364 63.354 333.675C62.9677 333.985 62.6817 334.393 62.4961 334.896C62.3105 335.4 62.2177 335.944 62.2177 336.527C62.2177 337.11 62.3105 337.652 62.4961 338.152C62.6817 338.652 62.9677 339.055 63.354 339.362C63.7404 339.669 64.2328 339.822 64.8313 339.822Z" fill="#602C0B"/>
<line x1="38" y1="111.5" x2="484" y2="111.5" stroke="#FD5E00"/>
<path d="M42.7734 40V56H39.3906V40H42.7734ZM48.8223 49.0625V56H45.4941V44H48.666V46.1172H48.8066C49.0723 45.4193 49.5176 44.8672 50.1426 44.4609C50.7676 44.0495 51.5254 43.8438 52.416 43.8438C53.2493 43.8438 53.9759 44.026 54.5957 44.3906C55.2155 44.7552 55.6973 45.276 56.041 45.9531C56.3848 46.625 56.5566 47.4271 56.5566 48.3594V56H53.2285V48.9531C53.2337 48.2187 53.0462 47.6458 52.666 47.2344C52.2858 46.8177 51.7624 46.6094 51.0957 46.6094C50.6478 46.6094 50.252 46.7057 49.9082 46.8984C49.5697 47.0911 49.304 47.3724 49.1113 47.7422C48.9238 48.1068 48.8275 48.5469 48.8223 49.0625ZM65.5625 44V46.5H58.3359V44H65.5625ZM59.9766 41.125H63.3047V52.3125C63.3047 52.6198 63.3516 52.8594 63.4453 53.0312C63.5391 53.1979 63.6693 53.3151 63.8359 53.3828C64.0078 53.4505 64.2057 53.4844 64.4297 53.4844C64.5859 53.4844 64.7422 53.4714 64.8984 53.4453C65.0547 53.4141 65.1745 53.3906 65.2578 53.375L65.7813 55.8516C65.6146 55.9036 65.3802 55.9635 65.0781 56.0313C64.776 56.1042 64.4089 56.1484 63.9766 56.1641C63.1745 56.1953 62.4714 56.0885 61.8672 55.8437C61.2682 55.599 60.8021 55.2187 60.4688 54.7031C60.1354 54.1875 59.9714 53.5365 59.9766 52.75V41.125ZM73.0703 56.2344C71.8359 56.2344 70.7734 55.9844 69.8828 55.4844C68.9974 54.9792 68.3151 54.2656 67.8359 53.3437C67.3568 52.4167 67.1172 51.3203 67.1172 50.0547C67.1172 48.8203 67.3568 47.737 67.8359 46.8047C68.3151 45.8724 68.9896 45.1458 69.8594 44.625C70.7344 44.1042 71.7604 43.8438 72.9375 43.8438C73.7292 43.8438 74.4661 43.9714 75.1484 44.2266C75.8359 44.4766 76.4349 44.8542 76.9453 45.3594C77.4609 45.8646 77.862 46.5 78.1484 47.2656C78.4349 48.026 78.5781 48.9167 78.5781 49.9375V50.8516H68.4453V48.7891H75.4453C75.4453 48.3099 75.3411 47.8854 75.1328 47.5156C74.9245 47.1458 74.6354 46.8568 74.2656 46.6484C73.901 46.4349 73.4766 46.3281 72.9922 46.3281C72.487 46.3281 72.0391 46.4453 71.6484 46.6797C71.263 46.9089 70.9609 47.2187 70.7422 47.6094C70.5234 47.9948 70.4115 48.4245 70.4063 48.8984V50.8594C70.4063 51.4531 70.5156 51.9661 70.7344 52.3984C70.9583 52.8307 71.2734 53.1641 71.6797 53.3984C72.0859 53.6328 72.5677 53.75 73.125 53.75C73.4948 53.75 73.8333 53.6979 74.1406 53.5938C74.4479 53.4896 74.7109 53.3333 74.9297 53.125C75.1484 52.9167 75.3151 52.6615 75.4297 52.3594L78.5078 52.5625C78.3516 53.3021 78.0313 53.9479 77.5469 54.5C77.0677 55.0469 76.4479 55.474 75.6875 55.7813C74.9323 56.0833 74.0599 56.2344 73.0703 56.2344ZM80.75 56V44H83.9766V46.0937H84.1016C84.3203 45.349 84.6875 44.7865 85.2031 44.4063C85.7188 44.0208 86.3125 43.8281 86.9844 43.8281C87.151 43.8281 87.3307 43.8385 87.5234 43.8594C87.7161 43.8802 87.8854 43.9089 88.0313 43.9453V46.8984C87.875 46.8516 87.6589 46.8099 87.3828 46.7734C87.1068 46.737 86.8542 46.7188 86.625 46.7188C86.1354 46.7188 85.6979 46.8255 85.3125 47.0391C84.9323 47.2474 84.6302 47.5391 84.4062 47.9141C84.1875 48.2891 84.0781 48.7214 84.0781 49.2109V56H80.75ZM94.6621 56.2344C93.4277 56.2344 92.3652 55.9844 91.4746 55.4844C90.5892 54.9792 89.9069 54.2656 89.4277 53.3437C88.9486 52.4167 88.709 51.3203 88.709 50.0547C88.709 48.8203 88.9486 47.737 89.4277 46.8047C89.9069 45.8724 90.5814 45.1458 91.4512 44.625C92.3262 44.1042 93.3522 43.8438 94.5293 43.8438C95.321 43.8438 96.0579 43.9714 96.7402 44.2266C97.4277 44.4766 98.0267 44.8542 98.5371 45.3594C99.0527 45.8646 99.4538 46.5 99.7402 47.2656C100.027 48.026 100.17 48.9167 100.17 49.9375V50.8516H90.0371V48.7891H97.0371C97.0371 48.3099 96.9329 47.8854 96.7246 47.5156C96.5163 47.1458 96.2272 46.8568 95.8574 46.6484C95.4928 46.4349 95.0684 46.3281 94.584 46.3281C94.0788 46.3281 93.6309 46.4453 93.2402 46.6797C92.8548 46.9089 92.5527 47.2187 92.334 47.6094C92.1152 47.9948 92.0033 48.4245 91.998 48.8984V50.8594C91.998 51.4531 92.1074 51.9661 92.3262 52.3984C92.5501 52.8307 92.8652 53.1641 93.2715 53.3984C93.6777 53.6328 94.1595 53.75 94.7168 53.75C95.0866 53.75 95.4251 53.6979 95.7324 53.5938C96.0397 53.4896 96.3027 53.3333 96.5215 53.125C96.7402 52.9167 96.9069 52.6615 97.0215 52.3594L100.1 52.5625C99.9434 53.3021 99.623 53.9479 99.1387 54.5C98.6595 55.0469 98.0397 55.474 97.2793 55.7813C96.5241 56.0833 95.6517 56.2344 94.6621 56.2344ZM112.326 47.4219L109.279 47.6094C109.227 47.349 109.115 47.1146 108.943 46.9062C108.771 46.6927 108.545 46.5234 108.264 46.3984C107.988 46.2682 107.657 46.2031 107.271 46.2031C106.756 46.2031 106.321 46.3125 105.967 46.5312C105.613 46.7448 105.436 47.0312 105.436 47.3906C105.436 47.6771 105.55 47.9193 105.779 48.1172C106.008 48.3151 106.402 48.474 106.959 48.5937L109.131 49.0312C110.298 49.2708 111.167 49.6562 111.74 50.1875C112.313 50.7187 112.6 51.4167 112.6 52.2812C112.6 53.0677 112.368 53.7578 111.904 54.3516C111.446 54.9453 110.816 55.4089 110.014 55.7422C109.217 56.0703 108.298 56.2344 107.256 56.2344C105.667 56.2344 104.402 55.9036 103.459 55.2422C102.521 54.5755 101.972 53.6693 101.811 52.5234L105.084 52.3516C105.183 52.8359 105.423 53.2057 105.803 53.4609C106.183 53.7109 106.67 53.8359 107.264 53.8359C107.847 53.8359 108.316 53.724 108.67 53.5C109.029 53.2708 109.212 52.9766 109.217 52.6172C109.212 52.3151 109.084 52.0677 108.834 51.875C108.584 51.6771 108.199 51.526 107.678 51.4219L105.6 51.0078C104.428 50.7734 103.555 50.3672 102.982 49.7891C102.415 49.2109 102.131 48.474 102.131 47.5781C102.131 46.8073 102.339 46.1432 102.756 45.5859C103.178 45.0286 103.769 44.599 104.529 44.2969C105.295 43.9948 106.191 43.8438 107.217 43.8438C108.732 43.8438 109.925 44.1641 110.795 44.8047C111.67 45.4453 112.18 46.3177 112.326 47.4219ZM121.078 44V46.5H113.852V44H121.078ZM115.492 41.125H118.82V52.3125C118.82 52.6198 118.867 52.8594 118.961 53.0312C119.055 53.1979 119.185 53.3151 119.352 53.3828C119.523 53.4505 119.721 53.4844 119.945 53.4844C120.102 53.4844 120.258 53.4714 120.414 53.4453C120.57 53.4141 120.69 53.3906 120.773 53.375L121.297 55.8516C121.13 55.9036 120.896 55.9635 120.594 56.0313C120.292 56.1042 119.924 56.1484 119.492 56.1641C118.69 56.1953 117.987 56.0885 117.383 55.8437C116.784 55.599 116.318 55.2187 115.984 54.7031C115.651 54.1875 115.487 53.5365 115.492 52.75V41.125Z" fill="#602C0B"/>
<path d="M41.9631 82L38.3835 68.9091H39.9943L42.7301 79.571H42.858L45.6449 68.9091H47.4347L50.2216 79.571H50.3494L53.0852 68.9091H54.696L51.1165 82H49.4801L46.5909 71.5682H46.4886L43.5994 82H41.9631ZM59.5412 82.2045C58.6548 82.2045 57.8771 81.9936 57.2081 81.5717C56.5433 81.1499 56.0234 80.5597 55.6484 79.8011C55.2777 79.0426 55.0923 78.1562 55.0923 77.142C55.0923 76.1193 55.2777 75.2266 55.6484 74.4638C56.0234 73.701 56.5433 73.1087 57.2081 72.6868C57.8771 72.2649 58.6548 72.054 59.5412 72.054C60.4276 72.054 61.2031 72.2649 61.8679 72.6868C62.5369 73.1087 63.0568 73.701 63.4276 74.4638C63.8026 75.2266 63.9901 76.1193 63.9901 77.142C63.9901 78.1562 63.8026 79.0426 63.4276 79.8011C63.0568 80.5597 62.5369 81.1499 61.8679 81.5717C61.2031 81.9936 60.4276 82.2045 59.5412 82.2045ZM59.5412 80.8494C60.2145 80.8494 60.7685 80.6768 61.2031 80.3317C61.6378 79.9865 61.9595 79.5327 62.1683 78.9702C62.3771 78.4077 62.4815 77.7983 62.4815 77.142C62.4815 76.4858 62.3771 75.8743 62.1683 75.3075C61.9595 74.7408 61.6378 74.2827 61.2031 73.9332C60.7685 73.5838 60.2145 73.4091 59.5412 73.4091C58.8679 73.4091 58.3139 73.5838 57.8793 73.9332C57.4446 74.2827 57.1229 74.7408 56.9141 75.3075C56.7053 75.8743 56.6009 76.4858 56.6009 77.142C56.6009 77.7983 56.7053 78.4077 56.9141 78.9702C57.1229 79.5327 57.4446 79.9865 57.8793 80.3317C58.3139 80.6768 58.8679 80.8494 59.5412 80.8494ZM72.4803 77.9858V72.1818H73.9888V82H72.4803V80.3381H72.378C72.1479 80.8366 71.79 81.2607 71.3042 81.6101C70.8184 81.9553 70.2047 82.1278 69.4632 82.1278C68.8496 82.1278 68.3042 81.9936 67.8269 81.7251C67.3496 81.4524 66.9746 81.0433 66.7019 80.4979C66.4292 79.9482 66.2928 79.2557 66.2928 78.4205V72.1818H67.8013V78.3182C67.8013 79.0341 68.0016 79.6051 68.4022 80.0312C68.807 80.4574 69.3226 80.6705 69.949 80.6705C70.324 80.6705 70.7054 80.5746 71.0932 80.3828C71.4853 80.1911 71.8134 79.897 72.0776 79.5007C72.3461 79.1044 72.4803 78.5994 72.4803 77.9858ZM78.2603 68.9091V82H76.7518V68.9091H78.2603ZM84.7306 82.2045C83.9125 82.2045 83.1902 81.9979 82.5637 81.5845C81.9373 81.1669 81.4473 80.5788 81.0936 79.8203C80.7399 79.0575 80.563 78.1562 80.563 77.1165C80.563 76.0852 80.7399 75.1903 81.0936 74.4318C81.4473 73.6733 81.9395 73.0874 82.5701 72.674C83.2008 72.2607 83.9295 72.054 84.7562 72.054C85.3954 72.054 85.9004 72.1605 86.2711 72.3736C86.6461 72.5824 86.9316 72.821 87.1277 73.0895C87.3279 73.3537 87.4835 73.571 87.5943 73.7415H87.7221V68.9091H89.2306V82H87.7733V80.4915H87.5943C87.4835 80.6705 87.3258 80.8963 87.1213 81.169C86.9167 81.4375 86.6248 81.6783 86.2456 81.8913C85.8663 82.1001 85.3613 82.2045 84.7306 82.2045ZM84.9352 80.8494C85.5403 80.8494 86.0517 80.6918 86.4693 80.3764C86.8869 80.0568 87.2044 79.6158 87.4217 79.0533C87.639 78.4865 87.7477 77.8324 87.7477 77.0909C87.7477 76.358 87.6412 75.7166 87.4281 75.1669C87.215 74.6129 86.8997 74.1825 86.4821 73.8757C86.0645 73.5646 85.5488 73.4091 84.9352 73.4091C84.296 73.4091 83.7633 73.5732 83.3372 73.9013C82.9153 74.2251 82.5978 74.6662 82.3848 75.2244C82.176 75.7784 82.0716 76.4006 82.0716 77.0909C82.0716 77.7898 82.1781 78.4247 82.3912 78.9957C82.6085 79.5625 82.9281 80.0142 83.35 80.3509C83.7761 80.6832 84.3045 80.8494 84.9352 80.8494ZM98.237 85.6818C97.9814 85.6818 97.7534 85.6605 97.5531 85.6179C97.3528 85.5795 97.2143 85.5412 97.1376 85.5028L97.5211 84.1733C97.8876 84.267 98.2115 84.3011 98.4927 84.2756C98.774 84.25 99.0233 84.1243 99.2406 83.8984C99.4622 83.6768 99.6646 83.3168 99.8478 82.8182L100.129 82.0511L96.4984 72.1818H98.1348L100.845 80.0057H100.947L103.657 72.1818H105.294L101.126 83.4318C100.939 83.9389 100.706 84.3587 100.43 84.6911C100.153 85.0277 99.8308 85.277 99.4643 85.4389C99.1021 85.6009 98.693 85.6818 98.237 85.6818ZM110.922 82.2045C110.036 82.2045 109.258 81.9936 108.589 81.5717C107.924 81.1499 107.404 80.5597 107.029 79.8011C106.659 79.0426 106.473 78.1562 106.473 77.142C106.473 76.1193 106.659 75.2266 107.029 74.4638C107.404 73.701 107.924 73.1087 108.589 72.6868C109.258 72.2649 110.036 72.054 110.922 72.054C111.808 72.054 112.584 72.2649 113.249 72.6868C113.918 73.1087 114.438 73.701 114.808 74.4638C115.183 75.2266 115.371 76.1193 115.371 77.142C115.371 78.1562 115.183 79.0426 114.808 79.8011C114.438 80.5597 113.918 81.1499 113.249 81.5717C112.584 81.9936 111.808 82.2045 110.922 82.2045ZM110.922 80.8494C111.595 80.8494 112.149 80.6768 112.584 80.3317C113.019 79.9865 113.34 79.5327 113.549 78.9702C113.758 78.4077 113.862 77.7983 113.862 77.142C113.862 76.4858 113.758 75.8743 113.549 75.3075C113.34 74.7408 113.019 74.2827 112.584 73.9332C112.149 73.5838 111.595 73.4091 110.922 73.4091C110.249 73.4091 109.695 73.5838 109.26 73.9332C108.825 74.2827 108.504 74.7408 108.295 75.3075C108.086 75.8743 107.982 76.4858 107.982 77.142C107.982 77.7983 108.086 78.4077 108.295 78.9702C108.504 79.5327 108.825 79.9865 109.26 80.3317C109.695 80.6768 110.249 80.8494 110.922 80.8494ZM123.861 77.9858V72.1818H125.37V82H123.861V80.3381H123.759C123.529 80.8366 123.171 81.2607 122.685 81.6101C122.199 81.9553 121.586 82.1278 120.844 82.1278C120.23 82.1278 119.685 81.9936 119.208 81.7251C118.73 81.4524 118.355 81.0433 118.083 80.4979C117.81 79.9482 117.674 79.2557 117.674 78.4205V72.1818H119.182V78.3182C119.182 79.0341 119.382 79.6051 119.783 80.0312C120.188 80.4574 120.703 80.6705 121.33 80.6705C121.705 80.6705 122.086 80.5746 122.474 80.3828C122.866 80.1911 123.194 79.897 123.458 79.5007C123.727 79.1044 123.861 78.5994 123.861 77.9858ZM134.704 68.9091V82H133.195V68.9091H134.704ZM137.467 82V72.1818H138.975V82H137.467ZM138.234 70.5455C137.94 70.5455 137.686 70.4453 137.473 70.245C137.264 70.0447 137.16 69.804 137.16 69.5227C137.16 69.2415 137.264 69.0007 137.473 68.8004C137.686 68.6001 137.94 68.5 138.234 68.5C138.528 68.5 138.779 68.6001 138.988 68.8004C139.201 69.0007 139.308 69.2415 139.308 69.5227C139.308 69.804 139.201 70.0447 138.988 70.245C138.779 70.4453 138.528 70.5455 138.234 70.5455ZM143.144 78.4205L143.119 76.554H143.426L147.721 72.1818H149.588L145.011 76.8097H144.883L143.144 78.4205ZM141.738 82V68.9091H143.247V82H141.738ZM147.977 82L144.142 77.142L145.215 76.0938L149.894 82H147.977ZM155.241 82.2045C154.295 82.2045 153.479 81.9957 152.793 81.5781C152.111 81.1562 151.585 80.5682 151.214 79.8139C150.848 79.0554 150.665 78.1733 150.665 77.1676C150.665 76.1619 150.848 75.2756 151.214 74.5085C151.585 73.7372 152.101 73.1364 152.761 72.706C153.426 72.2713 154.202 72.054 155.088 72.054C155.599 72.054 156.104 72.1392 156.603 72.3097C157.101 72.4801 157.555 72.7571 157.964 73.1406C158.373 73.5199 158.699 74.0227 158.942 74.6491C159.185 75.2756 159.307 76.0469 159.307 76.9631V77.6023H151.738V76.2983H157.773C157.773 75.7443 157.662 75.25 157.44 74.8153C157.223 74.3807 156.912 74.0376 156.507 73.7862C156.106 73.5348 155.633 73.4091 155.088 73.4091C154.487 73.4091 153.967 73.5582 153.528 73.8565C153.094 74.1506 152.759 74.5341 152.525 75.0071C152.29 75.4801 152.173 75.9872 152.173 76.5284V77.3977C152.173 78.1392 152.301 78.7678 152.557 79.2834C152.817 79.7947 153.177 80.1847 153.637 80.4531C154.097 80.7173 154.632 80.8494 155.241 80.8494C155.638 80.8494 155.996 80.794 156.315 80.6832C156.639 80.5682 156.918 80.3977 157.153 80.1719C157.387 79.9418 157.568 79.6562 157.696 79.3153L159.153 79.7244C159 80.2188 158.742 80.6534 158.38 81.0284C158.018 81.3991 157.57 81.6889 157.037 81.8977C156.505 82.1023 155.906 82.2045 155.241 82.2045ZM170.934 72.1818V73.4602H165.846V72.1818H170.934ZM167.329 69.8295H168.837V79.1875C168.837 79.6136 168.899 79.9332 169.023 80.1463C169.15 80.3551 169.312 80.4957 169.508 80.5682C169.709 80.6364 169.92 80.6705 170.141 80.6705C170.307 80.6705 170.444 80.6619 170.55 80.6449C170.657 80.6236 170.742 80.6065 170.806 80.5938L171.113 81.9489C171.01 81.9872 170.868 82.0256 170.684 82.0639C170.501 82.1065 170.269 82.1278 169.988 82.1278C169.562 82.1278 169.144 82.0362 168.735 81.853C168.33 81.6697 167.993 81.3906 167.725 81.0156C167.461 80.6406 167.329 80.1676 167.329 79.5966V69.8295ZM177.086 82.2045C176.2 82.2045 175.422 81.9936 174.753 81.5717C174.088 81.1499 173.568 80.5597 173.193 79.8011C172.823 79.0426 172.637 78.1562 172.637 77.142C172.637 76.1193 172.823 75.2266 173.193 74.4638C173.568 73.701 174.088 73.1087 174.753 72.6868C175.422 72.2649 176.2 72.054 177.086 72.054C177.972 72.054 178.748 72.2649 179.413 72.6868C180.082 73.1087 180.602 73.701 180.972 74.4638C181.347 75.2266 181.535 76.1193 181.535 77.142C181.535 78.1562 181.347 79.0426 180.972 79.8011C180.602 80.5597 180.082 81.1499 179.413 81.5717C178.748 81.9936 177.972 82.2045 177.086 82.2045ZM177.086 80.8494C177.759 80.8494 178.313 80.6768 178.748 80.3317C179.183 79.9865 179.504 79.5327 179.713 78.9702C179.922 78.4077 180.026 77.7983 180.026 77.142C180.026 76.4858 179.922 75.8743 179.713 75.3075C179.504 74.7408 179.183 74.2827 178.748 73.9332C178.313 73.5838 177.759 73.4091 177.086 73.4091C176.413 73.4091 175.859 73.5838 175.424 73.9332C174.99 74.2827 174.668 74.7408 174.459 75.3075C174.25 75.8743 174.146 76.4858 174.146 77.142C174.146 77.7983 174.25 78.4077 174.459 78.9702C174.668 79.5327 174.99 79.9865 175.424 80.3317C175.859 80.6768 176.413 80.8494 177.086 80.8494ZM196.929 72.1818L193.298 82H191.764L188.133 72.1818H189.77L192.48 80.0057H192.582L195.292 72.1818H196.929ZM202.557 82.2045C201.67 82.2045 200.893 81.9936 200.224 81.5717C199.559 81.1499 199.039 80.5597 198.664 79.8011C198.293 79.0426 198.108 78.1562 198.108 77.142C198.108 76.1193 198.293 75.2266 198.664 74.4638C199.039 73.701 199.559 73.1087 200.224 72.6868C200.893 72.2649 201.67 72.054 202.557 72.054C203.443 72.054 204.219 72.2649 204.884 72.6868C205.553 73.1087 206.072 73.701 206.443 74.4638C206.818 75.2266 207.006 76.1193 207.006 77.142C207.006 78.1562 206.818 79.0426 206.443 79.8011C206.072 80.5597 205.553 81.1499 204.884 81.5717C204.219 81.9936 203.443 82.2045 202.557 82.2045ZM202.557 80.8494C203.23 80.8494 203.784 80.6768 204.219 80.3317C204.653 79.9865 204.975 79.5327 205.184 78.9702C205.393 78.4077 205.497 77.7983 205.497 77.142C205.497 76.4858 205.393 75.8743 205.184 75.3075C204.975 74.7408 204.653 74.2827 204.219 73.9332C203.784 73.5838 203.23 73.4091 202.557 73.4091C201.884 73.4091 201.33 73.5838 200.895 73.9332C200.46 74.2827 200.138 74.7408 199.93 75.3075C199.721 75.8743 199.616 76.4858 199.616 77.142C199.616 77.7983 199.721 78.4077 199.93 78.9702C200.138 79.5327 200.46 79.9865 200.895 80.3317C201.33 80.6768 201.884 80.8494 202.557 80.8494ZM210.817 68.9091V82H209.308V68.9091H210.817ZM219.767 77.9858V72.1818H221.276V82H219.767V80.3381H219.665C219.435 80.8366 219.077 81.2607 218.591 81.6101C218.105 81.9553 217.492 82.1278 216.75 82.1278C216.137 82.1278 215.591 81.9936 215.114 81.7251C214.637 81.4524 214.262 81.0433 213.989 80.4979C213.716 79.9482 213.58 79.2557 213.58 78.4205V72.1818H215.088V78.3182C215.088 79.0341 215.289 79.6051 215.689 80.0312C216.094 80.4574 216.61 80.6705 217.236 80.6705C217.611 80.6705 217.993 80.5746 218.38 80.3828C218.772 80.1911 219.1 79.897 219.365 79.5007C219.633 79.1044 219.767 78.5994 219.767 77.9858ZM225.547 76.0938V82H224.039V72.1818H225.496V73.7159H225.624C225.854 73.2173 226.204 72.8168 226.672 72.5142C227.141 72.2074 227.746 72.054 228.488 72.054C229.153 72.054 229.734 72.1903 230.233 72.4631C230.731 72.7315 231.119 73.1406 231.396 73.6903C231.673 74.2358 231.812 74.9261 231.812 75.7614V82H230.303V75.8636C230.303 75.0923 230.103 74.4915 229.702 74.0611C229.302 73.6264 228.752 73.4091 228.053 73.4091C227.572 73.4091 227.141 73.5135 226.762 73.7223C226.387 73.9311 226.091 74.2358 225.873 74.6364C225.656 75.0369 225.547 75.5227 225.547 76.0938ZM238.838 72.1818V73.4602H233.75V72.1818H238.838ZM235.233 69.8295H236.741V79.1875C236.741 79.6136 236.803 79.9332 236.927 80.1463C237.055 80.3551 237.217 80.4957 237.413 80.5682C237.613 80.6364 237.824 80.6705 238.045 80.6705C238.212 80.6705 238.348 80.6619 238.455 80.6449C238.561 80.6236 238.646 80.6065 238.71 80.5938L239.017 81.9489C238.915 81.9872 238.772 82.0256 238.589 82.0639C238.406 82.1065 238.173 82.1278 237.892 82.1278C237.466 82.1278 237.048 82.0362 236.639 81.853C236.234 81.6697 235.898 81.3906 235.629 81.0156C235.365 80.6406 235.233 80.1676 235.233 79.5966V69.8295ZM245.118 82.2045C244.172 82.2045 243.356 81.9957 242.67 81.5781C241.988 81.1562 241.462 80.5682 241.091 79.8139C240.725 79.0554 240.542 78.1733 240.542 77.1676C240.542 76.1619 240.725 75.2756 241.091 74.5085C241.462 73.7372 241.978 73.1364 242.638 72.706C243.303 72.2713 244.078 72.054 244.965 72.054C245.476 72.054 245.981 72.1392 246.48 72.3097C246.978 72.4801 247.432 72.7571 247.841 73.1406C248.25 73.5199 248.576 74.0227 248.819 74.6491C249.062 75.2756 249.184 76.0469 249.184 76.9631V77.6023H241.615V76.2983H247.65C247.65 75.7443 247.539 75.25 247.317 74.8153C247.1 74.3807 246.789 74.0376 246.384 73.7862C245.983 73.5348 245.51 73.4091 244.965 73.4091C244.364 73.4091 243.844 73.5582 243.405 73.8565C242.971 74.1506 242.636 74.5341 242.402 75.0071C242.167 75.4801 242.05 75.9872 242.05 76.5284V77.3977C242.05 78.1392 242.178 78.7678 242.434 79.2834C242.694 79.7947 243.054 80.1847 243.514 80.4531C243.974 80.7173 244.509 80.8494 245.118 80.8494C245.515 80.8494 245.873 80.794 246.192 80.6832C246.516 80.5682 246.795 80.3977 247.029 80.1719C247.264 79.9418 247.445 79.6562 247.573 79.3153L249.03 79.7244C248.877 80.2188 248.619 80.6534 248.257 81.0284C247.895 81.3991 247.447 81.6889 246.914 81.8977C246.382 82.1023 245.783 82.2045 245.118 82.2045ZM255.595 82.2045C254.649 82.2045 253.833 81.9957 253.147 81.5781C252.465 81.1562 251.939 80.5682 251.568 79.8139C251.201 79.0554 251.018 78.1733 251.018 77.1676C251.018 76.1619 251.201 75.2756 251.568 74.5085C251.939 73.7372 252.454 73.1364 253.115 72.706C253.779 72.2713 254.555 72.054 255.441 72.054C255.953 72.054 256.458 72.1392 256.956 72.3097C257.455 72.4801 257.909 72.7571 258.318 73.1406C258.727 73.5199 259.053 74.0227 259.296 74.6491C259.539 75.2756 259.66 76.0469 259.66 76.9631V77.6023H252.092V76.2983H258.126C258.126 75.7443 258.015 75.25 257.794 74.8153C257.576 74.3807 257.265 74.0376 256.86 73.7862C256.46 73.5348 255.987 73.4091 255.441 73.4091C254.841 73.4091 254.321 73.5582 253.882 73.8565C253.447 74.1506 253.113 74.5341 252.878 75.0071C252.644 75.4801 252.527 75.9872 252.527 76.5284V77.3977C252.527 78.1392 252.654 78.7678 252.91 79.2834C253.17 79.7947 253.53 80.1847 253.99 80.4531C254.451 80.7173 254.985 80.8494 255.595 80.8494C255.991 80.8494 256.349 80.794 256.669 80.6832C256.993 80.5682 257.272 80.3977 257.506 80.1719C257.74 79.9418 257.922 79.6562 258.049 79.3153L259.507 79.7244C259.353 80.2188 259.096 80.6534 258.733 81.0284C258.371 81.3991 257.924 81.6889 257.391 81.8977C256.858 82.1023 256.26 82.2045 255.595 82.2045ZM261.955 82V72.1818H263.412V73.6648H263.515C263.694 73.179 264.017 72.7848 264.486 72.4822C264.955 72.1797 265.483 72.0284 266.071 72.0284C266.182 72.0284 266.321 72.0305 266.487 72.0348C266.653 72.0391 266.779 72.0455 266.864 72.054V73.5881C266.813 73.5753 266.696 73.5561 266.512 73.5305C266.333 73.5007 266.144 73.4858 265.944 73.4858C265.466 73.4858 265.04 73.5859 264.665 73.7862C264.294 73.9822 264 74.255 263.783 74.6044C263.57 74.9496 263.463 75.3437 263.463 75.7869V82H261.955ZM278.087 72.1818V73.4602H272.794V72.1818H278.087ZM274.379 82V70.8267C274.379 70.2642 274.512 69.7955 274.776 69.4205C275.04 69.0455 275.383 68.7642 275.805 68.5767C276.227 68.3892 276.672 68.2955 277.141 68.2955C277.512 68.2955 277.814 68.3253 278.048 68.3849C278.283 68.4446 278.458 68.5 278.573 68.5511L278.138 69.8551C278.061 69.8295 277.955 69.7976 277.818 69.7592C277.686 69.7209 277.512 69.7017 277.294 69.7017C276.796 69.7017 276.436 69.8274 276.214 70.0788C275.997 70.3303 275.888 70.6989 275.888 71.1847V82H274.379ZM283.785 82.2045C282.899 82.2045 282.121 81.9936 281.452 81.5717C280.787 81.1499 280.268 80.5597 279.893 79.8011C279.522 79.0426 279.336 78.1562 279.336 77.142C279.336 76.1193 279.522 75.2266 279.893 74.4638C280.268 73.701 280.787 73.1087 281.452 72.6868C282.121 72.2649 282.899 72.054 283.785 72.054C284.672 72.054 285.447 72.2649 286.112 72.6868C286.781 73.1087 287.301 73.701 287.672 74.4638C288.047 75.2266 288.234 76.1193 288.234 77.142C288.234 78.1562 288.047 79.0426 287.672 79.8011C287.301 80.5597 286.781 81.1499 286.112 81.5717C285.447 81.9936 284.672 82.2045 283.785 82.2045ZM283.785 80.8494C284.459 80.8494 285.013 80.6768 285.447 80.3317C285.882 79.9865 286.204 79.5327 286.412 78.9702C286.621 78.4077 286.726 77.7983 286.726 77.142C286.726 76.4858 286.621 75.8743 286.412 75.3075C286.204 74.7408 285.882 74.2827 285.447 73.9332C285.013 73.5838 284.459 73.4091 283.785 73.4091C283.112 73.4091 282.558 73.5838 282.123 73.9332C281.689 74.2827 281.367 74.7408 281.158 75.3075C280.949 75.8743 280.845 76.4858 280.845 77.142C280.845 77.7983 280.949 78.4077 281.158 78.9702C281.367 79.5327 281.689 79.9865 282.123 80.3317C282.558 80.6768 283.112 80.8494 283.785 80.8494ZM290.537 82V72.1818H291.994V73.6648H292.097C292.276 73.179 292.599 72.7848 293.068 72.4822C293.537 72.1797 294.065 72.0284 294.653 72.0284C294.764 72.0284 294.903 72.0305 295.069 72.0348C295.235 72.0391 295.361 72.0455 295.446 72.054V73.5881C295.395 73.5753 295.278 73.5561 295.094 73.5305C294.915 73.5007 294.726 73.4858 294.526 73.4858C294.048 73.4858 293.622 73.5859 293.247 73.7862C292.876 73.9822 292.582 74.255 292.365 74.6044C292.152 74.9496 292.045 75.3437 292.045 75.7869V82H290.537ZM312.882 68.9091V82H311.348L304.214 71.7216H304.086V82H302.501V68.9091H304.035L311.194 79.2131H311.322V68.9091H312.882ZM325.003 73C324.862 72.5696 324.677 72.1839 324.447 71.843C324.221 71.4979 323.95 71.2038 323.635 70.9609C323.324 70.718 322.97 70.5327 322.574 70.4048C322.178 70.277 321.743 70.2131 321.27 70.2131C320.494 70.2131 319.789 70.4134 319.154 70.8139C318.519 71.2145 318.014 71.8047 317.639 72.5845C317.264 73.3643 317.077 74.321 317.077 75.4545C317.077 76.5881 317.266 77.5447 317.646 78.3246C318.025 79.1044 318.538 79.6946 319.186 80.0952C319.834 80.4957 320.563 80.696 321.372 80.696C322.122 80.696 322.783 80.5362 323.354 80.2166C323.929 79.8928 324.376 79.4368 324.696 78.8487C325.02 78.2564 325.182 77.5597 325.182 76.7585L325.668 76.8608H321.73V75.4545H326.716V76.8608C326.716 77.9389 326.486 78.8764 326.026 79.6733C325.57 80.4702 324.939 81.0881 324.134 81.527C323.332 81.9616 322.412 82.179 321.372 82.179C320.213 82.179 319.195 81.9062 318.317 81.3608C317.443 80.8153 316.761 80.0398 316.271 79.0341C315.786 78.0284 315.543 76.8352 315.543 75.4545C315.543 74.419 315.681 73.4879 315.958 72.6612C316.239 71.8303 316.636 71.1229 317.147 70.5391C317.658 69.9553 318.263 69.5078 318.962 69.1967C319.661 68.8857 320.43 68.7301 321.27 68.7301C321.96 68.7301 322.604 68.8345 323.2 69.0433C323.801 69.2479 324.336 69.5398 324.805 69.919C325.278 70.294 325.672 70.7436 325.987 71.2678C326.303 71.7876 326.52 72.3651 326.639 73H325.003ZM340.476 75.4545C340.476 76.8352 340.227 78.0284 339.729 79.0341C339.23 80.0398 338.546 80.8153 337.677 81.3608C336.807 81.9062 335.814 82.179 334.698 82.179C333.581 82.179 332.589 81.9062 331.719 81.3608C330.85 80.8153 330.166 80.0398 329.667 79.0341C329.169 78.0284 328.92 76.8352 328.92 75.4545C328.92 74.0739 329.169 72.8807 329.667 71.875C330.166 70.8693 330.85 70.0938 331.719 69.5483C332.589 69.0028 333.581 68.7301 334.698 68.7301C335.814 68.7301 336.807 69.0028 337.677 69.5483C338.546 70.0938 339.23 70.8693 339.729 71.875C340.227 72.8807 340.476 74.0739 340.476 75.4545ZM338.942 75.4545C338.942 74.321 338.753 73.3643 338.373 72.5845C337.998 71.8047 337.489 71.2145 336.846 70.8139C336.206 70.4134 335.491 70.2131 334.698 70.2131C333.905 70.2131 333.187 70.4134 332.544 70.8139C331.905 71.2145 331.395 71.8047 331.016 72.5845C330.641 73.3643 330.454 74.321 330.454 75.4545C330.454 76.5881 330.641 77.5447 331.016 78.3246C331.395 79.1044 331.905 79.6946 332.544 80.0952C333.187 80.4957 333.905 80.696 334.698 80.696C335.491 80.696 336.206 80.4957 336.846 80.0952C337.489 79.6946 337.998 79.1044 338.373 78.3246C338.753 77.5447 338.942 76.5881 338.942 75.4545ZM349.892 74.3807L348.537 74.7642C348.452 74.5384 348.326 74.3189 348.16 74.1058C347.998 73.8885 347.776 73.7095 347.495 73.5689C347.214 73.4283 346.854 73.358 346.415 73.358C345.814 73.358 345.313 73.4964 344.912 73.7734C344.516 74.0462 344.318 74.3935 344.318 74.8153C344.318 75.1903 344.454 75.4865 344.727 75.7038C345 75.9212 345.426 76.1023 346.006 76.2472L347.463 76.6051C348.341 76.8182 348.995 77.1442 349.425 77.5831C349.856 78.0178 350.071 78.5781 350.071 79.2642C350.071 79.8267 349.909 80.3295 349.585 80.7727C349.265 81.2159 348.818 81.5653 348.243 81.821C347.667 82.0767 346.998 82.2045 346.236 82.2045C345.234 82.2045 344.405 81.9872 343.749 81.5526C343.093 81.1179 342.677 80.483 342.503 79.6477L343.934 79.2898C344.071 79.8182 344.329 80.2145 344.708 80.4787C345.091 80.7429 345.592 80.875 346.21 80.875C346.913 80.875 347.471 80.7259 347.885 80.4276C348.302 80.125 348.511 79.7628 348.511 79.3409C348.511 79 348.392 78.7145 348.153 78.4844C347.915 78.25 347.548 78.0753 347.054 77.9602L345.417 77.5767C344.518 77.3636 343.858 77.0334 343.436 76.5859C343.018 76.1342 342.809 75.5696 342.809 74.892C342.809 74.3381 342.965 73.848 343.276 73.4219C343.591 72.9957 344.02 72.6612 344.561 72.4183C345.106 72.1754 345.724 72.054 346.415 72.054C347.386 72.054 348.149 72.267 348.703 72.6932C349.261 73.1193 349.657 73.6818 349.892 74.3807ZM357.404 82V72.1818H358.913V82H357.404ZM358.171 70.5455C357.877 70.5455 357.624 70.4453 357.411 70.245C357.202 70.0447 357.097 69.804 357.097 69.5227C357.097 69.2415 357.202 69.0007 357.411 68.8004C357.624 68.6001 357.877 68.5 358.171 68.5C358.465 68.5 358.717 68.6001 358.925 68.8004C359.138 69.0007 359.245 69.2415 359.245 69.5227C359.245 69.804 359.138 70.0447 358.925 70.245C358.717 70.4453 358.465 70.5455 358.171 70.5455ZM363.184 76.0938V82H361.676V72.1818H363.133V73.7159H363.261C363.491 73.2173 363.84 72.8168 364.309 72.5142C364.778 72.2074 365.383 72.054 366.124 72.054C366.789 72.054 367.371 72.1903 367.869 72.4631C368.368 72.7315 368.756 73.1406 369.033 73.6903C369.31 74.2358 369.448 74.9261 369.448 75.7614V82H367.94V75.8636C367.94 75.0923 367.74 74.4915 367.339 74.0611C366.938 73.6264 366.389 73.4091 365.69 73.4091C365.208 73.4091 364.778 73.5135 364.399 73.7223C364.024 73.9311 363.727 74.2358 363.51 74.6364C363.293 75.0369 363.184 75.5227 363.184 76.0938ZM381.64 72.1818V73.4602H376.347V72.1818H381.64ZM377.932 82V70.8267C377.932 70.2642 378.064 69.7955 378.328 69.4205C378.593 69.0455 378.936 68.7642 379.358 68.5767C379.779 68.3892 380.225 68.2955 380.694 68.2955C381.064 68.2955 381.367 68.3253 381.601 68.3849C381.836 68.4446 382.01 68.5 382.125 68.5511L381.691 69.8551C381.614 69.8295 381.507 69.7976 381.371 69.7592C381.239 69.7209 381.064 69.7017 380.847 69.7017C380.348 69.7017 379.988 69.8274 379.767 70.0788C379.549 70.3303 379.441 70.6989 379.441 71.1847V82H377.932ZM389.941 77.9858V72.1818H391.45V82H389.941V80.3381H389.839C389.609 80.8366 389.251 81.2607 388.765 81.6101C388.279 81.9553 387.666 82.1278 386.924 82.1278C386.311 82.1278 385.765 81.9936 385.288 81.7251C384.811 81.4524 384.436 81.0433 384.163 80.4979C383.89 79.9482 383.754 79.2557 383.754 78.4205V72.1818H385.262V78.3182C385.262 79.0341 385.463 79.6051 385.863 80.0312C386.268 80.4574 386.784 80.6705 387.41 80.6705C387.785 80.6705 388.166 80.5746 388.554 80.3828C388.946 80.1911 389.274 79.897 389.539 79.5007C389.807 79.1044 389.941 78.5994 389.941 77.9858ZM398.483 72.1818V73.4602H393.395V72.1818H398.483ZM394.877 69.8295H396.386V79.1875C396.386 79.6136 396.448 79.9332 396.571 80.1463C396.699 80.3551 396.861 80.4957 397.057 80.5682C397.257 80.6364 397.468 80.6705 397.69 80.6705C397.856 80.6705 397.993 80.6619 398.099 80.6449C398.206 80.6236 398.291 80.6065 398.355 80.5938L398.662 81.9489C398.559 81.9872 398.417 82.0256 398.233 82.0639C398.05 82.1065 397.818 82.1278 397.537 82.1278C397.11 82.1278 396.693 82.0362 396.284 81.853C395.879 81.6697 395.542 81.3906 395.274 81.0156C395.01 80.6406 394.877 80.1676 394.877 79.5966V69.8295ZM406.939 77.9858V72.1818H408.448V82H406.939V80.3381H406.837C406.607 80.8366 406.249 81.2607 405.763 81.6101C405.277 81.9553 404.664 82.1278 403.922 82.1278C403.309 82.1278 402.763 81.9936 402.286 81.7251C401.809 81.4524 401.434 81.0433 401.161 80.4979C400.888 79.9482 400.752 79.2557 400.752 78.4205V72.1818H402.26V78.3182C402.26 79.0341 402.461 79.6051 402.861 80.0312C403.266 80.4574 403.782 80.6705 404.408 80.6705C404.783 80.6705 405.164 80.5746 405.552 80.3828C405.944 80.1911 406.272 79.897 406.537 79.5007C406.805 79.1044 406.939 78.5994 406.939 77.9858ZM411.211 82V72.1818H412.668V73.6648H412.77C412.949 73.179 413.273 72.7848 413.742 72.4822C414.211 72.1797 414.739 72.0284 415.327 72.0284C415.438 72.0284 415.577 72.0305 415.743 72.0348C415.909 72.0391 416.035 72.0455 416.12 72.054V73.5881C416.069 73.5753 415.952 73.5561 415.768 73.5305C415.589 73.5007 415.4 73.4858 415.199 73.4858C414.722 73.4858 414.296 73.5859 413.921 73.7862C413.55 73.9822 413.256 74.255 413.039 74.6044C412.826 74.9496 412.719 75.3437 412.719 75.7869V82H411.211ZM421.726 82.2045C420.78 82.2045 419.964 81.9957 419.278 81.5781C418.596 81.1562 418.069 80.5682 417.699 79.8139C417.332 79.0554 417.149 78.1733 417.149 77.1676C417.149 76.1619 417.332 75.2756 417.699 74.5085C418.069 73.7372 418.585 73.1364 419.246 72.706C419.91 72.2713 420.686 72.054 421.572 72.054C422.084 72.054 422.589 72.1392 423.087 72.3097C423.586 72.4801 424.04 72.7571 424.449 73.1406C424.858 73.5199 425.184 74.0227 425.427 74.6491C425.67 75.2756 425.791 76.0469 425.791 76.9631V77.6023H418.223V76.2983H424.257C424.257 75.7443 424.146 75.25 423.925 74.8153C423.707 74.3807 423.396 74.0376 422.991 73.7862C422.591 73.5348 422.118 73.4091 421.572 73.4091C420.971 73.4091 420.452 73.5582 420.013 73.8565C419.578 74.1506 419.243 74.5341 419.009 75.0071C418.775 75.4801 418.657 75.9872 418.657 76.5284V77.3977C418.657 78.1392 418.785 78.7678 419.041 79.2834C419.301 79.7947 419.661 80.1847 420.121 80.4531C420.581 80.7173 421.116 80.8494 421.726 80.8494C422.122 80.8494 422.48 80.794 422.8 80.6832C423.123 80.5682 423.403 80.3977 423.637 80.1719C423.871 79.9418 424.052 79.6562 424.18 79.3153L425.638 79.7244C425.484 80.2188 425.226 80.6534 424.864 81.0284C424.502 81.3991 424.055 81.6889 423.522 81.8977C422.989 82.1023 422.39 82.2045 421.726 82.2045ZM430.055 78.3182V78.2415C430.063 77.4276 430.148 76.7798 430.31 76.2983C430.472 75.8168 430.702 75.4268 431.001 75.1286C431.299 74.8303 431.657 74.5554 432.074 74.304C432.326 74.1506 432.552 73.9695 432.752 73.7607C432.952 73.5476 433.11 73.3026 433.225 73.0256C433.344 72.7486 433.404 72.4418 433.404 72.1051C433.404 71.6875 433.306 71.3253 433.11 71.0185C432.914 70.7116 432.652 70.4751 432.324 70.3089C431.996 70.1428 431.631 70.0597 431.231 70.0597C430.881 70.0597 430.545 70.1321 430.221 70.277C429.897 70.4219 429.626 70.6499 429.409 70.9609C429.192 71.272 429.066 71.679 429.032 72.1818H427.421C427.455 71.4574 427.643 70.8374 427.983 70.3217C428.329 69.8061 428.782 69.4119 429.345 69.1392C429.912 68.8665 430.54 68.7301 431.231 68.7301C431.981 68.7301 432.633 68.8793 433.187 69.1776C433.745 69.4759 434.175 69.8849 434.478 70.4048C434.785 70.9247 434.938 71.517 434.938 72.1818C434.938 72.6506 434.866 73.0746 434.721 73.4538C434.58 73.8331 434.376 74.1719 434.107 74.4702C433.843 74.7685 433.523 75.0327 433.148 75.2628C432.773 75.4972 432.473 75.7443 432.247 76.0043C432.021 76.2599 431.857 76.5646 431.755 76.9183C431.653 77.272 431.597 77.7131 431.589 78.2415V78.3182H430.055ZM430.873 82.1023C430.557 82.1023 430.287 81.9893 430.061 81.7635C429.835 81.5376 429.722 81.267 429.722 80.9517C429.722 80.6364 429.835 80.3658 430.061 80.1399C430.287 79.9141 430.557 79.8011 430.873 79.8011C431.188 79.8011 431.459 79.9141 431.684 80.1399C431.91 80.3658 432.023 80.6364 432.023 80.9517C432.023 81.1605 431.97 81.3523 431.863 81.527C431.761 81.7017 431.623 81.8423 431.448 81.9489C431.278 82.0511 431.086 82.1023 430.873 82.1023Z" fill="#FD5E00"/>
<defs>
<filter id="filter0_d_526_1277" x="0" y="0" width="522" height="481.424" filterUnits="userSpaceOnUse" color-interpolation-filters="sRGB">
<feFlood flood-opacity="0" result="BackgroundImageFix"/>
<feColorMatrix in="SourceAlpha" type="matrix" values="0 0 0 0 0 0 0 0 0 0 0 0 0 0 0 0 0 0 127 0" result="hardAlpha"/>
<feOffset dy="2"/>
<feGaussianBlur stdDeviation="3"/>
<feComposite in2="hardAlpha" operator="out"/>
<feColorMatrix type="matrix" values="0 0 0 0 0.0509804 0 0 0 0 0.0392157 0 0 0 0 0.172549 0 0 0 0.08 0"/>
<feBlend mode="normal" in2="BackgroundImageFix" result="effect1_dropShadow_526_1277"/>
<feBlend mode="normal" in="SourceGraphic" in2="effect1_dropShadow_526_1277" result="shape"/>
</filter>
<filter id="filter1_d_526_1277" x="314.488" y="204.612" width="73.6582" height="73.6582" filterUnits="userSpaceOnUse" color-interpolation-filters="sRGB">
<feFlood flood-opacity="0" result="BackgroundImageFix"/>
<feColorMatrix in="SourceAlpha" type="matrix" values="0 0 0 0 0 0 0 0 0 0 0 0 0 0 0 0 0 0 127 0" result="hardAlpha"/>
<feOffset dy="8"/>
<feGaussianBlur stdDeviation="15"/>
<feComposite in2="hardAlpha" operator="out"/>
<feColorMatrix type="matrix" values="0 0 0 0 0.0509804 0 0 0 0 0.0392157 0 0 0 0 0.172549 0 0 0 0.15 0"/>
<feBlend mode="normal" in2="BackgroundImageFix" result="effect1_dropShadow_526_1277"/>
<feBlend mode="normal" in="SourceGraphic" in2="effect1_dropShadow_526_1277" result="shape"/>
</filter>
<filter id="filter2_d_526_1277" x="117.457" y="280.721" width="76.7051" height="75.8081" filterUnits="userSpaceOnUse" color-interpolation-filters="sRGB">
<feFlood flood-opacity="0" result="BackgroundImageFix"/>
<feColorMatrix in="SourceAlpha" type="matrix" values="0 0 0 0 0 0 0 0 0 0 0 0 0 0 0 0 0 0 127 0" result="hardAlpha"/>
<feOffset dy="8"/>
<feGaussianBlur stdDeviation="15"/>
<feComposite in2="hardAlpha" operator="out"/>
<feColorMatrix type="matrix" values="0 0 0 0 0.0509804 0 0 0 0 0.0392157 0 0 0 0 0.172549 0 0 0 0.15 0"/>
<feBlend mode="normal" in2="BackgroundImageFix" result="effect1_dropShadow_526_1277"/>
<feBlend mode="normal" in="SourceGraphic" in2="effect1_dropShadow_526_1277" result="shape"/>
</filter>
</defs>
</svg>
