<svg width="522" height="482" viewBox="0 0 522 482" fill="none" xmlns="http://www.w3.org/2000/svg">
<g filter="url(#filter0_d_526_1141)">
<rect x="6" y="4" width="510" height="469.424" rx="20" fill="white"/>
</g>
<path d="M163.211 189.652C176.053 176.81 191.298 166.624 208.077 159.674C224.856 152.724 242.839 149.146 261 149.146V287.442L163.211 189.652Z" fill="#87A5C1"/>
<path d="M123.679 271.059C127.446 239.479 141.984 210.162 164.841 188.048L261 287.442L123.679 271.059Z" fill="#D4E4FD"/>
<path d="M192.261 407.444C168.676 393.934 149.594 373.773 137.401 349.48C125.208 325.188 120.443 297.841 123.703 270.856L261 287.442L192.261 407.444Z" fill="#D4E4FD"/>
<path d="M358.789 385.231C337.263 406.758 309.234 420.58 279.051 424.553C248.868 428.527 218.217 422.43 191.853 407.209L261 287.442L358.789 385.231Z" fill="#D4E4FD"/>
<path d="M358.789 385.231C378.13 365.89 391.302 341.248 396.638 314.422C401.974 287.595 399.235 259.788 388.768 234.518C378.301 209.248 360.575 187.649 337.833 172.453C315.09 157.257 288.352 149.146 261 149.146L261 287.442L358.789 385.231Z" fill="#87A5C1"/>
<g filter="url(#filter1_d_526_1141)">
<circle cx="351.317" cy="233.441" r="6.8291" fill="#1E1B39"/>
</g>
<line x1="350.963" y1="233.088" x2="391.506" y2="192.545" stroke="#1E1B39"/>
<path d="M384.152 141C384.152 133.82 389.973 128 397.152 128H453.961C461.141 128 466.961 133.82 466.961 141V183C466.961 190.18 461.141 196 453.961 196H397.152C389.973 196 384.152 190.18 384.152 183V141Z" fill="#1E1B39"/>
<path d="M412.865 179.179C411.961 179.179 411.156 179.013 410.449 178.68C409.745 178.348 409.187 177.89 408.774 177.306C408.361 176.722 408.145 176.053 408.128 175.299H410.813C410.843 175.806 411.056 176.217 411.452 176.533C411.848 176.848 412.319 177.006 412.865 177.006C413.299 177.006 413.683 176.91 414.015 176.718C414.352 176.522 414.614 176.251 414.802 175.906C414.993 175.557 415.089 175.156 415.089 174.705C415.089 174.244 414.991 173.839 414.795 173.49C414.603 173.141 414.337 172.868 413.996 172.672C413.655 172.476 413.265 172.376 412.826 172.371C412.443 172.371 412.07 172.45 411.708 172.608C411.35 172.766 411.071 172.981 410.87 173.254L408.41 172.812L409.03 165.909H417.032V168.172H411.312L410.973 171.451H411.049C411.28 171.127 411.627 170.859 412.091 170.646C412.556 170.433 413.076 170.326 413.651 170.326C414.439 170.326 415.142 170.511 415.76 170.882C416.378 171.253 416.866 171.762 417.224 172.41C417.582 173.053 417.759 173.795 417.755 174.634C417.759 175.516 417.554 176.3 417.141 176.987C416.732 177.668 416.159 178.205 415.422 178.597C414.689 178.985 413.836 179.179 412.865 179.179ZM425.38 165.909V179H422.613V168.536H422.536L419.538 170.415V167.961L422.779 165.909H425.38ZM435.657 176.545V175.855C435.657 175.331 435.768 174.849 435.99 174.411C436.215 173.967 436.541 173.614 436.968 173.349C437.398 173.081 437.922 172.947 438.54 172.947C439.166 172.947 439.693 173.079 440.119 173.343C440.549 173.607 440.873 173.961 441.09 174.404C441.312 174.843 441.423 175.327 441.423 175.855V176.545C441.423 177.07 441.312 177.553 441.09 177.996C440.869 178.435 440.543 178.787 440.112 179.051C439.682 179.32 439.158 179.454 438.54 179.454C437.914 179.454 437.387 179.32 436.961 179.051C436.535 178.787 436.211 178.435 435.99 177.996C435.768 177.553 435.657 177.07 435.657 176.545ZM437.517 175.855V176.545C437.517 176.848 437.59 177.134 437.735 177.402C437.884 177.67 438.152 177.805 438.54 177.805C438.928 177.805 439.192 177.673 439.333 177.408C439.478 177.144 439.55 176.857 439.55 176.545V175.855C439.55 175.544 439.482 175.254 439.345 174.986C439.209 174.717 438.941 174.583 438.54 174.583C438.157 174.583 437.89 174.717 437.741 174.986C437.592 175.254 437.517 175.544 437.517 175.855ZM428.939 169.054V168.364C428.939 167.835 429.052 167.352 429.278 166.913C429.504 166.469 429.83 166.116 430.256 165.852C430.686 165.587 431.206 165.455 431.816 165.455C432.446 165.455 432.975 165.587 433.401 165.852C433.827 166.116 434.151 166.469 434.372 166.913C434.594 167.352 434.705 167.835 434.705 168.364V169.054C434.705 169.582 434.592 170.066 434.366 170.505C434.144 170.944 433.818 171.295 433.388 171.56C432.962 171.82 432.438 171.95 431.816 171.95C431.193 171.95 430.667 171.817 430.237 171.553C429.811 171.285 429.487 170.933 429.265 170.499C429.048 170.06 428.939 169.578 428.939 169.054ZM430.812 168.364V169.054C430.812 169.365 430.884 169.653 431.029 169.917C431.179 170.181 431.441 170.313 431.816 170.313C432.208 170.313 432.474 170.181 432.615 169.917C432.759 169.653 432.832 169.365 432.832 169.054V168.364C432.832 168.053 432.764 167.763 432.627 167.494C432.491 167.226 432.22 167.092 431.816 167.092C431.436 167.092 431.174 167.228 431.029 167.501C430.884 167.773 430.812 168.061 430.812 168.364ZM429.783 179L438.783 165.909H440.458L431.458 179H429.783Z" fill="white"/>
<path d="M397.99 143.364V155H396.581V143.364H397.99ZM401.974 149.75V155H400.634V146.273H401.929V147.636H402.043C402.247 147.193 402.558 146.837 402.974 146.568C403.391 146.295 403.929 146.159 404.588 146.159C405.179 146.159 405.696 146.28 406.139 146.523C406.582 146.761 406.927 147.125 407.173 147.614C407.42 148.098 407.543 148.712 407.543 149.455V155H406.202V149.545C406.202 148.86 406.024 148.326 405.668 147.943C405.312 147.557 404.823 147.364 404.202 147.364C403.774 147.364 403.391 147.456 403.054 147.642C402.721 147.828 402.457 148.098 402.264 148.455C402.071 148.811 401.974 149.242 401.974 149.75ZM414.993 149.386V150.636H409.902V149.386H414.993ZM423.534 148.227L422.33 148.568C422.254 148.367 422.142 148.172 421.994 147.983C421.85 147.79 421.653 147.631 421.403 147.506C421.153 147.381 420.833 147.318 420.443 147.318C419.909 147.318 419.464 147.441 419.108 147.688C418.756 147.93 418.58 148.239 418.58 148.614C418.58 148.947 418.701 149.21 418.943 149.403C419.186 149.597 419.564 149.758 420.08 149.886L421.375 150.205C422.155 150.394 422.737 150.684 423.119 151.074C423.502 151.46 423.693 151.958 423.693 152.568C423.693 153.068 423.549 153.515 423.261 153.909C422.977 154.303 422.58 154.614 422.068 154.841C421.557 155.068 420.962 155.182 420.284 155.182C419.394 155.182 418.657 154.989 418.074 154.602C417.491 154.216 417.121 153.652 416.966 152.909L418.239 152.591C418.36 153.061 418.589 153.413 418.926 153.648C419.267 153.883 419.712 154 420.261 154C420.886 154 421.383 153.867 421.75 153.602C422.121 153.333 422.307 153.011 422.307 152.636C422.307 152.333 422.201 152.08 421.989 151.875C421.777 151.667 421.451 151.511 421.011 151.409L419.557 151.068C418.758 150.879 418.17 150.585 417.795 150.188C417.424 149.786 417.239 149.284 417.239 148.682C417.239 148.189 417.377 147.754 417.653 147.375C417.934 146.996 418.314 146.699 418.795 146.483C419.28 146.267 419.83 146.159 420.443 146.159C421.307 146.159 421.985 146.348 422.477 146.727C422.973 147.106 423.326 147.606 423.534 148.227ZM429.507 146.273V147.409H424.984V146.273H429.507ZM426.303 144.182H427.643V152.5C427.643 152.879 427.698 153.163 427.808 153.352C427.922 153.538 428.066 153.663 428.24 153.727C428.418 153.788 428.606 153.818 428.803 153.818C428.95 153.818 429.071 153.811 429.166 153.795C429.261 153.777 429.337 153.761 429.393 153.75L429.666 154.955C429.575 154.989 429.448 155.023 429.286 155.057C429.123 155.095 428.916 155.114 428.666 155.114C428.287 155.114 427.916 155.032 427.553 154.869C427.193 154.706 426.893 154.458 426.655 154.125C426.42 153.792 426.303 153.371 426.303 152.864V144.182ZM434.976 155.182C434.188 155.182 433.497 154.994 432.902 154.619C432.311 154.244 431.849 153.72 431.516 153.045C431.186 152.371 431.021 151.583 431.021 150.682C431.021 149.773 431.186 148.979 431.516 148.301C431.849 147.623 432.311 147.097 432.902 146.722C433.497 146.347 434.188 146.159 434.976 146.159C435.764 146.159 436.453 146.347 437.044 146.722C437.639 147.097 438.101 147.623 438.43 148.301C438.764 148.979 438.93 149.773 438.93 150.682C438.93 151.583 438.764 152.371 438.43 153.045C438.101 153.72 437.639 154.244 437.044 154.619C436.453 154.994 435.764 155.182 434.976 155.182ZM434.976 153.977C435.574 153.977 436.067 153.824 436.453 153.517C436.839 153.21 437.125 152.807 437.311 152.307C437.497 151.807 437.589 151.265 437.589 150.682C437.589 150.098 437.497 149.555 437.311 149.051C437.125 148.547 436.839 148.14 436.453 147.83C436.067 147.519 435.574 147.364 434.976 147.364C434.377 147.364 433.885 147.519 433.499 147.83C433.112 148.14 432.826 148.547 432.641 149.051C432.455 149.555 432.362 150.098 432.362 150.682C432.362 151.265 432.455 151.807 432.641 152.307C432.826 152.807 433.112 153.21 433.499 153.517C433.885 153.824 434.377 153.977 434.976 153.977ZM440.977 155V146.273H442.273V147.591H442.364C442.523 147.159 442.811 146.809 443.227 146.54C443.644 146.271 444.114 146.136 444.636 146.136C444.735 146.136 444.858 146.138 445.006 146.142C445.153 146.146 445.265 146.152 445.341 146.159V147.523C445.295 147.511 445.191 147.494 445.028 147.472C444.869 147.445 444.701 147.432 444.523 147.432C444.098 147.432 443.72 147.521 443.386 147.699C443.057 147.873 442.795 148.116 442.602 148.426C442.413 148.733 442.318 149.083 442.318 149.477V155H440.977ZM450.324 155.182C449.483 155.182 448.758 154.996 448.148 154.625C447.542 154.25 447.074 153.727 446.744 153.057C446.419 152.383 446.256 151.598 446.256 150.705C446.256 149.811 446.419 149.023 446.744 148.341C447.074 147.655 447.532 147.121 448.119 146.739C448.71 146.352 449.4 146.159 450.188 146.159C450.642 146.159 451.091 146.235 451.534 146.386C451.977 146.538 452.381 146.784 452.744 147.125C453.108 147.462 453.398 147.909 453.614 148.466C453.83 149.023 453.938 149.708 453.938 150.523V151.091H447.21V149.932H452.574C452.574 149.439 452.475 149 452.278 148.614C452.085 148.227 451.809 147.922 451.449 147.699C451.093 147.475 450.672 147.364 450.188 147.364C449.653 147.364 449.191 147.496 448.801 147.761C448.415 148.023 448.117 148.364 447.909 148.784C447.701 149.205 447.597 149.655 447.597 150.136V150.909C447.597 151.568 447.71 152.127 447.938 152.585C448.169 153.04 448.489 153.386 448.898 153.625C449.307 153.86 449.782 153.977 450.324 153.977C450.676 153.977 450.994 153.928 451.278 153.83C451.566 153.727 451.814 153.576 452.023 153.375C452.231 153.17 452.392 152.917 452.506 152.614L453.801 152.977C453.665 153.417 453.436 153.803 453.114 154.136C452.792 154.466 452.394 154.723 451.92 154.909C451.447 155.091 450.915 155.182 450.324 155.182Z" fill="#E5E5EF"/>
<g filter="url(#filter2_d_526_1141)">
<ellipse cx="178.225" cy="354.625" rx="8.36573" ry="7.88692" transform="rotate(-169.718 178.225 354.625)" fill="#1E1B39"/>
</g>
<line y1="-0.5" x2="68.2578" y2="-0.5" transform="matrix(-0.838381 0.545084 -0.593494 -0.804839 178.227 354.626)" stroke="#1E1B39"/>
<path d="M40.416 370.846C40.416 363.666 46.2363 357.846 53.416 357.846H110.225C117.404 357.846 123.225 363.666 123.225 370.846V412.846C123.225 420.025 117.404 425.846 110.225 425.846H53.416C46.2363 425.846 40.416 420.025 40.416 412.846V370.846Z" fill="#1E1B39"/>
<path d="M62.3121 406.545V404.365L67.7773 395.755H69.6566V398.772H68.5444L65.0991 404.224V404.327H72.8654V406.545H62.3121ZM68.5955 408.846V405.88L68.6467 404.915V395.755H71.2418V408.846H68.5955ZM79.446 395.576C80.1193 395.576 80.767 395.689 81.3892 395.915C82.0156 396.14 82.5739 396.501 83.0639 396.995C83.5582 397.489 83.9482 398.145 84.2337 398.964C84.5234 399.778 84.6705 400.777 84.6747 401.961C84.6747 403.074 84.549 404.067 84.2976 404.94C84.0504 405.809 83.6946 406.549 83.2301 407.158C82.7656 407.768 82.2053 408.232 81.549 408.552C80.8928 408.867 80.1598 409.025 79.3501 409.025C78.4766 409.025 77.7053 408.856 77.0362 408.52C76.3672 408.179 75.8281 407.716 75.419 407.133C75.0142 406.545 74.7692 405.884 74.6839 405.151H77.4134C77.5199 405.628 77.7436 405.999 78.0845 406.263C78.4254 406.523 78.8473 406.653 79.3501 406.653C80.2024 406.653 80.8501 406.282 81.2933 405.541C81.7365 404.795 81.9602 403.775 81.9645 402.479H81.875C81.679 402.863 81.4148 403.193 81.0824 403.47C80.75 403.743 80.3686 403.954 79.9382 404.103C79.5121 404.252 79.0582 404.327 78.5767 404.327C77.8054 404.327 77.1172 404.145 76.5121 403.783C75.907 403.421 75.4297 402.922 75.0803 402.287C74.7308 401.653 74.5561 400.928 74.5561 400.114C74.5518 399.236 74.7543 398.454 75.1634 397.768C75.5724 397.082 76.1435 396.545 76.8764 396.157C77.6136 395.765 78.4702 395.572 79.446 395.576ZM79.4652 397.749C79.0348 397.749 78.6513 397.851 78.3146 398.056C77.9822 398.26 77.718 398.535 77.522 398.881C77.3303 399.226 77.2365 399.611 77.2408 400.037C77.2408 400.468 77.3345 400.856 77.522 401.201C77.7138 401.542 77.9737 401.814 78.3018 402.019C78.6342 402.219 79.0135 402.319 79.4396 402.319C79.7592 402.319 80.0554 402.26 80.3281 402.14C80.6009 402.021 80.8374 401.857 81.0376 401.648C81.2422 401.435 81.402 401.19 81.517 400.913C81.6321 400.636 81.6896 400.342 81.6896 400.031C81.6854 399.618 81.5874 399.238 81.3956 398.893C81.2038 398.548 80.9396 398.271 80.603 398.062C80.2663 397.854 79.8871 397.749 79.4652 397.749ZM93.7578 406.391V405.701C93.7578 405.177 93.8686 404.695 94.0902 404.256C94.3161 403.813 94.642 403.459 95.0682 403.195C95.4986 402.927 96.0227 402.792 96.6406 402.792C97.267 402.792 97.7933 402.925 98.2195 403.189C98.6499 403.453 98.9737 403.807 99.1911 404.25C99.4126 404.689 99.5234 405.172 99.5234 405.701V406.391C99.5234 406.915 99.4126 407.399 99.1911 407.842C98.9695 408.281 98.6435 408.633 98.2131 408.897C97.7827 409.165 97.2585 409.3 96.6406 409.3C96.0142 409.3 95.4879 409.165 95.0618 408.897C94.6357 408.633 94.3118 408.281 94.0902 407.842C93.8686 407.399 93.7578 406.915 93.7578 406.391ZM95.6179 405.701V406.391C95.6179 406.694 95.6903 406.979 95.8352 407.248C95.9844 407.516 96.2528 407.65 96.6406 407.65C97.0284 407.65 97.2926 407.518 97.4332 407.254C97.5781 406.99 97.6506 406.702 97.6506 406.391V405.701C97.6506 405.39 97.5824 405.1 97.446 404.831C97.3097 404.563 97.0412 404.429 96.6406 404.429C96.2571 404.429 95.9908 404.563 95.8416 404.831C95.6925 405.1 95.6179 405.39 95.6179 405.701ZM87.0398 398.9V398.209C87.0398 397.681 87.1527 397.197 87.3786 396.758C87.6044 396.315 87.9304 395.961 88.3565 395.697C88.7869 395.433 89.3068 395.301 89.9162 395.301C90.5469 395.301 91.0753 395.433 91.5014 395.697C91.9276 395.961 92.2514 396.315 92.473 396.758C92.6946 397.197 92.8054 397.681 92.8054 398.209V398.9C92.8054 399.428 92.6925 399.912 92.4666 400.351C92.245 400.79 91.919 401.141 91.4886 401.405C91.0625 401.665 90.5384 401.795 89.9162 401.795C89.294 401.795 88.7678 401.663 88.3374 401.399C87.9112 401.131 87.5874 400.779 87.3658 400.344C87.1484 399.905 87.0398 399.424 87.0398 398.9ZM88.9126 398.209V398.9C88.9126 399.211 88.9851 399.498 89.13 399.763C89.2791 400.027 89.5412 400.159 89.9162 400.159C90.3082 400.159 90.5746 400.027 90.7152 399.763C90.8601 399.498 90.9325 399.211 90.9325 398.9V398.209C90.9325 397.898 90.8643 397.608 90.728 397.34C90.5916 397.072 90.321 396.937 89.9162 396.937C89.5369 396.937 89.2749 397.074 89.13 397.346C88.9851 397.619 88.9126 397.907 88.9126 398.209ZM87.8835 408.846L96.8835 395.755H98.5582L89.5582 408.846H87.8835Z" fill="white"/>
<path d="M68.5456 379.028C68.5456 380.255 68.324 381.315 67.8809 382.209C67.4377 383.103 66.8297 383.793 66.057 384.278C65.2843 384.762 64.4017 385.005 63.4093 385.005C62.4168 385.005 61.5343 384.762 60.7615 384.278C59.9888 383.793 59.3809 383.103 58.9377 382.209C58.4945 381.315 58.2729 380.255 58.2729 379.028C58.2729 377.8 58.4945 376.74 58.9377 375.846C59.3809 374.952 59.9888 374.262 60.7615 373.778C61.5343 373.293 62.4168 373.05 63.4093 373.05C64.4017 373.05 65.2843 373.293 66.057 373.778C66.8297 374.262 67.4377 374.952 67.8809 375.846C68.324 376.74 68.5456 377.8 68.5456 379.028ZM67.182 379.028C67.182 378.02 67.0134 377.17 66.6763 376.476C66.343 375.783 65.8903 375.259 65.3184 374.903C64.7502 374.546 64.1138 374.368 63.4093 374.368C62.7047 374.368 62.0665 374.546 61.4945 374.903C60.9263 375.259 60.4737 375.783 60.1365 376.476C59.8032 377.17 59.6365 378.02 59.6365 379.028C59.6365 380.035 59.8032 380.885 60.1365 381.579C60.4737 382.272 60.9263 382.796 61.4945 383.153C62.0665 383.509 62.7047 383.687 63.4093 383.687C64.1138 383.687 64.7502 383.509 65.3184 383.153C65.8903 382.796 66.343 382.272 66.6763 381.579C67.0134 380.885 67.182 380.035 67.182 379.028ZM72.074 379.596V384.846H70.7331V376.118H72.0286V377.482H72.1422C72.3468 377.039 72.6574 376.683 73.074 376.414C73.4907 376.141 74.0286 376.005 74.6877 376.005C75.2786 376.005 75.7956 376.126 76.2388 376.368C76.682 376.607 77.0267 376.971 77.2729 377.459C77.5191 377.944 77.6422 378.558 77.6422 379.3V384.846H76.3013V379.391C76.3013 378.706 76.1233 378.171 75.7672 377.789C75.4112 377.403 74.9225 377.209 74.3013 377.209C73.8733 377.209 73.4907 377.302 73.1536 377.488C72.8203 377.673 72.557 377.944 72.3638 378.3C72.1706 378.656 72.074 379.088 72.074 379.596ZM81.4334 373.209V384.846H80.0925V373.209H81.4334ZM83.8894 384.846V376.118H85.2303V384.846H83.8894ZM84.5712 374.664C84.3098 374.664 84.0845 374.575 83.8951 374.397C83.7095 374.219 83.6167 374.005 83.6167 373.755C83.6167 373.505 83.7095 373.291 83.8951 373.113C84.0845 372.935 84.3098 372.846 84.5712 372.846C84.8326 372.846 85.056 372.935 85.2417 373.113C85.431 373.291 85.5257 373.505 85.5257 373.755C85.5257 374.005 85.431 374.219 85.2417 374.397C85.056 374.575 84.8326 374.664 84.5712 374.664ZM89.0272 379.596V384.846H87.6863V376.118H88.9817V377.482H89.0953C89.2999 377.039 89.6105 376.683 90.0272 376.414C90.4438 376.141 90.9817 376.005 91.6408 376.005C92.2317 376.005 92.7488 376.126 93.1919 376.368C93.6351 376.607 93.9798 376.971 94.226 377.459C94.4722 377.944 94.5953 378.558 94.5953 379.3V384.846H93.2544V379.391C93.2544 378.706 93.0764 378.171 92.7203 377.789C92.3643 377.403 91.8757 377.209 91.2544 377.209C90.8264 377.209 90.4438 377.302 90.1067 377.488C89.7734 377.673 89.5101 377.944 89.3169 378.3C89.1238 378.656 89.0272 379.088 89.0272 379.596ZM100.705 385.028C99.8638 385.028 99.1384 384.842 98.5286 384.471C97.9225 384.096 97.4547 383.573 97.1252 382.903C96.7994 382.228 96.6365 381.444 96.6365 380.55C96.6365 379.656 96.7994 378.868 97.1252 378.187C97.4547 377.501 97.9131 376.967 98.5002 376.584C99.0911 376.198 99.7805 376.005 100.568 376.005C101.023 376.005 101.472 376.081 101.915 376.232C102.358 376.384 102.762 376.63 103.125 376.971C103.489 377.308 103.779 377.755 103.994 378.312C104.21 378.868 104.318 379.554 104.318 380.368V380.937H97.5911V379.778H102.955C102.955 379.285 102.856 378.846 102.659 378.459C102.466 378.073 102.19 377.768 101.83 377.545C101.474 377.321 101.053 377.209 100.568 377.209C100.034 377.209 99.5721 377.342 99.182 377.607C98.7956 377.868 98.4983 378.209 98.29 378.63C98.0816 379.05 97.9775 379.501 97.9775 379.982V380.755C97.9775 381.414 98.0911 381.973 98.3184 382.431C98.5494 382.885 98.8695 383.232 99.2786 383.471C99.6877 383.706 100.163 383.823 100.705 383.823C101.057 383.823 101.375 383.774 101.659 383.675C101.947 383.573 102.195 383.421 102.404 383.221C102.612 383.016 102.773 382.762 102.887 382.459L104.182 382.823C104.046 383.262 103.816 383.649 103.494 383.982C103.173 384.312 102.775 384.569 102.301 384.755C101.828 384.937 101.296 385.028 100.705 385.028Z" fill="#E5E5EF"/>
<line x1="38" y1="111.5" x2="484" y2="111.5" stroke="#0C9CBE"/>
<path d="M39.3906 66H43.5625L47.9688 76.75H48.1563L52.5625 66H56.7344V82H53.4531V71.5859H53.3203L49.1797 81.9219H46.9453L42.8047 71.5469H42.6719V82H39.3906V66ZM64.9277 82.2344C63.6934 82.2344 62.6309 81.9844 61.7402 81.4844C60.8548 80.9792 60.1725 80.2656 59.6934 79.3437C59.2142 78.4167 58.9746 77.3203 58.9746 76.0547C58.9746 74.8203 59.2142 73.737 59.6934 72.8047C60.1725 71.8724 60.847 71.1458 61.7168 70.625C62.5918 70.1042 63.6178 69.8438 64.7949 69.8438C65.5866 69.8438 66.3236 69.9714 67.0059 70.2266C67.6934 70.4766 68.2923 70.8542 68.8027 71.3594C69.3184 71.8646 69.7194 72.5 70.0059 73.2656C70.2923 74.026 70.4355 74.9167 70.4355 75.9375V76.8516H60.3027V74.7891H67.3027C67.3027 74.3099 67.1986 73.8854 66.9902 73.5156C66.7819 73.1458 66.4928 72.8568 66.123 72.6484C65.7585 72.4349 65.334 72.3281 64.8496 72.3281C64.3444 72.3281 63.8965 72.4453 63.5059 72.6797C63.1204 72.9089 62.8184 73.2187 62.5996 73.6094C62.3809 73.9948 62.2689 74.4245 62.2637 74.8984V76.8594C62.2637 77.4531 62.373 77.9661 62.5918 78.3984C62.8158 78.8307 63.1309 79.1641 63.5371 79.3984C63.9434 79.6328 64.4251 79.75 64.9824 79.75C65.3522 79.75 65.6908 79.6979 65.998 79.5938C66.3053 79.4896 66.5684 79.3333 66.7871 79.125C67.0059 78.9167 67.1725 78.6615 67.2871 78.3594L70.3652 78.5625C70.209 79.3021 69.8887 79.9479 69.4043 80.5C68.9251 81.0469 68.3053 81.474 67.5449 81.7813C66.7897 82.0833 65.9173 82.2344 64.9277 82.2344ZM78.9902 70V72.5H71.7637V70H78.9902ZM73.4043 67.125H76.7324V78.3125C76.7324 78.6198 76.7793 78.8594 76.873 79.0312C76.9668 79.1979 77.097 79.3151 77.2637 79.3828C77.4355 79.4505 77.6335 79.4844 77.8574 79.4844C78.0137 79.4844 78.1699 79.4714 78.3262 79.4453C78.4824 79.4141 78.6022 79.3906 78.6855 79.375L79.209 81.8516C79.0423 81.9036 78.8079 81.9635 78.5059 82.0313C78.2038 82.1042 77.8366 82.1484 77.4043 82.1641C76.6022 82.1953 75.8991 82.0885 75.2949 81.8437C74.696 81.599 74.2298 81.2187 73.8965 80.7031C73.5632 80.1875 73.3991 79.5365 73.4043 78.75V67.125ZM84.7441 75.0625V82H81.416V66H84.6504V72.1172H84.791C85.0618 71.4089 85.4993 70.8542 86.1035 70.4531C86.7077 70.0469 87.4655 69.8438 88.377 69.8438C89.2103 69.8438 89.9368 70.026 90.5566 70.3906C91.1816 70.75 91.666 71.2682 92.0098 71.9453C92.3587 72.6172 92.5306 73.4219 92.5254 74.3594V82H89.1973V74.9531C89.2025 74.2135 89.015 73.638 88.6348 73.2266C88.2598 72.8151 87.7337 72.6094 87.0566 72.6094C86.6035 72.6094 86.2025 72.7057 85.8535 72.8984C85.5098 73.0911 85.2389 73.3724 85.041 73.7422C84.8483 74.1068 84.7493 74.5469 84.7441 75.0625ZM100.566 82.2344C99.3529 82.2344 98.3034 81.9766 97.418 81.4609C96.5378 80.9401 95.8581 80.2161 95.3789 79.2891C94.8997 78.3568 94.6602 77.276 94.6602 76.0469C94.6602 74.8073 94.8997 73.724 95.3789 72.7969C95.8581 71.8646 96.5378 71.1406 97.418 70.625C98.3034 70.1042 99.3529 69.8438 100.566 69.8438C101.78 69.8438 102.827 70.1042 103.707 70.625C104.592 71.1406 105.275 71.8646 105.754 72.7969C106.233 73.724 106.473 74.8073 106.473 76.0469C106.473 77.276 106.233 78.3568 105.754 79.2891C105.275 80.2161 104.592 80.9401 103.707 81.4609C102.827 81.9766 101.78 82.2344 100.566 82.2344ZM100.582 79.6562C101.134 79.6562 101.595 79.5 101.965 79.1875C102.335 78.8698 102.613 78.4375 102.801 77.8906C102.993 77.3437 103.09 76.7214 103.09 76.0234C103.09 75.3255 102.993 74.7031 102.801 74.1562C102.613 73.6094 102.335 73.1771 101.965 72.8594C101.595 72.5417 101.134 72.3828 100.582 72.3828C100.025 72.3828 99.556 72.5417 99.1758 72.8594C98.8008 73.1771 98.5169 73.6094 98.3242 74.1562C98.1367 74.7031 98.043 75.3255 98.043 76.0234C98.043 76.7214 98.1367 77.3437 98.3242 77.8906C98.5169 78.4375 98.8008 78.8698 99.1758 79.1875C99.556 79.5 100.025 79.6562 100.582 79.6562ZM113.059 82.1953C112.147 82.1953 111.322 81.9609 110.582 81.4922C109.848 81.0182 109.264 80.3229 108.832 79.4062C108.405 78.4844 108.191 77.3542 108.191 76.0156C108.191 74.6406 108.413 73.4974 108.855 72.5859C109.298 71.6693 109.887 70.9844 110.621 70.5313C111.361 70.0729 112.171 69.8438 113.051 69.8438C113.723 69.8438 114.283 69.9583 114.73 70.1875C115.184 70.4115 115.548 70.6927 115.824 71.0312C116.105 71.3646 116.319 71.6927 116.465 72.0156H116.566V66H119.887V82H116.605V80.0781H116.465C116.309 80.4115 116.087 80.7422 115.801 81.0703C115.52 81.3932 115.152 81.6615 114.699 81.875C114.251 82.0885 113.704 82.1953 113.059 82.1953ZM114.113 79.5469C114.65 79.5469 115.103 79.401 115.473 79.1094C115.848 78.8125 116.134 78.3984 116.332 77.8672C116.535 77.3359 116.637 76.7135 116.637 76C116.637 75.2865 116.538 74.6667 116.34 74.1406C116.142 73.6146 115.855 73.2083 115.48 72.9219C115.105 72.6354 114.65 72.4922 114.113 72.4922C113.566 72.4922 113.105 72.6406 112.73 72.9375C112.355 73.2344 112.072 73.6458 111.879 74.1719C111.686 74.6979 111.59 75.3073 111.59 76C111.59 76.6979 111.686 77.3151 111.879 77.8516C112.077 78.3828 112.361 78.7995 112.73 79.1016C113.105 79.3984 113.566 79.5469 114.113 79.5469ZM132.607 73.4219L129.561 73.6094C129.508 73.349 129.396 73.1146 129.225 72.9062C129.053 72.6927 128.826 72.5234 128.545 72.3984C128.269 72.2682 127.938 72.2031 127.553 72.2031C127.037 72.2031 126.602 72.3125 126.248 72.5312C125.894 72.7448 125.717 73.0312 125.717 73.3906C125.717 73.6771 125.831 73.9193 126.061 74.1172C126.29 74.3151 126.683 74.474 127.24 74.5937L129.412 75.0312C130.579 75.2708 131.449 75.6562 132.021 76.1875C132.594 76.7187 132.881 77.4167 132.881 78.2812C132.881 79.0677 132.649 79.7578 132.186 80.3516C131.727 80.9453 131.097 81.4089 130.295 81.7422C129.498 82.0703 128.579 82.2344 127.537 82.2344C125.949 82.2344 124.683 81.9036 123.74 81.2422C122.803 80.5755 122.253 79.6693 122.092 78.5234L125.365 78.3516C125.464 78.8359 125.704 79.2057 126.084 79.4609C126.464 79.7109 126.951 79.8359 127.545 79.8359C128.128 79.8359 128.597 79.724 128.951 79.5C129.311 79.2708 129.493 78.9766 129.498 78.6172C129.493 78.3151 129.365 78.0677 129.115 77.875C128.865 77.6771 128.48 77.526 127.959 77.4219L125.881 77.0078C124.709 76.7734 123.837 76.3672 123.264 75.7891C122.696 75.2109 122.412 74.474 122.412 73.5781C122.412 72.8073 122.62 72.1432 123.037 71.5859C123.459 71.0286 124.05 70.599 124.811 70.2969C125.576 69.9948 126.472 69.8438 127.498 69.8438C129.014 69.8438 130.206 70.1641 131.076 70.8047C131.951 71.4453 132.462 72.3177 132.607 73.4219ZM145.49 82.2344C144.277 82.2344 143.227 81.9766 142.342 81.4609C141.462 80.9401 140.782 80.2161 140.303 79.2891C139.824 78.3568 139.584 77.276 139.584 76.0469C139.584 74.8073 139.824 73.724 140.303 72.7969C140.782 71.8646 141.462 71.1406 142.342 70.625C143.227 70.1042 144.277 69.8438 145.49 69.8438C146.704 69.8438 147.751 70.1042 148.631 70.625C149.516 71.1406 150.199 71.8646 150.678 72.7969C151.157 73.724 151.396 74.8073 151.396 76.0469C151.396 77.276 151.157 78.3568 150.678 79.2891C150.199 80.2161 149.516 80.9401 148.631 81.4609C147.751 81.9766 146.704 82.2344 145.49 82.2344ZM145.506 79.6562C146.058 79.6562 146.519 79.5 146.889 79.1875C147.258 78.8698 147.537 78.4375 147.725 77.8906C147.917 77.3437 148.014 76.7214 148.014 76.0234C148.014 75.3255 147.917 74.7031 147.725 74.1562C147.537 73.6094 147.258 73.1771 146.889 72.8594C146.519 72.5417 146.058 72.3828 145.506 72.3828C144.949 72.3828 144.48 72.5417 144.1 72.8594C143.725 73.1771 143.441 73.6094 143.248 74.1562C143.061 74.7031 142.967 75.3255 142.967 76.0234C142.967 76.7214 143.061 77.3437 143.248 77.8906C143.441 78.4375 143.725 78.8698 144.1 79.1875C144.48 79.5 144.949 79.6562 145.506 79.6562ZM160.014 70V72.5H152.607V70H160.014ZM154.303 82V69.1328C154.303 68.263 154.472 67.5417 154.811 66.9687C155.154 66.3958 155.623 65.9661 156.217 65.6797C156.811 65.3932 157.485 65.25 158.24 65.25C158.751 65.25 159.217 65.2891 159.639 65.3672C160.066 65.4453 160.383 65.5156 160.592 65.5781L159.998 68.0781C159.868 68.0365 159.706 67.9974 159.514 67.9609C159.326 67.9245 159.133 67.9062 158.936 67.9062C158.446 67.9062 158.105 68.0208 157.912 68.25C157.719 68.474 157.623 68.7891 157.623 69.1953V82H154.303ZM175.881 70.6016C175.818 69.9714 175.55 69.4818 175.076 69.1328C174.602 68.7839 173.959 68.6094 173.146 68.6094C172.594 68.6094 172.128 68.6875 171.748 68.8437C171.368 68.9948 171.076 69.2057 170.873 69.4766C170.675 69.7474 170.576 70.0547 170.576 70.3984C170.566 70.6849 170.626 70.9349 170.756 71.1484C170.891 71.362 171.076 71.5469 171.311 71.7031C171.545 71.8542 171.816 71.987 172.123 72.1016C172.43 72.2109 172.758 72.3047 173.107 72.3828L174.545 72.7266C175.243 72.8828 175.883 73.0911 176.467 73.3516C177.05 73.612 177.555 73.9323 177.982 74.3125C178.41 74.6927 178.74 75.1406 178.975 75.6562C179.214 76.1719 179.337 76.763 179.342 77.4297C179.337 78.4089 179.087 79.2578 178.592 79.9766C178.102 80.6901 177.394 81.2448 176.467 81.6406C175.545 82.0312 174.433 82.2266 173.131 82.2266C171.839 82.2266 170.714 82.0286 169.756 81.6328C168.803 81.237 168.058 80.651 167.521 79.875C166.99 79.0937 166.712 78.1276 166.686 76.9766H169.959C169.995 77.513 170.149 77.9609 170.42 78.3203C170.696 78.6745 171.063 78.9427 171.521 79.125C171.985 79.3021 172.508 79.3906 173.092 79.3906C173.665 79.3906 174.162 79.3073 174.584 79.1406C175.011 78.974 175.342 78.7422 175.576 78.4453C175.811 78.1484 175.928 77.8073 175.928 77.4219C175.928 77.0625 175.821 76.7604 175.607 76.5156C175.399 76.2708 175.092 76.0625 174.686 75.8906C174.285 75.7187 173.792 75.5625 173.209 75.4219L171.467 74.9844C170.118 74.6562 169.053 74.1432 168.271 73.4453C167.49 72.7474 167.102 71.8073 167.107 70.625C167.102 69.6562 167.36 68.8099 167.881 68.0859C168.407 67.362 169.128 66.7969 170.045 66.3906C170.962 65.9844 172.003 65.7812 173.17 65.7812C174.357 65.7812 175.394 65.9844 176.279 66.3906C177.17 66.7969 177.863 67.362 178.357 68.0859C178.852 68.8099 179.107 69.6484 179.123 70.6016H175.881ZM184.883 75.0625V82H181.555V66H184.789V72.1172H184.93C185.201 71.4089 185.638 70.8542 186.242 70.4531C186.846 70.0469 187.604 69.8438 188.516 69.8438C189.349 69.8438 190.076 70.026 190.695 70.3906C191.32 70.75 191.805 71.2682 192.148 71.9453C192.497 72.6172 192.669 73.4219 192.664 74.3594V82H189.336V74.9531C189.341 74.2135 189.154 73.638 188.773 73.2266C188.398 72.8151 187.872 72.6094 187.195 72.6094C186.742 72.6094 186.341 72.7057 185.992 72.8984C185.648 73.0911 185.378 73.3724 185.18 73.7422C184.987 74.1068 184.888 74.5469 184.883 75.0625ZM200.705 82.2344C199.492 82.2344 198.442 81.9766 197.557 81.4609C196.676 80.9401 195.997 80.2161 195.518 79.2891C195.038 78.3568 194.799 77.276 194.799 76.0469C194.799 74.8073 195.038 73.724 195.518 72.7969C195.997 71.8646 196.676 71.1406 197.557 70.625C198.442 70.1042 199.492 69.8438 200.705 69.8438C201.919 69.8438 202.965 70.1042 203.846 70.625C204.731 71.1406 205.413 71.8646 205.893 72.7969C206.372 73.724 206.611 74.8073 206.611 76.0469C206.611 77.276 206.372 78.3568 205.893 79.2891C205.413 80.2161 204.731 80.9401 203.846 81.4609C202.965 81.9766 201.919 82.2344 200.705 82.2344ZM200.721 79.6562C201.273 79.6562 201.734 79.5 202.104 79.1875C202.473 78.8698 202.752 78.4375 202.939 77.8906C203.132 77.3437 203.229 76.7214 203.229 76.0234C203.229 75.3255 203.132 74.7031 202.939 74.1562C202.752 73.6094 202.473 73.1771 202.104 72.8594C201.734 72.5417 201.273 72.3828 200.721 72.3828C200.163 72.3828 199.695 72.5417 199.314 72.8594C198.939 73.1771 198.656 73.6094 198.463 74.1562C198.275 74.7031 198.182 75.3255 198.182 76.0234C198.182 76.7214 198.275 77.3437 198.463 77.8906C198.656 78.4375 198.939 78.8698 199.314 79.1875C199.695 79.5 200.163 79.6562 200.721 79.6562ZM208.775 86.5V70H212.057V72.0156H212.205C212.351 71.6927 212.562 71.3646 212.838 71.0312C213.119 70.6927 213.484 70.4115 213.932 70.1875C214.385 69.9583 214.947 69.8438 215.619 69.8438C216.494 69.8438 217.301 70.0729 218.041 70.5313C218.781 70.9844 219.372 71.6693 219.814 72.5859C220.257 73.4974 220.479 74.6406 220.479 76.0156C220.479 77.3542 220.262 78.4844 219.83 79.4062C219.403 80.3229 218.82 81.0182 218.08 81.4922C217.346 81.9609 216.523 82.1953 215.611 82.1953C214.965 82.1953 214.416 82.0885 213.963 81.875C213.515 81.6615 213.148 81.3932 212.861 81.0703C212.575 80.7422 212.356 80.4115 212.205 80.0781H212.104V86.5H208.775ZM212.033 76C212.033 76.7135 212.132 77.3359 212.33 77.8672C212.528 78.3984 212.814 78.8125 213.189 79.1094C213.564 79.401 214.02 79.5469 214.557 79.5469C215.098 79.5469 215.557 79.3984 215.932 79.1016C216.307 78.7995 216.59 78.3828 216.783 77.8516C216.981 77.3151 217.08 76.6979 217.08 76C217.08 75.3073 216.984 74.6979 216.791 74.1719C216.598 73.6458 216.314 73.2344 215.939 72.9375C215.564 72.6406 215.104 72.4922 214.557 72.4922C214.015 72.4922 213.557 72.6354 213.182 72.9219C212.812 73.2083 212.528 73.6146 212.33 74.1406C212.132 74.6667 212.033 75.2865 212.033 76ZM222.697 86.5V70H225.979V72.0156H226.127C226.273 71.6927 226.484 71.3646 226.76 71.0312C227.041 70.6927 227.406 70.4115 227.854 70.1875C228.307 69.9583 228.869 69.8438 229.541 69.8438C230.416 69.8438 231.223 70.0729 231.963 70.5313C232.702 70.9844 233.294 71.6693 233.736 72.5859C234.179 73.4974 234.4 74.6406 234.4 76.0156C234.4 77.3542 234.184 78.4844 233.752 79.4062C233.325 80.3229 232.742 81.0182 232.002 81.4922C231.268 81.9609 230.445 82.1953 229.533 82.1953C228.887 82.1953 228.338 82.0885 227.885 81.875C227.437 81.6615 227.07 81.3932 226.783 81.0703C226.497 80.7422 226.278 80.4115 226.127 80.0781H226.025V86.5H222.697ZM225.955 76C225.955 76.7135 226.054 77.3359 226.252 77.8672C226.45 78.3984 226.736 78.8125 227.111 79.1094C227.486 79.401 227.942 79.5469 228.479 79.5469C229.02 79.5469 229.479 79.3984 229.854 79.1016C230.229 78.7995 230.512 78.3828 230.705 77.8516C230.903 77.3151 231.002 76.6979 231.002 76C231.002 75.3073 230.906 74.6979 230.713 74.1719C230.52 73.6458 230.236 73.2344 229.861 72.9375C229.486 72.6406 229.025 72.4922 228.479 72.4922C227.937 72.4922 227.479 72.6354 227.104 72.9219C226.734 73.2083 226.45 73.6146 226.252 74.1406C226.054 74.6667 225.955 75.2865 225.955 76ZM236.619 82V70H239.947V82H236.619ZM238.291 68.4531C237.796 68.4531 237.372 68.2891 237.018 67.9609C236.669 67.6276 236.494 67.2292 236.494 66.7656C236.494 66.3073 236.669 65.9141 237.018 65.5859C237.372 65.2526 237.796 65.0859 238.291 65.0859C238.786 65.0859 239.208 65.2526 239.557 65.5859C239.911 65.9141 240.088 66.3073 240.088 66.7656C240.088 67.2292 239.911 67.6276 239.557 67.9609C239.208 68.2891 238.786 68.4531 238.291 68.4531ZM245.941 75.0625V82H242.613V70H245.785V72.1172H245.926C246.191 71.4193 246.637 70.8672 247.262 70.4609C247.887 70.0495 248.645 69.8438 249.535 69.8438C250.368 69.8438 251.095 70.026 251.715 70.3906C252.335 70.7552 252.816 71.276 253.16 71.9531C253.504 72.625 253.676 73.4271 253.676 74.3594V82H250.348V74.9531C250.353 74.2187 250.165 73.6458 249.785 73.2344C249.405 72.8177 248.882 72.6094 248.215 72.6094C247.767 72.6094 247.371 72.7057 247.027 72.8984C246.689 73.0911 246.423 73.3724 246.23 73.7422C246.043 74.1068 245.947 74.5469 245.941 75.0625ZM261.705 86.75C260.627 86.75 259.702 86.6016 258.932 86.3047C258.166 86.013 257.557 85.6146 257.104 85.1094C256.65 84.6042 256.356 84.0365 256.221 83.4062L259.299 82.9922C259.393 83.2318 259.541 83.4557 259.744 83.6641C259.947 83.8724 260.215 84.0391 260.549 84.1641C260.887 84.2943 261.299 84.3594 261.783 84.3594C262.507 84.3594 263.104 84.1823 263.572 83.8281C264.046 83.4792 264.283 82.8932 264.283 82.0703V79.875H264.143C263.997 80.2083 263.778 80.5234 263.486 80.8203C263.195 81.1172 262.82 81.3594 262.361 81.5469C261.903 81.7344 261.356 81.8281 260.721 81.8281C259.82 81.8281 258.999 81.6198 258.26 81.2031C257.525 80.7812 256.939 80.138 256.502 79.2734C256.07 78.4036 255.854 77.3047 255.854 75.9766C255.854 74.6172 256.075 73.4818 256.518 72.5703C256.96 71.6589 257.549 70.9766 258.283 70.5234C259.023 70.0703 259.833 69.8438 260.713 69.8438C261.385 69.8438 261.947 69.9583 262.4 70.1875C262.854 70.4115 263.218 70.6927 263.494 71.0312C263.775 71.3646 263.992 71.6927 264.143 72.0156H264.268V70H267.572V82.1172C267.572 83.138 267.322 83.9922 266.822 84.6797C266.322 85.3672 265.63 85.8828 264.744 86.2266C263.864 86.5755 262.851 86.75 261.705 86.75ZM261.775 79.3281C262.312 79.3281 262.765 79.1953 263.135 78.9297C263.51 78.6589 263.796 78.2734 263.994 77.7734C264.197 77.2682 264.299 76.6641 264.299 75.9609C264.299 75.2578 264.2 74.6484 264.002 74.1328C263.804 73.612 263.518 73.2083 263.143 72.9219C262.768 72.6354 262.312 72.4922 261.775 72.4922C261.229 72.4922 260.768 72.6406 260.393 72.9375C260.018 73.2292 259.734 73.6354 259.541 74.1562C259.348 74.6771 259.252 75.2786 259.252 75.9609C259.252 76.6536 259.348 77.2526 259.541 77.7578C259.739 78.2578 260.023 78.6458 260.393 78.9219C260.768 79.1927 261.229 79.3281 261.775 79.3281Z" fill="#1E1B39"/>
<path d="M41.9631 53L38.3835 39.9091H39.9943L42.7301 50.571H42.858L45.6449 39.9091H47.4347L50.2216 50.571H50.3494L53.0852 39.9091H54.696L51.1165 53H49.4801L46.5909 42.5682H46.4886L43.5994 53H41.9631ZM57.9751 47.0938V53H56.4666V39.9091H57.9751V44.7159H58.103C58.3331 44.2088 58.6783 43.8061 59.1385 43.5078C59.603 43.2053 60.2209 43.054 60.9922 43.054C61.6612 43.054 62.2472 43.1882 62.75 43.4567C63.2528 43.7209 63.6428 44.1278 63.9197 44.6776C64.201 45.223 64.3416 45.9176 64.3416 46.7614V53H62.8331V46.8636C62.8331 46.0838 62.6307 45.4808 62.2259 45.0547C61.8253 44.6243 61.2692 44.4091 60.5575 44.4091C60.0632 44.4091 59.62 44.5135 59.228 44.7223C58.8402 44.9311 58.5334 45.2358 58.3075 45.6364C58.0859 46.0369 57.9751 46.5227 57.9751 47.0938ZM69.9906 53.2301C69.3684 53.2301 68.8038 53.1129 68.2967 52.8786C67.7896 52.6399 67.3869 52.2969 67.0886 51.8494C66.7903 51.3977 66.6412 50.8523 66.6412 50.2131C66.6412 49.6506 66.752 49.1946 66.9735 48.8452C67.1951 48.4915 67.4913 48.2145 67.862 48.0142C68.2328 47.8139 68.6419 47.6648 69.0893 47.5668C69.541 47.4645 69.9949 47.3835 70.4508 47.3239C71.0474 47.2472 71.5311 47.1896 71.9018 47.1513C72.2768 47.1087 72.5495 47.0384 72.72 46.9403C72.8947 46.8423 72.9821 46.6719 72.9821 46.429V46.3778C72.9821 45.7472 72.8095 45.2571 72.4643 44.9077C72.1234 44.5582 71.6056 44.3835 70.911 44.3835C70.1909 44.3835 69.6262 44.5412 69.2172 44.8565C68.8081 45.1719 68.5204 45.5085 68.3542 45.8665L66.9224 45.3551C67.1781 44.7585 67.519 44.294 67.9451 43.9616C68.3755 43.625 68.8443 43.3906 69.3514 43.2585C69.8627 43.1222 70.3656 43.054 70.8599 43.054C71.1752 43.054 71.5375 43.0923 71.9466 43.169C72.3599 43.2415 72.7583 43.3928 73.1419 43.6229C73.5297 43.853 73.8514 44.2003 74.1071 44.6648C74.3627 45.1293 74.4906 45.7514 74.4906 46.5312V53H72.9821V51.6705H72.9054C72.8031 51.8835 72.6326 52.1115 72.394 52.3544C72.1554 52.5973 71.8379 52.804 71.4416 52.9744C71.0453 53.1449 70.5616 53.2301 69.9906 53.2301ZM70.2207 51.875C70.8173 51.875 71.3201 51.7578 71.7292 51.5234C72.1426 51.2891 72.4537 50.9865 72.6625 50.6158C72.8755 50.245 72.9821 49.8551 72.9821 49.446V48.0653C72.9181 48.142 72.7775 48.2124 72.5602 48.2763C72.3471 48.3359 72.1 48.3892 71.8187 48.4361C71.5417 48.4787 71.2711 48.517 71.0069 48.5511C70.747 48.581 70.536 48.6065 70.3741 48.6278C69.9821 48.679 69.6156 48.7621 69.2747 48.8771C68.938 48.9879 68.6653 49.1562 68.4565 49.3821C68.252 49.6037 68.1497 49.9062 68.1497 50.2898C68.1497 50.8139 68.3436 51.2102 68.7314 51.4787C69.1234 51.7429 69.6199 51.875 70.2207 51.875ZM81.5138 43.1818V44.4602H76.4258V43.1818H81.5138ZM77.9087 40.8295H79.4173V50.1875C79.4173 50.6136 79.479 50.9332 79.6026 51.1463C79.7305 51.3551 79.8924 51.4957 80.0884 51.5682C80.2887 51.6364 80.4996 51.6705 80.7212 51.6705C80.8874 51.6705 81.0238 51.6619 81.1303 51.6449C81.2369 51.6236 81.3221 51.6065 81.386 51.5938L81.6928 52.9489C81.5906 52.9872 81.4478 53.0256 81.2646 53.0639C81.0813 53.1065 80.8491 53.1278 80.5678 53.1278C80.1417 53.1278 79.7241 53.0362 79.315 52.853C78.9102 52.6697 78.5735 52.3906 78.305 52.0156C78.0408 51.6406 77.9087 51.1676 77.9087 50.5966V40.8295ZM88.8455 53V43.1818H90.354V53H88.8455ZM89.6126 41.5455C89.3185 41.5455 89.065 41.4453 88.8519 41.245C88.6431 41.0447 88.5387 40.804 88.5387 40.5227C88.5387 40.2415 88.6431 40.0007 88.8519 39.8004C89.065 39.6001 89.3185 39.5 89.6126 39.5C89.9066 39.5 90.158 39.6001 90.3668 39.8004C90.5799 40.0007 90.6864 40.2415 90.6864 40.5227C90.6864 40.804 90.5799 41.0447 90.3668 41.245C90.158 41.4453 89.9066 41.5455 89.6126 41.5455ZM100.072 45.3807L98.7164 45.7642C98.6312 45.5384 98.5055 45.3189 98.3393 45.1058C98.1774 44.8885 97.9558 44.7095 97.6745 44.5689C97.3933 44.4283 97.0332 44.358 96.5943 44.358C95.9934 44.358 95.4927 44.4964 95.0922 44.7734C94.6958 45.0462 94.4977 45.3935 94.4977 45.8153C94.4977 46.1903 94.6341 46.4865 94.9068 46.7038C95.1795 46.9212 95.6056 47.1023 96.1852 47.2472L97.6426 47.6051C98.5204 47.8182 99.1745 48.1442 99.6049 48.5831C100.035 49.0178 100.251 49.5781 100.251 50.2642C100.251 50.8267 100.089 51.3295 99.7647 51.7727C99.4451 52.2159 98.9977 52.5653 98.4224 52.821C97.8471 53.0767 97.1781 53.2045 96.4153 53.2045C95.4139 53.2045 94.585 52.9872 93.9288 52.5526C93.2725 52.1179 92.8571 51.483 92.6824 50.6477L94.1142 50.2898C94.2505 50.8182 94.5083 51.2145 94.8876 51.4787C95.2711 51.7429 95.7718 51.875 96.3897 51.875C97.0929 51.875 97.6511 51.7259 98.0645 51.4276C98.4821 51.125 98.6909 50.7628 98.6909 50.3409C98.6909 50 98.5716 49.7145 98.3329 49.4844C98.0943 49.25 97.7278 49.0753 97.2335 48.9602L95.5971 48.5767C94.698 48.3636 94.0375 48.0334 93.6156 47.5859C93.198 47.1342 92.9892 46.5696 92.9892 45.892C92.9892 45.3381 93.1447 44.848 93.4558 44.4219C93.7711 43.9957 94.1994 43.6612 94.7406 43.4183C95.286 43.1754 95.9039 43.054 96.5943 43.054C97.5659 43.054 98.3287 43.267 98.8826 43.6932C99.4409 44.1193 99.8372 44.6818 100.072 45.3807ZM108.555 56.6818C108.3 56.6818 108.072 56.6605 107.871 56.6179C107.671 56.5795 107.533 56.5412 107.456 56.5028L107.839 55.1733C108.206 55.267 108.53 55.3011 108.811 55.2756C109.092 55.25 109.342 55.1243 109.559 54.8984C109.781 54.6768 109.983 54.3168 110.166 53.8182L110.447 53.0511L106.817 43.1818H108.453L111.163 51.0057H111.266L113.976 43.1818H115.612L111.445 54.4318C111.257 54.9389 111.025 55.3587 110.748 55.6911C110.471 56.0277 110.149 56.277 109.783 56.4389C109.42 56.6009 109.011 56.6818 108.555 56.6818ZM121.24 53.2045C120.354 53.2045 119.576 52.9936 118.907 52.5717C118.243 52.1499 117.723 51.5597 117.348 50.8011C116.977 50.0426 116.792 49.1562 116.792 48.142C116.792 47.1193 116.977 46.2266 117.348 45.4638C117.723 44.701 118.243 44.1087 118.907 43.6868C119.576 43.2649 120.354 43.054 121.24 43.054C122.127 43.054 122.902 43.2649 123.567 43.6868C124.236 44.1087 124.756 44.701 125.127 45.4638C125.502 46.2266 125.689 47.1193 125.689 48.142C125.689 49.1562 125.502 50.0426 125.127 50.8011C124.756 51.5597 124.236 52.1499 123.567 52.5717C122.902 52.9936 122.127 53.2045 121.24 53.2045ZM121.24 51.8494C121.914 51.8494 122.468 51.6768 122.902 51.3317C123.337 50.9865 123.659 50.5327 123.868 49.9702C124.076 49.4077 124.181 48.7983 124.181 48.142C124.181 47.4858 124.076 46.8743 123.868 46.3075C123.659 45.7408 123.337 45.2827 122.902 44.9332C122.468 44.5838 121.914 44.4091 121.24 44.4091C120.567 44.4091 120.013 44.5838 119.578 44.9332C119.144 45.2827 118.822 45.7408 118.613 46.3075C118.404 46.8743 118.3 47.4858 118.3 48.142C118.3 48.7983 118.404 49.4077 118.613 49.9702C118.822 50.5327 119.144 50.9865 119.578 51.3317C120.013 51.6768 120.567 51.8494 121.24 51.8494ZM134.18 48.9858V43.1818H135.688V53H134.18V51.3381H134.077C133.847 51.8366 133.489 52.2607 133.003 52.6101C132.518 52.9553 131.904 53.1278 131.162 53.1278C130.549 53.1278 130.003 52.9936 129.526 52.7251C129.049 52.4524 128.674 52.0433 128.401 51.4979C128.128 50.9482 127.992 50.2557 127.992 49.4205V43.1818H129.501V49.3182C129.501 50.0341 129.701 50.6051 130.101 51.0312C130.506 51.4574 131.022 51.6705 131.648 51.6705C132.023 51.6705 132.405 51.5746 132.792 51.3828C133.184 51.1911 133.513 50.897 133.777 50.5007C134.045 50.1044 134.18 49.5994 134.18 48.9858ZM138.451 53V43.1818H139.908V44.6648H140.011C140.19 44.179 140.513 43.7848 140.982 43.4822C141.451 43.1797 141.979 43.0284 142.567 43.0284C142.678 43.0284 142.817 43.0305 142.983 43.0348C143.149 43.0391 143.275 43.0455 143.36 43.054V44.5881C143.309 44.5753 143.192 44.5561 143.009 44.5305C142.83 44.5007 142.64 44.4858 142.44 44.4858C141.962 44.4858 141.536 44.5859 141.161 44.7862C140.79 44.9822 140.496 45.255 140.279 45.6044C140.066 45.9496 139.96 46.3437 139.96 46.7869V53H138.451ZM150.211 56.6818V43.1818H151.668V44.7415H151.847C151.958 44.571 152.111 44.3537 152.307 44.0895C152.508 43.821 152.793 43.5824 153.164 43.3736C153.539 43.1605 154.046 43.054 154.685 43.054C155.512 43.054 156.241 43.2607 156.871 43.674C157.502 44.0874 157.994 44.6733 158.348 45.4318C158.702 46.1903 158.878 47.0852 158.878 48.1165C158.878 49.1562 158.702 50.0575 158.348 50.8203C157.994 51.5788 157.504 52.1669 156.878 52.5845C156.251 52.9979 155.529 53.2045 154.711 53.2045C154.08 53.2045 153.575 53.1001 153.196 52.8913C152.817 52.6783 152.525 52.4375 152.32 52.169C152.116 51.8963 151.958 51.6705 151.847 51.4915H151.719V56.6818H150.211ZM151.694 48.0909C151.694 48.8324 151.802 49.4865 152.02 50.0533C152.237 50.6158 152.555 51.0568 152.972 51.3764C153.39 51.6918 153.901 51.8494 154.506 51.8494C155.137 51.8494 155.663 51.6832 156.085 51.3509C156.511 51.0142 156.831 50.5625 157.044 49.9957C157.261 49.4247 157.37 48.7898 157.37 48.0909C157.37 47.4006 157.263 46.7784 157.05 46.2244C156.841 45.6662 156.524 45.2251 156.098 44.9013C155.676 44.5732 155.145 44.4091 154.506 44.4091C153.893 44.4091 153.377 44.5646 152.959 44.8757C152.542 45.1825 152.226 45.6129 152.013 46.1669C151.8 46.7166 151.694 47.358 151.694 48.0909ZM161.18 53V43.1818H162.637V44.6648H162.739C162.918 44.179 163.242 43.7848 163.711 43.4822C164.18 43.1797 164.708 43.0284 165.296 43.0284C165.407 43.0284 165.545 43.0305 165.711 43.0348C165.878 43.0391 166.003 43.0455 166.089 43.054V44.5881C166.037 44.5753 165.92 44.5561 165.737 44.5305C165.558 44.5007 165.368 44.4858 165.168 44.4858C164.691 44.4858 164.265 44.5859 163.89 44.7862C163.519 44.9822 163.225 45.255 163.008 45.6044C162.795 45.9496 162.688 46.3437 162.688 46.7869V53H161.18ZM171.694 53.2045C170.748 53.2045 169.932 52.9957 169.246 52.5781C168.564 52.1562 168.038 51.5682 167.667 50.8139C167.301 50.0554 167.118 49.1733 167.118 48.1676C167.118 47.1619 167.301 46.2756 167.667 45.5085C168.038 44.7372 168.554 44.1364 169.214 43.706C169.879 43.2713 170.655 43.054 171.541 43.054C172.052 43.054 172.557 43.1392 173.056 43.3097C173.555 43.4801 174.008 43.7571 174.417 44.1406C174.827 44.5199 175.153 45.0227 175.395 45.6491C175.638 46.2756 175.76 47.0469 175.76 47.9631V48.6023H168.192V47.2983H174.226C174.226 46.7443 174.115 46.25 173.893 45.8153C173.676 45.3807 173.365 45.0376 172.96 44.7862C172.559 44.5348 172.086 44.4091 171.541 44.4091C170.94 44.4091 170.42 44.5582 169.981 44.8565C169.547 45.1506 169.212 45.5341 168.978 46.0071C168.743 46.4801 168.626 46.9872 168.626 47.5284V48.3977C168.626 49.1392 168.754 49.7678 169.01 50.2834C169.27 50.7947 169.63 51.1847 170.09 51.4531C170.55 51.7173 171.085 51.8494 171.694 51.8494C172.091 51.8494 172.449 51.794 172.768 51.6832C173.092 51.5682 173.371 51.3977 173.606 51.1719C173.84 50.9418 174.021 50.6562 174.149 50.3153L175.606 50.7244C175.453 51.2188 175.195 51.6534 174.833 52.0284C174.471 52.3991 174.023 52.6889 173.491 52.8977C172.958 53.1023 172.359 53.2045 171.694 53.2045ZM182.427 43.1818V44.4602H177.134V43.1818H182.427ZM178.719 53V41.8267C178.719 41.2642 178.851 40.7955 179.116 40.4205C179.38 40.0455 179.723 39.7642 180.145 39.5767C180.567 39.3892 181.012 39.2955 181.481 39.2955C181.851 39.2955 182.154 39.3253 182.388 39.3849C182.623 39.4446 182.797 39.5 182.912 39.5511L182.478 40.8551C182.401 40.8295 182.295 40.7976 182.158 40.7592C182.026 40.7209 181.851 40.7017 181.634 40.7017C181.135 40.7017 180.775 40.8274 180.554 41.0788C180.336 41.3303 180.228 41.6989 180.228 42.1847V53H178.719ZM188.253 53.2045C187.307 53.2045 186.491 52.9957 185.805 52.5781C185.123 52.1562 184.597 51.5682 184.226 50.8139C183.86 50.0554 183.676 49.1733 183.676 48.1676C183.676 47.1619 183.86 46.2756 184.226 45.5085C184.597 44.7372 185.112 44.1364 185.773 43.706C186.438 43.2713 187.213 43.054 188.1 43.054C188.611 43.054 189.116 43.1392 189.615 43.3097C190.113 43.4801 190.567 43.7571 190.976 44.1406C191.385 44.5199 191.711 45.0227 191.954 45.6491C192.197 46.2756 192.318 47.0469 192.318 47.9631V48.6023H184.75V47.2983H190.784C190.784 46.7443 190.673 46.25 190.452 45.8153C190.235 45.3807 189.923 45.0376 189.519 44.7862C189.118 44.5348 188.645 44.4091 188.1 44.4091C187.499 44.4091 186.979 44.5582 186.54 44.8565C186.105 45.1506 185.771 45.5341 185.536 46.0071C185.302 46.4801 185.185 46.9872 185.185 47.5284V48.3977C185.185 49.1392 185.313 49.7678 185.568 50.2834C185.828 50.7947 186.188 51.1847 186.649 51.4531C187.109 51.7173 187.644 51.8494 188.253 51.8494C188.649 51.8494 189.007 51.794 189.327 51.6832C189.651 51.5682 189.93 51.3977 190.164 51.1719C190.399 50.9418 190.58 50.6562 190.708 50.3153L192.165 50.7244C192.012 51.2188 191.754 51.6534 191.392 52.0284C191.029 52.3991 190.582 52.6889 190.049 52.8977C189.517 53.1023 188.918 53.2045 188.253 53.2045ZM194.613 53V43.1818H196.07V44.6648H196.173C196.352 44.179 196.676 43.7848 197.144 43.4822C197.613 43.1797 198.142 43.0284 198.73 43.0284C198.84 43.0284 198.979 43.0305 199.145 43.0348C199.311 43.0391 199.437 43.0455 199.522 43.054V44.5881C199.471 44.5753 199.354 44.5561 199.171 44.5305C198.992 44.5007 198.802 44.4858 198.602 44.4858C198.124 44.4858 197.698 44.5859 197.323 44.7862C196.953 44.9822 196.659 45.255 196.441 45.6044C196.228 45.9496 196.122 46.3437 196.122 46.7869V53H194.613ZM201.31 53V43.1818H202.768V44.6648H202.87C203.049 44.179 203.373 43.7848 203.842 43.4822C204.31 43.1797 204.839 43.0284 205.427 43.0284C205.538 43.0284 205.676 43.0305 205.842 43.0348C206.009 43.0391 206.134 43.0455 206.219 43.054V44.5881C206.168 44.5753 206.051 44.5561 205.868 44.5305C205.689 44.5007 205.499 44.4858 205.299 44.4858C204.822 44.4858 204.396 44.5859 204.021 44.7862C203.65 44.9822 203.356 45.255 203.138 45.6044C202.925 45.9496 202.819 46.3437 202.819 46.7869V53H201.31ZM211.825 53.2045C210.879 53.2045 210.063 52.9957 209.377 52.5781C208.695 52.1562 208.169 51.5682 207.798 50.8139C207.432 50.0554 207.249 49.1733 207.249 48.1676C207.249 47.1619 207.432 46.2756 207.798 45.5085C208.169 44.7372 208.685 44.1364 209.345 43.706C210.01 43.2713 210.786 43.054 211.672 43.054C212.183 43.054 212.688 43.1392 213.187 43.3097C213.685 43.4801 214.139 43.7571 214.548 44.1406C214.957 44.5199 215.283 45.0227 215.526 45.6491C215.769 46.2756 215.891 47.0469 215.891 47.9631V48.6023H208.322V47.2983H214.357C214.357 46.7443 214.246 46.25 214.024 45.8153C213.807 45.3807 213.496 45.0376 213.091 44.7862C212.69 44.5348 212.217 44.4091 211.672 44.4091C211.071 44.4091 210.551 44.5582 210.112 44.8565C209.678 45.1506 209.343 45.5341 209.109 46.0071C208.874 46.4801 208.757 46.9872 208.757 47.5284V48.3977C208.757 49.1392 208.885 49.7678 209.141 50.2834C209.401 50.7947 209.761 51.1847 210.221 51.4531C210.681 51.7173 211.216 51.8494 211.825 51.8494C212.222 51.8494 212.58 51.794 212.899 51.6832C213.223 51.5682 213.502 51.3977 213.737 51.1719C213.971 50.9418 214.152 50.6562 214.28 50.3153L215.737 50.7244C215.584 51.2188 215.326 51.6534 214.964 52.0284C214.602 52.3991 214.154 52.6889 213.621 52.8977C213.089 53.1023 212.49 53.2045 211.825 53.2045ZM221.893 53.2045C221.075 53.2045 220.352 52.9979 219.726 52.5845C219.099 52.1669 218.609 51.5788 218.256 50.8203C217.902 50.0575 217.725 49.1562 217.725 48.1165C217.725 47.0852 217.902 46.1903 218.256 45.4318C218.609 44.6733 219.102 44.0874 219.732 43.674C220.363 43.2607 221.092 43.054 221.918 43.054C222.558 43.054 223.063 43.1605 223.433 43.3736C223.808 43.5824 224.094 43.821 224.29 44.0895C224.49 44.3537 224.646 44.571 224.756 44.7415H224.884V39.9091H226.393V53H224.935V51.4915H224.756C224.646 51.6705 224.488 51.8963 224.283 52.169C224.079 52.4375 223.787 52.6783 223.408 52.8913C223.028 53.1001 222.523 53.2045 221.893 53.2045ZM222.097 51.8494C222.702 51.8494 223.214 51.6918 223.631 51.3764C224.049 51.0568 224.366 50.6158 224.584 50.0533C224.801 49.4865 224.91 48.8324 224.91 48.0909C224.91 47.358 224.803 46.7166 224.59 46.1669C224.377 45.6129 224.062 45.1825 223.644 44.8757C223.227 44.5646 222.711 44.4091 222.097 44.4091C221.458 44.4091 220.925 44.5732 220.499 44.9013C220.077 45.2251 219.76 45.6662 219.547 46.2244C219.338 46.7784 219.234 47.4006 219.234 48.0909C219.234 48.7898 219.34 49.4247 219.553 49.9957C219.771 50.5625 220.09 51.0142 220.512 51.3509C220.938 51.6832 221.467 51.8494 222.097 51.8494ZM234.428 53V43.1818H235.885V44.7159H236.013C236.217 44.1918 236.548 43.7848 237.004 43.495C237.46 43.201 238.007 43.054 238.646 43.054C239.294 43.054 239.833 43.201 240.263 43.495C240.698 43.7848 241.037 44.1918 241.28 44.7159H241.382C241.634 44.2088 242.011 43.8061 242.513 43.5078C243.016 43.2053 243.619 43.054 244.322 43.054C245.2 43.054 245.918 43.3288 246.477 43.8786C247.035 44.424 247.314 45.2741 247.314 46.429V53H245.805V46.429C245.805 45.7045 245.607 45.1868 245.211 44.8757C244.815 44.5646 244.348 44.4091 243.811 44.4091C243.121 44.4091 242.586 44.6179 242.207 45.0355C241.827 45.4489 241.638 45.973 241.638 46.608V53H240.104V46.2756C240.104 45.7173 239.923 45.2678 239.56 44.9268C239.198 44.5817 238.732 44.4091 238.161 44.4091C237.768 44.4091 237.402 44.5135 237.061 44.7223C236.724 44.9311 236.452 45.2209 236.243 45.5916C236.038 45.9581 235.936 46.3821 235.936 46.8636V53H234.428ZM254.189 53.2045C253.243 53.2045 252.426 52.9957 251.74 52.5781C251.059 52.1562 250.532 51.5682 250.162 50.8139C249.795 50.0554 249.612 49.1733 249.612 48.1676C249.612 47.1619 249.795 46.2756 250.162 45.5085C250.532 44.7372 251.048 44.1364 251.708 43.706C252.373 43.2713 253.149 43.054 254.035 43.054C254.547 43.054 255.051 43.1392 255.55 43.3097C256.049 43.4801 256.502 43.7571 256.912 44.1406C257.321 44.5199 257.647 45.0227 257.89 45.6491C258.132 46.2756 258.254 47.0469 258.254 47.9631V48.6023H250.686V47.2983H256.72C256.72 46.7443 256.609 46.25 256.387 45.8153C256.17 45.3807 255.859 45.0376 255.454 44.7862C255.054 44.5348 254.581 44.4091 254.035 44.4091C253.434 44.4091 252.914 44.5582 252.475 44.8565C252.041 45.1506 251.706 45.5341 251.472 46.0071C251.238 46.4801 251.12 46.9872 251.12 47.5284V48.3977C251.12 49.1392 251.248 49.7678 251.504 50.2834C251.764 50.7947 252.124 51.1847 252.584 51.4531C253.044 51.7173 253.579 51.8494 254.189 51.8494C254.585 51.8494 254.943 51.794 255.262 51.6832C255.586 51.5682 255.865 51.3977 256.1 51.1719C256.334 50.9418 256.515 50.6562 256.643 50.3153L258.1 50.7244C257.947 51.2188 257.689 51.6534 257.327 52.0284C256.965 52.3991 256.517 52.6889 255.985 52.8977C255.452 53.1023 254.853 53.2045 254.189 53.2045ZM264.819 43.1818V44.4602H259.73V43.1818H264.819ZM261.213 40.8295H262.722V50.1875C262.722 50.6136 262.784 50.9332 262.907 51.1463C263.035 51.3551 263.197 51.4957 263.393 51.5682C263.593 51.6364 263.804 51.6705 264.026 51.6705C264.192 51.6705 264.328 51.6619 264.435 51.6449C264.542 51.6236 264.627 51.6065 264.691 51.5938L264.998 52.9489C264.895 52.9872 264.752 53.0256 264.569 53.0639C264.386 53.1065 264.154 53.1278 263.873 53.1278C263.446 53.1278 263.029 53.0362 262.62 52.853C262.215 52.6697 261.878 52.3906 261.61 52.0156C261.346 51.6406 261.213 51.1676 261.213 50.5966V40.8295ZM268.807 47.0938V53H267.299V39.9091H268.807V44.7159H268.935C269.165 44.2088 269.51 43.8061 269.971 43.5078C270.435 43.2053 271.053 43.054 271.824 43.054C272.493 43.054 273.079 43.1882 273.582 43.4567C274.085 43.7209 274.475 44.1278 274.752 44.6776C275.033 45.223 275.174 45.9176 275.174 46.7614V53H273.665V46.8636C273.665 46.0838 273.463 45.4808 273.058 45.0547C272.657 44.6243 272.101 44.4091 271.39 44.4091C270.895 44.4091 270.452 44.5135 270.06 44.7223C269.672 44.9311 269.365 45.2358 269.14 45.6364C268.918 46.0369 268.807 46.5227 268.807 47.0938ZM281.922 53.2045C281.036 53.2045 280.258 52.9936 279.589 52.5717C278.924 52.1499 278.404 51.5597 278.029 50.8011C277.659 50.0426 277.473 49.1562 277.473 48.142C277.473 47.1193 277.659 46.2266 278.029 45.4638C278.404 44.701 278.924 44.1087 279.589 43.6868C280.258 43.2649 281.036 43.054 281.922 43.054C282.808 43.054 283.584 43.2649 284.249 43.6868C284.918 44.1087 285.438 44.701 285.808 45.4638C286.183 46.2266 286.371 47.1193 286.371 48.142C286.371 49.1562 286.183 50.0426 285.808 50.8011C285.438 51.5597 284.918 52.1499 284.249 52.5717C283.584 52.9936 282.808 53.2045 281.922 53.2045ZM281.922 51.8494C282.595 51.8494 283.149 51.6768 283.584 51.3317C284.019 50.9865 284.34 50.5327 284.549 49.9702C284.758 49.4077 284.862 48.7983 284.862 48.142C284.862 47.4858 284.758 46.8743 284.549 46.3075C284.34 45.7408 284.019 45.2827 283.584 44.9332C283.149 44.5838 282.595 44.4091 281.922 44.4091C281.249 44.4091 280.695 44.5838 280.26 44.9332C279.825 45.2827 279.504 45.7408 279.295 46.3075C279.086 46.8743 278.982 47.4858 278.982 48.142C278.982 48.7983 279.086 49.4077 279.295 49.9702C279.504 50.5327 279.825 50.9865 280.26 51.3317C280.695 51.6768 281.249 51.8494 281.922 51.8494ZM292.381 53.2045C291.563 53.2045 290.841 52.9979 290.214 52.5845C289.588 52.1669 289.098 51.5788 288.744 50.8203C288.39 50.0575 288.213 49.1562 288.213 48.1165C288.213 47.0852 288.39 46.1903 288.744 45.4318C289.098 44.6733 289.59 44.0874 290.221 43.674C290.851 43.2607 291.58 43.054 292.407 43.054C293.046 43.054 293.551 43.1605 293.922 43.3736C294.297 43.5824 294.582 43.821 294.778 44.0895C294.978 44.3537 295.134 44.571 295.245 44.7415H295.373V39.9091H296.881V53H295.424V51.4915H295.245C295.134 51.6705 294.976 51.8963 294.772 52.169C294.567 52.4375 294.275 52.6783 293.896 52.8913C293.517 53.1001 293.012 53.2045 292.381 53.2045ZM292.586 51.8494C293.191 51.8494 293.702 51.6918 294.12 51.3764C294.537 51.0568 294.855 50.6158 295.072 50.0533C295.289 49.4865 295.398 48.8324 295.398 48.0909C295.398 47.358 295.292 46.7166 295.078 46.1669C294.865 45.6129 294.55 45.1825 294.132 44.8757C293.715 44.5646 293.199 44.4091 292.586 44.4091C291.946 44.4091 291.414 44.5732 290.988 44.9013C290.566 45.2251 290.248 45.6662 290.035 46.2244C289.826 46.7784 289.722 47.4006 289.722 48.0909C289.722 48.7898 289.828 49.4247 290.042 49.9957C290.259 50.5625 290.578 51.0142 291 51.3509C291.426 51.6832 291.955 51.8494 292.586 51.8494ZM308.904 53.2045C308.018 53.2045 307.24 52.9936 306.571 52.5717C305.907 52.1499 305.387 51.5597 305.012 50.8011C304.641 50.0426 304.456 49.1562 304.456 48.142C304.456 47.1193 304.641 46.2266 305.012 45.4638C305.387 44.701 305.907 44.1087 306.571 43.6868C307.24 43.2649 308.018 43.054 308.904 43.054C309.791 43.054 310.566 43.2649 311.231 43.6868C311.9 44.1087 312.42 44.701 312.791 45.4638C313.166 46.2266 313.353 47.1193 313.353 48.142C313.353 49.1562 313.166 50.0426 312.791 50.8011C312.42 51.5597 311.9 52.1499 311.231 52.5717C310.566 52.9936 309.791 53.2045 308.904 53.2045ZM308.904 51.8494C309.578 51.8494 310.132 51.6768 310.566 51.3317C311.001 50.9865 311.323 50.5327 311.532 49.9702C311.74 49.4077 311.845 48.7983 311.845 48.142C311.845 47.4858 311.74 46.8743 311.532 46.3075C311.323 45.7408 311.001 45.2827 310.566 44.9332C310.132 44.5838 309.578 44.4091 308.904 44.4091C308.231 44.4091 307.677 44.5838 307.243 44.9332C306.808 45.2827 306.486 45.7408 306.277 46.3075C306.069 46.8743 305.964 47.4858 305.964 48.142C305.964 48.7983 306.069 49.4077 306.277 49.9702C306.486 50.5327 306.808 50.9865 307.243 51.3317C307.677 51.6768 308.231 51.8494 308.904 51.8494ZM320.028 43.1818V44.4602H314.736V43.1818H320.028ZM316.321 53V41.8267C316.321 41.2642 316.453 40.7955 316.717 40.4205C316.981 40.0455 317.324 39.7642 317.746 39.5767C318.168 39.3892 318.613 39.2955 319.082 39.2955C319.453 39.2955 319.756 39.3253 319.99 39.3849C320.224 39.4446 320.399 39.5 320.514 39.5511L320.079 40.8551C320.003 40.8295 319.896 40.7976 319.76 40.7592C319.628 40.7209 319.453 40.7017 319.236 40.7017C318.737 40.7017 318.377 40.8274 318.155 41.0788C317.938 41.3303 317.829 41.6989 317.829 42.1847V53H316.321ZM334.159 45.3807L332.804 45.7642C332.719 45.5384 332.593 45.3189 332.427 45.1058C332.265 44.8885 332.044 44.7095 331.762 44.5689C331.481 44.4283 331.121 44.358 330.682 44.358C330.081 44.358 329.581 44.4964 329.18 44.7734C328.784 45.0462 328.586 45.3935 328.586 45.8153C328.586 46.1903 328.722 46.4865 328.995 46.7038C329.267 46.9212 329.694 47.1023 330.273 47.2472L331.73 47.6051C332.608 47.8182 333.262 48.1442 333.693 48.5831C334.123 49.0178 334.338 49.5781 334.338 50.2642C334.338 50.8267 334.176 51.3295 333.853 51.7727C333.533 52.2159 333.086 52.5653 332.51 52.821C331.935 53.0767 331.266 53.2045 330.503 53.2045C329.502 53.2045 328.673 52.9872 328.017 52.5526C327.36 52.1179 326.945 51.483 326.77 50.6477L328.202 50.2898C328.338 50.8182 328.596 51.2145 328.975 51.4787C329.359 51.7429 329.86 51.875 330.478 51.875C331.181 51.875 331.739 51.7259 332.152 51.4276C332.57 51.125 332.779 50.7628 332.779 50.3409C332.779 50 332.659 49.7145 332.421 49.4844C332.182 49.25 331.816 49.0753 331.321 48.9602L329.685 48.5767C328.786 48.3636 328.125 48.0334 327.703 47.5859C327.286 47.1342 327.077 46.5696 327.077 45.892C327.077 45.3381 327.233 44.848 327.544 44.4219C327.859 43.9957 328.287 43.6612 328.828 43.4183C329.374 43.1754 329.992 43.054 330.682 43.054C331.654 43.054 332.417 43.267 332.971 43.6932C333.529 44.1193 333.925 44.6818 334.159 45.3807ZM338.118 47.0938V53H336.609V39.9091H338.118V44.7159H338.246C338.476 44.2088 338.821 43.8061 339.281 43.5078C339.746 43.2053 340.363 43.054 341.135 43.054C341.804 43.054 342.39 43.1882 342.893 43.4567C343.395 43.7209 343.785 44.1278 344.062 44.6776C344.344 45.223 344.484 45.9176 344.484 46.7614V53H342.976V46.8636C342.976 46.0838 342.773 45.4808 342.368 45.0547C341.968 44.6243 341.412 44.4091 340.7 44.4091C340.206 44.4091 339.763 44.5135 339.371 44.7223C338.983 44.9311 338.676 45.2358 338.45 45.6364C338.229 46.0369 338.118 46.5227 338.118 47.0938ZM351.233 53.2045C350.346 53.2045 349.569 52.9936 348.9 52.5717C348.235 52.1499 347.715 51.5597 347.34 50.8011C346.969 50.0426 346.784 49.1562 346.784 48.142C346.784 47.1193 346.969 46.2266 347.34 45.4638C347.715 44.701 348.235 44.1087 348.9 43.6868C349.569 43.2649 350.346 43.054 351.233 43.054C352.119 43.054 352.895 43.2649 353.559 43.6868C354.228 44.1087 354.748 44.701 355.119 45.4638C355.494 46.2266 355.681 47.1193 355.681 48.142C355.681 49.1562 355.494 50.0426 355.119 50.8011C354.748 51.5597 354.228 52.1499 353.559 52.5717C352.895 52.9936 352.119 53.2045 351.233 53.2045ZM351.233 51.8494C351.906 51.8494 352.46 51.6768 352.895 51.3317C353.329 50.9865 353.651 50.5327 353.86 49.9702C354.069 49.4077 354.173 48.7983 354.173 48.142C354.173 47.4858 354.069 46.8743 353.86 46.3075C353.651 45.7408 353.329 45.2827 352.895 44.9332C352.46 44.5838 351.906 44.4091 351.233 44.4091C350.559 44.4091 350.005 44.5838 349.571 44.9332C349.136 45.2827 348.814 45.7408 348.605 46.3075C348.397 46.8743 348.292 47.4858 348.292 48.142C348.292 48.7983 348.397 49.4077 348.605 49.9702C348.814 50.5327 349.136 50.9865 349.571 51.3317C350.005 51.6768 350.559 51.8494 351.233 51.8494ZM357.984 56.6818V43.1818H359.442V44.7415H359.621C359.731 44.571 359.885 44.3537 360.081 44.0895C360.281 43.821 360.567 43.5824 360.937 43.3736C361.312 43.1605 361.819 43.054 362.459 43.054C363.285 43.054 364.014 43.2607 364.645 43.674C365.275 44.0874 365.768 44.6733 366.121 45.4318C366.475 46.1903 366.652 47.0852 366.652 48.1165C366.652 49.1562 366.475 50.0575 366.121 50.8203C365.768 51.5788 365.278 52.1669 364.651 52.5845C364.025 52.9979 363.302 53.2045 362.484 53.2045C361.854 53.2045 361.349 53.1001 360.969 52.8913C360.59 52.6783 360.298 52.4375 360.094 52.169C359.889 51.8963 359.731 51.6705 359.621 51.4915H359.493V56.6818H357.984ZM359.467 48.0909C359.467 48.8324 359.576 49.4865 359.793 50.0533C360.01 50.6158 360.328 51.0568 360.746 51.3764C361.163 51.6918 361.675 51.8494 362.28 51.8494C362.91 51.8494 363.437 51.6832 363.858 51.3509C364.285 51.0142 364.604 50.5625 364.817 49.9957C365.035 49.4247 365.143 48.7898 365.143 48.0909C365.143 47.4006 365.037 46.7784 364.824 46.2244C364.615 45.6662 364.297 45.2251 363.871 44.9013C363.449 44.5732 362.919 44.4091 362.28 44.4091C361.666 44.4091 361.15 44.5646 360.733 44.8757C360.315 45.1825 360 45.6129 359.787 46.1669C359.574 46.7166 359.467 47.358 359.467 48.0909ZM368.953 56.6818V43.1818H370.41V44.7415H370.589C370.7 44.571 370.854 44.3537 371.05 44.0895C371.25 43.821 371.535 43.5824 371.906 43.3736C372.281 43.1605 372.788 43.054 373.427 43.054C374.254 43.054 374.983 43.2607 375.613 43.674C376.244 44.0874 376.736 44.6733 377.09 45.4318C377.444 46.1903 377.621 47.0852 377.621 48.1165C377.621 49.1562 377.444 50.0575 377.09 50.8203C376.736 51.5788 376.246 52.1669 375.62 52.5845C374.993 52.9979 374.271 53.2045 373.453 53.2045C372.822 53.2045 372.317 53.1001 371.938 52.8913C371.559 52.6783 371.267 52.4375 371.062 52.169C370.858 51.8963 370.7 51.6705 370.589 51.4915H370.461V56.6818H368.953ZM370.436 48.0909C370.436 48.8324 370.545 49.4865 370.762 50.0533C370.979 50.6158 371.297 51.0568 371.714 51.3764C372.132 51.6918 372.643 51.8494 373.248 51.8494C373.879 51.8494 374.405 51.6832 374.827 51.3509C375.253 51.0142 375.573 50.5625 375.786 49.9957C376.003 49.4247 376.112 48.7898 376.112 48.0909C376.112 47.4006 376.006 46.7784 375.792 46.2244C375.584 45.6662 375.266 45.2251 374.84 44.9013C374.418 44.5732 373.888 44.4091 373.248 44.4091C372.635 44.4091 372.119 44.5646 371.702 44.8757C371.284 45.1825 370.969 45.6129 370.756 46.1669C370.542 46.7166 370.436 47.358 370.436 48.0909ZM379.922 53V43.1818H381.43V53H379.922ZM380.689 41.5455C380.395 41.5455 380.141 41.4453 379.928 41.245C379.719 41.0447 379.615 40.804 379.615 40.5227C379.615 40.2415 379.719 40.0007 379.928 39.8004C380.141 39.6001 380.395 39.5 380.689 39.5C380.983 39.5 381.234 39.6001 381.443 39.8004C381.656 40.0007 381.763 40.2415 381.763 40.5227C381.763 40.804 381.656 41.0447 381.443 41.245C381.234 41.4453 380.983 41.5455 380.689 41.5455ZM385.702 47.0938V53H384.193V43.1818H385.651V44.7159H385.778C386.009 44.2173 386.358 43.8168 386.827 43.5142C387.295 43.2074 387.901 43.054 388.642 43.054C389.307 43.054 389.888 43.1903 390.387 43.4631C390.886 43.7315 391.273 44.1406 391.55 44.6903C391.827 45.2358 391.966 45.9261 391.966 46.7614V53H390.457V46.8636C390.457 46.0923 390.257 45.4915 389.857 45.0611C389.456 44.6264 388.906 44.4091 388.207 44.4091C387.726 44.4091 387.295 44.5135 386.916 44.7223C386.541 44.9311 386.245 45.2358 386.028 45.6364C385.81 46.0369 385.702 46.5227 385.702 47.0938ZM398.686 56.8864C397.957 56.8864 397.33 56.7926 396.806 56.6051C396.282 56.4219 395.845 56.179 395.496 55.8764C395.151 55.5781 394.876 55.2585 394.671 54.9176L395.873 54.0739C396.009 54.2528 396.182 54.4574 396.391 54.6875C396.6 54.9219 396.885 55.1243 397.247 55.2947C397.614 55.4695 398.093 55.5568 398.686 55.5568C399.478 55.5568 400.132 55.3651 400.648 54.9815C401.164 54.598 401.421 53.9972 401.421 53.179V51.1847H401.294C401.183 51.3636 401.025 51.5852 400.82 51.8494C400.62 52.1094 400.33 52.3416 399.951 52.5462C399.576 52.7464 399.069 52.8466 398.43 52.8466C397.637 52.8466 396.926 52.6591 396.295 52.2841C395.669 51.9091 395.172 51.3636 394.806 50.6477C394.443 49.9318 394.262 49.0625 394.262 48.0398C394.262 47.0341 394.439 46.1584 394.793 45.4126C395.146 44.6626 395.639 44.0831 396.269 43.674C396.9 43.2607 397.629 43.054 398.455 43.054C399.095 43.054 399.602 43.1605 399.977 43.3736C400.356 43.5824 400.646 43.821 400.846 44.0895C401.051 44.3537 401.208 44.571 401.319 44.7415H401.472V43.1818H402.93V53.2812C402.93 54.125 402.738 54.8111 402.355 55.3395C401.975 55.8722 401.464 56.2621 400.82 56.5092C400.181 56.7607 399.47 56.8864 398.686 56.8864ZM398.634 51.4915C399.24 51.4915 399.751 51.353 400.169 51.076C400.586 50.799 400.904 50.4006 401.121 49.8807C401.338 49.3608 401.447 48.7386 401.447 48.0142C401.447 47.3068 401.34 46.6825 401.127 46.1413C400.914 45.6001 400.599 45.1761 400.181 44.8693C399.764 44.5625 399.248 44.4091 398.634 44.4091C397.995 44.4091 397.463 44.571 397.036 44.8949C396.615 45.2187 396.297 45.6534 396.084 46.1989C395.875 46.7443 395.771 47.3494 395.771 48.0142C395.771 48.696 395.877 49.299 396.09 49.8232C396.308 50.343 396.627 50.7521 397.049 51.0504C397.475 51.3445 398.004 51.4915 398.634 51.4915ZM407.66 49.3182V49.2415C407.669 48.4276 407.754 47.7798 407.916 47.2983C408.078 46.8168 408.308 46.4268 408.606 46.1286C408.904 45.8303 409.262 45.5554 409.68 45.304C409.931 45.1506 410.157 44.9695 410.357 44.7607C410.558 44.5476 410.715 44.3026 410.83 44.0256C410.95 43.7486 411.009 43.4418 411.009 43.1051C411.009 42.6875 410.911 42.3253 410.715 42.0185C410.519 41.7116 410.257 41.4751 409.929 41.3089C409.601 41.1428 409.237 41.0597 408.836 41.0597C408.487 41.0597 408.15 41.1321 407.826 41.277C407.502 41.4219 407.232 41.6499 407.014 41.9609C406.797 42.272 406.671 42.679 406.637 43.1818H405.026C405.061 42.4574 405.248 41.8374 405.589 41.3217C405.934 40.8061 406.388 40.4119 406.95 40.1392C407.517 39.8665 408.146 39.7301 408.836 39.7301C409.586 39.7301 410.238 39.8793 410.792 40.1776C411.35 40.4759 411.781 40.8849 412.083 41.4048C412.39 41.9247 412.544 42.517 412.544 43.1818C412.544 43.6506 412.471 44.0746 412.326 44.4538C412.186 44.8331 411.981 45.1719 411.713 45.4702C411.448 45.7685 411.129 46.0327 410.754 46.2628C410.379 46.4972 410.078 46.7443 409.852 47.0043C409.627 47.2599 409.463 47.5646 409.36 47.9183C409.258 48.272 409.203 48.7131 409.194 49.2415V49.3182H407.66ZM408.478 53.1023C408.163 53.1023 407.892 52.9893 407.666 52.7635C407.441 52.5376 407.328 52.267 407.328 51.9517C407.328 51.6364 407.441 51.3658 407.666 51.1399C407.892 50.9141 408.163 50.8011 408.478 50.8011C408.794 50.8011 409.064 50.9141 409.29 51.1399C409.516 51.3658 409.629 51.6364 409.629 51.9517C409.629 52.1605 409.575 52.3523 409.469 52.527C409.367 52.7017 409.228 52.8423 409.053 52.9489C408.883 53.0511 408.691 53.1023 408.478 53.1023Z" fill="#173952"/>
<defs>
<filter id="filter0_d_526_1141" x="0" y="0" width="522" height="481.424" filterUnits="userSpaceOnUse" color-interpolation-filters="sRGB">
<feFlood flood-opacity="0" result="BackgroundImageFix"/>
<feColorMatrix in="SourceAlpha" type="matrix" values="0 0 0 0 0 0 0 0 0 0 0 0 0 0 0 0 0 0 127 0" result="hardAlpha"/>
<feOffset dy="2"/>
<feGaussianBlur stdDeviation="3"/>
<feComposite in2="hardAlpha" operator="out"/>
<feColorMatrix type="matrix" values="0 0 0 0 0.0509804 0 0 0 0 0.0392157 0 0 0 0 0.172549 0 0 0 0.08 0"/>
<feBlend mode="normal" in2="BackgroundImageFix" result="effect1_dropShadow_526_1141"/>
<feBlend mode="normal" in="SourceGraphic" in2="effect1_dropShadow_526_1141" result="shape"/>
</filter>
<filter id="filter1_d_526_1141" x="314.488" y="204.612" width="73.6582" height="73.6582" filterUnits="userSpaceOnUse" color-interpolation-filters="sRGB">
<feFlood flood-opacity="0" result="BackgroundImageFix"/>
<feColorMatrix in="SourceAlpha" type="matrix" values="0 0 0 0 0 0 0 0 0 0 0 0 0 0 0 0 0 0 127 0" result="hardAlpha"/>
<feOffset dy="8"/>
<feGaussianBlur stdDeviation="15"/>
<feComposite in2="hardAlpha" operator="out"/>
<feColorMatrix type="matrix" values="0 0 0 0 0.0509804 0 0 0 0 0.0392157 0 0 0 0 0.172549 0 0 0 0.15 0"/>
<feBlend mode="normal" in2="BackgroundImageFix" result="effect1_dropShadow_526_1141"/>
<feBlend mode="normal" in="SourceGraphic" in2="effect1_dropShadow_526_1141" result="shape"/>
</filter>
<filter id="filter2_d_526_1141" x="139.873" y="324.722" width="76.7051" height="75.8076" filterUnits="userSpaceOnUse" color-interpolation-filters="sRGB">
<feFlood flood-opacity="0" result="BackgroundImageFix"/>
<feColorMatrix in="SourceAlpha" type="matrix" values="0 0 0 0 0 0 0 0 0 0 0 0 0 0 0 0 0 0 127 0" result="hardAlpha"/>
<feOffset dy="8"/>
<feGaussianBlur stdDeviation="15"/>
<feComposite in2="hardAlpha" operator="out"/>
<feColorMatrix type="matrix" values="0 0 0 0 0.0509804 0 0 0 0 0.0392157 0 0 0 0 0.172549 0 0 0 0.15 0"/>
<feBlend mode="normal" in2="BackgroundImageFix" result="effect1_dropShadow_526_1141"/>
<feBlend mode="normal" in="SourceGraphic" in2="effect1_dropShadow_526_1141" result="shape"/>
</filter>
</defs>
</svg>
