<svg width="559" height="854" viewBox="0 0 559 854" fill="none" xmlns="http://www.w3.org/2000/svg">
<g filter="url(#filter0_d_526_1196)">
<rect x="6" y="4" width="510" height="841.408" rx="20" fill="white"/>
</g>
<path d="M116.926 592.856H121.098L125.504 603.606H125.691L130.098 592.856H134.27V608.856H130.988V598.442H130.855L126.715 608.778H124.48L120.34 598.403H120.207V608.856H116.926V592.856ZM142.416 609.09C141.202 609.09 140.153 608.833 139.268 608.317C138.387 607.796 137.708 607.072 137.229 606.145C136.749 605.213 136.51 604.132 136.51 602.903C136.51 601.663 136.749 600.58 137.229 599.653C137.708 598.721 138.387 597.997 139.268 597.481C140.153 596.96 141.202 596.7 142.416 596.7C143.63 596.7 144.676 596.96 145.557 597.481C146.442 597.997 147.124 598.721 147.604 599.653C148.083 600.58 148.322 601.663 148.322 602.903C148.322 604.132 148.083 605.213 147.604 606.145C147.124 607.072 146.442 607.796 145.557 608.317C144.676 608.833 143.63 609.09 142.416 609.09ZM142.432 606.512C142.984 606.512 143.445 606.356 143.814 606.043C144.184 605.726 144.463 605.293 144.65 604.747C144.843 604.2 144.939 603.577 144.939 602.879C144.939 602.181 144.843 601.559 144.65 601.012C144.463 600.465 144.184 600.033 143.814 599.715C143.445 599.398 142.984 599.239 142.432 599.239C141.874 599.239 141.406 599.398 141.025 599.715C140.65 600.033 140.367 600.465 140.174 601.012C139.986 601.559 139.893 602.181 139.893 602.879C139.893 603.577 139.986 604.2 140.174 604.747C140.367 605.293 140.65 605.726 141.025 606.043C141.406 606.356 141.874 606.512 142.432 606.512ZM150.549 608.856V592.856H153.877V598.872H153.979C154.124 598.549 154.335 598.221 154.611 597.887C154.893 597.549 155.257 597.267 155.705 597.043C156.158 596.814 156.721 596.7 157.393 596.7C158.268 596.7 159.075 596.929 159.814 597.387C160.554 597.84 161.145 598.525 161.588 599.442C162.031 600.353 162.252 601.497 162.252 602.872C162.252 604.21 162.036 605.34 161.604 606.262C161.176 607.179 160.593 607.874 159.854 608.348C159.119 608.817 158.296 609.051 157.385 609.051C156.739 609.051 156.189 608.944 155.736 608.731C155.288 608.517 154.921 608.249 154.635 607.926C154.348 607.598 154.13 607.267 153.979 606.934H153.83V608.856H150.549ZM153.807 602.856C153.807 603.569 153.906 604.192 154.104 604.723C154.301 605.254 154.588 605.668 154.963 605.965C155.338 606.257 155.794 606.403 156.33 606.403C156.872 606.403 157.33 606.254 157.705 605.958C158.08 605.655 158.364 605.239 158.557 604.708C158.755 604.171 158.854 603.554 158.854 602.856C158.854 602.163 158.757 601.554 158.564 601.028C158.372 600.502 158.088 600.09 157.713 599.793C157.338 599.497 156.877 599.348 156.33 599.348C155.788 599.348 155.33 599.491 154.955 599.778C154.585 600.064 154.301 600.471 154.104 600.997C153.906 601.523 153.807 602.142 153.807 602.856ZM164.473 608.856V596.856H167.801V608.856H164.473ZM166.145 595.309C165.65 595.309 165.225 595.145 164.871 594.817C164.522 594.484 164.348 594.085 164.348 593.622C164.348 593.163 164.522 592.77 164.871 592.442C165.225 592.109 165.65 591.942 166.145 591.942C166.639 591.942 167.061 592.109 167.41 592.442C167.764 592.77 167.941 593.163 167.941 593.622C167.941 594.085 167.764 594.484 167.41 594.817C167.061 595.145 166.639 595.309 166.145 595.309ZM173.795 592.856V608.856H170.467V592.856H173.795ZM181.93 609.09C180.695 609.09 179.633 608.84 178.742 608.34C177.857 607.835 177.174 607.122 176.695 606.2C176.216 605.273 175.977 604.176 175.977 602.911C175.977 601.676 176.216 600.593 176.695 599.661C177.174 598.728 177.849 598.002 178.719 597.481C179.594 596.96 180.62 596.7 181.797 596.7C182.589 596.7 183.326 596.827 184.008 597.083C184.695 597.333 185.294 597.71 185.805 598.215C186.32 598.721 186.721 599.356 187.008 600.122C187.294 600.882 187.438 601.773 187.438 602.793V603.708H177.305V601.645H184.305C184.305 601.166 184.201 600.741 183.992 600.372C183.784 600.002 183.495 599.713 183.125 599.504C182.76 599.291 182.336 599.184 181.852 599.184C181.346 599.184 180.898 599.301 180.508 599.536C180.122 599.765 179.82 600.075 179.602 600.465C179.383 600.851 179.271 601.28 179.266 601.754V603.715C179.266 604.309 179.375 604.822 179.594 605.254C179.818 605.687 180.133 606.02 180.539 606.254C180.945 606.489 181.427 606.606 181.984 606.606C182.354 606.606 182.693 606.554 183 606.45C183.307 606.346 183.57 606.189 183.789 605.981C184.008 605.773 184.174 605.517 184.289 605.215L187.367 605.418C187.211 606.158 186.891 606.804 186.406 607.356C185.927 607.903 185.307 608.33 184.547 608.637C183.792 608.939 182.919 609.09 181.93 609.09Z" fill="#445C5F"/>
<rect x="85.3184" y="593.748" width="14.2158" height="14.2158" rx="7.10791" fill="#23567B"/>
<path d="M116.926 666.856V650.856H120.309V664.067H127.168V666.856H116.926ZM132.768 667.083C132.002 667.083 131.32 666.95 130.721 666.684C130.122 666.413 129.648 666.015 129.299 665.489C128.955 664.958 128.783 664.296 128.783 663.504C128.783 662.838 128.906 662.278 129.15 661.825C129.395 661.372 129.729 661.007 130.15 660.731C130.572 660.455 131.051 660.247 131.588 660.106C132.13 659.965 132.697 659.866 133.291 659.809C133.989 659.736 134.551 659.668 134.979 659.606C135.406 659.538 135.715 659.439 135.908 659.309C136.101 659.179 136.197 658.986 136.197 658.731V658.684C136.197 658.189 136.041 657.806 135.729 657.536C135.421 657.265 134.984 657.129 134.416 657.129C133.817 657.129 133.34 657.262 132.986 657.528C132.632 657.788 132.398 658.116 132.283 658.512L129.205 658.262C129.361 657.533 129.669 656.903 130.127 656.372C130.585 655.835 131.176 655.424 131.9 655.137C132.63 654.846 133.473 654.7 134.432 654.7C135.098 654.7 135.736 654.778 136.346 654.934C136.96 655.09 137.505 655.333 137.979 655.661C138.458 655.989 138.835 656.411 139.111 656.926C139.387 657.437 139.525 658.049 139.525 658.762V666.856H136.369V665.192H136.275C136.083 665.567 135.825 665.898 135.502 666.184C135.179 666.465 134.791 666.687 134.338 666.848C133.885 667.004 133.361 667.083 132.768 667.083ZM133.721 664.786C134.21 664.786 134.643 664.689 135.018 664.497C135.393 664.299 135.687 664.033 135.9 663.7C136.114 663.366 136.221 662.989 136.221 662.567V661.293C136.117 661.361 135.973 661.424 135.791 661.481C135.614 661.533 135.413 661.583 135.189 661.629C134.965 661.671 134.742 661.71 134.518 661.747C134.294 661.778 134.09 661.806 133.908 661.833C133.518 661.89 133.176 661.981 132.885 662.106C132.593 662.231 132.367 662.4 132.205 662.614C132.044 662.822 131.963 663.083 131.963 663.395C131.963 663.848 132.127 664.194 132.455 664.434C132.788 664.668 133.21 664.786 133.721 664.786ZM142.107 671.356V654.856H145.389V656.872H145.537C145.683 656.549 145.894 656.221 146.17 655.887C146.451 655.549 146.816 655.267 147.264 655.043C147.717 654.814 148.279 654.7 148.951 654.7C149.826 654.7 150.633 654.929 151.373 655.387C152.113 655.84 152.704 656.525 153.146 657.442C153.589 658.353 153.811 659.497 153.811 660.872C153.811 662.21 153.594 663.34 153.162 664.262C152.735 665.179 152.152 665.874 151.412 666.348C150.678 666.817 149.855 667.051 148.943 667.051C148.298 667.051 147.748 666.944 147.295 666.731C146.847 666.517 146.48 666.249 146.193 665.926C145.907 665.598 145.688 665.267 145.537 664.934H145.436V671.356H142.107ZM145.365 660.856C145.365 661.569 145.464 662.192 145.662 662.723C145.86 663.254 146.146 663.668 146.521 663.965C146.896 664.257 147.352 664.403 147.889 664.403C148.43 664.403 148.889 664.254 149.264 663.958C149.639 663.655 149.923 663.239 150.115 662.708C150.313 662.171 150.412 661.554 150.412 660.856C150.412 660.163 150.316 659.554 150.123 659.028C149.93 658.502 149.646 658.09 149.271 657.793C148.896 657.497 148.436 657.348 147.889 657.348C147.347 657.348 146.889 657.491 146.514 657.778C146.144 658.064 145.86 658.471 145.662 658.997C145.464 659.523 145.365 660.142 145.365 660.856ZM162.412 654.856V657.356H155.186V654.856H162.412ZM156.826 651.981H160.154V663.168C160.154 663.476 160.201 663.715 160.295 663.887C160.389 664.054 160.519 664.171 160.686 664.239C160.857 664.306 161.055 664.34 161.279 664.34C161.436 664.34 161.592 664.327 161.748 664.301C161.904 664.27 162.024 664.247 162.107 664.231L162.631 666.708C162.464 666.76 162.23 666.819 161.928 666.887C161.626 666.96 161.258 667.004 160.826 667.02C160.024 667.051 159.321 666.944 158.717 666.7C158.118 666.455 157.652 666.075 157.318 665.559C156.985 665.043 156.821 664.392 156.826 663.606V651.981ZM169.873 667.09C168.66 667.09 167.61 666.833 166.725 666.317C165.844 665.796 165.165 665.072 164.686 664.145C164.206 663.213 163.967 662.132 163.967 660.903C163.967 659.663 164.206 658.58 164.686 657.653C165.165 656.721 165.844 655.997 166.725 655.481C167.61 654.96 168.66 654.7 169.873 654.7C171.087 654.7 172.133 654.96 173.014 655.481C173.899 655.997 174.581 656.721 175.061 657.653C175.54 658.58 175.779 659.663 175.779 660.903C175.779 662.132 175.54 663.213 175.061 664.145C174.581 665.072 173.899 665.796 173.014 666.317C172.133 666.833 171.087 667.09 169.873 667.09ZM169.889 664.512C170.441 664.512 170.902 664.356 171.271 664.043C171.641 663.726 171.92 663.293 172.107 662.747C172.3 662.2 172.396 661.577 172.396 660.879C172.396 660.181 172.3 659.559 172.107 659.012C171.92 658.465 171.641 658.033 171.271 657.715C170.902 657.398 170.441 657.239 169.889 657.239C169.331 657.239 168.863 657.398 168.482 657.715C168.107 658.033 167.824 658.465 167.631 659.012C167.443 659.559 167.35 660.181 167.35 660.879C167.35 661.577 167.443 662.2 167.631 662.747C167.824 663.293 168.107 663.726 168.482 664.043C168.863 664.356 169.331 664.512 169.889 664.512ZM177.943 671.356V654.856H181.225V656.872H181.373C181.519 656.549 181.73 656.221 182.006 655.887C182.287 655.549 182.652 655.267 183.1 655.043C183.553 654.814 184.115 654.7 184.787 654.7C185.662 654.7 186.469 654.929 187.209 655.387C187.949 655.84 188.54 656.525 188.982 657.442C189.425 658.353 189.646 659.497 189.646 660.872C189.646 662.21 189.43 663.34 188.998 664.262C188.571 665.179 187.988 665.874 187.248 666.348C186.514 666.817 185.691 667.051 184.779 667.051C184.133 667.051 183.584 666.944 183.131 666.731C182.683 666.517 182.316 666.249 182.029 665.926C181.743 665.598 181.524 665.267 181.373 664.934H181.271V671.356H177.943ZM181.201 660.856C181.201 661.569 181.3 662.192 181.498 662.723C181.696 663.254 181.982 663.668 182.357 663.965C182.732 664.257 183.188 664.403 183.725 664.403C184.266 664.403 184.725 664.254 185.1 663.958C185.475 663.655 185.758 663.239 185.951 662.708C186.149 662.171 186.248 661.554 186.248 660.856C186.248 660.163 186.152 659.554 185.959 659.028C185.766 658.502 185.482 658.09 185.107 657.793C184.732 657.497 184.271 657.348 183.725 657.348C183.183 657.348 182.725 657.491 182.35 657.778C181.98 658.064 181.696 658.471 181.498 658.997C181.3 659.523 181.201 660.142 181.201 660.856Z" fill="#445C5F"/>
<rect x="85.3184" y="651.748" width="14.2158" height="14.2158" rx="7.10791" fill="#D4E4FD"/>
<path d="M417.557 279.295C424.547 275.833 425.174 265.915 418.771 261.458C382.07 235.91 309.449 182.539 273.566 172.608C268.246 171.135 263.73 175.473 263.668 180.993L263.39 205.687L263.112 230.367C263.05 235.892 267.516 240.701 272.688 242.645C297.696 252.045 345.046 288.029 365.042 301.787C368.084 303.88 372.005 303.953 375.216 302.131L401 287.496L417.557 279.295Z" fill="#D4E4FD"/>
<path d="M315.297 250V247.562L320.992 242.289C321.477 241.82 321.883 241.398 322.211 241.023C322.544 240.648 322.797 240.281 322.969 239.922C323.141 239.557 323.227 239.164 323.227 238.742C323.227 238.273 323.12 237.87 322.906 237.531C322.693 237.187 322.401 236.924 322.031 236.742C321.661 236.555 321.242 236.461 320.773 236.461C320.284 236.461 319.857 236.56 319.492 236.758C319.128 236.956 318.846 237.24 318.648 237.609C318.451 237.979 318.352 238.419 318.352 238.93H315.141C315.141 237.883 315.378 236.974 315.852 236.203C316.326 235.432 316.99 234.836 317.844 234.414C318.698 233.992 319.682 233.781 320.797 233.781C321.943 233.781 322.94 233.984 323.789 234.391C324.643 234.792 325.307 235.349 325.781 236.062C326.255 236.776 326.492 237.594 326.492 238.516C326.492 239.12 326.372 239.716 326.133 240.305C325.898 240.893 325.479 241.547 324.875 242.266C324.271 242.979 323.419 243.836 322.32 244.836L319.984 247.125V247.234H326.703V250H315.297ZM335.295 250.219C334.472 250.214 333.678 250.076 332.912 249.805C332.152 249.534 331.469 249.094 330.865 248.484C330.261 247.875 329.782 247.068 329.428 246.062C329.079 245.057 328.904 243.823 328.904 242.359C328.91 241.016 329.063 239.815 329.365 238.758C329.673 237.695 330.11 236.794 330.678 236.055C331.251 235.315 331.936 234.753 332.732 234.367C333.529 233.977 334.423 233.781 335.412 233.781C336.48 233.781 337.423 233.99 338.24 234.406C339.058 234.818 339.714 235.378 340.209 236.086C340.709 236.794 341.011 237.589 341.115 238.469H337.779C337.649 237.911 337.376 237.474 336.959 237.156C336.542 236.839 336.027 236.68 335.412 236.68C334.37 236.68 333.579 237.133 333.037 238.039C332.501 238.945 332.227 240.177 332.217 241.734H332.326C332.566 241.26 332.889 240.857 333.295 240.523C333.706 240.185 334.173 239.927 334.693 239.75C335.219 239.568 335.774 239.477 336.357 239.477C337.305 239.477 338.149 239.701 338.889 240.148C339.628 240.591 340.212 241.201 340.639 241.977C341.066 242.753 341.279 243.641 341.279 244.641C341.279 245.724 341.027 246.687 340.521 247.531C340.021 248.375 339.321 249.036 338.42 249.516C337.524 249.99 336.482 250.224 335.295 250.219ZM335.279 247.562C335.8 247.562 336.266 247.437 336.678 247.188C337.089 246.937 337.412 246.599 337.646 246.172C337.881 245.745 337.998 245.266 337.998 244.734C337.998 244.203 337.881 243.727 337.646 243.305C337.417 242.883 337.1 242.547 336.693 242.297C336.287 242.047 335.824 241.922 335.303 241.922C334.912 241.922 334.55 241.995 334.217 242.141C333.889 242.286 333.6 242.49 333.35 242.75C333.105 243.01 332.912 243.312 332.771 243.656C332.631 243.995 332.561 244.357 332.561 244.742C332.561 245.258 332.678 245.729 332.912 246.156C333.152 246.583 333.475 246.924 333.881 247.18C334.292 247.435 334.758 247.562 335.279 247.562ZM352.436 247V246.156C352.436 245.516 352.571 244.927 352.842 244.391C353.118 243.849 353.516 243.417 354.037 243.094C354.563 242.766 355.204 242.602 355.959 242.602C356.725 242.602 357.368 242.763 357.889 243.086C358.415 243.409 358.811 243.841 359.076 244.383C359.347 244.919 359.482 245.51 359.482 246.156V247C359.482 247.641 359.347 248.232 359.076 248.773C358.805 249.31 358.407 249.74 357.881 250.063C357.355 250.391 356.714 250.555 355.959 250.555C355.193 250.555 354.55 250.391 354.029 250.063C353.508 249.74 353.113 249.31 352.842 248.773C352.571 248.232 352.436 247.641 352.436 247ZM354.709 246.156V247C354.709 247.37 354.798 247.719 354.975 248.047C355.157 248.375 355.485 248.539 355.959 248.539C356.433 248.539 356.756 248.378 356.928 248.055C357.105 247.732 357.193 247.38 357.193 247V246.156C357.193 245.776 357.11 245.422 356.943 245.094C356.777 244.766 356.449 244.602 355.959 244.602C355.49 244.602 355.165 244.766 354.982 245.094C354.8 245.422 354.709 245.776 354.709 246.156ZM344.225 237.844V237C344.225 236.354 344.363 235.763 344.639 235.227C344.915 234.685 345.313 234.253 345.834 233.93C346.36 233.607 346.995 233.445 347.74 233.445C348.511 233.445 349.157 233.607 349.678 233.93C350.199 234.253 350.594 234.685 350.865 235.227C351.136 235.763 351.271 236.354 351.271 237V237.844C351.271 238.49 351.133 239.081 350.857 239.617C350.587 240.154 350.188 240.583 349.662 240.906C349.141 241.224 348.501 241.383 347.74 241.383C346.98 241.383 346.337 241.221 345.811 240.898C345.29 240.57 344.894 240.141 344.623 239.609C344.357 239.073 344.225 238.484 344.225 237.844ZM346.514 237V237.844C346.514 238.224 346.602 238.576 346.779 238.898C346.962 239.221 347.282 239.383 347.74 239.383C348.219 239.383 348.545 239.221 348.717 238.898C348.894 238.576 348.982 238.224 348.982 237.844V237C348.982 236.62 348.899 236.266 348.732 235.937C348.566 235.609 348.235 235.445 347.74 235.445C347.277 235.445 346.956 235.612 346.779 235.945C346.602 236.279 346.514 236.63 346.514 237ZM345.256 250L356.256 234H358.303L347.303 250H345.256Z" fill="white"/>
<path d="M253.785 181.707C253.358 176.2 248.542 172.054 243.069 172.789C209.691 177.274 178.196 191.159 152.314 212.92C123.875 236.831 103.639 269.049 94.4501 305.051C85.2608 341.052 87.5792 379.027 101.08 413.643C114.58 448.259 138.584 477.777 169.721 498.05C200.858 518.324 237.563 528.336 274.681 526.679C311.8 525.022 347.467 511.779 376.673 488.812C405.88 465.844 427.158 434.305 437.521 398.624C446.951 366.151 446.909 331.731 437.508 299.392C435.966 294.089 430.226 291.362 425.017 293.2L378.466 309.621C373.258 311.458 370.573 317.163 371.923 322.518C376.616 341.135 376.298 360.728 370.91 379.279C364.59 401.043 351.611 420.28 333.797 434.288C315.983 448.297 294.228 456.374 271.588 457.385C248.948 458.396 226.56 452.289 207.569 439.923C188.577 427.558 173.936 409.554 165.702 388.44C157.467 367.326 156.053 344.164 161.658 322.205C167.263 300.247 179.605 280.596 196.951 266.011C211.738 253.58 229.527 245.362 248.45 242.123C253.894 241.191 258.025 236.428 257.599 230.922L253.785 181.707Z" fill="#23567B"/>
<path d="M220.93 498L227.563 484.875V484.766H219.836V482H231.063V484.805L224.422 498H220.93ZM231.85 495.188V492.523L238.529 482H240.826V485.687H239.467L235.256 492.352V492.477H244.748V495.188H231.85ZM239.529 498V494.375L239.592 493.195V482H242.764V498H239.529ZM255.76 495V494.156C255.76 493.516 255.895 492.927 256.166 492.391C256.442 491.849 256.84 491.417 257.361 491.094C257.887 490.766 258.528 490.602 259.283 490.602C260.049 490.602 260.692 490.763 261.213 491.086C261.739 491.409 262.135 491.841 262.4 492.383C262.671 492.919 262.807 493.51 262.807 494.156V495C262.807 495.641 262.671 496.232 262.4 496.773C262.13 497.31 261.731 497.74 261.205 498.063C260.679 498.391 260.038 498.555 259.283 498.555C258.518 498.555 257.874 498.391 257.354 498.063C256.833 497.74 256.437 497.31 256.166 496.773C255.895 496.232 255.76 495.641 255.76 495ZM258.033 494.156V495C258.033 495.37 258.122 495.719 258.299 496.047C258.481 496.375 258.809 496.539 259.283 496.539C259.757 496.539 260.08 496.378 260.252 496.055C260.429 495.732 260.518 495.38 260.518 495V494.156C260.518 493.776 260.434 493.422 260.268 493.094C260.101 492.766 259.773 492.602 259.283 492.602C258.814 492.602 258.489 492.766 258.307 493.094C258.124 493.422 258.033 493.776 258.033 494.156ZM247.549 485.844V485C247.549 484.354 247.687 483.763 247.963 483.227C248.239 482.685 248.637 482.253 249.158 481.93C249.684 481.607 250.32 481.445 251.064 481.445C251.835 481.445 252.481 481.607 253.002 481.93C253.523 482.253 253.919 482.685 254.189 483.227C254.46 483.763 254.596 484.354 254.596 485V485.844C254.596 486.49 254.458 487.081 254.182 487.617C253.911 488.154 253.512 488.583 252.986 488.906C252.465 489.224 251.825 489.383 251.064 489.383C250.304 489.383 249.661 489.221 249.135 488.898C248.614 488.57 248.218 488.141 247.947 487.609C247.682 487.073 247.549 486.484 247.549 485.844ZM249.838 485V485.844C249.838 486.224 249.926 486.576 250.104 486.898C250.286 487.221 250.606 487.383 251.064 487.383C251.544 487.383 251.869 487.221 252.041 486.898C252.218 486.576 252.307 486.224 252.307 485.844V485C252.307 484.62 252.223 484.266 252.057 483.937C251.89 483.609 251.559 483.445 251.064 483.445C250.601 483.445 250.281 483.612 250.104 483.945C249.926 484.279 249.838 484.63 249.838 485ZM248.58 498L259.58 482H261.627L250.627 498H248.58Z" fill="white"/>
<line x1="38" y1="111.5" x2="484" y2="111.5" stroke="#D4E4FD"/>
<path d="M45.0625 82H39.3906V66H45.1094C46.7188 66 48.1042 66.3203 49.2656 66.9609C50.4271 67.5964 51.3203 68.5104 51.9453 69.7031C52.5755 70.8958 52.8906 72.3229 52.8906 73.9844C52.8906 75.651 52.5755 77.0833 51.9453 78.2812C51.3203 79.4792 50.4219 80.3984 49.25 81.0391C48.0833 81.6797 46.6875 82 45.0625 82ZM42.7734 79.1016H44.9219C45.9219 79.1016 46.763 78.9245 47.4453 78.5703C48.1328 78.2109 48.6484 77.6562 48.9922 76.9062C49.3411 76.151 49.5156 75.1771 49.5156 73.9844C49.5156 72.8021 49.3411 71.8359 48.9922 71.0859C48.6484 70.3359 48.1354 69.7839 47.4531 69.4297C46.7708 69.0755 45.9297 68.8984 44.9297 68.8984H42.7734V79.1016ZM60.8027 82.2344C59.5684 82.2344 58.5059 81.9844 57.6152 81.4844C56.7298 80.9792 56.0475 80.2656 55.5684 79.3437C55.0892 78.4167 54.8496 77.3203 54.8496 76.0547C54.8496 74.8203 55.0892 73.737 55.5684 72.8047C56.0475 71.8724 56.722 71.1458 57.5918 70.625C58.4668 70.1042 59.4928 69.8438 60.6699 69.8438C61.4616 69.8438 62.1986 69.9714 62.8809 70.2266C63.5684 70.4766 64.1673 70.8542 64.6777 71.3594C65.1934 71.8646 65.5944 72.5 65.8809 73.2656C66.1673 74.026 66.3105 74.9167 66.3105 75.9375V76.8516H56.1777V74.7891H63.1777C63.1777 74.3099 63.0736 73.8854 62.8652 73.5156C62.6569 73.1458 62.3678 72.8568 61.998 72.6484C61.6335 72.4349 61.209 72.3281 60.7246 72.3281C60.2194 72.3281 59.7715 72.4453 59.3809 72.6797C58.9954 72.9089 58.6934 73.2187 58.4746 73.6094C58.2559 73.9948 58.1439 74.4245 58.1387 74.8984V76.8594C58.1387 77.4531 58.248 77.9661 58.4668 78.3984C58.6908 78.8307 59.0059 79.1641 59.4121 79.3984C59.8184 79.6328 60.3001 79.75 60.8574 79.75C61.2272 79.75 61.5658 79.6979 61.873 79.5938C62.1803 79.4896 62.4434 79.3333 62.6621 79.125C62.8809 78.9167 63.0475 78.6615 63.1621 78.3594L66.2402 78.5625C66.084 79.3021 65.7637 79.9479 65.2793 80.5C64.8001 81.0469 64.1803 81.474 63.4199 81.7813C62.6647 82.0833 61.7923 82.2344 60.8027 82.2344ZM79.3477 70L75.1523 82H71.4023L67.207 70H70.7227L73.2148 78.5859H73.3398L75.8242 70H79.3477ZM81.0508 82V70H84.3789V82H81.0508ZM82.7227 68.4531C82.2279 68.4531 81.8034 68.2891 81.4492 67.9609C81.1003 67.6276 80.9258 67.2292 80.9258 66.7656C80.9258 66.3073 81.1003 65.9141 81.4492 65.5859C81.8034 65.2526 82.2279 65.0859 82.7227 65.0859C83.2174 65.0859 83.6393 65.2526 83.9883 65.5859C84.3424 65.9141 84.5195 66.3073 84.5195 66.7656C84.5195 67.2292 84.3424 67.6276 83.9883 67.9609C83.6393 68.2891 83.2174 68.4531 82.7227 68.4531ZM92.4668 82.2344C91.2376 82.2344 90.1803 81.974 89.2949 81.4531C88.4147 80.9271 87.7376 80.1979 87.2637 79.2656C86.7949 78.3333 86.5605 77.2604 86.5605 76.0469C86.5605 74.8177 86.7975 73.7396 87.2715 72.8125C87.7507 71.8802 88.4303 71.1536 89.3105 70.6328C90.1908 70.1068 91.2376 69.8438 92.4512 69.8438C93.498 69.8438 94.4147 70.0339 95.2012 70.4141C95.9876 70.7943 96.61 71.3281 97.0684 72.0156C97.5267 72.7031 97.7793 73.5104 97.8262 74.4375H94.6855C94.597 73.8385 94.3626 73.3568 93.9824 72.9922C93.6074 72.6224 93.1152 72.4375 92.5059 72.4375C91.9902 72.4375 91.5397 72.5781 91.1543 72.8594C90.7741 73.1354 90.4772 73.5391 90.2637 74.0703C90.0501 74.6016 89.9434 75.2448 89.9434 76C89.9434 76.7656 90.0475 77.4167 90.2559 77.9531C90.4694 78.4896 90.7689 78.8984 91.1543 79.1797C91.5397 79.4609 91.9902 79.6016 92.5059 79.6016C92.8861 79.6016 93.2272 79.5234 93.5293 79.3672C93.8366 79.2109 94.0892 78.9844 94.2871 78.6875C94.4902 78.3854 94.623 78.0234 94.6855 77.6016H97.8262C97.7741 78.5182 97.5241 79.3255 97.0762 80.0234C96.6335 80.7161 96.0215 81.2578 95.2402 81.6484C94.459 82.0391 93.5345 82.2344 92.4668 82.2344ZM105.426 82.2344C104.191 82.2344 103.129 81.9844 102.238 81.4844C101.353 80.9792 100.671 80.2656 100.191 79.3437C99.7122 78.4167 99.4727 77.3203 99.4727 76.0547C99.4727 74.8203 99.7122 73.737 100.191 72.8047C100.671 71.8724 101.345 71.1458 102.215 70.625C103.09 70.1042 104.116 69.8438 105.293 69.8438C106.085 69.8438 106.822 69.9714 107.504 70.2266C108.191 70.4766 108.79 70.8542 109.301 71.3594C109.816 71.8646 110.217 72.5 110.504 73.2656C110.79 74.026 110.934 74.9167 110.934 75.9375V76.8516H100.801V74.7891H107.801C107.801 74.3099 107.697 73.8854 107.488 73.5156C107.28 73.1458 106.991 72.8568 106.621 72.6484C106.257 72.4349 105.832 72.3281 105.348 72.3281C104.842 72.3281 104.395 72.4453 104.004 72.6797C103.618 72.9089 103.316 73.2187 103.098 73.6094C102.879 73.9948 102.767 74.4245 102.762 74.8984V76.8594C102.762 77.4531 102.871 77.9661 103.09 78.3984C103.314 78.8307 103.629 79.1641 104.035 79.3984C104.441 79.6328 104.923 79.75 105.48 79.75C105.85 79.75 106.189 79.6979 106.496 79.5938C106.803 79.4896 107.066 79.3333 107.285 79.125C107.504 78.9167 107.671 78.6615 107.785 78.3594L110.863 78.5625C110.707 79.3021 110.387 79.9479 109.902 80.5C109.423 81.0469 108.803 81.474 108.043 81.7813C107.288 82.0833 106.415 82.2344 105.426 82.2344Z" fill="#173952"/>
<path d="M41.9631 53L38.3835 39.9091H39.9943L42.7301 50.571H42.858L45.6449 39.9091H47.4347L50.2216 50.571H50.3494L53.0852 39.9091H54.696L51.1165 53H49.4801L46.5909 42.5682H46.4886L43.5994 53H41.9631ZM57.9751 47.0938V53H56.4666V39.9091H57.9751V44.7159H58.103C58.3331 44.2088 58.6783 43.8061 59.1385 43.5078C59.603 43.2053 60.2209 43.054 60.9922 43.054C61.6612 43.054 62.2472 43.1882 62.75 43.4567C63.2528 43.7209 63.6428 44.1278 63.9197 44.6776C64.201 45.223 64.3416 45.9176 64.3416 46.7614V53H62.8331V46.8636C62.8331 46.0838 62.6307 45.4808 62.2259 45.0547C61.8253 44.6243 61.2692 44.4091 60.5575 44.4091C60.0632 44.4091 59.62 44.5135 59.228 44.7223C58.8402 44.9311 58.5334 45.2358 58.3075 45.6364C58.0859 46.0369 57.9751 46.5227 57.9751 47.0938ZM69.9906 53.2301C69.3684 53.2301 68.8038 53.1129 68.2967 52.8786C67.7896 52.6399 67.3869 52.2969 67.0886 51.8494C66.7903 51.3977 66.6412 50.8523 66.6412 50.2131C66.6412 49.6506 66.752 49.1946 66.9735 48.8452C67.1951 48.4915 67.4913 48.2145 67.862 48.0142C68.2328 47.8139 68.6419 47.6648 69.0893 47.5668C69.541 47.4645 69.9949 47.3835 70.4508 47.3239C71.0474 47.2472 71.5311 47.1896 71.9018 47.1513C72.2768 47.1087 72.5495 47.0384 72.72 46.9403C72.8947 46.8423 72.9821 46.6719 72.9821 46.429V46.3778C72.9821 45.7472 72.8095 45.2571 72.4643 44.9077C72.1234 44.5582 71.6056 44.3835 70.911 44.3835C70.1909 44.3835 69.6262 44.5412 69.2172 44.8565C68.8081 45.1719 68.5204 45.5085 68.3542 45.8665L66.9224 45.3551C67.1781 44.7585 67.519 44.294 67.9451 43.9616C68.3755 43.625 68.8443 43.3906 69.3514 43.2585C69.8627 43.1222 70.3656 43.054 70.8599 43.054C71.1752 43.054 71.5375 43.0923 71.9466 43.169C72.3599 43.2415 72.7583 43.3928 73.1419 43.6229C73.5297 43.853 73.8514 44.2003 74.1071 44.6648C74.3627 45.1293 74.4906 45.7514 74.4906 46.5312V53H72.9821V51.6705H72.9054C72.8031 51.8835 72.6326 52.1115 72.394 52.3544C72.1554 52.5973 71.8379 52.804 71.4416 52.9744C71.0453 53.1449 70.5616 53.2301 69.9906 53.2301ZM70.2207 51.875C70.8173 51.875 71.3201 51.7578 71.7292 51.5234C72.1426 51.2891 72.4537 50.9865 72.6625 50.6158C72.8755 50.245 72.9821 49.8551 72.9821 49.446V48.0653C72.9181 48.142 72.7775 48.2124 72.5602 48.2763C72.3471 48.3359 72.1 48.3892 71.8187 48.4361C71.5417 48.4787 71.2711 48.517 71.0069 48.5511C70.747 48.581 70.536 48.6065 70.3741 48.6278C69.9821 48.679 69.6156 48.7621 69.2747 48.8771C68.938 48.9879 68.6653 49.1562 68.4565 49.3821C68.252 49.6037 68.1497 49.9062 68.1497 50.2898C68.1497 50.8139 68.3436 51.2102 68.7314 51.4787C69.1234 51.7429 69.6199 51.875 70.2207 51.875ZM81.5138 43.1818V44.4602H76.4258V43.1818H81.5138ZM77.9087 40.8295H79.4173V50.1875C79.4173 50.6136 79.479 50.9332 79.6026 51.1463C79.7305 51.3551 79.8924 51.4957 80.0884 51.5682C80.2887 51.6364 80.4996 51.6705 80.7212 51.6705C80.8874 51.6705 81.0238 51.6619 81.1303 51.6449C81.2369 51.6236 81.3221 51.6065 81.386 51.5938L81.6928 52.9489C81.5906 52.9872 81.4478 53.0256 81.2646 53.0639C81.0813 53.1065 80.8491 53.1278 80.5678 53.1278C80.1417 53.1278 79.7241 53.0362 79.315 52.853C78.9102 52.6697 78.5735 52.3906 78.305 52.0156C78.0408 51.6406 77.9087 51.1676 77.9087 50.5966V40.8295ZM92.5529 53.2045C91.7347 53.2045 91.0124 52.9979 90.386 52.5845C89.7596 52.1669 89.2695 51.5788 88.9158 50.8203C88.5621 50.0575 88.3853 49.1562 88.3853 48.1165C88.3853 47.0852 88.5621 46.1903 88.9158 45.4318C89.2695 44.6733 89.7617 44.0874 90.3924 43.674C91.0231 43.2607 91.7518 43.054 92.5785 43.054C93.2177 43.054 93.7227 43.1605 94.0934 43.3736C94.4684 43.5824 94.7539 43.821 94.9499 44.0895C95.1502 44.3537 95.3058 44.571 95.4165 44.7415H95.5444V39.9091H97.0529V53H95.5955V51.4915H95.4165C95.3058 51.6705 95.1481 51.8963 94.9435 52.169C94.739 52.4375 94.4471 52.6783 94.0678 52.8913C93.6886 53.1001 93.1836 53.2045 92.5529 53.2045ZM92.7575 51.8494C93.3626 51.8494 93.8739 51.6918 94.2915 51.3764C94.7092 51.0568 95.0266 50.6158 95.244 50.0533C95.4613 49.4865 95.57 48.8324 95.57 48.0909C95.57 47.358 95.4634 46.7166 95.2504 46.1669C95.0373 45.6129 94.7219 45.1825 94.3043 44.8757C93.8867 44.5646 93.3711 44.4091 92.7575 44.4091C92.1183 44.4091 91.5856 44.5732 91.1594 44.9013C90.7376 45.2251 90.4201 45.6662 90.207 46.2244C89.9982 46.7784 89.8938 47.4006 89.8938 48.0909C89.8938 48.7898 90.0004 49.4247 90.2134 49.9957C90.4308 50.5625 90.7504 51.0142 91.1722 51.3509C91.5984 51.6832 92.1268 51.8494 92.7575 51.8494ZM104.142 53.2045C103.196 53.2045 102.38 52.9957 101.694 52.5781C101.012 52.1562 100.485 51.5682 100.115 50.8139C99.7482 50.0554 99.565 49.1733 99.565 48.1676C99.565 47.1619 99.7482 46.2756 100.115 45.5085C100.485 44.7372 101.001 44.1364 101.662 43.706C102.326 43.2713 103.102 43.054 103.988 43.054C104.5 43.054 105.005 43.1392 105.503 43.3097C106.002 43.4801 106.456 43.7571 106.865 44.1406C107.274 44.5199 107.6 45.0227 107.843 45.6491C108.086 46.2756 108.207 47.0469 108.207 47.9631V48.6023H100.639V47.2983H106.673C106.673 46.7443 106.562 46.25 106.341 45.8153C106.123 45.3807 105.812 45.0376 105.407 44.7862C105.007 44.5348 104.534 44.4091 103.988 44.4091C103.387 44.4091 102.868 44.5582 102.429 44.8565C101.994 45.1506 101.659 45.5341 101.425 46.0071C101.191 46.4801 101.074 46.9872 101.074 47.5284V48.3977C101.074 49.1392 101.201 49.7678 101.457 50.2834C101.717 50.7947 102.077 51.1847 102.537 51.4531C102.998 51.7173 103.532 51.8494 104.142 51.8494C104.538 51.8494 104.896 51.794 105.216 51.6832C105.539 51.5682 105.819 51.3977 106.053 51.1719C106.287 50.9418 106.468 50.6562 106.596 50.3153L108.054 50.7244C107.9 51.2188 107.642 51.6534 107.28 52.0284C106.918 52.3991 106.471 52.6889 105.938 52.8977C105.405 53.1023 104.806 53.2045 104.142 53.2045ZM118.231 43.1818L114.601 53H113.067L109.436 43.1818H111.072L113.782 51.0057H113.885L116.595 43.1818H118.231ZM120.222 53V43.1818H121.731V53H120.222ZM120.99 41.5455C120.695 41.5455 120.442 41.4453 120.229 41.245C120.02 41.0447 119.916 40.804 119.916 40.5227C119.916 40.2415 120.02 40.0007 120.229 39.8004C120.442 39.6001 120.695 39.5 120.99 39.5C121.284 39.5 121.535 39.6001 121.744 39.8004C121.957 40.0007 122.063 40.2415 122.063 40.5227C122.063 40.804 121.957 41.0447 121.744 41.245C121.535 41.4453 121.284 41.5455 120.99 41.5455ZM128.483 53.2045C127.562 53.2045 126.77 52.9872 126.105 52.5526C125.44 52.1179 124.929 51.5192 124.571 50.7564C124.213 49.9936 124.034 49.1222 124.034 48.142C124.034 47.1449 124.217 46.2649 124.583 45.5021C124.954 44.7351 125.47 44.1364 126.13 43.706C126.795 43.2713 127.571 43.054 128.457 43.054C129.147 43.054 129.77 43.1818 130.324 43.4375C130.877 43.6932 131.331 44.0511 131.685 44.5114C132.039 44.9716 132.258 45.5085 132.343 46.1222H130.835C130.72 45.6747 130.464 45.2784 130.068 44.9332C129.676 44.5838 129.147 44.4091 128.483 44.4091C127.895 44.4091 127.379 44.5625 126.936 44.8693C126.497 45.1719 126.154 45.6001 125.907 46.1541C125.664 46.7038 125.542 47.3494 125.542 48.0909C125.542 48.8494 125.662 49.5099 125.9 50.0724C126.143 50.6349 126.484 51.0717 126.923 51.3828C127.366 51.6939 127.886 51.8494 128.483 51.8494C128.875 51.8494 129.23 51.7812 129.55 51.6449C129.87 51.5085 130.14 51.3125 130.362 51.0568C130.583 50.8011 130.741 50.4943 130.835 50.1364H132.343C132.258 50.7159 132.047 51.2379 131.711 51.7024C131.378 52.1626 130.937 52.5291 130.387 52.8018C129.842 53.0703 129.207 53.2045 128.483 53.2045ZM138.665 53.2045C137.719 53.2045 136.903 52.9957 136.217 52.5781C135.535 52.1562 135.009 51.5682 134.638 50.8139C134.272 50.0554 134.088 49.1733 134.088 48.1676C134.088 47.1619 134.272 46.2756 134.638 45.5085C135.009 44.7372 135.525 44.1364 136.185 43.706C136.85 43.2713 137.625 43.054 138.512 43.054C139.023 43.054 139.528 43.1392 140.027 43.3097C140.525 43.4801 140.979 43.7571 141.388 44.1406C141.797 44.5199 142.123 45.0227 142.366 45.6491C142.609 46.2756 142.73 47.0469 142.73 47.9631V48.6023H135.162V47.2983H141.196C141.196 46.7443 141.086 46.25 140.864 45.8153C140.647 45.3807 140.336 45.0376 139.931 44.7862C139.53 44.5348 139.057 44.4091 138.512 44.4091C137.911 44.4091 137.391 44.5582 136.952 44.8565C136.517 45.1506 136.183 45.5341 135.949 46.0071C135.714 46.4801 135.597 46.9872 135.597 47.5284V48.3977C135.597 49.1392 135.725 49.7678 135.98 50.2834C136.24 50.7947 136.6 51.1847 137.061 51.4531C137.521 51.7173 138.056 51.8494 138.665 51.8494C139.061 51.8494 139.419 51.794 139.739 51.6832C140.063 51.5682 140.342 51.3977 140.576 51.1719C140.811 50.9418 140.992 50.6562 141.12 50.3153L142.577 50.7244C142.424 51.2188 142.166 51.6534 141.804 52.0284C141.441 52.3991 140.994 52.6889 140.461 52.8977C139.929 53.1023 139.33 53.2045 138.665 53.2045ZM153.795 53.2045C152.977 53.2045 152.255 52.9979 151.628 52.5845C151.002 52.1669 150.512 51.5788 150.158 50.8203C149.804 50.0575 149.627 49.1562 149.627 48.1165C149.627 47.0852 149.804 46.1903 150.158 45.4318C150.512 44.6733 151.004 44.0874 151.635 43.674C152.265 43.2607 152.994 43.054 153.821 43.054C154.46 43.054 154.965 43.1605 155.336 43.3736C155.711 43.5824 155.996 43.821 156.192 44.0895C156.392 44.3537 156.548 44.571 156.659 44.7415H156.787V39.9091H158.295V53H156.838V51.4915H156.659C156.548 51.6705 156.39 51.8963 156.186 52.169C155.981 52.4375 155.689 52.6783 155.31 52.8913C154.931 53.1001 154.426 53.2045 153.795 53.2045ZM154 51.8494C154.605 51.8494 155.116 51.6918 155.534 51.3764C155.951 51.0568 156.269 50.6158 156.486 50.0533C156.703 49.4865 156.812 48.8324 156.812 48.0909C156.812 47.358 156.706 46.7166 156.493 46.1669C156.279 45.6129 155.964 45.1825 155.547 44.8757C155.129 44.5646 154.613 44.4091 154 44.4091C153.36 44.4091 152.828 44.5732 152.402 44.9013C151.98 45.2251 151.662 45.6662 151.449 46.2244C151.24 46.7784 151.136 47.4006 151.136 48.0909C151.136 48.7898 151.243 49.4247 151.456 49.9957C151.673 50.5625 151.993 51.0142 152.414 51.3509C152.841 51.6832 153.369 51.8494 154 51.8494ZM165.256 53.2045C164.37 53.2045 163.592 52.9936 162.923 52.5717C162.258 52.1499 161.738 51.5597 161.363 50.8011C160.993 50.0426 160.807 49.1562 160.807 48.142C160.807 47.1193 160.993 46.2266 161.363 45.4638C161.738 44.701 162.258 44.1087 162.923 43.6868C163.592 43.2649 164.37 43.054 165.256 43.054C166.142 43.054 166.918 43.2649 167.583 43.6868C168.252 44.1087 168.772 44.701 169.142 45.4638C169.517 46.2266 169.705 47.1193 169.705 48.142C169.705 49.1562 169.517 50.0426 169.142 50.8011C168.772 51.5597 168.252 52.1499 167.583 52.5717C166.918 52.9936 166.142 53.2045 165.256 53.2045ZM165.256 51.8494C165.929 51.8494 166.483 51.6768 166.918 51.3317C167.353 50.9865 167.674 50.5327 167.883 49.9702C168.092 49.4077 168.196 48.7983 168.196 48.142C168.196 47.4858 168.092 46.8743 167.883 46.3075C167.674 45.7408 167.353 45.2827 166.918 44.9332C166.483 44.5838 165.929 44.4091 165.256 44.4091C164.583 44.4091 164.029 44.5838 163.594 44.9332C163.159 45.2827 162.838 45.7408 162.629 46.3075C162.42 46.8743 162.316 47.4858 162.316 48.142C162.316 48.7983 162.42 49.4077 162.629 49.9702C162.838 50.5327 163.159 50.9865 163.594 51.3317C164.029 51.6768 164.583 51.8494 165.256 51.8494ZM178.042 56.6818C177.786 56.6818 177.558 56.6605 177.358 56.6179C177.157 56.5795 177.019 56.5412 176.942 56.5028L177.326 55.1733C177.692 55.267 178.016 55.3011 178.297 55.2756C178.579 55.25 178.828 55.1243 179.045 54.8984C179.267 54.6768 179.469 54.3168 179.653 53.8182L179.934 53.0511L176.303 43.1818H177.939L180.65 51.0057H180.752L183.462 43.1818H185.099L180.931 54.4318C180.743 54.9389 180.511 55.3587 180.234 55.6911C179.957 56.0277 179.635 56.277 179.269 56.4389C178.907 56.6009 178.498 56.6818 178.042 56.6818ZM190.727 53.2045C189.84 53.2045 189.063 52.9936 188.394 52.5717C187.729 52.1499 187.209 51.5597 186.834 50.8011C186.463 50.0426 186.278 49.1562 186.278 48.142C186.278 47.1193 186.463 46.2266 186.834 45.4638C187.209 44.701 187.729 44.1087 188.394 43.6868C189.063 43.2649 189.84 43.054 190.727 43.054C191.613 43.054 192.389 43.2649 193.053 43.6868C193.722 44.1087 194.242 44.701 194.613 45.4638C194.988 46.2266 195.176 47.1193 195.176 48.142C195.176 49.1562 194.988 50.0426 194.613 50.8011C194.242 51.5597 193.722 52.1499 193.053 52.5717C192.389 52.9936 191.613 53.2045 190.727 53.2045ZM190.727 51.8494C191.4 51.8494 191.954 51.6768 192.389 51.3317C192.823 50.9865 193.145 50.5327 193.354 49.9702C193.563 49.4077 193.667 48.7983 193.667 48.142C193.667 47.4858 193.563 46.8743 193.354 46.3075C193.145 45.7408 192.823 45.2827 192.389 44.9332C191.954 44.5838 191.4 44.4091 190.727 44.4091C190.053 44.4091 189.499 44.5838 189.065 44.9332C188.63 45.2827 188.308 45.7408 188.1 46.3075C187.891 46.8743 187.786 47.4858 187.786 48.142C187.786 48.7983 187.891 49.4077 188.1 49.9702C188.308 50.5327 188.63 50.9865 189.065 51.3317C189.499 51.6768 190.053 51.8494 190.727 51.8494ZM203.666 48.9858V43.1818H205.174V53H203.666V51.3381H203.564C203.333 51.8366 202.975 52.2607 202.49 52.6101C202.004 52.9553 201.39 53.1278 200.649 53.1278C200.035 53.1278 199.49 52.9936 199.012 52.7251C198.535 52.4524 198.16 52.0433 197.887 51.4979C197.615 50.9482 197.478 50.2557 197.478 49.4205V43.1818H198.987V49.3182C198.987 50.0341 199.187 50.6051 199.588 51.0312C199.993 51.4574 200.508 51.6705 201.135 51.6705C201.51 51.6705 201.891 51.5746 202.279 51.3828C202.671 51.1911 202.999 50.897 203.263 50.5007C203.532 50.1044 203.666 49.5994 203.666 48.9858ZM219.187 48.9858V43.1818H220.696V53H219.187V51.3381H219.085C218.855 51.8366 218.497 52.2607 218.011 52.6101C217.525 52.9553 216.912 53.1278 216.17 53.1278C215.557 53.1278 215.011 52.9936 214.534 52.7251C214.057 52.4524 213.682 52.0433 213.409 51.4979C213.136 50.9482 213 50.2557 213 49.4205V43.1818H214.508V49.3182C214.508 50.0341 214.709 50.6051 215.109 51.0312C215.514 51.4574 216.03 51.6705 216.656 51.6705C217.031 51.6705 217.412 51.5746 217.8 51.3828C218.192 51.1911 218.52 50.897 218.785 50.5007C219.053 50.1044 219.187 49.5994 219.187 48.9858ZM230.413 45.3807L229.058 45.7642C228.973 45.5384 228.847 45.3189 228.681 45.1058C228.519 44.8885 228.298 44.7095 228.016 44.5689C227.735 44.4283 227.375 44.358 226.936 44.358C226.335 44.358 225.835 44.4964 225.434 44.7734C225.038 45.0462 224.839 45.3935 224.839 45.8153C224.839 46.1903 224.976 46.4865 225.249 46.7038C225.521 46.9212 225.947 47.1023 226.527 47.2472L227.984 47.6051C228.862 47.8182 229.516 48.1442 229.947 48.5831C230.377 49.0178 230.592 49.5781 230.592 50.2642C230.592 50.8267 230.43 51.3295 230.107 51.7727C229.787 52.2159 229.339 52.5653 228.764 52.821C228.189 53.0767 227.52 53.2045 226.757 53.2045C225.756 53.2045 224.927 52.9872 224.271 52.5526C223.614 52.1179 223.199 51.483 223.024 50.6477L224.456 50.2898C224.592 50.8182 224.85 51.2145 225.229 51.4787C225.613 51.7429 226.114 51.875 226.732 51.875C227.435 51.875 227.993 51.7259 228.406 51.4276C228.824 51.125 229.033 50.7628 229.033 50.3409C229.033 50 228.913 49.7145 228.675 49.4844C228.436 49.25 228.07 49.0753 227.575 48.9602L225.939 48.5767C225.04 48.3636 224.379 48.0334 223.957 47.5859C223.54 47.1342 223.331 46.5696 223.331 45.892C223.331 45.3381 223.487 44.848 223.798 44.4219C224.113 43.9957 224.541 43.6612 225.082 43.4183C225.628 43.1754 226.246 43.054 226.936 43.054C227.908 43.054 228.67 43.267 229.224 43.6932C229.783 44.1193 230.179 44.6818 230.413 45.3807ZM239.051 48.9858V43.1818H240.559V53H239.051V51.3381H238.948C238.718 51.8366 238.36 52.2607 237.874 52.6101C237.389 52.9553 236.775 53.1278 236.034 53.1278C235.42 53.1278 234.874 52.9936 234.397 52.7251C233.92 52.4524 233.545 52.0433 233.272 51.4979C232.999 50.9482 232.863 50.2557 232.863 49.4205V43.1818H234.372V49.3182C234.372 50.0341 234.572 50.6051 234.972 51.0312C235.377 51.4574 235.893 51.6705 236.519 51.6705C236.894 51.6705 237.276 51.5746 237.664 51.3828C238.056 51.1911 238.384 50.897 238.648 50.5007C238.916 50.1044 239.051 49.5994 239.051 48.9858ZM246.211 53.2301C245.589 53.2301 245.025 53.1129 244.517 52.8786C244.01 52.6399 243.608 52.2969 243.309 51.8494C243.011 51.3977 242.862 50.8523 242.862 50.2131C242.862 49.6506 242.973 49.1946 243.194 48.8452C243.416 48.4915 243.712 48.2145 244.083 48.0142C244.453 47.8139 244.863 47.6648 245.31 47.5668C245.762 47.4645 246.216 47.3835 246.672 47.3239C247.268 47.2472 247.752 47.1896 248.123 47.1513C248.498 47.1087 248.77 47.0384 248.941 46.9403C249.115 46.8423 249.203 46.6719 249.203 46.429V46.3778C249.203 45.7472 249.03 45.2571 248.685 44.9077C248.344 44.5582 247.826 44.3835 247.132 44.3835C246.412 44.3835 245.847 44.5412 245.438 44.8565C245.029 45.1719 244.741 45.5085 244.575 45.8665L243.143 45.3551C243.399 44.7585 243.74 44.294 244.166 43.9616C244.596 43.625 245.065 43.3906 245.572 43.2585C246.083 43.1222 246.586 43.054 247.081 43.054C247.396 43.054 247.758 43.0923 248.167 43.169C248.581 43.2415 248.979 43.3928 249.363 43.6229C249.75 43.853 250.072 44.2003 250.328 44.6648C250.583 45.1293 250.711 45.7514 250.711 46.5312V53H249.203V51.6705H249.126C249.024 51.8835 248.853 52.1115 248.615 52.3544C248.376 52.5973 248.059 52.804 247.662 52.9744C247.266 53.1449 246.782 53.2301 246.211 53.2301ZM246.441 51.875C247.038 51.875 247.541 51.7578 247.95 51.5234C248.363 51.2891 248.674 50.9865 248.883 50.6158C249.096 50.245 249.203 49.8551 249.203 49.446V48.0653C249.139 48.142 248.998 48.2124 248.781 48.2763C248.568 48.3359 248.321 48.3892 248.039 48.4361C247.762 48.4787 247.492 48.517 247.228 48.5511C246.968 48.581 246.757 48.6065 246.595 48.6278C246.203 48.679 245.836 48.7621 245.495 48.8771C245.159 48.9879 244.886 49.1562 244.677 49.3821C244.473 49.6037 244.37 49.9062 244.37 50.2898C244.37 50.8139 244.564 51.2102 244.952 51.4787C245.344 51.7429 245.841 51.875 246.441 51.875ZM254.973 39.9091V53H253.465V39.9091H254.973ZM259.245 39.9091V53H257.736V39.9091H259.245ZM262.979 56.6818C262.724 56.6818 262.496 56.6605 262.295 56.6179C262.095 56.5795 261.956 56.5412 261.88 56.5028L262.263 55.1733C262.63 55.267 262.954 55.3011 263.235 55.2756C263.516 55.25 263.765 55.1243 263.983 54.8984C264.204 54.6768 264.407 54.3168 264.59 53.8182L264.871 53.0511L261.241 43.1818H262.877L265.587 51.0057H265.689L268.4 43.1818H270.036L265.868 54.4318C265.681 54.9389 265.449 55.3587 265.172 55.6911C264.895 56.0277 264.573 56.277 264.206 56.4389C263.844 56.6009 263.435 56.6818 262.979 56.6818ZM283.277 48.9858V43.1818H284.786V53H283.277V51.3381H283.175C282.945 51.8366 282.587 52.2607 282.101 52.6101C281.615 52.9553 281.002 53.1278 280.26 53.1278C279.646 53.1278 279.101 52.9936 278.624 52.7251C278.146 52.4524 277.771 52.0433 277.499 51.4979C277.226 50.9482 277.09 50.2557 277.09 49.4205V43.1818H278.598V49.3182C278.598 50.0341 278.798 50.6051 279.199 51.0312C279.604 51.4574 280.119 51.6705 280.746 51.6705C281.121 51.6705 281.502 51.5746 281.89 51.3828C282.282 51.1911 282.61 50.897 282.874 50.5007C283.143 50.1044 283.277 49.5994 283.277 48.9858ZM294.503 45.3807L293.148 45.7642C293.063 45.5384 292.937 45.3189 292.771 45.1058C292.609 44.8885 292.387 44.7095 292.106 44.5689C291.825 44.4283 291.465 44.358 291.026 44.358C290.425 44.358 289.924 44.4964 289.524 44.7734C289.127 45.0462 288.929 45.3935 288.929 45.8153C288.929 46.1903 289.066 46.4865 289.338 46.7038C289.611 46.9212 290.037 47.1023 290.617 47.2472L292.074 47.6051C292.952 47.8182 293.606 48.1442 294.037 48.5831C294.467 49.0178 294.682 49.5781 294.682 50.2642C294.682 50.8267 294.52 51.3295 294.196 51.7727C293.877 52.2159 293.429 52.5653 292.854 52.821C292.279 53.0767 291.61 53.2045 290.847 53.2045C289.846 53.2045 289.017 52.9872 288.36 52.5526C287.704 52.1179 287.289 51.483 287.114 50.6477L288.546 50.2898C288.682 50.8182 288.94 51.2145 289.319 51.4787C289.703 51.7429 290.203 51.875 290.821 51.875C291.525 51.875 292.083 51.7259 292.496 51.4276C292.914 51.125 293.123 50.7628 293.123 50.3409C293.123 50 293.003 49.7145 292.765 49.4844C292.526 49.25 292.159 49.0753 291.665 48.9602L290.029 48.5767C289.13 48.3636 288.469 48.0334 288.047 47.5859C287.63 47.1342 287.421 46.5696 287.421 45.892C287.421 45.3381 287.576 44.848 287.887 44.4219C288.203 43.9957 288.631 43.6612 289.172 43.4183C289.718 43.1754 290.336 43.054 291.026 43.054C291.998 43.054 292.76 43.267 293.314 43.6932C293.873 44.1193 294.269 44.6818 294.503 45.3807ZM301.069 53.2045C300.123 53.2045 299.307 52.9957 298.621 52.5781C297.939 52.1562 297.413 51.5682 297.042 50.8139C296.676 50.0554 296.493 49.1733 296.493 48.1676C296.493 47.1619 296.676 46.2756 297.042 45.5085C297.413 44.7372 297.929 44.1364 298.589 43.706C299.254 43.2713 300.03 43.054 300.916 43.054C301.427 43.054 301.932 43.1392 302.431 43.3097C302.93 43.4801 303.383 43.7571 303.792 44.1406C304.202 44.5199 304.528 45.0227 304.77 45.6491C305.013 46.2756 305.135 47.0469 305.135 47.9631V48.6023H297.567V47.2983H303.601C303.601 46.7443 303.49 46.25 303.268 45.8153C303.051 45.3807 302.74 45.0376 302.335 44.7862C301.934 44.5348 301.461 44.4091 300.916 44.4091C300.315 44.4091 299.795 44.5582 299.356 44.8565C298.922 45.1506 298.587 45.5341 298.353 46.0071C298.118 46.4801 298.001 46.9872 298.001 47.5284V48.3977C298.001 49.1392 298.129 49.7678 298.385 50.2834C298.645 50.7947 299.005 51.1847 299.465 51.4531C299.925 51.7173 300.46 51.8494 301.069 51.8494C301.466 51.8494 301.824 51.794 302.143 51.6832C302.467 51.5682 302.746 51.3977 302.981 51.1719C303.215 50.9418 303.396 50.6562 303.524 50.3153L304.981 50.7244C304.828 51.2188 304.57 51.6534 304.208 52.0284C303.846 52.3991 303.398 52.6889 302.866 52.8977C302.333 53.1023 301.734 53.2045 301.069 53.2045ZM316.762 43.1818V44.4602H311.674V43.1818H316.762ZM313.157 40.8295H314.665V50.1875C314.665 50.6136 314.727 50.9332 314.851 51.1463C314.979 51.3551 315.14 51.4957 315.336 51.5682C315.537 51.6364 315.748 51.6705 315.969 51.6705C316.135 51.6705 316.272 51.6619 316.378 51.6449C316.485 51.6236 316.57 51.6065 316.634 51.5938L316.941 52.9489C316.839 52.9872 316.696 53.0256 316.513 53.0639C316.329 53.1065 316.097 53.1278 315.816 53.1278C315.39 53.1278 314.972 53.0362 314.563 52.853C314.158 52.6697 313.822 52.3906 313.553 52.0156C313.289 51.6406 313.157 51.1676 313.157 50.5966V40.8295ZM322.914 53.2045C322.028 53.2045 321.25 52.9936 320.581 52.5717C319.916 52.1499 319.396 51.5597 319.021 50.8011C318.651 50.0426 318.465 49.1562 318.465 48.142C318.465 47.1193 318.651 46.2266 319.021 45.4638C319.396 44.701 319.916 44.1087 320.581 43.6868C321.25 43.2649 322.028 43.054 322.914 43.054C323.801 43.054 324.576 43.2649 325.241 43.6868C325.91 44.1087 326.43 44.701 326.801 45.4638C327.176 46.2266 327.363 47.1193 327.363 48.142C327.363 49.1562 327.176 50.0426 326.801 50.8011C326.43 51.5597 325.91 52.1499 325.241 52.5717C324.576 52.9936 323.801 53.2045 322.914 53.2045ZM322.914 51.8494C323.588 51.8494 324.142 51.6768 324.576 51.3317C325.011 50.9865 325.333 50.5327 325.541 49.9702C325.75 49.4077 325.855 48.7983 325.855 48.142C325.855 47.4858 325.75 46.8743 325.541 46.3075C325.333 45.7408 325.011 45.2827 324.576 44.9332C324.142 44.5838 323.588 44.4091 322.914 44.4091C322.241 44.4091 321.687 44.5838 321.252 44.9332C320.818 45.2827 320.496 45.7408 320.287 46.3075C320.078 46.8743 319.974 47.4858 319.974 48.142C319.974 48.7983 320.078 49.4077 320.287 49.9702C320.496 50.5327 320.818 50.9865 321.252 51.3317C321.687 51.6768 322.241 51.8494 322.914 51.8494ZM338.436 53.2045C337.618 53.2045 336.895 52.9979 336.269 52.5845C335.642 52.1669 335.152 51.5788 334.799 50.8203C334.445 50.0575 334.268 49.1562 334.268 48.1165C334.268 47.0852 334.445 46.1903 334.799 45.4318C335.152 44.6733 335.645 44.0874 336.275 43.674C336.906 43.2607 337.635 43.054 338.461 43.054C339.1 43.054 339.605 43.1605 339.976 43.3736C340.351 43.5824 340.637 43.821 340.833 44.0895C341.033 44.3537 341.189 44.571 341.299 44.7415H341.427V39.9091H342.936V53H341.478V51.4915H341.299C341.189 51.6705 341.031 51.8963 340.826 52.169C340.622 52.4375 340.33 52.6783 339.951 52.8913C339.571 53.1001 339.066 53.2045 338.436 53.2045ZM338.64 51.8494C339.245 51.8494 339.757 51.6918 340.174 51.3764C340.592 51.0568 340.909 50.6158 341.127 50.0533C341.344 49.4865 341.453 48.8324 341.453 48.0909C341.453 47.358 341.346 46.7166 341.133 46.1669C340.92 45.6129 340.605 45.1825 340.187 44.8757C339.77 44.5646 339.254 44.4091 338.64 44.4091C338.001 44.4091 337.468 44.5732 337.042 44.9013C336.62 45.2251 336.303 45.6662 336.09 46.2244C335.881 46.7784 335.777 47.4006 335.777 48.0909C335.777 48.7898 335.883 49.4247 336.096 49.9957C336.314 50.5625 336.633 51.0142 337.055 51.3509C337.481 51.6832 338.01 51.8494 338.64 51.8494ZM349.897 53.2045C349.01 53.2045 348.233 52.9936 347.564 52.5717C346.899 52.1499 346.379 51.5597 346.004 50.8011C345.633 50.0426 345.448 49.1562 345.448 48.142C345.448 47.1193 345.633 46.2266 346.004 45.4638C346.379 44.701 346.899 44.1087 347.564 43.6868C348.233 43.2649 349.01 43.054 349.897 43.054C350.783 43.054 351.559 43.2649 352.223 43.6868C352.892 44.1087 353.412 44.701 353.783 45.4638C354.158 46.2266 354.346 47.1193 354.346 48.142C354.346 49.1562 354.158 50.0426 353.783 50.8011C353.412 51.5597 352.892 52.1499 352.223 52.5717C351.559 52.9936 350.783 53.2045 349.897 53.2045ZM349.897 51.8494C350.57 51.8494 351.124 51.6768 351.559 51.3317C351.993 50.9865 352.315 50.5327 352.524 49.9702C352.733 49.4077 352.837 48.7983 352.837 48.142C352.837 47.4858 352.733 46.8743 352.524 46.3075C352.315 45.7408 351.993 45.2827 351.559 44.9332C351.124 44.5838 350.57 44.4091 349.897 44.4091C349.223 44.4091 348.669 44.5838 348.235 44.9332C347.8 45.2827 347.478 45.7408 347.27 46.3075C347.061 46.8743 346.956 47.4858 346.956 48.142C346.956 48.7983 347.061 49.4077 347.27 49.9702C347.478 50.5327 347.8 50.9865 348.235 51.3317C348.669 51.6768 349.223 51.8494 349.897 51.8494ZM362.682 56.6818C362.427 56.6818 362.199 56.6605 361.998 56.6179C361.798 56.5795 361.66 56.5412 361.583 56.5028L361.966 55.1733C362.333 55.267 362.657 55.3011 362.938 55.2756C363.219 55.25 363.469 55.1243 363.686 54.8984C363.907 54.6768 364.11 54.3168 364.293 53.8182L364.574 53.0511L360.944 43.1818H362.58L365.29 51.0057H365.393L368.103 43.1818H369.739L365.572 54.4318C365.384 54.9389 365.152 55.3587 364.875 55.6911C364.598 56.0277 364.276 56.277 363.91 56.4389C363.547 56.6009 363.138 56.6818 362.682 56.6818ZM375.367 53.2045C374.481 53.2045 373.703 52.9936 373.034 52.5717C372.369 52.1499 371.85 51.5597 371.475 50.8011C371.104 50.0426 370.919 49.1562 370.919 48.142C370.919 47.1193 371.104 46.2266 371.475 45.4638C371.85 44.701 372.369 44.1087 373.034 43.6868C373.703 43.2649 374.481 43.054 375.367 43.054C376.254 43.054 377.029 43.2649 377.694 43.6868C378.363 44.1087 378.883 44.701 379.254 45.4638C379.629 46.2266 379.816 47.1193 379.816 48.142C379.816 49.1562 379.629 50.0426 379.254 50.8011C378.883 51.5597 378.363 52.1499 377.694 52.5717C377.029 52.9936 376.254 53.2045 375.367 53.2045ZM375.367 51.8494C376.041 51.8494 376.595 51.6768 377.029 51.3317C377.464 50.9865 377.786 50.5327 377.994 49.9702C378.203 49.4077 378.308 48.7983 378.308 48.142C378.308 47.4858 378.203 46.8743 377.994 46.3075C377.786 45.7408 377.464 45.2827 377.029 44.9332C376.595 44.5838 376.041 44.4091 375.367 44.4091C374.694 44.4091 374.14 44.5838 373.705 44.9332C373.271 45.2827 372.949 45.7408 372.74 46.3075C372.531 46.8743 372.427 47.4858 372.427 48.142C372.427 48.7983 372.531 49.4077 372.74 49.9702C372.949 50.5327 373.271 50.9865 373.705 51.3317C374.14 51.6768 374.694 51.8494 375.367 51.8494ZM388.306 48.9858V43.1818H389.815V53H388.306V51.3381H388.204C387.974 51.8366 387.616 52.2607 387.13 52.6101C386.645 52.9553 386.031 53.1278 385.289 53.1278C384.676 53.1278 384.13 52.9936 383.653 52.7251C383.176 52.4524 382.801 52.0433 382.528 51.4979C382.255 50.9482 382.119 50.2557 382.119 49.4205V43.1818H383.627V49.3182C383.627 50.0341 383.828 50.6051 384.228 51.0312C384.633 51.4574 385.149 51.6705 385.775 51.6705C386.15 51.6705 386.532 51.5746 386.919 51.3828C387.311 51.1911 387.64 50.897 387.904 50.5007C388.172 50.1044 388.306 49.5994 388.306 48.9858ZM392.578 53V43.1818H394.035V44.6648H394.138C394.317 44.179 394.64 43.7848 395.109 43.4822C395.578 43.1797 396.106 43.0284 396.694 43.0284C396.805 43.0284 396.944 43.0305 397.11 43.0348C397.276 43.0391 397.402 43.0455 397.487 43.054V44.5881C397.436 44.5753 397.319 44.5561 397.135 44.5305C396.956 44.5007 396.767 44.4858 396.567 44.4858C396.089 44.4858 395.663 44.5859 395.288 44.7862C394.917 44.9822 394.623 45.255 394.406 45.6044C394.193 45.9496 394.086 46.3437 394.086 46.7869V53H392.578ZM411.292 45.3807L409.937 45.7642C409.852 45.5384 409.726 45.3189 409.56 45.1058C409.398 44.8885 409.176 44.7095 408.895 44.5689C408.614 44.4283 408.254 44.358 407.815 44.358C407.214 44.358 406.713 44.4964 406.313 44.7734C405.917 45.0462 405.718 45.3935 405.718 45.8153C405.718 46.1903 405.855 46.4865 406.127 46.7038C406.4 46.9212 406.826 47.1023 407.406 47.2472L408.863 47.6051C409.741 47.8182 410.395 48.1442 410.826 48.5831C411.256 49.0178 411.471 49.5781 411.471 50.2642C411.471 50.8267 411.309 51.3295 410.985 51.7727C410.666 52.2159 410.218 52.5653 409.643 52.821C409.068 53.0767 408.399 53.2045 407.636 53.2045C406.635 53.2045 405.806 52.9872 405.15 52.5526C404.493 52.1179 404.078 51.483 403.903 50.6477L405.335 50.2898C405.471 50.8182 405.729 51.2145 406.108 51.4787C406.492 51.7429 406.993 51.875 407.61 51.875C408.314 51.875 408.872 51.7259 409.285 51.4276C409.703 51.125 409.912 50.7628 409.912 50.3409C409.912 50 409.792 49.7145 409.554 49.4844C409.315 49.25 408.949 49.0753 408.454 48.9602L406.818 48.5767C405.919 48.3636 405.258 48.0334 404.836 47.5859C404.419 47.1342 404.21 46.5696 404.21 45.892C404.21 45.3381 404.365 44.848 404.676 44.4219C404.992 43.9957 405.42 43.6612 405.961 43.4183C406.507 43.1754 407.125 43.054 407.815 43.054C408.787 43.054 409.549 43.267 410.103 43.6932C410.662 44.1193 411.058 44.6818 411.292 45.3807ZM415.251 47.0938V53H413.742V39.9091H415.251V44.7159H415.378C415.608 44.2088 415.954 43.8061 416.414 43.5078C416.878 43.2053 417.496 43.054 418.268 43.054C418.937 43.054 419.523 43.1882 420.025 43.4567C420.528 43.7209 420.918 44.1278 421.195 44.6776C421.476 45.223 421.617 45.9176 421.617 46.7614V53H420.108V46.8636C420.108 46.0838 419.906 45.4808 419.501 45.0547C419.101 44.6243 418.545 44.4091 417.833 44.4091C417.339 44.4091 416.895 44.5135 416.503 44.7223C416.116 44.9311 415.809 45.2358 415.583 45.6364C415.361 46.0369 415.251 46.5227 415.251 47.0938ZM428.365 53.2045C427.479 53.2045 426.701 52.9936 426.032 52.5717C425.368 52.1499 424.848 51.5597 424.473 50.8011C424.102 50.0426 423.917 49.1562 423.917 48.142C423.917 47.1193 424.102 46.2266 424.473 45.4638C424.848 44.701 425.368 44.1087 426.032 43.6868C426.701 43.2649 427.479 43.054 428.365 43.054C429.252 43.054 430.027 43.2649 430.692 43.6868C431.361 44.1087 431.881 44.701 432.252 45.4638C432.627 46.2266 432.814 47.1193 432.814 48.142C432.814 49.1562 432.627 50.0426 432.252 50.8011C431.881 51.5597 431.361 52.1499 430.692 52.5717C430.027 52.9936 429.252 53.2045 428.365 53.2045ZM428.365 51.8494C429.039 51.8494 429.593 51.6768 430.027 51.3317C430.462 50.9865 430.784 50.5327 430.993 49.9702C431.201 49.4077 431.306 48.7983 431.306 48.142C431.306 47.4858 431.201 46.8743 430.993 46.3075C430.784 45.7408 430.462 45.2827 430.027 44.9332C429.593 44.5838 429.039 44.4091 428.365 44.4091C427.692 44.4091 427.138 44.5838 426.703 44.9332C426.269 45.2827 425.947 45.7408 425.738 46.3075C425.529 46.8743 425.425 47.4858 425.425 48.142C425.425 48.7983 425.529 49.4077 425.738 49.9702C425.947 50.5327 426.269 50.9865 426.703 51.3317C427.138 51.6768 427.692 51.8494 428.365 51.8494ZM435.117 56.6818V43.1818H436.574V44.7415H436.753C436.864 44.571 437.018 44.3537 437.214 44.0895C437.414 43.821 437.699 43.5824 438.07 43.3736C438.445 43.1605 438.952 43.054 439.591 43.054C440.418 43.054 441.147 43.2607 441.778 43.674C442.408 44.0874 442.9 44.6733 443.254 45.4318C443.608 46.1903 443.785 47.0852 443.785 48.1165C443.785 49.1562 443.608 50.0575 443.254 50.8203C442.9 51.5788 442.41 52.1669 441.784 52.5845C441.157 52.9979 440.435 53.2045 439.617 53.2045C438.986 53.2045 438.481 53.1001 438.102 52.8913C437.723 52.6783 437.431 52.4375 437.226 52.169C437.022 51.8963 436.864 51.6705 436.753 51.4915H436.626V56.6818H435.117ZM436.6 48.0909C436.6 48.8324 436.709 49.4865 436.926 50.0533C437.143 50.6158 437.461 51.0568 437.878 51.3764C438.296 51.6918 438.807 51.8494 439.412 51.8494C440.043 51.8494 440.569 51.6832 440.991 51.3509C441.417 51.0142 441.737 50.5625 441.95 49.9957C442.167 49.4247 442.276 48.7898 442.276 48.0909C442.276 47.4006 442.17 46.7784 441.956 46.2244C441.748 45.6662 441.43 45.2251 441.004 44.9013C440.582 44.5732 440.052 44.4091 439.412 44.4091C438.799 44.4091 438.283 44.5646 437.866 44.8757C437.448 45.1825 437.133 45.6129 436.92 46.1669C436.706 46.7166 436.6 47.358 436.6 48.0909ZM446.086 56.6818V43.1818H447.543V44.7415H447.722C447.833 44.571 447.986 44.3537 448.182 44.0895C448.383 43.821 448.668 43.5824 449.039 43.3736C449.414 43.1605 449.921 43.054 450.56 43.054C451.387 43.054 452.116 43.2607 452.746 43.674C453.377 44.0874 453.869 44.6733 454.223 45.4318C454.577 46.1903 454.753 47.0852 454.753 48.1165C454.753 49.1562 454.577 50.0575 454.223 50.8203C453.869 51.5788 453.379 52.1669 452.753 52.5845C452.126 52.9979 451.404 53.2045 450.586 53.2045C449.955 53.2045 449.45 53.1001 449.071 52.8913C448.692 52.6783 448.4 52.4375 448.195 52.169C447.991 51.8963 447.833 51.6705 447.722 51.4915H447.594V56.6818H446.086ZM447.569 48.0909C447.569 48.8324 447.677 49.4865 447.895 50.0533C448.112 50.6158 448.43 51.0568 448.847 51.3764C449.265 51.6918 449.776 51.8494 450.381 51.8494C451.012 51.8494 451.538 51.6832 451.96 51.3509C452.386 51.0142 452.706 50.5625 452.919 49.9957C453.136 49.4247 453.245 48.7898 453.245 48.0909C453.245 47.4006 453.138 46.7784 452.925 46.2244C452.716 45.6662 452.399 45.2251 451.973 44.9013C451.551 44.5732 451.02 44.4091 450.381 44.4091C449.768 44.4091 449.252 44.5646 448.834 44.8757C448.417 45.1825 448.101 45.6129 447.888 46.1669C447.675 46.7166 447.569 47.358 447.569 48.0909ZM457.055 53V43.1818H458.563V53H457.055ZM457.822 41.5455C457.528 41.5455 457.274 41.4453 457.061 41.245C456.852 41.0447 456.748 40.804 456.748 40.5227C456.748 40.2415 456.852 40.0007 457.061 39.8004C457.274 39.6001 457.528 39.5 457.822 39.5C458.116 39.5 458.367 39.6001 458.576 39.8004C458.789 40.0007 458.895 40.2415 458.895 40.5227C458.895 40.804 458.789 41.0447 458.576 41.245C458.367 41.4453 458.116 41.5455 457.822 41.5455ZM462.835 47.0938V53H461.326V43.1818H462.783V44.7159H462.911C463.141 44.2173 463.491 43.8168 463.96 43.5142C464.428 43.2074 465.033 43.054 465.775 43.054C466.44 43.054 467.021 43.1903 467.52 43.4631C468.018 43.7315 468.406 44.1406 468.683 44.6903C468.96 45.2358 469.099 45.9261 469.099 46.7614V53H467.59V46.8636C467.59 46.0923 467.39 45.4915 466.989 45.0611C466.589 44.6264 466.039 44.4091 465.34 44.4091C464.859 44.4091 464.428 44.5135 464.049 44.7223C463.674 44.9311 463.378 45.2358 463.161 45.6364C462.943 46.0369 462.835 46.5227 462.835 47.0938ZM475.818 56.8864C475.09 56.8864 474.463 56.7926 473.939 56.6051C473.415 56.4219 472.978 56.179 472.629 55.8764C472.284 55.5781 472.009 55.2585 471.804 54.9176L473.006 54.0739C473.142 54.2528 473.315 54.4574 473.524 54.6875C473.732 54.9219 474.018 55.1243 474.38 55.2947C474.747 55.4695 475.226 55.5568 475.818 55.5568C476.611 55.5568 477.265 55.3651 477.781 54.9815C478.296 54.598 478.554 53.9972 478.554 53.179V51.1847H478.426C478.316 51.3636 478.158 51.5852 477.953 51.8494C477.753 52.1094 477.463 52.3416 477.084 52.5462C476.709 52.7464 476.202 52.8466 475.563 52.8466C474.77 52.8466 474.058 52.6591 473.428 52.2841C472.801 51.9091 472.305 51.3636 471.938 50.6477C471.576 49.9318 471.395 49.0625 471.395 48.0398C471.395 47.0341 471.572 46.1584 471.926 45.4126C472.279 44.6626 472.771 44.0831 473.402 43.674C474.033 43.2607 474.762 43.054 475.588 43.054C476.227 43.054 476.735 43.1605 477.11 43.3736C477.489 43.5824 477.779 43.821 477.979 44.0895C478.183 44.3537 478.341 44.571 478.452 44.7415H478.605V43.1818H480.063V53.2812C480.063 54.125 479.871 54.8111 479.487 55.3395C479.108 55.8722 478.597 56.2621 477.953 56.5092C477.314 56.7607 476.602 56.8864 475.818 56.8864ZM475.767 51.4915C476.372 51.4915 476.884 51.353 477.301 51.076C477.719 50.799 478.036 50.4006 478.254 49.8807C478.471 49.3608 478.58 48.7386 478.58 48.0142C478.58 47.3068 478.473 46.6825 478.26 46.1413C478.047 45.6001 477.732 45.1761 477.314 44.8693C476.896 44.5625 476.381 44.4091 475.767 44.4091C475.128 44.4091 474.595 44.571 474.169 44.8949C473.747 45.2187 473.43 45.6534 473.217 46.1989C473.008 46.7443 472.904 47.3494 472.904 48.0142C472.904 48.696 473.01 49.299 473.223 49.8232C473.441 50.343 473.76 50.7521 474.182 51.0504C474.608 51.3445 475.137 51.4915 475.767 51.4915ZM491.875 53.2045C490.989 53.2045 490.211 52.9936 489.542 52.5717C488.877 52.1499 488.357 51.5597 487.982 50.8011C487.612 50.0426 487.426 49.1562 487.426 48.142C487.426 47.1193 487.612 46.2266 487.982 45.4638C488.357 44.701 488.877 44.1087 489.542 43.6868C490.211 43.2649 490.989 43.054 491.875 43.054C492.762 43.054 493.537 43.2649 494.202 43.6868C494.871 44.1087 495.391 44.701 495.762 45.4638C496.137 46.2266 496.324 47.1193 496.324 48.142C496.324 49.1562 496.137 50.0426 495.762 50.8011C495.391 51.5597 494.871 52.1499 494.202 52.5717C493.537 52.9936 492.762 53.2045 491.875 53.2045ZM491.875 51.8494C492.548 51.8494 493.102 51.6768 493.537 51.3317C493.972 50.9865 494.294 50.5327 494.502 49.9702C494.711 49.4077 494.816 48.7983 494.816 48.142C494.816 47.4858 494.711 46.8743 494.502 46.3075C494.294 45.7408 493.972 45.2827 493.537 44.9332C493.102 44.5838 492.548 44.4091 491.875 44.4091C491.202 44.4091 490.648 44.5838 490.213 44.9332C489.779 45.2827 489.457 45.7408 489.248 46.3075C489.039 46.8743 488.935 47.4858 488.935 48.142C488.935 48.7983 489.039 49.4077 489.248 49.9702C489.457 50.5327 489.779 50.9865 490.213 51.3317C490.648 51.6768 491.202 51.8494 491.875 51.8494ZM500.135 47.0938V53H498.627V43.1818H500.084V44.7159H500.212C500.442 44.2173 500.792 43.8168 501.26 43.5142C501.729 43.2074 502.334 43.054 503.076 43.054C503.74 43.054 504.322 43.1903 504.821 43.4631C505.319 43.7315 505.707 44.1406 505.984 44.6903C506.261 45.2358 506.4 45.9261 506.4 46.7614V53H504.891V46.8636C504.891 46.0923 504.691 45.4915 504.29 45.0611C503.89 44.6264 503.34 44.4091 502.641 44.4091C502.159 44.4091 501.729 44.5135 501.35 44.7223C500.975 44.9311 500.679 45.2358 500.461 45.6364C500.244 46.0369 500.135 46.5227 500.135 47.0938ZM510.665 39.9091V53H509.156V39.9091H510.665ZM513.428 53V43.1818H514.936V53H513.428ZM514.195 41.5455C513.901 41.5455 513.647 41.4453 513.434 41.245C513.225 41.0447 513.121 40.804 513.121 40.5227C513.121 40.2415 513.225 40.0007 513.434 39.8004C513.647 39.6001 513.901 39.5 514.195 39.5C514.489 39.5 514.74 39.6001 514.949 39.8004C515.162 40.0007 515.268 40.2415 515.268 40.5227C515.268 40.804 515.162 41.0447 514.949 41.245C514.74 41.4453 514.489 41.5455 514.195 41.5455ZM519.208 47.0938V53H517.699V43.1818H519.156V44.7159H519.284C519.514 44.2173 519.864 43.8168 520.333 43.5142C520.801 43.2074 521.406 43.054 522.148 43.054C522.813 43.054 523.394 43.1903 523.893 43.4631C524.392 43.7315 524.779 44.1406 525.056 44.6903C525.333 45.2358 525.472 45.9261 525.472 46.7614V53H523.963V46.8636C523.963 46.0923 523.763 45.4915 523.362 45.0611C522.962 44.6264 522.412 44.4091 521.713 44.4091C521.232 44.4091 520.801 44.5135 520.422 44.7223C520.047 44.9311 519.751 45.2358 519.534 45.6364C519.316 46.0369 519.208 46.5227 519.208 47.0938ZM532.345 53.2045C531.399 53.2045 530.583 52.9957 529.897 52.5781C529.215 52.1562 528.689 51.5682 528.318 50.8139C527.951 50.0554 527.768 49.1733 527.768 48.1676C527.768 47.1619 527.951 46.2756 528.318 45.5085C528.689 44.7372 529.204 44.1364 529.865 43.706C530.529 43.2713 531.305 43.054 532.191 43.054C532.703 43.054 533.208 43.1392 533.706 43.3097C534.205 43.4801 534.659 43.7571 535.068 44.1406C535.477 44.5199 535.803 45.0227 536.046 45.6491C536.289 46.2756 536.41 47.0469 536.41 47.9631V48.6023H528.842V47.2983H534.876C534.876 46.7443 534.765 46.25 534.544 45.8153C534.326 45.3807 534.015 45.0376 533.61 44.7862C533.21 44.5348 532.737 44.4091 532.191 44.4091C531.591 44.4091 531.071 44.5582 530.632 44.8565C530.197 45.1506 529.863 45.5341 529.628 46.0071C529.394 46.4801 529.277 46.9872 529.277 47.5284V48.3977C529.277 49.1392 529.404 49.7678 529.66 50.2834C529.92 50.7947 530.28 51.1847 530.74 51.4531C531.201 51.7173 531.735 51.8494 532.345 51.8494C532.741 51.8494 533.099 51.794 533.419 51.6832C533.743 51.5682 534.022 51.3977 534.256 51.1719C534.49 50.9418 534.672 50.6562 534.799 50.3153L536.257 50.7244C536.103 51.2188 535.846 51.6534 535.483 52.0284C535.121 52.3991 534.674 52.6889 534.141 52.8977C533.608 53.1023 533.01 53.2045 532.345 53.2045ZM540.674 49.3182V49.2415C540.682 48.4276 540.767 47.7798 540.929 47.2983C541.091 46.8168 541.321 46.4268 541.62 46.1286C541.918 45.8303 542.276 45.5554 542.694 45.304C542.945 45.1506 543.171 44.9695 543.371 44.7607C543.571 44.5476 543.729 44.3026 543.844 44.0256C543.963 43.7486 544.023 43.4418 544.023 43.1051C544.023 42.6875 543.925 42.3253 543.729 42.0185C543.533 41.7116 543.271 41.4751 542.943 41.3089C542.615 41.1428 542.25 41.0597 541.85 41.0597C541.5 41.0597 541.164 41.1321 540.84 41.277C540.516 41.4219 540.245 41.6499 540.028 41.9609C539.811 42.272 539.685 42.679 539.651 43.1818H538.04C538.074 42.4574 538.262 41.8374 538.603 41.3217C538.948 40.8061 539.402 40.4119 539.964 40.1392C540.531 39.8665 541.159 39.7301 541.85 39.7301C542.6 39.7301 543.252 39.8793 543.806 40.1776C544.364 40.4759 544.794 40.8849 545.097 41.4048C545.404 41.9247 545.557 42.517 545.557 43.1818C545.557 43.6506 545.485 44.0746 545.34 44.4538C545.199 44.8331 544.995 45.1719 544.726 45.4702C544.462 45.7685 544.142 46.0327 543.767 46.2628C543.392 46.4972 543.092 46.7443 542.866 47.0043C542.64 47.2599 542.476 47.5646 542.374 47.9183C542.272 48.272 542.216 48.7131 542.208 49.2415V49.3182H540.674ZM541.492 53.1023C541.176 53.1023 540.906 52.9893 540.68 52.7635C540.454 52.5376 540.341 52.267 540.341 51.9517C540.341 51.6364 540.454 51.3658 540.68 51.1399C540.906 50.9141 541.176 50.8011 541.492 50.8011C541.807 50.8011 542.078 50.9141 542.304 51.1399C542.529 51.3658 542.642 51.6364 542.642 51.9517C542.642 52.1605 542.589 52.3523 542.483 52.527C542.38 52.7017 542.242 52.8423 542.067 52.9489C541.897 53.0511 541.705 53.1023 541.492 53.1023Z" fill="#23567B"/>
<defs>
<filter id="filter0_d_526_1196" x="0" y="0" width="522" height="853.408" filterUnits="userSpaceOnUse" color-interpolation-filters="sRGB">
<feFlood flood-opacity="0" result="BackgroundImageFix"/>
<feColorMatrix in="SourceAlpha" type="matrix" values="0 0 0 0 0 0 0 0 0 0 0 0 0 0 0 0 0 0 127 0" result="hardAlpha"/>
<feOffset dy="2"/>
<feGaussianBlur stdDeviation="3"/>
<feComposite in2="hardAlpha" operator="out"/>
<feColorMatrix type="matrix" values="0 0 0 0 0.0509804 0 0 0 0 0.0392157 0 0 0 0 0.172549 0 0 0 0.08 0"/>
<feBlend mode="normal" in2="BackgroundImageFix" result="effect1_dropShadow_526_1196"/>
<feBlend mode="normal" in="SourceGraphic" in2="effect1_dropShadow_526_1196" result="shape"/>
</filter>
</defs>
</svg>
