<svg width="575" height="530" viewBox="0 0 575 530" fill="none" xmlns="http://www.w3.org/2000/svg">
<g filter="url(#filter0_d_528_1580)">
<path d="M531.541 6.6875H43.4595C24.9965 6.6875 10.0293 21.6584 10.0293 40.126V483.186C10.0293 501.654 24.9965 516.624 43.4595 516.624H531.541C550.004 516.624 564.971 501.654 564.971 483.186V40.126C564.971 21.6584 550.004 6.6875 531.541 6.6875Z" fill="white"/>
</g>
<path d="M196.982 458.34C195.73 458.34 194.663 457.999 193.782 457.318C192.901 456.631 192.228 455.636 191.763 454.334C191.297 453.027 191.064 451.447 191.064 449.596C191.064 447.757 191.297 446.185 191.763 444.883C192.233 443.575 192.91 442.577 193.791 441.89C194.677 441.198 195.74 440.852 196.982 440.852C198.222 440.852 199.283 441.198 200.164 441.89C201.05 442.577 201.725 443.575 202.192 444.883C202.663 446.185 202.897 447.757 202.897 449.596C202.897 451.447 202.665 453.027 202.2 454.334C201.734 455.636 201.062 456.631 200.181 457.318C199.3 457.999 198.234 458.34 196.982 458.34ZM196.982 456.511C198.222 456.511 199.186 455.912 199.873 454.717C200.56 453.52 200.903 451.813 200.903 449.596C200.903 448.121 200.746 446.867 200.43 445.831C200.119 444.794 199.671 444.005 199.084 443.461C198.503 442.918 197.801 442.647 196.982 442.647C195.751 442.647 194.79 443.254 194.098 444.468C193.405 445.675 193.059 447.385 193.059 449.596C193.059 451.07 193.214 452.323 193.525 453.353C193.834 454.384 194.28 455.168 194.862 455.705C195.449 456.243 196.156 456.511 196.982 456.511ZM214.731 454.916V454.018C214.731 453.398 214.858 452.829 215.114 452.314C215.373 451.793 215.751 451.378 216.244 451.067C216.742 450.751 217.346 450.594 218.056 450.594C218.776 450.594 219.38 450.751 219.866 451.067C220.354 451.378 220.724 451.793 220.973 452.314C221.222 452.829 221.346 453.398 221.346 454.018V454.916C221.346 455.536 221.219 456.108 220.964 456.628C220.715 457.143 220.344 457.559 219.851 457.875C219.363 458.184 218.765 458.34 218.056 458.34C217.336 458.34 216.729 458.184 216.236 457.875C215.743 457.559 215.368 457.143 215.114 456.628C214.858 456.108 214.731 455.536 214.731 454.916ZM216.426 454.018V454.916C216.426 455.431 216.548 455.894 216.792 456.303C217.036 456.708 217.458 456.91 218.056 456.91C218.638 456.91 219.047 456.708 219.285 456.303C219.529 455.894 219.651 455.431 219.651 454.916V454.018C219.651 453.503 219.535 453.043 219.301 452.639C219.069 452.227 218.654 452.023 218.056 452.023C217.474 452.023 217.055 452.227 216.801 452.639C216.552 453.043 216.426 453.503 216.426 454.018ZM206.255 445.174V444.276C206.255 443.655 206.382 443.087 206.638 442.572C206.897 442.052 207.275 441.636 207.768 441.325C208.266 441.009 208.869 440.852 209.58 440.852C210.3 440.852 210.904 441.009 211.39 441.325C211.878 441.636 212.248 442.052 212.497 442.572C212.746 443.087 212.869 443.655 212.869 444.276V445.174C212.869 445.794 212.742 446.366 212.488 446.886C212.239 447.402 211.866 447.817 211.373 448.133C210.887 448.444 210.289 448.598 209.58 448.598C208.859 448.598 208.253 448.444 207.76 448.133C207.266 447.817 206.892 447.402 206.638 446.886C206.382 446.366 206.255 445.794 206.255 445.174ZM207.95 444.276V445.174C207.95 445.688 208.072 446.152 208.316 446.561C208.56 446.966 208.981 447.168 209.58 447.168C210.161 447.168 210.571 446.966 210.808 446.561C211.052 446.152 211.174 445.688 211.174 445.174V444.276C211.174 443.761 211.059 443.301 210.825 442.896C210.593 442.487 210.178 442.281 209.58 442.281C208.998 442.281 208.579 442.487 208.324 442.896C208.075 443.301 207.95 443.761 207.95 444.276ZM206.887 458.108L218.588 441.084H220.481L208.781 458.108H206.887Z" fill="#615E83"/>
<path d="M326.004 458.34C325.028 458.34 324.15 458.146 323.37 457.758C322.588 457.37 321.962 456.839 321.491 456.163C321.02 455.486 320.762 454.717 320.719 453.852H322.713C322.79 454.622 323.139 455.259 323.759 455.763C324.386 456.262 325.133 456.511 326.004 456.511C326.701 456.511 327.321 456.349 327.864 456.021C328.413 455.695 328.842 455.245 329.153 454.675C329.469 454.098 329.626 453.448 329.626 452.721C329.626 451.978 329.462 451.316 329.137 450.734C328.816 450.147 328.373 449.684 327.806 449.347C327.241 449.009 326.596 448.837 325.87 448.832C325.351 448.825 324.816 448.905 324.267 449.072C323.717 449.233 323.266 449.44 322.912 449.696L320.985 449.464L322.014 441.084H330.856V442.913H323.743L323.144 447.934H323.244C323.594 447.656 324.032 447.427 324.558 447.243C325.083 447.061 325.633 446.969 326.203 446.969C327.244 446.969 328.172 447.218 328.986 447.718C329.807 448.21 330.449 448.887 330.915 449.746C331.386 450.604 331.62 451.585 331.62 452.689C331.62 453.774 331.378 454.744 330.89 455.598C330.409 456.446 329.743 457.116 328.896 457.609C328.048 458.096 327.084 458.34 326.004 458.34ZM340.473 458.34C339.221 458.34 338.154 457.999 337.273 457.318C336.393 456.631 335.721 455.636 335.254 454.334C334.79 453.027 334.557 451.447 334.557 449.596C334.557 447.757 334.79 446.185 335.254 444.883C335.726 443.575 336.401 442.577 337.282 441.89C338.169 441.198 339.232 440.852 340.473 440.852C341.715 440.852 342.776 441.198 343.657 441.89C344.543 442.577 345.218 443.575 345.684 444.883C346.154 446.185 346.39 447.757 346.39 449.596C346.39 451.447 346.158 453.027 345.693 454.334C345.226 455.636 344.553 456.631 343.672 457.318C342.791 457.999 341.725 458.34 340.473 458.34ZM340.473 456.511C341.715 456.511 342.679 455.912 343.364 454.717C344.051 453.52 344.396 451.813 344.396 449.596C344.396 448.121 344.239 446.867 343.923 445.831C343.612 444.794 343.164 444.005 342.575 443.461C341.994 442.918 341.293 442.647 340.473 442.647C339.244 442.647 338.283 443.254 337.589 444.468C336.897 445.675 336.551 447.385 336.551 449.596C336.551 451.07 336.707 452.323 337.016 453.353C337.327 454.384 337.773 455.168 338.355 455.705C338.942 456.243 339.649 456.511 340.473 456.511ZM358.224 454.916V454.018C358.224 453.398 358.351 452.829 358.605 452.314C358.866 451.793 359.244 451.378 359.737 451.067C360.235 450.751 360.838 450.594 361.547 450.594C362.268 450.594 362.871 450.751 363.359 451.067C363.847 451.378 364.215 451.793 364.464 452.314C364.715 452.829 364.838 453.398 364.838 454.018V454.916C364.838 455.536 364.711 456.108 364.456 456.628C364.206 457.143 363.835 457.559 363.342 457.875C362.856 458.184 362.258 458.34 361.547 458.34C360.827 458.34 360.222 458.184 359.729 457.875C359.235 457.559 358.861 457.143 358.605 456.628C358.351 456.108 358.224 455.536 358.224 454.916ZM359.919 454.018V454.916C359.919 455.431 360.041 455.894 360.285 456.303C360.527 456.708 360.949 456.91 361.547 456.91C362.129 456.91 362.54 456.708 362.777 456.303C363.021 455.894 363.143 455.431 363.143 454.916V454.018C363.143 453.503 363.026 453.043 362.794 452.639C362.562 452.227 362.146 452.023 361.547 452.023C360.965 452.023 360.548 452.227 360.293 452.639C360.043 453.043 359.919 453.503 359.919 454.018ZM349.748 445.174V444.276C349.748 443.655 349.875 443.087 350.129 442.572C350.39 442.052 350.768 441.636 351.261 441.325C351.759 441.009 352.362 440.852 353.071 440.852C353.791 440.852 354.395 441.009 354.883 441.325C355.371 441.636 355.739 442.052 355.988 442.572C356.237 443.087 356.362 443.655 356.362 444.276V445.174C356.362 445.794 356.235 446.366 355.979 446.886C355.73 447.402 355.359 447.817 354.866 448.133C354.38 448.444 353.781 448.598 353.071 448.598C352.35 448.598 351.745 448.444 351.252 448.133C350.759 447.817 350.385 447.402 350.129 446.886C349.875 446.366 349.748 445.794 349.748 445.174ZM351.443 444.276V445.174C351.443 445.688 351.565 446.152 351.809 446.561C352.051 446.966 352.472 447.168 353.071 447.168C353.653 447.168 354.064 446.966 354.301 446.561C354.545 446.152 354.667 445.688 354.667 445.174V444.276C354.667 443.761 354.55 443.301 354.318 442.896C354.085 442.487 353.669 442.281 353.071 442.281C352.489 442.281 352.071 442.487 351.817 442.896C351.567 443.301 351.443 443.761 351.443 444.276ZM350.38 458.108L362.08 441.084H363.974L352.274 458.108H350.38Z" fill="#615E83"/>
<path d="M464.639 441.084V458.108H462.578V443.246H462.48L458.324 446.004V443.911L462.578 441.084H464.639ZM475.086 458.34C473.834 458.34 472.768 457.999 471.887 457.318C471.006 456.631 470.332 455.636 469.866 454.334C469.401 453.027 469.169 451.447 469.169 449.596C469.169 447.757 469.401 446.185 469.866 444.883C470.337 443.575 471.014 442.577 471.895 441.89C472.781 441.198 473.844 440.852 475.086 440.852C476.326 440.852 477.388 441.198 478.269 441.89C479.155 442.577 479.83 443.575 480.296 444.883C480.768 446.185 481.002 447.757 481.002 449.596C481.002 451.447 480.769 453.027 480.305 454.334C479.838 455.636 479.166 456.631 478.285 457.318C477.405 457.999 476.338 458.34 475.086 458.34ZM475.086 456.511C476.326 456.511 477.291 455.912 477.978 454.717C478.665 453.52 479.008 451.813 479.008 449.596C479.008 448.121 478.85 446.867 478.534 445.831C478.224 444.794 477.776 444.005 477.187 443.461C476.606 442.918 475.905 442.647 475.086 442.647C473.856 442.647 472.895 443.254 472.201 444.468C471.509 445.675 471.163 447.385 471.163 449.596C471.163 451.07 471.319 452.323 471.628 453.353C471.939 454.384 472.385 455.168 472.967 455.705C473.553 456.243 474.26 456.511 475.086 456.511ZM489.712 458.34C488.46 458.34 487.393 457.999 486.513 457.318C485.632 456.631 484.958 455.636 484.492 454.334C484.027 453.027 483.795 451.447 483.795 449.596C483.795 447.757 484.027 446.185 484.492 444.883C484.963 443.575 485.64 442.577 486.521 441.89C487.407 441.198 488.47 440.852 489.712 440.852C490.952 440.852 492.014 441.198 492.894 441.89C493.78 442.577 494.456 443.575 494.922 444.883C495.393 446.185 495.627 447.757 495.627 449.596C495.627 451.447 495.395 453.027 494.93 454.334C494.464 455.636 493.792 456.631 492.911 457.318C492.03 457.999 490.964 458.34 489.712 458.34ZM489.712 456.511C490.952 456.511 491.917 455.912 492.604 454.717C493.291 453.52 493.633 451.813 493.633 449.596C493.633 448.121 493.476 446.867 493.16 445.831C492.849 444.794 492.401 444.005 491.813 443.461C491.231 442.918 490.531 442.647 489.712 442.647C488.482 442.647 487.521 443.254 486.827 444.468C486.135 445.675 485.789 447.385 485.789 449.596C485.789 451.07 485.944 452.323 486.254 453.353C486.564 454.384 487.011 455.168 487.592 455.705C488.179 456.243 488.886 456.511 489.712 456.511ZM507.462 454.916V454.018C507.462 453.398 507.589 452.829 507.844 452.314C508.104 451.793 508.481 451.378 508.974 451.067C509.472 450.751 510.076 450.594 510.786 450.594C511.505 450.594 512.11 450.751 512.597 451.067C513.085 451.378 513.452 451.793 513.703 452.314C513.952 452.829 514.076 453.398 514.076 454.018V454.916C514.076 455.536 513.949 456.108 513.695 456.628C513.444 457.143 513.073 457.559 512.58 457.875C512.093 458.184 511.495 458.34 510.786 458.34C510.066 458.34 509.459 458.184 508.966 457.875C508.473 457.559 508.099 457.143 507.844 456.628C507.589 456.108 507.462 455.536 507.462 454.916ZM509.157 454.018V454.916C509.157 455.431 509.279 455.894 509.523 456.303C509.767 456.708 510.188 456.91 510.786 456.91C511.368 456.91 511.777 456.708 512.015 456.303C512.259 455.894 512.381 455.431 512.381 454.916V454.018C512.381 453.503 512.266 453.043 512.032 452.639C511.799 452.227 511.385 452.023 510.786 452.023C510.205 452.023 509.785 452.227 509.531 452.639C509.282 453.043 509.157 453.503 509.157 454.018ZM498.985 445.174V444.276C498.985 443.655 499.112 443.087 499.368 442.572C499.627 442.052 500.005 441.636 500.498 441.325C500.996 441.009 501.6 440.852 502.31 440.852C503.029 440.852 503.634 441.009 504.12 441.325C504.608 441.636 504.976 442.052 505.227 442.572C505.476 443.087 505.6 443.655 505.6 444.276V445.174C505.6 445.794 505.473 446.366 505.219 446.886C504.968 447.402 504.597 447.817 504.104 448.133C503.617 448.444 503.019 448.598 502.31 448.598C501.59 448.598 500.983 448.444 500.49 448.133C499.997 447.817 499.622 447.402 499.368 446.886C499.112 446.366 498.985 445.794 498.985 445.174ZM500.68 444.276V445.174C500.68 445.688 500.802 446.152 501.046 446.561C501.29 446.966 501.712 447.168 502.31 447.168C502.892 447.168 503.301 446.966 503.539 446.561C503.783 446.152 503.905 445.688 503.905 445.174V444.276C503.905 443.761 503.788 443.301 503.555 442.896C503.323 442.487 502.907 442.281 502.31 442.281C501.728 442.281 501.309 442.487 501.055 442.896C500.806 443.301 500.68 443.761 500.68 444.276ZM499.617 458.108L511.318 441.084H513.212L501.511 458.108H499.617Z" fill="#615E83"/>
<path d="M244.041 386.214V379.527C244.041 375.833 241.048 372.839 237.355 372.839H195.567C191.875 372.839 188.881 375.833 188.881 379.527V386.214C188.881 389.908 191.875 392.902 195.567 392.902H237.355C241.048 392.902 244.041 389.908 244.041 386.214Z" fill="#3C8DC8"/>
<path d="M290.844 322.681V315.993C290.844 312.3 287.85 309.306 284.158 309.306H195.568C191.875 309.306 188.882 312.3 188.882 315.993V322.681C188.882 326.375 191.875 329.369 195.568 329.369H284.158C287.85 329.369 290.844 326.375 290.844 322.681Z" fill="#D4E4FD"/>
<path d="M260.756 259.148V252.46C260.756 248.767 257.762 245.772 254.07 245.772H195.567C191.874 245.772 188.881 248.767 188.881 252.46V259.148C188.881 262.841 191.874 265.836 195.567 265.836H254.07C257.762 265.836 260.756 262.841 260.756 259.148Z" fill="#87A5C1"/>
<path d="M416.207 193.943V187.255C416.207 183.562 413.214 180.567 409.521 180.567H195.567C191.875 180.567 188.881 183.562 188.881 187.255V193.943C188.881 197.636 191.875 200.63 195.567 200.63H409.521C413.214 200.63 416.207 197.636 416.207 193.943Z" fill="#173952"/>
<path d="M67.8496 391.231V374.207H73.6003C74.9353 374.207 76.0268 374.448 76.8744 374.931C77.7276 375.407 78.3591 376.053 78.7691 376.867C79.1791 377.681 79.384 378.591 79.384 379.594C79.384 380.597 79.1791 381.508 78.7691 382.328C78.3646 383.148 77.7386 383.802 76.891 384.29C76.0434 384.772 74.9575 385.013 73.6335 385.013H69.5116V383.185H73.567C74.4812 383.185 75.2151 383.026 75.7692 382.71C76.3232 382.394 76.7248 381.968 76.9741 381.43C77.229 380.888 77.3563 380.274 77.3563 379.594C77.3563 378.912 77.229 378.303 76.9741 377.765C76.7248 377.228 76.3203 376.807 75.7609 376.501C75.2012 376.192 74.4589 376.036 73.5338 376.036H69.9106V391.231H67.8496ZM86.1941 391.53C85.3853 391.53 84.6513 391.378 83.9919 391.073C83.3327 390.762 82.8091 390.316 82.4213 389.734C82.0336 389.147 81.8397 388.438 81.8397 387.606C81.8397 386.875 81.9837 386.282 82.2717 385.827C82.5599 385.367 82.9449 385.008 83.4269 384.747C83.9088 384.486 84.4407 384.292 85.0224 384.165C85.6096 384.033 86.1996 383.928 86.7925 383.849C87.5681 383.75 88.1969 383.675 88.6788 383.625C89.1664 383.57 89.5209 383.478 89.7426 383.351C89.9697 383.224 90.0832 383.001 90.0832 382.685V382.618C90.0832 381.799 89.8589 381.162 89.4101 380.707C88.967 380.253 88.2939 380.025 87.3908 380.025C86.4545 380.025 85.7204 380.231 85.1887 380.641C84.6568 381.05 84.2829 381.488 84.0668 381.955L82.2054 381.289C82.5377 380.514 82.981 379.91 83.5349 379.477C84.0945 379.039 84.7038 378.735 85.3632 378.562C86.028 378.385 86.6817 378.297 87.3244 378.297C87.7342 378.297 88.2051 378.347 88.737 378.447C89.2744 378.541 89.7924 378.738 90.291 379.037C90.7951 379.337 91.2135 379.788 91.5458 380.391C91.8783 380.995 92.0444 381.804 92.0444 382.819V391.231H90.0832V389.502H89.9836C89.8505 389.779 89.6289 390.075 89.3187 390.391C89.0084 390.707 88.5957 390.976 88.0806 391.197C87.5653 391.419 86.9364 391.53 86.1941 391.53ZM86.4933 389.768C87.2689 389.768 87.9226 389.616 88.4545 389.311C88.9919 389.005 89.3962 388.612 89.6677 388.131C89.9448 387.648 90.0832 387.141 90.0832 386.609V384.814C90.0001 384.914 89.8173 385.004 89.5348 385.088C89.2578 385.165 88.9364 385.235 88.5708 385.295C88.2108 385.35 87.8589 385.401 87.5154 385.446C87.1775 385.484 86.9033 385.518 86.6927 385.544C86.1831 385.611 85.7065 385.72 85.2634 385.869C84.8258 386.012 84.4711 386.232 84.1997 386.526C83.9337 386.813 83.8008 387.208 83.8008 387.706C83.8008 388.388 84.0529 388.903 84.557 389.253C85.0667 389.595 85.7122 389.768 86.4933 389.768ZM96.4301 396.019C96.0977 396.019 95.8013 395.991 95.5409 395.935C95.2805 395.885 95.1004 395.835 95.0008 395.785L95.4994 394.056C95.9758 394.178 96.3969 394.223 96.7624 394.19C97.1281 394.156 97.4522 393.993 97.7347 393.7C98.0229 393.411 98.286 392.943 98.5242 392.294L98.8899 391.297L94.1697 378.464H96.2971L99.8206 388.637H99.9535L103.477 378.464H105.604L100.186 393.093C99.9425 393.752 99.6406 394.299 99.2804 394.73C98.9203 395.168 98.5021 395.492 98.0256 395.703C97.5547 395.914 97.0228 396.019 96.4301 396.019ZM108.193 391.231V378.464H110.088V380.458H110.254C110.52 379.776 110.949 379.248 111.542 378.87C112.135 378.489 112.847 378.297 113.678 378.297C114.52 378.297 115.221 378.489 115.78 378.87C116.345 379.248 116.786 379.776 117.101 380.458H117.234C117.561 379.798 118.051 379.275 118.705 378.887C119.359 378.494 120.143 378.297 121.057 378.297C122.198 378.297 123.132 378.654 123.857 379.37C124.583 380.079 124.946 381.184 124.946 382.685V391.231H122.985V382.685C122.985 381.744 122.727 381.07 122.212 380.666C121.697 380.261 121.09 380.059 120.392 380.059C119.495 380.059 118.799 380.331 118.306 380.873C117.813 381.411 117.567 382.094 117.567 382.918V391.231H115.572V382.486C115.572 381.761 115.337 381.176 114.866 380.733C114.395 380.283 113.788 380.059 113.046 380.059C112.536 380.059 112.06 380.194 111.617 380.467C111.179 380.738 110.825 381.115 110.553 381.597C110.287 382.073 110.154 382.625 110.154 383.25V391.231H108.193ZM133.884 391.496C132.654 391.496 131.593 391.226 130.701 390.682C129.814 390.134 129.13 389.368 128.648 388.388C128.172 387.402 127.934 386.255 127.934 384.946C127.934 383.638 128.172 382.486 128.648 381.488C129.13 380.485 129.801 379.704 130.659 379.144C131.524 378.579 132.532 378.297 133.684 378.297C134.349 378.297 135.005 378.407 135.654 378.629C136.302 378.852 136.892 379.211 137.424 379.709C137.955 380.203 138.379 380.856 138.695 381.672C139.011 382.486 139.169 383.49 139.169 384.68V385.513H129.33V383.816H137.174C137.174 383.095 137.03 382.453 136.742 381.888C136.46 381.323 136.055 380.876 135.529 380.55C135.008 380.223 134.393 380.059 133.684 380.059C132.903 380.059 132.227 380.253 131.656 380.641C131.091 381.023 130.656 381.522 130.352 382.137C130.047 382.752 129.895 383.411 129.895 384.115V385.245C129.895 386.21 130.061 387.027 130.393 387.698C130.731 388.363 131.199 388.87 131.798 389.219C132.396 389.562 133.091 389.734 133.884 389.734C134.399 389.734 134.864 389.662 135.28 389.519C135.701 389.368 136.063 389.147 136.368 388.853C136.673 388.554 136.908 388.183 137.075 387.74L138.969 388.271C138.77 388.915 138.435 389.48 137.964 389.967C137.493 390.45 136.911 390.826 136.219 391.097C135.526 391.364 134.748 391.496 133.884 391.496ZM144.113 383.55V391.231H142.152V378.464H144.047V380.458H144.213C144.512 379.81 144.966 379.288 145.576 378.895C146.185 378.497 146.972 378.297 147.936 378.297C148.8 378.297 149.556 378.474 150.204 378.828C150.853 379.178 151.357 379.709 151.717 380.425C152.077 381.134 152.257 382.032 152.257 383.118V391.231H150.296V383.25C150.296 382.247 150.035 381.467 149.515 380.906C148.994 380.341 148.279 380.059 147.371 380.059C146.745 380.059 146.185 380.194 145.692 380.467C145.205 380.738 144.82 381.134 144.537 381.655C144.255 382.175 144.113 382.807 144.113 383.55ZM161.392 378.464V380.126H154.777V378.464H161.392ZM156.705 375.404H158.666V387.572C158.666 388.127 158.747 388.544 158.907 388.82C159.074 389.092 159.284 389.274 159.539 389.368C159.799 389.457 160.073 389.502 160.362 389.502C160.578 389.502 160.755 389.49 160.893 389.468C161.032 389.44 161.143 389.418 161.226 389.401L161.625 391.164C161.492 391.214 161.306 391.264 161.068 391.314C160.83 391.369 160.528 391.396 160.162 391.396C159.608 391.396 159.065 391.277 158.533 391.04C158.007 390.801 157.569 390.438 157.22 389.95C156.877 389.463 156.705 388.848 156.705 388.106V375.404Z" fill="#615E83"/>
<path d="M67.8496 327.644V310.62H73.6003C74.9298 310.62 76.0213 310.848 76.8744 311.302C77.7276 311.752 78.3591 312.369 78.7691 313.156C79.1791 313.942 79.384 314.838 79.384 315.842C79.384 316.845 79.1791 317.732 78.7691 318.508C78.3591 319.284 77.7304 319.894 76.8826 320.337C76.035 320.775 74.952 320.994 73.6335 320.994H68.9799V319.132H73.567C74.4755 319.132 75.2068 319 75.7609 318.734C76.3203 318.468 76.7248 318.09 76.9741 317.604C77.229 317.111 77.3563 316.522 77.3563 315.842C77.3563 315.159 77.229 314.564 76.9741 314.054C76.7193 313.544 76.3121 313.15 75.7525 312.874C75.1931 312.591 74.4534 312.449 73.5338 312.449H69.9106V327.644H67.8496ZM75.8605 319.996L80.0488 327.644H77.6555L73.5338 319.996H75.8605ZM87.7668 327.909C86.5369 327.909 85.476 327.639 84.5841 327.095C83.6977 326.547 83.0134 325.783 82.5315 324.801C82.0549 323.815 81.8168 322.668 81.8168 321.361C81.8168 320.053 82.0549 318.899 82.5315 317.903C83.0134 316.9 83.6838 316.117 84.5425 315.559C85.4068 314.994 86.4151 314.71 87.5674 314.71C88.2322 314.71 88.8888 314.822 89.5368 315.042C90.185 315.265 90.7751 315.624 91.3069 316.124C91.8388 316.617 92.2625 317.271 92.5783 318.085C92.8942 318.9 93.052 319.903 93.052 321.095V321.926H83.213V320.23H91.0575C91.0575 319.51 90.9136 318.866 90.6255 318.301C90.343 317.736 89.9385 317.289 89.4123 316.963C88.8914 316.636 88.2765 316.472 87.5674 316.472C86.7862 316.472 86.1104 316.666 85.5397 317.054C84.9746 317.437 84.5398 317.935 84.2351 318.55C83.9304 319.165 83.7779 319.826 83.7779 320.53V321.66C83.7779 322.623 83.9443 323.44 84.2766 324.111C84.6145 324.776 85.0827 325.283 85.681 325.632C86.2794 325.977 86.9745 326.147 87.7668 326.147C88.282 326.147 88.7473 326.075 89.1629 325.932C89.5839 325.783 89.9468 325.56 90.2515 325.266C90.5563 324.967 90.7916 324.596 90.9579 324.153L92.8526 324.684C92.6532 325.328 92.318 325.893 91.847 326.381C91.3761 326.863 90.7944 327.239 90.1019 327.512C89.4094 327.777 88.631 327.909 87.7668 327.909ZM101.586 314.877V316.539H94.9717V314.877H101.586ZM96.8996 311.817H98.8608V323.987C98.8608 324.541 98.9411 324.957 99.1017 325.234C99.268 325.505 99.4784 325.687 99.7334 325.783C99.9938 325.871 100.268 325.915 100.556 325.915C100.772 325.915 100.949 325.905 101.088 325.881C101.226 325.855 101.337 325.831 101.42 325.816L101.819 327.577C101.686 327.627 101.501 327.677 101.262 327.727C101.024 327.782 100.722 327.811 100.357 327.811C99.8026 327.811 99.2596 327.69 98.7278 327.453C98.2016 327.214 97.7638 326.851 97.4148 326.365C97.0713 325.876 96.8996 325.261 96.8996 324.519V311.817ZM112.581 322.424V314.877H114.542V327.644H112.581V325.484H112.448C112.149 326.131 111.683 326.682 111.052 327.137C110.42 327.585 109.622 327.811 108.658 327.811C107.861 327.811 107.152 327.635 106.531 327.286C105.91 326.931 105.423 326.4 105.068 325.691C104.714 324.975 104.537 324.076 104.537 322.989V314.877H106.498V322.857C106.498 323.787 106.758 324.531 107.279 325.084C107.805 325.637 108.476 325.915 109.29 325.915C109.777 325.915 110.273 325.791 110.777 325.54C111.287 325.291 111.714 324.91 112.057 324.393C112.406 323.878 112.581 323.221 112.581 322.424ZM118.134 327.644V314.877H120.029V316.805H120.162C120.394 316.173 120.815 315.661 121.425 315.268C122.034 314.873 122.721 314.678 123.486 314.678C123.63 314.678 123.81 314.68 124.026 314.686C124.242 314.691 124.405 314.7 124.516 314.71V316.706C124.449 316.689 124.297 316.664 124.059 316.631C123.826 316.592 123.58 316.572 123.319 316.572C122.699 316.572 122.145 316.703 121.657 316.963C121.175 317.218 120.793 317.572 120.511 318.027C120.234 318.477 120.095 318.988 120.095 319.565V327.644H118.134ZM128.802 319.965V327.644H126.841V314.877H128.735V316.871H128.902C129.201 316.223 129.655 315.703 130.265 315.308C130.874 314.91 131.661 314.71 132.625 314.71C133.489 314.71 134.245 314.889 134.893 315.243C135.541 315.591 136.046 316.124 136.406 316.838C136.766 317.547 136.946 318.445 136.946 319.531V327.644H134.985V319.665C134.985 318.662 134.724 317.88 134.203 317.321C133.683 316.754 132.968 316.472 132.06 316.472C131.433 316.472 130.874 316.609 130.381 316.88C129.893 317.151 129.508 317.547 129.226 318.069C128.943 318.59 128.802 319.221 128.802 319.965Z" fill="#615E83"/>
<path d="M67.8496 264.037V247.013H73.6003C74.9353 247.013 76.0268 247.254 76.8744 247.737C77.7276 248.214 78.3591 248.859 78.7691 249.673C79.1791 250.487 79.384 251.397 79.384 252.4C79.384 253.403 79.1791 254.314 78.7691 255.134C78.3646 255.955 77.7386 256.608 76.891 257.096C76.0434 257.578 74.9575 257.819 73.6335 257.819H69.5116V255.99H73.567C74.4812 255.99 75.2151 255.833 75.7692 255.517C76.3232 255.201 76.7248 254.774 76.9741 254.236C77.229 253.694 77.3563 253.081 77.3563 252.4C77.3563 251.718 77.229 251.108 76.9741 250.571C76.7248 250.033 76.3203 249.611 75.7609 249.307C75.2012 248.998 74.4589 248.842 73.5338 248.842H69.9106V264.037H67.8496ZM82.4381 264.037V251.268H84.3327V253.198H84.4656C84.6983 252.566 85.1193 252.052 85.7288 251.659C86.3382 251.266 87.0252 251.069 87.7897 251.069C87.9337 251.069 88.1138 251.073 88.3298 251.078C88.5459 251.083 88.7094 251.091 88.8201 251.103V253.097C88.7537 253.081 88.6013 253.055 88.3631 253.022C88.1304 252.984 87.8838 252.965 87.6234 252.965C87.003 252.965 86.449 253.096 85.9614 253.355C85.4795 253.611 85.0973 253.965 84.8146 254.42C84.5376 254.868 84.3992 255.381 84.3992 255.956V264.037H82.4381ZM91.1448 264.037V251.268H93.106V264.037H91.1448ZM92.142 249.141C91.7597 249.141 91.4301 249.011 91.1532 248.75C90.8817 248.489 90.746 248.177 90.746 247.811C90.746 247.446 90.8817 247.132 91.1532 246.871C91.4301 246.612 91.7597 246.481 92.142 246.481C92.5243 246.481 92.8512 246.612 93.1227 246.871C93.3997 247.132 93.5382 247.446 93.5382 247.811C93.5382 248.177 93.3997 248.489 93.1227 248.75C92.8512 249.011 92.5243 249.141 92.142 249.141ZM101.884 264.302C100.687 264.302 99.6565 264.02 98.7921 263.455C97.928 262.89 97.2632 262.111 96.7979 261.119C96.3325 260.128 96.0998 258.994 96.0998 257.718C96.0998 256.423 96.338 255.277 96.8144 254.286C97.2965 253.29 97.9667 252.51 98.8254 251.95C99.6897 251.385 100.698 251.103 101.85 251.103C102.748 251.103 103.557 251.268 104.277 251.601C104.997 251.934 105.587 252.4 106.047 252.999C106.507 253.597 106.792 254.294 106.903 255.092H104.942C104.792 254.51 104.46 253.995 103.944 253.547C103.435 253.092 102.748 252.865 101.884 252.865C101.119 252.865 100.449 253.064 99.8726 253.463C99.3019 253.856 98.856 254.413 98.5346 255.134C98.2188 255.849 98.0608 256.689 98.0608 257.653C98.0608 258.64 98.2161 259.497 98.5264 260.23C98.8421 260.96 99.2852 261.529 99.8559 261.933C100.432 262.338 101.108 262.54 101.884 262.54C102.393 262.54 102.856 262.452 103.271 262.274C103.687 262.097 104.039 261.841 104.327 261.509C104.615 261.178 104.82 260.778 104.942 260.313H106.903C106.792 261.066 106.518 261.744 106.08 262.35C105.648 262.948 105.075 263.425 104.36 263.779C103.651 264.129 102.825 264.302 101.884 264.302ZM115.121 264.302C113.892 264.302 112.831 264.032 111.939 263.488C111.052 262.94 110.368 262.174 109.886 261.194C109.41 260.208 109.172 259.061 109.172 257.752C109.172 256.444 109.41 255.292 109.886 254.294C110.368 253.291 111.038 252.51 111.897 251.95C112.761 251.385 113.77 251.103 114.922 251.103C115.587 251.103 116.243 251.213 116.892 251.435C117.54 251.656 118.13 252.017 118.662 252.515C119.193 253.009 119.617 253.662 119.933 254.477C120.249 255.292 120.407 256.296 120.407 257.486V258.317H110.568V256.622H118.412C118.412 255.901 118.268 255.259 117.98 254.694C117.698 254.129 117.293 253.682 116.767 253.355C116.246 253.029 115.631 252.865 114.922 252.865C114.141 252.865 113.465 253.059 112.894 253.447C112.329 253.83 111.894 254.328 111.59 254.943C111.285 255.558 111.133 256.217 111.133 256.921V258.051C111.133 259.016 111.299 259.833 111.631 260.504C111.969 261.169 112.437 261.676 113.036 262.025C113.634 262.368 114.329 262.54 115.121 262.54C115.637 262.54 116.102 262.468 116.518 262.325C116.939 262.174 117.301 261.953 117.606 261.659C117.911 261.36 118.146 260.989 118.313 260.546L120.207 261.077C120.008 261.719 119.673 262.284 119.202 262.773C118.731 263.254 118.149 263.632 117.457 263.903C116.764 264.169 115.986 264.302 115.121 264.302Z" fill="#615E83"/>
<path d="M77.1577 185.99C77.0581 185.147 76.6536 184.493 75.9446 184.027C75.2353 183.562 74.3656 183.33 73.3352 183.33C72.5816 183.33 71.9224 183.452 71.3573 183.694C70.7978 183.938 70.3602 184.274 70.0443 184.701C69.7341 185.127 69.5789 185.612 69.5789 186.155C69.5789 186.61 69.6871 186.999 69.903 187.327C70.1247 187.648 70.4072 187.917 70.7507 188.133C71.0942 188.344 71.4542 188.519 71.831 188.656C72.2077 188.79 72.5539 188.899 72.8698 188.981L74.5983 189.447C75.0414 189.562 75.5345 189.723 76.0774 189.929C76.6259 190.134 77.1494 190.413 77.648 190.768C78.1521 191.117 78.5677 191.565 78.8946 192.115C79.2214 192.664 79.3849 193.336 79.3849 194.135C79.3849 195.055 79.1438 195.886 78.6619 196.628C78.1854 197.37 77.4874 197.961 76.5677 198.399C75.6537 198.837 74.5428 199.056 73.2354 199.056C72.0167 199.056 70.9613 198.858 70.0692 198.465C69.1828 198.073 68.4848 197.523 67.9751 196.82C67.471 196.116 67.1857 195.299 67.1191 194.368H69.2466C69.302 195.01 69.5181 195.543 69.8947 195.963C70.277 196.379 70.759 196.69 71.3407 196.894C71.9279 197.094 72.5596 197.193 73.2354 197.193C74.0221 197.193 74.7284 197.066 75.3545 196.812C75.9805 196.551 76.4763 196.19 76.842 195.73C77.2075 195.265 77.3904 194.722 77.3904 194.102C77.3904 193.537 77.2326 193.077 76.9167 192.722C76.601 192.366 76.1854 192.079 75.6703 191.856C75.1551 191.636 74.5983 191.442 73.9999 191.275L71.9058 190.678C70.5762 190.295 69.5236 189.748 68.748 189.039C67.9723 188.33 67.5845 187.402 67.5845 186.255C67.5845 185.302 67.8422 184.47 68.3574 183.761C68.8781 183.047 69.5763 182.492 70.4515 182.099C71.3324 181.699 72.3157 181.5 73.4017 181.5C74.4985 181.5 75.4735 181.698 76.3268 182.091C77.18 182.479 77.8558 183.01 78.3544 183.686C78.8585 184.363 79.1244 185.13 79.1522 185.99H77.1577ZM82.5074 198.756V185.99H84.4686V198.756H82.5074ZM83.5046 183.861C83.1224 183.861 82.7927 183.731 82.5156 183.47C82.2441 183.209 82.1084 182.897 82.1084 182.53C82.1084 182.166 82.2441 181.852 82.5156 181.592C82.7927 181.332 83.1224 181.201 83.5046 181.201C83.8869 181.201 84.2137 181.332 84.4851 181.592C84.7621 181.852 84.9007 182.166 84.9007 182.53C84.9007 182.897 84.7621 183.209 84.4851 183.47C84.2137 183.731 83.8869 183.861 83.5046 183.861ZM87.6949 198.756V197.26L94.9413 187.951V187.817H87.9276V185.99H97.4676V187.551L90.4207 196.795V196.927H97.7003V198.756H87.6949ZM105.707 199.022C104.477 199.022 103.416 198.751 102.524 198.208C101.638 197.66 100.954 196.894 100.472 195.914C99.9953 194.928 99.7571 193.781 99.7571 192.472C99.7571 191.164 99.9953 190.012 100.472 189.014C100.954 188.011 101.624 187.23 102.483 186.67C103.347 186.105 104.355 185.822 105.508 185.822C106.172 185.822 106.829 185.933 107.477 186.155C108.125 186.377 108.715 186.737 109.247 187.235C109.779 187.728 110.203 188.382 110.519 189.198C110.834 190.012 110.992 191.015 110.992 192.206V193.037H101.153V191.341H108.998C108.998 190.621 108.854 189.979 108.566 189.414C108.283 188.849 107.879 188.402 107.352 188.074C106.832 187.748 106.217 187.585 105.508 187.585C104.726 187.585 104.051 187.779 103.48 188.166C102.915 188.549 102.48 189.048 102.175 189.663C101.871 190.278 101.718 190.937 101.718 191.641V192.771C101.718 193.736 101.884 194.553 102.217 195.224C102.555 195.889 103.023 196.396 103.621 196.745C104.22 197.088 104.915 197.26 105.707 197.26C106.222 197.26 106.688 197.188 107.103 197.044C107.524 196.894 107.887 196.673 108.192 196.379C108.496 196.08 108.732 195.708 108.898 195.265L110.793 195.797C110.593 196.439 110.258 197.006 109.787 197.492C109.316 197.976 108.735 198.352 108.042 198.623C107.35 198.888 106.571 199.022 105.707 199.022ZM125.377 198.989C124.258 198.989 123.294 198.783 122.485 198.374C121.676 197.964 121.053 197.402 120.615 196.687C120.178 195.971 119.959 195.155 119.959 194.234C119.959 193.525 120.108 192.896 120.408 192.348C120.712 191.793 121.131 191.281 121.662 190.81C122.2 190.333 122.817 189.857 123.515 189.38L125.975 187.551C126.457 187.235 126.842 186.897 127.13 186.538C127.424 186.177 127.571 185.707 127.571 185.124C127.571 184.692 127.38 184.274 126.997 183.87C126.621 183.465 126.125 183.263 125.51 183.263C125.078 183.263 124.696 183.373 124.363 183.595C124.036 183.811 123.779 184.089 123.59 184.426C123.407 184.759 123.316 185.102 123.316 185.456C123.316 185.856 123.424 186.26 123.64 186.67C123.862 187.075 124.142 187.491 124.479 187.917C124.823 188.339 125.177 188.77 125.543 189.215L133.355 198.756H130.995L124.546 190.975C123.948 190.256 123.405 189.603 122.917 189.014C122.43 188.427 122.042 187.849 121.754 187.277C121.466 186.707 121.322 186.088 121.322 185.423C121.322 184.659 121.491 183.988 121.829 183.411C122.172 182.83 122.651 182.378 123.266 182.057C123.887 181.73 124.612 181.567 125.443 181.567C126.297 181.567 127.031 181.733 127.646 182.066C128.261 182.393 128.734 182.828 129.067 183.37C129.399 183.908 129.565 184.493 129.565 185.124C129.565 185.939 129.363 186.645 128.959 187.244C128.554 187.842 128.003 188.399 127.305 188.915L123.914 191.442C123.15 192.007 122.632 192.555 122.36 193.087C122.089 193.619 121.953 194.001 121.953 194.234C121.953 194.767 122.092 195.262 122.369 195.722C122.646 196.182 123.036 196.553 123.54 196.835C124.045 197.12 124.635 197.26 125.31 197.26C125.953 197.26 126.579 197.125 127.189 196.852C127.798 196.576 128.349 196.177 128.842 195.657C129.341 195.135 129.734 194.508 130.022 193.777C130.316 193.045 130.463 192.223 130.463 191.308H132.357C132.357 192.438 132.227 193.361 131.967 194.077C131.707 194.791 131.413 195.351 131.086 195.755C130.759 196.16 130.496 196.462 130.296 196.661C130.23 196.745 130.169 196.827 130.114 196.911C130.058 196.994 129.997 197.078 129.931 197.16C129.382 197.775 128.69 198.235 127.853 198.541C127.017 198.84 126.191 198.989 125.377 198.989ZM142.373 198.756V181.733H152.578V183.562H144.434V189.313H151.813V191.142H144.434V198.756H142.373ZM155.842 198.756V185.99H157.803V198.756H155.842ZM156.839 183.861C156.457 183.861 156.127 183.731 155.85 183.47C155.579 183.209 155.443 182.897 155.443 182.53C155.443 182.166 155.579 181.852 155.85 181.592C156.127 181.332 156.457 181.201 156.839 181.201C157.221 181.201 157.548 181.332 157.82 181.592C158.097 181.852 158.235 182.166 158.235 182.53C158.235 182.897 158.097 183.209 157.82 183.47C157.548 183.731 157.221 183.861 156.839 183.861ZM166.946 185.99V187.651H160.331V185.99H166.946ZM162.259 182.93H164.22V195.098C164.22 195.653 164.301 196.068 164.461 196.345C164.627 196.618 164.838 196.8 165.093 196.894C165.353 196.982 165.628 197.028 165.916 197.028C166.132 197.028 166.309 197.016 166.447 196.994C166.586 196.966 166.697 196.944 166.78 196.927L167.18 198.689C167.046 198.74 166.86 198.79 166.622 198.84C166.384 198.895 166.082 198.922 165.716 198.922C165.162 198.922 164.619 198.803 164.087 198.566C163.561 198.327 163.123 197.964 162.774 197.476C162.431 196.989 162.259 196.374 162.259 195.632V182.93Z" fill="#615E83"/>
<path d="M67.6914 125.394V103.507H76.3243C77.9839 103.507 79.3978 103.824 80.5661 104.458C81.7341 105.085 82.6245 105.958 83.2371 107.077C83.8568 108.188 84.1667 109.471 84.1667 110.924C84.1667 112.377 83.8533 113.66 83.2264 114.771C82.5996 115.883 81.6915 116.748 80.5019 117.368C79.3194 117.988 77.8878 118.298 76.2068 118.298H70.7043V114.59H75.4589C76.3492 114.59 77.083 114.436 77.6598 114.13C78.244 113.817 78.6784 113.386 78.9634 112.837C79.2554 112.281 79.4013 111.644 79.4013 110.924C79.4013 110.197 79.2554 109.563 78.9634 109.022C78.6784 108.473 78.244 108.049 77.6598 107.75C77.0758 107.444 76.335 107.29 75.4375 107.29H72.3176V125.394H67.6914ZM87.0861 125.394V108.979H91.4987V111.843H91.6697C91.9689 110.824 92.4711 110.055 93.1763 109.535C93.8815 109.008 94.6935 108.744 95.6123 108.744C95.8402 108.744 96.086 108.758 96.3495 108.787C96.6131 108.815 96.8446 108.854 97.044 108.904V112.944C96.8304 112.88 96.5347 112.823 96.1572 112.773C95.7797 112.723 95.4342 112.698 95.1207 112.698C94.4513 112.698 93.8529 112.844 93.3259 113.136C92.8059 113.421 92.3927 113.82 92.0865 114.333C91.7873 114.846 91.6376 115.437 91.6376 116.107V125.394H87.0861ZM99.3973 125.394V108.979H103.949V125.394H99.3973ZM101.684 106.863C101.007 106.863 100.426 106.639 99.9421 106.19C99.4648 105.734 99.2263 105.189 99.2263 104.555C99.2263 103.928 99.4648 103.39 99.9421 102.941C100.426 102.485 101.007 102.257 101.684 102.257C102.36 102.257 102.937 102.485 103.415 102.941C103.899 103.39 104.141 103.928 104.141 104.555C104.141 105.189 103.899 105.734 103.415 106.19C102.937 106.639 102.36 106.863 101.684 106.863ZM115.01 125.715C113.35 125.715 111.915 125.362 110.704 124.657C109.5 123.944 108.571 122.954 107.915 121.686C107.26 120.411 106.932 118.932 106.932 117.251C106.932 115.555 107.26 114.073 107.915 112.805C108.571 111.53 109.5 110.539 110.704 109.834C111.915 109.121 113.35 108.765 115.01 108.765C116.669 108.765 118.101 109.121 119.305 109.834C120.516 110.539 121.449 111.53 122.104 112.805C122.76 114.073 123.087 115.555 123.087 117.251C123.087 118.932 122.76 120.411 122.104 121.686C121.449 122.954 120.516 123.944 119.305 124.657C118.101 125.362 116.669 125.715 115.01 125.715ZM115.031 122.188C115.786 122.188 116.416 121.974 116.922 121.547C117.428 121.112 117.809 120.521 118.066 119.773C118.329 119.025 118.461 118.173 118.461 117.219C118.461 116.264 118.329 115.413 118.066 114.665C117.809 113.916 117.428 113.325 116.922 112.89C116.416 112.456 115.786 112.239 115.031 112.239C114.269 112.239 113.628 112.456 113.108 112.89C112.595 113.325 112.207 113.916 111.943 114.665C111.687 115.413 111.559 116.264 111.559 117.219C111.559 118.173 111.687 119.025 111.943 119.773C112.207 120.521 112.595 121.112 113.108 121.547C113.628 121.974 114.269 122.188 115.031 122.188ZM126.047 125.394V108.979H130.459V111.843H130.63C130.93 110.824 131.432 110.055 132.137 109.535C132.842 109.008 133.654 108.744 134.573 108.744C134.801 108.744 135.046 108.758 135.31 108.787C135.574 108.815 135.805 108.854 136.005 108.904V112.944C135.791 112.88 135.495 112.823 135.118 112.773C134.74 112.723 134.395 112.698 134.081 112.698C133.412 112.698 132.813 112.844 132.286 113.136C131.766 113.421 131.353 113.82 131.047 114.333C130.748 114.846 130.598 115.437 130.598 116.107V125.394H126.047ZM138.358 125.394V108.979H142.909V125.394H138.358ZM140.644 106.863C139.968 106.863 139.387 106.639 138.903 106.19C138.425 105.734 138.187 105.189 138.187 104.555C138.187 103.928 138.425 103.39 138.903 102.941C139.387 102.485 139.968 102.257 140.644 102.257C141.321 102.257 141.898 102.485 142.375 102.941C142.859 103.39 143.102 103.928 143.102 104.555C143.102 105.189 142.859 105.734 142.375 106.19C141.898 106.639 141.321 106.863 140.644 106.863ZM155.284 108.979V112.399H145.401V108.979H155.284ZM147.645 105.046H152.197V120.35C152.197 120.77 152.261 121.098 152.389 121.333C152.517 121.561 152.695 121.722 152.923 121.814C153.158 121.907 153.429 121.953 153.735 121.953C153.949 121.953 154.163 121.935 154.376 121.9C154.59 121.857 154.754 121.825 154.868 121.803L155.584 125.191C155.356 125.263 155.035 125.344 154.622 125.437C154.209 125.537 153.707 125.597 153.116 125.619C152.019 125.661 151.057 125.515 150.231 125.181C149.412 124.846 148.774 124.326 148.318 123.62C147.862 122.915 147.638 122.024 147.645 120.948V105.046ZM161.059 131.55C160.483 131.55 159.941 131.504 159.436 131.411C158.937 131.326 158.524 131.215 158.196 131.08L159.222 127.681C159.756 127.845 160.237 127.934 160.664 127.948C161.099 127.963 161.473 127.863 161.786 127.649C162.107 127.436 162.366 127.072 162.566 126.559L162.833 125.864L156.946 108.979H161.732L165.13 121.034H165.301L168.731 108.979H173.55L167.171 127.168C166.865 128.052 166.448 128.821 165.921 129.477C165.401 130.139 164.742 130.649 163.944 131.005C163.146 131.368 162.185 131.55 161.059 131.55Z" fill="#1E1B39"/>
<path d="M70.9427 81.9243L66.2891 64.9011H68.3831L71.9399 78.7657H72.1061L75.7293 64.9011H78.056L81.6793 78.7657H81.8455L85.4021 64.9011H87.4964L82.8427 81.9243H80.7154L76.9592 68.359H76.8261L73.0701 81.9243H70.9427ZM91.7594 74.2439V81.9243H89.7982V64.9011H91.7594V71.1518H91.9255C92.2247 70.4924 92.6735 69.9687 93.2718 69.5809C93.8757 69.1875 94.679 68.9907 95.6818 68.9907C96.5514 68.9907 97.3133 69.1652 97.9671 69.5143C98.6208 69.8579 99.1276 70.3871 99.4878 71.102C99.8534 71.8112 100.036 72.7146 100.036 73.8117V81.9243H98.075V73.9448C98.075 72.9306 97.8119 72.1466 97.2856 71.5924C96.7649 71.0328 96.0418 70.7529 95.1166 70.7529C94.4739 70.7529 93.8979 70.8886 93.3881 71.1602C92.884 71.4317 92.4852 71.8279 92.1915 72.3487C91.9035 72.8697 91.7594 73.5014 91.7594 74.2439ZM107.38 82.2236C106.571 82.2236 105.837 82.0711 105.178 81.7663C104.519 81.456 103.995 81.01 103.607 80.4281C103.22 79.8408 103.026 79.1314 103.026 78.3003C103.026 77.5688 103.17 76.9758 103.458 76.5215C103.746 76.0616 104.131 75.7013 104.613 75.441C105.095 75.1805 105.627 74.9865 106.209 74.859C106.796 74.726 107.386 74.6207 107.979 74.5431C108.754 74.4435 109.383 74.3686 109.865 74.3188C110.352 74.2634 110.707 74.172 110.929 74.0444C111.156 73.917 111.269 73.6953 111.269 73.3795V73.3129C111.269 72.4929 111.045 71.8555 110.596 71.4013C110.153 70.9468 109.48 70.7196 108.577 70.7196C107.641 70.7196 106.907 70.9246 106.375 71.3347C105.843 71.7448 105.469 72.1825 105.253 72.648L103.391 71.9831C103.724 71.2073 104.167 70.6032 104.721 70.1711C105.281 69.7332 105.89 69.4284 106.549 69.2567C107.214 69.0793 107.868 68.9907 108.51 68.9907C108.92 68.9907 109.391 69.0405 109.923 69.1403C110.46 69.2344 110.978 69.4312 111.477 69.7305C111.981 70.0298 112.4 70.4814 112.732 71.0853C113.064 71.6893 113.23 72.4984 113.23 73.5126V81.9243H111.269V80.1954H111.17C111.037 80.4724 110.815 80.7689 110.505 81.0849C110.195 81.4007 109.782 81.6694 109.267 81.8911C108.751 82.1128 108.123 82.2236 107.38 82.2236ZM107.679 80.4614C108.455 80.4614 109.109 80.3091 109.641 80.0043C110.178 79.6995 110.582 79.3059 110.854 78.8239C111.131 78.3417 111.269 77.8348 111.269 77.3028V75.5073C111.186 75.6071 111.004 75.6986 110.721 75.7817C110.444 75.8593 110.123 75.9285 109.757 75.9895C109.397 76.0449 109.045 76.0948 108.702 76.1392C108.364 76.1779 108.089 76.2112 107.879 76.2388C107.369 76.3053 106.893 76.4133 106.449 76.563C106.012 76.7071 105.657 76.926 105.386 77.2197C105.12 77.5078 104.987 77.9012 104.987 78.3999C104.987 79.0816 105.239 79.597 105.743 79.9461C106.253 80.2897 106.898 80.4614 107.679 80.4614ZM122.361 69.1569V70.8194H115.746V69.1569H122.361ZM117.674 66.0981H119.636V78.267C119.636 78.8211 119.716 79.2367 119.877 79.5138C120.043 79.7853 120.253 79.9682 120.508 80.0625C120.768 80.1511 121.043 80.1954 121.331 80.1954C121.547 80.1954 121.724 80.1844 121.863 80.1621C122.001 80.1345 122.112 80.1123 122.195 80.0956L122.594 81.8578C122.461 81.9078 122.275 81.9576 122.037 82.0074C121.799 82.063 121.497 82.0905 121.131 82.0905C120.577 82.0905 120.034 81.9715 119.503 81.7332C118.976 81.4948 118.539 81.1319 118.19 80.6443C117.846 80.1566 117.674 79.5415 117.674 78.799V66.0981ZM131.893 81.9243V69.1569H133.854V81.9243H131.893ZM132.89 67.029C132.508 67.029 132.178 66.8988 131.901 66.6383C131.63 66.378 131.494 66.0648 131.494 65.6992C131.494 65.3333 131.63 65.0202 131.901 64.7599C132.178 64.4994 132.508 64.3691 132.89 64.3691C133.272 64.3691 133.599 64.4994 133.871 64.7599C134.148 65.0202 134.286 65.3333 134.286 65.6992C134.286 66.0648 134.148 66.378 133.871 66.6383C133.599 66.8988 133.272 67.029 132.89 67.029ZM146.488 72.0164L144.726 72.5151C144.615 72.2213 144.451 71.9359 144.235 71.6589C144.025 71.3763 143.737 71.1434 143.371 70.9607C143.006 70.7778 142.537 70.6863 141.967 70.6863C141.186 70.6863 140.535 70.8664 140.014 71.2267C139.499 71.5813 139.241 72.0329 139.241 72.5815C139.241 73.0692 139.418 73.4542 139.773 73.7369C140.127 74.0195 140.682 74.2551 141.435 74.4435L143.33 74.909C144.471 75.186 145.321 75.6098 145.881 76.1806C146.44 76.7459 146.72 77.4745 146.72 78.3668C146.72 79.0983 146.51 79.7522 146.089 80.3285C145.673 80.9048 145.091 81.3591 144.343 81.6916C143.595 82.0242 142.726 82.1903 141.734 82.1903C140.432 82.1903 139.355 81.9078 138.502 81.3425C137.648 80.7772 137.108 79.9516 136.881 78.8656L138.742 78.3999C138.92 79.0871 139.255 79.6025 139.748 79.9461C140.247 80.2897 140.897 80.4614 141.701 80.4614C142.615 80.4614 143.341 80.2675 143.878 79.8796C144.421 79.4862 144.692 79.015 144.692 78.4665C144.692 78.0232 144.537 77.6519 144.227 77.3526C143.917 77.0478 143.44 76.8206 142.798 76.6712L140.67 76.1724C139.501 75.8952 138.643 75.4659 138.094 74.884C137.551 74.2965 137.28 73.5624 137.28 72.6813C137.28 71.9608 137.482 71.3237 137.887 70.7694C138.296 70.2154 138.853 69.7803 139.557 69.4645C140.266 69.1487 141.069 68.9907 141.967 68.9907C143.23 68.9907 144.222 69.2677 144.942 69.822C145.667 70.376 146.183 71.1075 146.488 72.0164ZM157.517 86.7121C157.185 86.7121 156.888 86.6845 156.628 86.629C156.367 86.5791 156.187 86.5293 156.088 86.4793L156.586 84.7504C157.063 84.8724 157.484 84.9168 157.849 84.8835C158.215 84.8502 158.539 84.6867 158.822 84.3931C159.11 84.1049 159.373 83.6366 159.611 82.9884L159.977 81.9909L155.257 69.1569H157.384L160.907 79.331H161.041L164.564 69.1569H166.691L161.273 83.7862C161.029 84.4456 160.727 84.9915 160.367 85.4237C160.007 85.8616 159.589 86.1857 159.112 86.3962C158.642 86.6069 158.11 86.7121 157.517 86.7121ZM174.008 82.1903C172.857 82.1903 171.846 81.916 170.975 81.3674C170.111 80.8189 169.435 80.0513 168.947 79.065C168.466 78.0786 168.225 76.926 168.225 75.6071C168.225 74.2771 168.466 73.1163 168.947 72.1244C169.435 71.1324 170.111 70.3622 170.975 69.8136C171.846 69.265 172.857 68.9907 174.008 68.9907C175.16 68.9907 176.17 69.265 177.034 69.8136C177.903 70.3622 178.578 71.1324 179.061 72.1244C179.548 73.1163 179.792 74.2771 179.792 75.6071C179.792 76.926 179.548 78.0786 179.061 79.065C178.578 80.0513 177.903 80.8189 177.034 81.3674C176.17 81.916 175.16 82.1903 174.008 82.1903ZM174.008 80.4281C174.884 80.4281 175.603 80.2038 176.17 79.7549C176.735 79.3059 177.153 78.7159 177.423 77.9845C177.696 77.253 177.831 76.4605 177.831 75.6071C177.831 74.7538 177.696 73.9586 177.423 73.2215C177.153 72.4845 176.735 71.8888 176.17 71.4345C175.603 70.9801 174.884 70.7529 174.008 70.7529C173.133 70.7529 172.412 70.9801 171.847 71.4345C171.282 71.8888 170.864 72.4845 170.594 73.2215C170.321 73.9586 170.186 74.7538 170.186 75.6071C170.186 76.4605 170.321 77.253 170.594 77.9845C170.864 78.7159 171.282 79.3059 171.847 79.7549C172.412 80.2038 173.133 80.4281 174.008 80.4281ZM190.831 76.7043V69.1569H192.791V81.9243H190.831V79.7632H190.697C190.398 80.4116 189.933 80.963 189.301 81.4173C188.669 81.8662 187.872 82.0905 186.908 82.0905C186.11 82.0905 185.401 81.916 184.78 81.5669C184.16 81.2123 183.671 80.6803 183.317 79.971C182.963 79.2561 182.786 78.3556 182.786 77.2695V69.1569H184.746V77.1366C184.746 78.0675 185.007 78.8101 185.529 79.3643C186.055 79.9184 186.725 80.1954 187.539 80.1954C188.027 80.1954 188.522 80.0707 189.027 79.8214C189.537 79.5719 189.963 79.1896 190.306 78.6743C190.655 78.159 190.831 77.5023 190.831 76.7043ZM196.383 81.9243V69.1569H198.277V71.0853H198.411C198.643 70.4536 199.064 69.941 199.675 69.5476C200.283 69.1542 200.97 68.9574 201.736 68.9574C201.879 68.9574 202.06 68.9602 202.275 68.9658C202.491 68.9713 202.655 68.9796 202.765 68.9907V70.9856C202.698 70.9689 202.546 70.944 202.309 70.9107C202.075 70.8719 201.829 70.8525 201.568 70.8525C200.948 70.8525 200.395 70.9828 199.907 71.2433C199.425 71.4982 199.043 71.8528 198.76 72.3073C198.483 72.756 198.344 73.2686 198.344 73.8449V81.9243H196.383ZM211.671 86.7121V69.1569H213.566V71.1851H213.799C213.943 70.9634 214.143 70.6808 214.397 70.3372C214.658 69.9881 215.029 69.6778 215.51 69.4063C215.999 69.1293 216.657 68.9907 217.49 68.9907C218.564 68.9907 219.51 69.2595 220.331 69.7969C221.15 70.3344 221.79 71.0965 222.25 72.0827C222.71 73.0692 222.94 74.2328 222.94 75.5739C222.94 76.926 222.71 78.098 222.25 79.0899C221.79 80.0762 221.153 80.8409 220.339 81.384C219.525 81.9215 218.586 82.1903 217.521 82.1903C216.702 82.1903 216.045 82.0546 215.552 81.7831C215.059 81.506 214.68 81.1929 214.414 80.8438C214.148 80.4892 213.943 80.1954 213.799 79.9627H213.633V86.7121H211.671ZM213.6 75.5406C213.6 76.5048 213.74 77.3555 214.023 78.0925C214.305 78.8239 214.718 79.3974 215.261 79.813C215.805 80.2232 216.47 80.4281 217.255 80.4281C218.076 80.4281 218.76 80.2121 219.308 79.7798C219.863 79.3421 220.278 78.7547 220.555 78.0177C220.838 77.2751 220.98 76.4495 220.98 75.5406C220.98 74.6429 220.841 73.8339 220.563 73.1135C220.293 72.3875 219.88 71.8141 219.325 71.3929C218.777 70.9662 218.086 70.7529 217.255 70.7529C216.458 70.7529 215.788 70.9552 215.245 71.3596C214.701 71.7585 214.292 72.3183 214.014 73.0387C213.739 73.7535 213.6 74.5874 213.6 75.5406ZM225.932 81.9243V69.1569H227.826V71.0853H227.96C228.192 70.4536 228.613 69.941 229.222 69.5476C229.832 69.1542 230.519 68.9574 231.283 68.9574C231.428 68.9574 231.607 68.9602 231.824 68.9658C232.04 68.9713 232.204 68.9796 232.314 68.9907V70.9856C232.247 70.9689 232.095 70.944 231.856 70.9107C231.624 70.8719 231.378 70.8525 231.117 70.8525C230.497 70.8525 229.942 70.9828 229.456 71.2433C228.973 71.4982 228.592 71.8528 228.309 72.3073C228.032 72.756 227.893 73.2686 227.893 73.8449V81.9243H225.932ZM234.639 81.9243V69.1569H236.6V81.9243H234.639ZM235.635 67.029C235.254 67.029 234.923 66.8988 234.648 66.6383C234.375 66.378 234.24 66.0648 234.24 65.6992C234.24 65.3333 234.375 65.0202 234.648 64.7599C234.923 64.4994 235.254 64.3691 235.635 64.3691C236.018 64.3691 236.344 64.4994 236.617 64.7599C236.894 65.0202 237.031 65.3333 237.031 65.6992C237.031 66.0648 236.894 66.378 236.617 66.6383C236.344 66.8988 236.018 67.029 235.635 67.029ZM245.377 82.1903C244.225 82.1903 243.214 81.916 242.345 81.3674C241.481 80.8189 240.804 80.0513 240.316 79.065C239.834 78.0786 239.594 76.926 239.594 75.6071C239.594 74.2771 239.834 73.1163 240.316 72.1244C240.804 71.1324 241.481 70.3622 242.345 69.8136C243.214 69.265 244.225 68.9907 245.377 68.9907C246.53 68.9907 247.538 69.265 248.402 69.8136C249.272 70.3622 249.949 71.1324 250.43 72.1244C250.918 73.1163 251.16 74.2771 251.16 75.6071C251.16 76.926 250.918 78.0786 250.43 79.065C249.949 80.0513 249.272 80.8189 248.402 81.3674C247.538 81.916 246.53 82.1903 245.377 82.1903ZM245.377 80.4281C246.253 80.4281 246.973 80.2038 247.538 79.7549C248.103 79.3059 248.521 78.7159 248.794 77.9845C249.064 77.253 249.2 76.4605 249.2 75.6071C249.2 74.7538 249.064 73.9586 248.794 73.2215C248.521 72.4845 248.103 71.8888 247.538 71.4345C246.973 70.9801 246.253 70.7529 245.377 70.7529C244.503 70.7529 243.782 70.9801 243.217 71.4345C242.652 71.8888 242.233 72.4845 241.962 73.2215C241.69 73.9586 241.554 74.7538 241.554 75.6071C241.554 76.4605 241.69 77.253 241.962 77.9845C242.233 78.7159 242.652 79.3059 243.217 79.7549C243.782 80.2038 244.503 80.4281 245.377 80.4281ZM254.154 81.9243V69.1569H256.05V71.0853H256.182C256.416 70.4536 256.837 69.941 257.445 69.5476C258.055 69.1542 258.742 68.9574 259.506 68.9574C259.65 68.9574 259.831 68.9602 260.046 68.9658C260.263 68.9713 260.426 68.9796 260.538 68.9907V70.9856C260.471 70.9689 260.319 70.944 260.08 70.9107C259.847 70.8719 259.6 70.8525 259.341 70.8525C258.719 70.8525 258.166 70.9828 257.678 71.2433C257.196 71.4982 256.813 71.8528 256.531 72.3073C256.255 72.756 256.116 73.2686 256.116 73.8449V81.9243H254.154ZM262.861 81.9243V69.1569H264.823V81.9243H262.861ZM263.859 67.029C263.476 67.029 263.147 66.8988 262.869 66.6383C262.599 66.378 262.463 66.0648 262.463 65.6992C262.463 65.3333 262.599 65.0202 262.869 64.7599C263.147 64.4994 263.476 64.3691 263.859 64.3691C264.242 64.3691 264.568 64.4994 264.84 64.7599C265.116 65.0202 265.255 65.3333 265.255 65.6992C265.255 66.0648 265.116 66.378 264.84 66.6383C264.568 66.8988 264.242 67.029 263.859 67.029ZM273.967 69.1569V70.8194H267.351V69.1569H273.967ZM269.28 66.0981H271.24V78.267C271.24 78.8211 271.321 79.2367 271.481 79.5138C271.648 79.7853 271.859 79.9682 272.113 80.0625C272.374 80.1511 272.648 80.1954 272.935 80.1954C273.151 80.1954 273.33 80.1844 273.467 80.1621C273.605 80.1345 273.717 80.1123 273.799 80.0956L274.199 81.8578C274.065 81.9078 273.88 81.9576 273.642 82.0074C273.403 82.063 273.102 82.0905 272.736 82.0905C272.181 82.0905 271.64 81.9715 271.107 81.7332C270.582 81.4948 270.144 81.1319 269.794 80.6443C269.45 80.1566 269.28 79.5415 269.28 78.799V66.0981ZM278.179 86.7121C277.846 86.7121 277.55 86.6845 277.29 86.629C277.03 86.5791 276.85 86.5293 276.75 86.4793L277.248 84.7504C277.726 84.8724 278.145 84.9168 278.511 84.8835C278.877 84.8502 279.202 84.6867 279.484 84.3931C279.772 84.1049 280.036 83.6366 280.273 82.9884L280.639 81.9909L275.919 69.1569H278.047L281.57 79.331H281.702L285.226 69.1569H287.354L281.935 83.7862C281.692 84.4456 281.39 84.9915 281.03 85.4237C280.669 85.8616 280.251 86.1857 279.775 86.3962C279.304 86.6069 278.772 86.7121 278.179 86.7121ZM299.415 81.9243L295.526 69.1569H297.587L300.346 78.9319H300.48L303.205 69.1569H305.299L307.992 78.8987H308.124L310.884 69.1569H312.945L309.055 81.9243H307.128L304.335 72.116H304.136L301.344 81.9243H299.415ZM317.498 74.2439V81.9243H315.537V64.9011H317.498V71.1518H317.665C317.964 70.4924 318.412 69.9687 319.01 69.5809C319.614 69.1875 320.418 68.9907 321.421 68.9907C322.29 68.9907 323.052 69.1652 323.706 69.5143C324.359 69.8579 324.867 70.3871 325.227 71.102C325.593 71.8112 325.775 72.7146 325.775 73.8117V81.9243H323.814V73.9448C323.814 72.9306 323.55 72.1466 323.024 71.5924C322.504 71.0328 321.78 70.7529 320.856 70.7529C320.212 70.7529 319.637 70.8886 319.127 71.1602C318.623 71.4317 318.225 71.8279 317.931 72.3487C317.643 72.8697 317.498 73.5014 317.498 74.2439ZM329.364 81.9243V69.1569H331.324V81.9243H329.364ZM330.36 67.029C329.977 67.029 329.648 66.8988 329.372 66.6383C329.1 66.378 328.964 66.0648 328.964 65.6992C328.964 65.3333 329.1 65.0202 329.372 64.7599C329.648 64.4994 329.977 64.3691 330.36 64.3691C330.743 64.3691 331.069 64.4994 331.341 64.7599C331.619 65.0202 331.756 65.3333 331.756 65.6992C331.756 66.0648 331.619 66.378 331.341 66.6383C331.069 66.8988 330.743 67.029 330.36 67.029ZM336.877 64.9011V81.9243H334.917V64.9011H336.877ZM345.821 82.1903C344.591 82.1903 343.53 81.9188 342.639 81.3758C341.751 80.8272 341.068 80.0625 340.586 79.0816C340.11 78.0953 339.871 76.9482 339.871 75.6404C339.871 74.3326 340.11 73.18 340.586 72.1825C341.068 71.1796 341.738 70.3983 342.597 69.8385C343.461 69.2732 344.469 68.9907 345.621 68.9907C346.286 68.9907 346.943 69.1015 347.592 69.3232C348.24 69.5447 348.83 69.9051 349.362 70.4038C349.893 70.897 350.316 71.5509 350.632 72.3655C350.948 73.18 351.107 74.183 351.107 75.3744V76.2055H341.267V74.5099H349.113C349.113 73.7896 348.967 73.1467 348.68 72.5815C348.397 72.0164 347.993 71.5703 347.466 71.2433C346.946 70.9164 346.331 70.7529 345.621 70.7529C344.84 70.7529 344.165 70.9468 343.593 71.3347C343.028 71.7171 342.594 72.2158 342.29 72.8309C341.985 73.446 341.832 74.1054 341.832 74.8091V75.9397C341.832 76.9039 341.999 77.7211 342.331 78.3917C342.669 79.0567 343.137 79.5638 343.735 79.9129C344.334 80.2564 345.029 80.4281 345.821 80.4281C346.336 80.4281 346.801 80.3561 347.217 80.2121C347.638 80.0625 348.001 79.8408 348.305 79.547C348.611 79.2478 348.845 78.8766 349.012 78.4332L350.906 78.9652C350.707 79.6081 350.373 80.1733 349.902 80.6609C349.43 81.1431 348.849 81.5197 348.157 81.7914C347.465 82.0573 346.686 82.1903 345.821 82.1903ZM369.712 72.0164L367.951 72.5151C367.84 72.2213 367.676 71.9359 367.461 71.6589C367.25 71.3763 366.963 71.1434 366.597 70.9607C366.231 70.7778 365.763 70.6863 365.193 70.6863C364.41 70.6863 363.76 70.8664 363.239 71.2267C362.724 71.5813 362.466 72.0329 362.466 72.5815C362.466 73.0692 362.644 73.4542 362.998 73.7369C363.352 74.0195 363.907 74.2551 364.659 74.4435L366.555 74.909C367.697 75.186 368.546 75.6098 369.106 76.1806C369.666 76.7459 369.945 77.4745 369.945 78.3668C369.945 79.0983 369.734 79.7522 369.313 80.3285C368.898 80.9048 368.317 81.3591 367.568 81.6916C366.821 82.0242 365.951 82.1903 364.959 82.1903C363.656 82.1903 362.58 81.9078 361.726 81.3425C360.873 80.7772 360.334 79.9516 360.106 78.8656L361.968 78.3999C362.145 79.0871 362.48 79.6025 362.973 79.9461C363.471 80.2897 364.123 80.4614 364.925 80.4614C365.84 80.4614 366.567 80.2675 367.103 79.8796C367.646 79.4862 367.917 79.015 367.917 78.4665C367.917 78.0232 367.762 77.6519 367.453 77.3526C367.142 77.0478 366.665 76.8206 366.023 76.6712L363.896 76.1724C362.727 75.8952 361.868 75.4659 361.32 74.884C360.776 74.2965 360.506 73.5624 360.506 72.6813C360.506 71.9608 360.708 71.3237 361.112 70.7694C361.522 70.2154 362.079 69.7803 362.782 69.4645C363.491 69.1487 364.295 68.9907 365.193 68.9907C366.455 68.9907 367.447 69.2677 368.166 69.822C368.893 70.376 369.408 71.1075 369.712 72.0164ZM374.859 74.2439V81.9243H372.897V64.9011H374.859V71.1518H375.024C375.324 70.4924 375.773 69.9687 376.372 69.5809C376.975 69.1875 377.777 68.9907 378.78 68.9907C379.651 68.9907 380.412 69.1652 381.067 69.5143C381.721 69.8579 382.227 70.3871 382.586 71.102C382.952 71.8112 383.135 72.7146 383.135 73.8117V81.9243H381.174V73.9448C381.174 72.9306 380.912 72.1466 380.385 71.5924C379.863 71.0328 379.141 70.7529 378.215 70.7529C377.574 70.7529 376.997 70.8886 376.487 71.1602C375.984 71.4317 375.584 71.8279 375.29 72.3487C375.003 72.8697 374.859 73.5014 374.859 74.2439ZM391.908 82.1903C390.757 82.1903 389.745 81.916 388.876 81.3674C388.012 80.8189 387.335 80.0513 386.849 79.065C386.366 78.0786 386.125 76.926 386.125 75.6071C386.125 74.2771 386.366 73.1163 386.849 72.1244C387.335 71.1324 388.012 70.3622 388.876 69.8136C389.745 69.265 390.757 68.9907 391.908 68.9907C393.062 68.9907 394.07 69.265 394.934 69.8136C395.803 70.3622 396.48 71.1324 396.961 72.1244C397.449 73.1163 397.692 74.2771 397.692 75.6071C397.692 76.926 397.449 78.0786 396.961 79.065C396.48 80.0513 395.803 80.8189 394.934 81.3674C394.07 81.916 393.062 82.1903 391.908 82.1903ZM391.908 80.4281C392.784 80.4281 393.505 80.2038 394.07 79.7549C394.635 79.3059 395.053 78.7159 395.325 77.9845C395.596 77.253 395.731 76.4605 395.731 75.6071C395.731 74.7538 395.596 73.9586 395.325 73.2215C395.053 72.4845 394.635 71.8888 394.07 71.4345C393.505 70.9801 392.784 70.7529 391.908 70.7529C391.034 70.7529 390.314 70.9801 389.749 71.4345C389.184 71.8888 388.764 72.4845 388.493 73.2215C388.223 73.9586 388.086 74.7538 388.086 75.6071C388.086 76.4605 388.223 77.253 388.493 77.9845C388.764 78.7159 389.184 79.3059 389.749 79.7549C390.314 80.2038 391.034 80.4281 391.908 80.4281ZM400.686 86.7121V69.1569H402.581V71.1851H402.813C402.957 70.9634 403.158 70.6808 403.412 70.3372C403.672 69.9881 404.044 69.6778 404.525 69.4063C405.013 69.1293 405.672 68.9907 406.504 68.9907C407.579 68.9907 408.525 69.2595 409.346 69.7969C410.165 70.3344 410.805 71.0965 411.264 72.0827C411.724 73.0692 411.955 74.2328 411.955 75.5739C411.955 76.926 411.724 78.098 411.264 79.0899C410.805 80.0762 410.168 80.8409 409.354 81.384C408.54 81.9215 407.601 82.1903 406.536 82.1903C405.717 82.1903 405.06 82.0546 404.567 81.7831C404.074 81.506 403.694 81.1929 403.428 80.8438C403.163 80.4892 402.957 80.1954 402.813 79.9627H402.648V86.7121H400.686ZM402.614 75.5406C402.614 76.5048 402.755 77.3555 403.037 78.0925C403.32 78.8239 403.733 79.3974 404.276 79.813C404.819 80.2232 405.484 80.4281 406.27 80.4281C407.091 80.4281 407.774 80.2121 408.323 79.7798C408.878 79.3421 409.292 78.7547 409.57 78.0177C409.852 77.2751 409.994 76.4495 409.994 75.5406C409.994 74.6429 409.855 73.8339 409.578 73.1135C409.307 72.3875 408.894 71.8141 408.339 71.3929C407.791 70.9662 407.102 70.7529 406.27 70.7529C405.473 70.7529 404.802 70.9552 404.259 71.3596C403.716 71.7585 403.306 72.3183 403.029 73.0387C402.753 73.7535 402.614 74.5874 402.614 75.5406ZM414.947 86.7121V69.1569H416.841V71.1851H417.073C417.218 70.9634 417.417 70.6808 417.671 70.3372C417.932 69.9881 418.303 69.6778 418.786 69.4063C419.273 69.1293 419.933 68.9907 420.764 68.9907C421.838 68.9907 422.786 69.2595 423.605 69.7969C424.426 70.3344 425.064 71.0965 425.526 72.0827C425.985 73.0692 426.214 74.2328 426.214 75.5739C426.214 76.926 425.985 78.098 425.526 79.0899C425.064 80.0762 424.428 80.8409 423.614 81.384C422.8 81.9215 421.86 82.1903 420.797 82.1903C419.976 82.1903 419.32 82.0546 418.826 81.7831C418.333 81.506 417.954 81.1929 417.688 80.8438C417.422 80.4892 417.218 80.1954 417.073 79.9627H416.908V86.7121H414.947ZM416.874 75.5406C416.874 76.5048 417.016 77.3555 417.299 78.0925C417.581 78.8239 417.994 79.3974 418.536 79.813C419.079 80.2232 419.744 80.4281 420.531 80.4281C421.35 80.4281 422.036 80.2121 422.584 79.7798C423.137 79.3421 423.553 78.7547 423.829 78.0177C424.112 77.2751 424.254 76.4495 424.254 75.5406C424.254 74.6429 424.115 73.8339 423.838 73.1135C423.567 72.3875 423.154 71.8141 422.601 71.3929C422.051 70.9662 421.362 70.7529 420.531 70.7529C419.732 70.7529 419.062 70.9552 418.521 71.3596C417.977 71.7585 417.566 72.3183 417.29 73.0387C417.013 73.7535 416.874 74.5874 416.874 75.5406ZM429.207 81.9243V69.1569H431.167V81.9243H429.207ZM430.204 67.029C429.822 67.029 429.492 66.8988 429.215 66.6383C428.944 66.378 428.807 66.0648 428.807 65.6992C428.807 65.3333 428.944 65.0202 429.215 64.7599C429.492 64.4994 429.822 64.3691 430.204 64.3691C430.585 64.3691 430.913 64.4994 431.184 64.7599C431.461 65.0202 431.6 65.3333 431.6 65.6992C431.6 66.0648 431.461 66.378 431.184 66.6383C430.913 66.8988 430.585 67.029 430.204 67.029ZM436.722 74.2439V81.9243H434.759V69.1569H436.655V71.1518H436.82C437.119 70.5034 437.574 69.9826 438.184 69.5892C438.793 69.1901 439.58 68.9907 440.543 68.9907C441.409 68.9907 442.164 69.1681 442.813 69.5227C443.461 69.8718 443.964 70.4038 444.325 71.1185C444.685 71.8279 444.865 72.7256 444.865 73.8117V81.9243H442.903V73.9448C442.903 72.9418 442.644 72.1603 442.122 71.6007C441.602 71.0354 440.887 70.7529 439.978 70.7529C439.353 70.7529 438.793 70.8886 438.3 71.1602C437.811 71.4317 437.427 71.8279 437.145 72.3487C436.862 72.8697 436.722 73.5014 436.722 74.2439ZM453.601 86.9781C452.653 86.9781 451.839 86.8562 451.157 86.6124C450.476 86.3742 449.908 86.0582 449.454 85.6648C449.006 85.2769 448.648 84.8612 448.382 84.418L449.945 83.3207C450.122 83.5535 450.346 83.8195 450.617 84.1187C450.889 84.4235 451.26 84.6867 451.73 84.9084C452.208 85.1356 452.83 85.2491 453.601 85.2491C454.632 85.2491 455.481 84.9998 456.151 84.5011C456.822 84.0024 457.158 83.2211 457.158 82.1571V79.5638H456.992C456.847 79.7965 456.643 80.0846 456.377 80.4281C456.116 80.7662 455.738 81.0682 455.245 81.3342C454.759 81.5946 454.099 81.7249 453.268 81.7249C452.238 81.7249 451.312 81.4809 450.493 80.9934C449.679 80.5057 449.032 79.7965 448.556 78.8656C448.086 77.9345 447.851 76.8041 447.851 75.4741C447.851 74.1663 448.08 73.0275 448.539 72.0578C448.999 71.0826 449.639 70.3289 450.46 69.7969C451.279 69.2595 452.227 68.9907 453.301 68.9907C454.132 68.9907 454.792 69.1293 455.279 69.4063C455.772 69.6778 456.15 69.9881 456.409 70.3372C456.676 70.6808 456.88 70.9634 457.024 71.1851H457.224V69.1569H459.118V82.2902C459.118 83.3873 458.869 84.2794 458.371 84.9666C457.878 85.6593 457.213 86.1664 456.377 86.4877C455.545 86.8147 454.62 86.9781 453.601 86.9781ZM453.534 79.9627C454.321 79.9627 454.986 79.7826 455.529 79.4225C456.071 79.0622 456.484 78.544 456.766 77.8681C457.049 77.192 457.191 76.3829 457.191 75.441C457.191 74.5211 457.052 73.7092 456.775 73.0055C456.499 72.3018 456.088 71.7504 455.545 71.3513C455.003 70.9523 454.333 70.7529 453.534 70.7529C452.703 70.7529 452.011 70.9634 451.456 71.3845C450.908 71.8057 450.495 72.371 450.219 73.0802C449.947 73.7896 449.811 74.5764 449.811 75.441C449.811 76.3276 449.95 77.1115 450.227 77.7932C450.51 78.4693 450.924 79.0013 451.473 79.3892C452.028 79.7716 452.715 79.9627 453.534 79.9627ZM474.476 82.1903C473.323 82.1903 472.311 81.916 471.442 81.3674C470.578 80.8189 469.903 80.0513 469.415 79.065C468.933 78.0786 468.693 76.926 468.693 75.6071C468.693 74.2771 468.933 73.1163 469.415 72.1244C469.903 71.1324 470.578 70.3622 471.442 69.8136C472.311 69.265 473.323 68.9907 474.476 68.9907C475.628 68.9907 476.636 69.265 477.5 69.8136C478.371 70.3622 479.046 71.1324 479.527 72.1244C480.015 73.1163 480.259 74.2771 480.259 75.6071C480.259 76.926 480.015 78.0786 479.527 79.065C479.046 80.0513 478.371 80.8189 477.5 81.3674C476.636 81.916 475.628 82.1903 474.476 82.1903ZM474.476 80.4281C475.35 80.4281 476.071 80.2038 476.636 79.7549C477.201 79.3059 477.62 78.7159 477.891 77.9845C478.162 77.253 478.299 76.4605 478.299 75.6071C478.299 74.7538 478.162 73.9586 477.891 73.2215C477.62 72.4845 477.201 71.8888 476.636 71.4345C476.071 70.9801 475.35 70.7529 474.476 70.7529C473.6 70.7529 472.88 70.9801 472.315 71.4345C471.75 71.8888 471.332 72.4845 471.059 73.2215C470.789 73.9586 470.653 74.7538 470.653 75.6071C470.653 76.4605 470.789 77.253 471.059 77.9845C471.332 78.7159 471.75 79.3059 472.315 79.7549C472.88 80.2038 473.6 80.4281 474.476 80.4281ZM485.214 74.2439V81.9243H483.253V69.1569H485.147V71.1518H485.314C485.613 70.5034 486.068 69.9826 486.676 69.5892C487.287 69.1901 488.072 68.9907 489.037 68.9907C489.901 68.9907 490.658 69.1681 491.305 69.5227C491.953 69.8718 492.458 70.4038 492.818 71.1185C493.179 71.8279 493.357 72.7256 493.357 73.8117V81.9243H491.397V73.9448C491.397 72.9418 491.136 72.1603 490.616 71.6007C490.095 71.0354 489.381 70.7529 488.472 70.7529C487.846 70.7529 487.287 70.8886 486.793 71.1602C486.305 71.4317 485.921 71.8279 485.638 72.3487C485.356 72.8697 485.214 73.5014 485.214 74.2439ZM498.903 64.9011V81.9243H496.941V64.9011H498.903ZM502.496 81.9243V69.1569H504.456V81.9243H502.496ZM503.492 67.029C503.111 67.029 502.78 66.8988 502.504 66.6383C502.231 66.378 502.096 66.0648 502.096 65.6992C502.096 65.3333 502.231 65.0202 502.504 64.7599C502.78 64.4994 503.111 64.3691 503.492 64.3691C503.875 64.3691 504.202 64.4994 504.473 64.7599C504.75 65.0202 504.889 65.3333 504.889 65.6992C504.889 66.0648 504.75 66.378 504.473 66.6383C504.202 66.8988 503.875 67.029 503.492 67.029ZM510.009 74.2439V81.9243H508.048V69.1569H509.942V71.1518H510.109C510.409 70.5034 510.863 69.9826 511.472 69.5892C512.082 69.1901 512.867 68.9907 513.832 68.9907C514.696 68.9907 515.453 69.1681 516.1 69.5227C516.749 69.8718 517.253 70.4038 517.613 71.1185C517.974 71.8279 518.153 72.7256 518.153 73.8117V81.9243H516.192V73.9448C516.192 72.9418 515.931 72.1603 515.411 71.6007C514.89 71.0354 514.176 70.7529 513.267 70.7529C512.642 70.7529 512.082 70.8886 511.589 71.1602C511.1 71.4317 510.716 71.8279 510.434 72.3487C510.151 72.8697 510.009 73.5014 510.009 74.2439ZM527.089 82.1903C525.858 82.1903 524.799 81.9188 523.906 81.3758C523.02 80.8272 522.335 80.0625 521.853 79.0816C521.377 78.0953 521.138 76.9482 521.138 75.6404C521.138 74.3326 521.377 73.18 521.853 72.1825C522.335 71.1796 523.005 70.3983 523.864 69.8385C524.728 69.2732 525.736 68.9907 526.89 68.9907C527.555 68.9907 528.21 69.1015 528.859 69.3232C529.507 69.5447 530.097 69.9051 530.629 70.4038C531.16 70.897 531.585 71.5509 531.901 72.3655C532.217 73.18 532.374 74.183 532.374 75.3744V76.2055H522.535V74.5099H530.38C530.38 73.7896 530.236 73.1467 529.947 72.5815C529.664 72.0164 529.26 71.5703 528.733 71.2433C528.213 70.9164 527.598 70.7529 526.89 70.7529C526.107 70.7529 525.432 70.9468 524.862 71.3347C524.297 71.7171 523.861 72.2158 523.557 72.8309C523.252 73.446 523.1 74.1054 523.1 74.8091V75.9397C523.1 76.9039 523.266 77.7211 523.598 78.3917C523.936 79.0567 524.404 79.5638 525.003 79.9129C525.601 80.2564 526.296 80.4281 527.089 80.4281C527.603 80.4281 528.07 80.3561 528.484 80.2121C528.905 80.0625 529.268 79.8408 529.574 79.547C529.878 79.2478 530.114 78.8766 530.279 78.4332L532.175 78.9652C531.974 79.6081 531.64 80.1733 531.169 80.6609C530.697 81.1431 530.116 81.5197 529.424 81.7914C528.732 82.0573 527.953 82.1903 527.089 82.1903ZM537.917 77.1366V77.0368C537.928 75.9785 538.039 75.1362 538.249 74.5099C538.46 73.8837 538.759 73.3766 539.147 72.9887C539.535 72.6009 539.999 72.2436 540.543 71.9165C540.87 71.7171 541.163 71.4815 541.423 71.21C541.684 70.9329 541.89 70.6143 542.039 70.2541C542.194 69.894 542.271 69.4949 542.271 69.0572C542.271 68.5142 542.144 68.043 541.89 67.6441C541.634 67.2452 541.293 66.9376 540.867 66.7215C540.441 66.5054 539.966 66.3974 539.446 66.3974C538.991 66.3974 538.553 66.4915 538.132 66.6799C537.711 66.8683 537.36 67.1648 537.078 67.5694C536.795 67.9738 536.631 68.503 536.588 69.1569H534.493C534.537 68.2149 534.781 67.4085 535.224 66.7381C535.673 66.0676 536.263 65.555 536.994 65.2004C537.731 64.8456 538.548 64.6684 539.446 64.6684C540.421 64.6684 541.268 64.8624 541.988 65.2502C542.714 65.6381 543.274 66.1701 543.667 66.8461C544.066 67.5222 544.265 68.2925 544.265 69.1569C544.265 69.7664 544.171 70.3178 543.982 70.8111C543.8 71.3043 543.535 71.7448 543.185 72.1327C542.843 72.5206 542.426 72.8642 541.938 73.1633C541.452 73.4681 541.061 73.7896 540.767 74.1275C540.474 74.46 540.26 74.8563 540.128 75.3162C539.994 75.7762 539.922 76.3496 539.911 77.0368V77.1366H537.917ZM538.98 82.0573C538.57 82.0573 538.219 81.9105 537.925 81.6169C537.631 81.3231 537.485 80.9712 537.485 80.5612C537.485 80.1511 537.631 79.7992 537.925 79.5056C538.219 79.2118 538.57 79.065 538.98 79.065C539.391 79.065 539.742 79.2118 540.036 79.5056C540.33 79.7992 540.476 80.1511 540.476 80.5612C540.476 80.8327 540.407 81.082 540.268 81.3092C540.136 81.5365 539.956 81.7194 539.729 81.8578C539.506 81.9909 539.257 82.0573 538.98 82.0573Z" fill="#9291A5"/>
<defs>
<filter id="filter0_d_528_1580" x="4.0293" y="2.6875" width="566.941" height="521.937" filterUnits="userSpaceOnUse" color-interpolation-filters="sRGB">
<feFlood flood-opacity="0" result="BackgroundImageFix"/>
<feColorMatrix in="SourceAlpha" type="matrix" values="0 0 0 0 0 0 0 0 0 0 0 0 0 0 0 0 0 0 127 0" result="hardAlpha"/>
<feOffset dy="2"/>
<feGaussianBlur stdDeviation="3"/>
<feComposite in2="hardAlpha" operator="out"/>
<feColorMatrix type="matrix" values="0 0 0 0 0.0509804 0 0 0 0 0.0392157 0 0 0 0 0.172549 0 0 0 0.08 0"/>
<feBlend mode="normal" in2="BackgroundImageFix" result="effect1_dropShadow_528_1580"/>
<feBlend mode="normal" in="SourceGraphic" in2="effect1_dropShadow_528_1580" result="shape"/>
</filter>
</defs>
</svg>
