<svg width="514" height="542" viewBox="0 0 514 542" fill="none" xmlns="http://www.w3.org/2000/svg">
<g filter="url(#filter0_d_228_1015)">
<rect x="22" y="4" width="510" height="516" rx="20" fill="white"/>
</g>
<path d="M446.973 429.694C447.51 429.698 448.047 429.801 448.584 430.001C449.121 430.201 449.611 430.533 450.054 430.998C450.497 431.458 450.853 432.087 451.121 432.884C451.39 433.68 451.524 434.68 451.524 435.881C451.524 437.045 451.413 438.078 451.192 438.982C450.974 439.881 450.659 440.639 450.246 441.257C449.837 441.875 449.338 442.344 448.75 442.663C448.166 442.983 447.506 443.143 446.768 443.143C446.035 443.143 445.381 442.998 444.806 442.708C444.235 442.414 443.766 442.007 443.4 441.487C443.038 440.963 442.805 440.356 442.703 439.666H444.263C444.403 440.266 444.682 440.763 445.1 441.155C445.522 441.543 446.078 441.737 446.768 441.737C447.778 441.737 448.575 441.296 449.159 440.413C449.747 439.531 450.041 438.285 450.041 436.674H449.939C449.7 437.032 449.417 437.341 449.089 437.601C448.761 437.861 448.396 438.061 447.996 438.202C447.595 438.342 447.169 438.413 446.717 438.413C445.967 438.413 445.279 438.227 444.653 437.857C444.03 437.482 443.532 436.968 443.157 436.316C442.786 435.66 442.601 434.91 442.601 434.066C442.601 433.265 442.78 432.532 443.138 431.867C443.5 431.198 444.007 430.666 444.659 430.269C445.315 429.873 446.087 429.681 446.973 429.694ZM446.973 431.1C446.436 431.1 445.952 431.234 445.522 431.503C445.096 431.767 444.757 432.125 444.506 432.577C444.258 433.024 444.135 433.521 444.135 434.066C444.135 434.612 444.254 435.108 444.493 435.555C444.736 435.999 445.066 436.352 445.484 436.617C445.905 436.877 446.385 437.006 446.922 437.006C447.327 437.006 447.704 436.928 448.053 436.77C448.403 436.608 448.707 436.389 448.967 436.112C449.231 435.83 449.438 435.513 449.587 435.159C449.736 434.801 449.811 434.428 449.811 434.041C449.811 433.529 449.687 433.05 449.44 432.602C449.197 432.155 448.861 431.793 448.43 431.516C448.004 431.239 447.518 431.1 446.973 431.1Z" fill="#B4612C"/>
<path d="M131.987 427.856H135.776L139.425 434.747H139.581L143.229 427.856H147.019L141.183 438.2V443.856H137.823V438.2L131.987 427.856ZM151.759 444.09C150.524 444.09 149.462 443.84 148.571 443.34C147.686 442.835 147.004 442.122 146.524 441.2C146.045 440.273 145.806 439.176 145.806 437.911C145.806 436.676 146.045 435.593 146.524 434.661C147.004 433.728 147.678 433.002 148.548 432.481C149.423 431.96 150.449 431.7 151.626 431.7C152.418 431.7 153.155 431.827 153.837 432.083C154.524 432.333 155.123 432.71 155.634 433.215C156.149 433.721 156.55 434.356 156.837 435.122C157.123 435.882 157.267 436.773 157.267 437.793V438.708H147.134V436.645H154.134C154.134 436.166 154.03 435.741 153.821 435.372C153.613 435.002 153.324 434.713 152.954 434.504C152.59 434.291 152.165 434.184 151.681 434.184C151.175 434.184 150.728 434.301 150.337 434.536C149.951 434.765 149.649 435.075 149.431 435.465C149.212 435.851 149.1 436.28 149.095 436.754V438.715C149.095 439.309 149.204 439.822 149.423 440.254C149.647 440.687 149.962 441.02 150.368 441.254C150.774 441.489 151.256 441.606 151.813 441.606C152.183 441.606 152.522 441.554 152.829 441.45C153.136 441.346 153.399 441.189 153.618 440.981C153.837 440.773 154.004 440.517 154.118 440.215L157.196 440.418C157.04 441.158 156.72 441.804 156.235 442.356C155.756 442.903 155.136 443.33 154.376 443.637C153.621 443.939 152.748 444.09 151.759 444.09ZM169.423 435.278L166.376 435.465C166.324 435.205 166.212 434.971 166.04 434.762C165.868 434.549 165.642 434.379 165.36 434.254C165.084 434.124 164.754 434.059 164.368 434.059C163.853 434.059 163.418 434.168 163.063 434.387C162.709 434.601 162.532 434.887 162.532 435.247C162.532 435.533 162.647 435.775 162.876 435.973C163.105 436.171 163.498 436.33 164.056 436.45L166.228 436.887C167.394 437.127 168.264 437.512 168.837 438.043C169.41 438.575 169.696 439.273 169.696 440.137C169.696 440.924 169.465 441.614 169.001 442.208C168.543 442.801 167.912 443.265 167.11 443.598C166.313 443.926 165.394 444.09 164.353 444.09C162.764 444.09 161.498 443.76 160.556 443.098C159.618 442.431 159.069 441.525 158.907 440.379L162.181 440.208C162.28 440.692 162.519 441.062 162.899 441.317C163.28 441.567 163.767 441.692 164.36 441.692C164.944 441.692 165.412 441.58 165.767 441.356C166.126 441.127 166.308 440.833 166.313 440.473C166.308 440.171 166.181 439.924 165.931 439.731C165.681 439.533 165.295 439.382 164.774 439.278L162.696 438.864C161.524 438.629 160.652 438.223 160.079 437.645C159.511 437.067 159.228 436.33 159.228 435.434C159.228 434.663 159.436 433.999 159.853 433.442C160.274 432.885 160.866 432.455 161.626 432.153C162.392 431.851 163.287 431.7 164.313 431.7C165.829 431.7 167.022 432.02 167.892 432.661C168.767 433.301 169.277 434.174 169.423 435.278Z" fill="#753710"/>
<rect x="101.318" y="428.748" width="14.2158" height="14.2158" rx="7.10791" fill="#EA8C77"/>
<path d="M447.152 499.035C446.615 499.026 446.078 498.924 445.541 498.728C445.004 498.532 444.514 498.202 444.071 497.737C443.628 497.269 443.272 496.636 443.003 495.839C442.735 495.038 442.601 494.032 442.601 492.822C442.601 491.663 442.709 490.636 442.927 489.741C443.144 488.842 443.459 488.085 443.873 487.472C444.286 486.854 444.785 486.385 445.369 486.065C445.957 485.746 446.619 485.586 447.356 485.586C448.089 485.586 448.741 485.733 449.312 486.027C449.888 486.317 450.356 486.722 450.719 487.242C451.081 487.761 451.315 488.36 451.422 489.038H449.862C449.717 488.45 449.436 487.962 449.018 487.574C448.601 487.186 448.047 486.992 447.356 486.992C446.342 486.992 445.543 487.433 444.959 488.315C444.38 489.198 444.088 490.436 444.084 492.029H444.186C444.425 491.667 444.708 491.358 445.036 491.102C445.369 490.842 445.735 490.642 446.136 490.502C446.536 490.361 446.96 490.291 447.408 490.291C448.158 490.291 448.844 490.478 449.466 490.853C450.088 491.224 450.587 491.737 450.962 492.394C451.337 493.046 451.524 493.793 451.524 494.637C451.524 495.447 451.343 496.188 450.981 496.862C450.619 497.531 450.109 498.063 449.453 498.46C448.801 498.852 448.034 499.043 447.152 499.035ZM447.152 497.629C447.689 497.629 448.17 497.494 448.597 497.226C449.027 496.958 449.366 496.597 449.613 496.146C449.864 495.694 449.99 495.191 449.99 494.637C449.99 494.096 449.869 493.604 449.626 493.161C449.387 492.713 449.057 492.357 448.635 492.093C448.217 491.829 447.74 491.697 447.203 491.697C446.798 491.697 446.421 491.778 446.072 491.94C445.722 492.097 445.415 492.315 445.151 492.592C444.891 492.869 444.687 493.186 444.538 493.544C444.388 493.898 444.314 494.271 444.314 494.663C444.314 495.183 444.435 495.668 444.678 496.12C444.925 496.572 445.262 496.936 445.688 497.213C446.119 497.49 446.606 497.629 447.152 497.629Z" fill="#B4612C"/>
<path d="M146.308 485.856V501.856H143.386L136.425 491.786H136.308V501.856H132.925V485.856H135.894L142.8 495.918H142.94V485.856H146.308ZM154.462 502.09C153.248 502.09 152.199 501.833 151.313 501.317C150.433 500.796 149.754 500.072 149.274 499.145C148.795 498.213 148.556 497.132 148.556 495.903C148.556 494.663 148.795 493.58 149.274 492.653C149.754 491.721 150.433 490.997 151.313 490.481C152.199 489.96 153.248 489.7 154.462 489.7C155.675 489.7 156.722 489.96 157.603 490.481C158.488 490.997 159.17 491.721 159.649 492.653C160.129 493.58 160.368 494.663 160.368 495.903C160.368 497.132 160.129 498.213 159.649 499.145C159.17 500.072 158.488 500.796 157.603 501.317C156.722 501.833 155.675 502.09 154.462 502.09ZM154.478 499.512C155.03 499.512 155.491 499.356 155.86 499.043C156.23 498.726 156.509 498.293 156.696 497.747C156.889 497.2 156.985 496.577 156.985 495.879C156.985 495.181 156.889 494.559 156.696 494.012C156.509 493.465 156.23 493.033 155.86 492.715C155.491 492.398 155.03 492.239 154.478 492.239C153.92 492.239 153.451 492.398 153.071 492.715C152.696 493.033 152.412 493.465 152.22 494.012C152.032 494.559 151.938 495.181 151.938 495.879C151.938 496.577 152.032 497.2 152.22 497.747C152.412 498.293 152.696 498.726 153.071 499.043C153.451 499.356 153.92 499.512 154.478 499.512Z" fill="#753710"/>
<rect x="101.318" y="486.748" width="14.2158" height="14.2158" rx="7.10791" fill="#FDD3B8"/>
<path d="M290.768 167.954V166.017L295.626 158.363H297.296V161.045H296.308L293.245 165.892V165.982H300.149V167.954H290.768ZM296.353 170V167.363L296.399 166.505V158.363H298.706V170H296.353ZM306.35 170.255C305.373 170.251 304.532 170.011 303.828 169.534C303.127 169.056 302.587 168.365 302.208 167.46C301.833 166.554 301.648 165.465 301.652 164.193C301.652 162.924 301.839 161.842 302.214 160.948C302.593 160.054 303.133 159.375 303.833 158.909C304.538 158.439 305.377 158.204 306.35 158.204C307.324 158.204 308.161 158.439 308.862 158.909C309.566 159.378 310.108 160.06 310.487 160.954C310.866 161.844 311.053 162.924 311.049 164.193C311.049 165.469 310.86 166.56 310.481 167.465C310.106 168.371 309.568 169.062 308.867 169.539C308.167 170.017 307.328 170.255 306.35 170.255ZM306.35 168.215C307.017 168.215 307.549 167.88 307.947 167.21C308.345 166.539 308.542 165.534 308.538 164.193C308.538 163.31 308.447 162.575 308.265 161.988C308.087 161.401 307.833 160.96 307.504 160.664C307.178 160.369 306.794 160.221 306.35 160.221C305.688 160.221 305.157 160.553 304.759 161.215C304.362 161.878 304.161 162.871 304.157 164.193C304.157 165.087 304.246 165.833 304.424 166.431C304.606 167.026 304.862 167.473 305.191 167.772C305.521 168.068 305.907 168.215 306.35 168.215ZM319.173 167.818V167.204C319.173 166.738 319.271 166.31 319.468 165.92C319.669 165.526 319.959 165.212 320.338 164.977C320.72 164.738 321.186 164.619 321.735 164.619C322.292 164.619 322.76 164.736 323.139 164.971C323.521 165.206 323.809 165.52 324.002 165.914C324.199 166.304 324.298 166.734 324.298 167.204V167.818C324.298 168.284 324.199 168.714 324.002 169.107C323.805 169.498 323.516 169.81 323.133 170.045C322.751 170.284 322.285 170.403 321.735 170.403C321.179 170.403 320.711 170.284 320.332 170.045C319.953 169.81 319.665 169.498 319.468 169.107C319.271 168.714 319.173 168.284 319.173 167.818ZM320.826 167.204V167.818C320.826 168.087 320.891 168.34 321.019 168.579C321.152 168.818 321.391 168.937 321.735 168.937C322.08 168.937 322.315 168.82 322.44 168.585C322.569 168.35 322.633 168.094 322.633 167.818V167.204C322.633 166.928 322.572 166.67 322.451 166.431C322.33 166.193 322.091 166.073 321.735 166.073C321.394 166.073 321.158 166.193 321.025 166.431C320.893 166.67 320.826 166.928 320.826 167.204ZM313.201 161.159V160.545C313.201 160.075 313.302 159.645 313.502 159.255C313.703 158.861 313.993 158.547 314.372 158.312C314.754 158.077 315.216 157.96 315.758 157.96C316.319 157.96 316.788 158.077 317.167 158.312C317.546 158.547 317.834 158.861 318.031 159.255C318.228 159.645 318.326 160.075 318.326 160.545V161.159C318.326 161.628 318.226 162.058 318.025 162.448C317.828 162.839 317.538 163.151 317.156 163.386C316.777 163.617 316.311 163.732 315.758 163.732C315.205 163.732 314.737 163.615 314.355 163.38C313.976 163.142 313.688 162.829 313.491 162.443C313.298 162.053 313.201 161.625 313.201 161.159ZM314.866 160.545V161.159C314.866 161.435 314.93 161.691 315.059 161.926C315.192 162.16 315.425 162.278 315.758 162.278C316.107 162.278 316.343 162.16 316.468 161.926C316.597 161.691 316.661 161.435 316.661 161.159V160.545C316.661 160.268 316.601 160.011 316.48 159.772C316.358 159.534 316.118 159.414 315.758 159.414C315.421 159.414 315.188 159.535 315.059 159.778C314.93 160.02 314.866 160.276 314.866 160.545ZM313.951 170L321.951 158.363H323.44L315.44 170H313.951Z" fill="white"/>
<path d="M267.996 146.484C267.57 140.977 262.749 136.818 257.295 137.688C241.366 140.229 226.054 145.866 212.236 154.316C195.567 164.508 181.546 178.502 171.319 195.155C161.092 211.808 154.95 230.646 153.393 250.129C151.837 269.612 154.912 289.186 162.366 307.253C169.82 325.319 181.442 341.364 196.281 354.075C211.12 366.787 228.755 375.804 247.745 380.389C266.735 384.975 286.54 384.999 305.54 380.459C321.294 376.695 336.124 369.882 349.208 360.439C353.685 357.208 354.167 350.862 350.588 346.659L332.24 325.113C328.658 320.907 322.374 320.467 317.732 323.464C310.572 328.088 302.661 331.479 294.325 333.47C282.736 336.239 270.656 336.225 259.073 333.428C247.491 330.631 236.734 325.131 227.683 317.378C218.632 309.625 211.544 299.838 206.997 288.819C202.451 277.8 200.576 265.86 201.525 253.977C202.474 242.093 206.22 230.603 212.458 220.446C218.696 210.289 227.248 201.753 237.415 195.537C244.729 191.065 252.729 187.884 261.065 186.108C266.467 184.958 270.609 180.215 270.182 174.709L267.996 146.484Z" fill="#EA8C77"/>
<path d="M354.877 342.846C358.665 346.865 365.028 347.078 368.728 342.978C383.038 327.123 393.04 307.784 397.681 286.817C403.046 262.586 401.003 237.298 391.818 214.235C382.633 191.171 366.73 171.397 346.172 157.478C328.385 145.434 307.823 138.255 286.527 136.563C281.019 136.126 276.541 140.655 276.552 146.18L276.611 174.477C276.622 179.998 281.125 184.397 286.598 185.117C298.201 186.643 309.341 190.852 319.108 197.466C331.647 205.955 341.347 218.017 346.949 232.084C352.551 246.151 353.797 261.575 350.526 276.355C347.977 287.865 342.781 298.571 335.403 307.647C331.92 311.933 331.672 318.226 335.46 322.245L354.877 342.846Z" fill="#FDD3B8"/>
<path d="M167.409 283.159C166.811 283.155 166.233 283.055 165.676 282.858C165.123 282.661 164.627 282.341 164.188 281.898C163.748 281.455 163.4 280.867 163.142 280.136C162.888 279.405 162.761 278.508 162.761 277.443C162.765 276.466 162.877 275.593 163.097 274.824C163.32 274.051 163.638 273.396 164.051 272.858C164.468 272.32 164.966 271.911 165.545 271.631C166.125 271.347 166.775 271.205 167.494 271.205C168.271 271.205 168.956 271.356 169.551 271.659C170.146 271.958 170.623 272.366 170.983 272.881C171.347 273.396 171.566 273.973 171.642 274.614H169.216C169.121 274.208 168.922 273.89 168.619 273.659C168.316 273.428 167.941 273.312 167.494 273.312C166.737 273.312 166.161 273.642 165.767 274.301C165.377 274.96 165.178 275.856 165.17 276.989H165.25C165.424 276.644 165.659 276.35 165.955 276.108C166.254 275.862 166.593 275.674 166.972 275.545C167.354 275.413 167.758 275.347 168.182 275.347C168.871 275.347 169.485 275.509 170.023 275.835C170.561 276.157 170.985 276.6 171.295 277.165C171.606 277.729 171.761 278.375 171.761 279.102C171.761 279.89 171.578 280.591 171.21 281.205C170.847 281.818 170.337 282.299 169.682 282.648C169.03 282.992 168.273 283.163 167.409 283.159ZM167.398 281.227C167.777 281.227 168.116 281.136 168.415 280.955C168.714 280.773 168.949 280.527 169.119 280.216C169.29 279.905 169.375 279.557 169.375 279.17C169.375 278.784 169.29 278.437 169.119 278.131C168.953 277.824 168.722 277.58 168.426 277.398C168.131 277.216 167.794 277.125 167.415 277.125C167.131 277.125 166.867 277.178 166.625 277.284C166.386 277.39 166.176 277.538 165.994 277.727C165.816 277.917 165.676 278.136 165.574 278.386C165.472 278.633 165.42 278.896 165.42 279.176C165.42 279.551 165.506 279.894 165.676 280.205C165.85 280.515 166.085 280.763 166.381 280.949C166.68 281.134 167.019 281.227 167.398 281.227ZM178.068 283.256C177.091 283.252 176.25 283.011 175.545 282.534C174.845 282.057 174.305 281.366 173.926 280.46C173.551 279.555 173.366 278.466 173.369 277.193C173.369 275.924 173.557 274.843 173.932 273.949C174.311 273.055 174.85 272.375 175.551 271.909C176.256 271.439 177.095 271.205 178.068 271.205C179.042 271.205 179.879 271.439 180.58 271.909C181.284 272.379 181.826 273.061 182.205 273.955C182.583 274.845 182.771 275.924 182.767 277.193C182.767 278.47 182.578 279.561 182.199 280.466C181.824 281.371 181.286 282.062 180.585 282.54C179.884 283.017 179.045 283.256 178.068 283.256ZM178.068 281.216C178.735 281.216 179.267 280.881 179.665 280.21C180.063 279.54 180.259 278.534 180.256 277.193C180.256 276.311 180.165 275.576 179.983 274.989C179.805 274.402 179.551 273.96 179.222 273.665C178.896 273.369 178.511 273.222 178.068 273.222C177.405 273.222 176.875 273.553 176.477 274.216C176.08 274.879 175.879 275.871 175.875 277.193C175.875 278.087 175.964 278.833 176.142 279.432C176.324 280.027 176.58 280.473 176.909 280.773C177.239 281.068 177.625 281.216 178.068 281.216ZM190.891 280.818V280.205C190.891 279.739 190.989 279.311 191.186 278.92C191.387 278.527 191.677 278.212 192.055 277.977C192.438 277.739 192.904 277.619 193.453 277.619C194.01 277.619 194.478 277.737 194.857 277.972C195.239 278.206 195.527 278.521 195.72 278.915C195.917 279.305 196.016 279.735 196.016 280.205V280.818C196.016 281.284 195.917 281.714 195.72 282.108C195.523 282.498 195.233 282.811 194.851 283.045C194.468 283.284 194.002 283.403 193.453 283.403C192.896 283.403 192.429 283.284 192.05 283.045C191.671 282.811 191.383 282.498 191.186 282.108C190.989 281.714 190.891 281.284 190.891 280.818ZM192.544 280.205V280.818C192.544 281.087 192.608 281.341 192.737 281.58C192.87 281.818 193.108 281.938 193.453 281.938C193.798 281.938 194.033 281.82 194.158 281.585C194.286 281.35 194.351 281.095 194.351 280.818V280.205C194.351 279.928 194.29 279.67 194.169 279.432C194.048 279.193 193.809 279.074 193.453 279.074C193.112 279.074 192.875 279.193 192.743 279.432C192.61 279.67 192.544 279.928 192.544 280.205ZM184.919 274.159V273.545C184.919 273.076 185.019 272.646 185.22 272.256C185.421 271.862 185.711 271.547 186.089 271.312C186.472 271.078 186.934 270.96 187.476 270.96C188.036 270.96 188.506 271.078 188.885 271.312C189.264 271.547 189.552 271.862 189.749 272.256C189.946 272.646 190.044 273.076 190.044 273.545V274.159C190.044 274.629 189.944 275.059 189.743 275.449C189.546 275.839 189.256 276.152 188.874 276.386C188.495 276.617 188.029 276.733 187.476 276.733C186.923 276.733 186.455 276.616 186.072 276.381C185.694 276.142 185.406 275.83 185.209 275.443C185.016 275.053 184.919 274.625 184.919 274.159ZM186.584 273.545V274.159C186.584 274.436 186.648 274.691 186.777 274.926C186.91 275.161 187.143 275.278 187.476 275.278C187.824 275.278 188.061 275.161 188.186 274.926C188.315 274.691 188.379 274.436 188.379 274.159V273.545C188.379 273.269 188.319 273.011 188.197 272.773C188.076 272.534 187.836 272.415 187.476 272.415C187.139 272.415 186.906 272.536 186.777 272.778C186.648 273.021 186.584 273.277 186.584 273.545ZM185.669 283L193.669 271.364H195.158L187.158 283H185.669Z" fill="white"/>
<path d="M347.767 220.955V219.017L352.625 211.364H354.295V214.045H353.307L350.244 218.892V218.983H357.148V220.955H347.767ZM353.352 223V220.364L353.398 219.506V211.364H355.705V223H353.352ZM363.349 223.256C362.372 223.252 361.531 223.011 360.827 222.534C360.126 222.057 359.586 221.366 359.207 220.46C358.832 219.555 358.647 218.466 358.651 217.193C358.651 215.924 358.838 214.843 359.213 213.949C359.592 213.055 360.132 212.375 360.832 211.909C361.537 211.439 362.376 211.205 363.349 211.205C364.323 211.205 365.16 211.439 365.861 211.909C366.565 212.379 367.107 213.061 367.486 213.955C367.865 214.845 368.052 215.924 368.048 217.193C368.048 218.47 367.859 219.561 367.48 220.466C367.105 221.371 366.567 222.062 365.866 222.54C365.166 223.017 364.327 223.256 363.349 223.256ZM363.349 221.216C364.016 221.216 364.548 220.881 364.946 220.21C365.344 219.54 365.541 218.534 365.537 217.193C365.537 216.311 365.446 215.576 365.264 214.989C365.086 214.402 364.832 213.96 364.503 213.665C364.177 213.369 363.793 213.222 363.349 213.222C362.687 213.222 362.156 213.553 361.759 214.216C361.361 214.879 361.16 215.871 361.156 217.193C361.156 218.087 361.245 218.833 361.423 219.432C361.605 220.027 361.861 220.473 362.19 220.773C362.52 221.068 362.906 221.216 363.349 221.216ZM376.172 220.818V220.205C376.172 219.739 376.27 219.311 376.467 218.92C376.668 218.527 376.958 218.212 377.337 217.977C377.719 217.739 378.185 217.619 378.734 217.619C379.291 217.619 379.759 217.737 380.138 217.972C380.52 218.206 380.808 218.521 381.001 218.915C381.198 219.305 381.297 219.735 381.297 220.205V220.818C381.297 221.284 381.198 221.714 381.001 222.108C380.804 222.498 380.515 222.811 380.132 223.045C379.75 223.284 379.284 223.403 378.734 223.403C378.178 223.403 377.71 223.284 377.331 223.045C376.952 222.811 376.664 222.498 376.467 222.108C376.27 221.714 376.172 221.284 376.172 220.818ZM377.825 220.205V220.818C377.825 221.087 377.89 221.341 378.018 221.58C378.151 221.818 378.39 221.938 378.734 221.938C379.079 221.938 379.314 221.82 379.439 221.585C379.568 221.35 379.632 221.095 379.632 220.818V220.205C379.632 219.928 379.571 219.67 379.45 219.432C379.329 219.193 379.09 219.074 378.734 219.074C378.393 219.074 378.157 219.193 378.024 219.432C377.892 219.67 377.825 219.928 377.825 220.205ZM370.2 214.159V213.545C370.2 213.076 370.301 212.646 370.501 212.256C370.702 211.862 370.992 211.547 371.371 211.312C371.753 211.078 372.215 210.96 372.757 210.96C373.318 210.96 373.787 211.078 374.166 211.312C374.545 211.547 374.833 211.862 375.03 212.256C375.227 212.646 375.325 213.076 375.325 213.545V214.159C375.325 214.629 375.225 215.059 375.024 215.449C374.827 215.839 374.537 216.152 374.155 216.386C373.776 216.617 373.31 216.733 372.757 216.733C372.204 216.733 371.736 216.616 371.354 216.381C370.975 216.142 370.687 215.83 370.49 215.443C370.297 215.053 370.2 214.625 370.2 214.159ZM371.865 213.545V214.159C371.865 214.436 371.929 214.691 372.058 214.926C372.191 215.161 372.424 215.278 372.757 215.278C373.106 215.278 373.342 215.161 373.467 214.926C373.596 214.691 373.661 214.436 373.661 214.159V213.545C373.661 213.269 373.6 213.011 373.479 212.773C373.357 212.534 373.117 212.415 372.757 212.415C372.42 212.415 372.187 212.536 372.058 212.778C371.929 213.021 371.865 213.277 371.865 213.545ZM370.95 223L378.95 211.364H380.439L372.439 223H370.95Z" fill="white"/>
<line x1="32.5" y1="111.632" x2="478.5" y2="111.632" stroke="#FDD3B8"/>
<path d="M38.125 88.1323H34.0852V75.0414H38.304C39.5739 75.0414 40.6605 75.3035 41.5639 75.8276C42.4673 76.3475 43.1598 77.0954 43.6413 78.0712C44.1229 79.0428 44.3636 80.2062 44.3636 81.5613C44.3636 82.9249 44.1207 84.0989 43.6349 85.0833C43.1491 86.0634 42.4418 86.8177 41.5128 87.3461C40.5838 87.8703 39.4545 88.1323 38.125 88.1323ZM35.6705 86.7261H38.0227C39.1051 86.7261 40.0021 86.5173 40.7138 86.0997C41.4254 85.682 41.956 85.0876 42.3054 84.3163C42.6548 83.545 42.8295 82.6266 42.8295 81.5613C42.8295 80.5045 42.657 79.5947 42.3118 78.8319C41.9666 78.0649 41.451 77.4768 40.7649 77.0677C40.0788 76.6543 39.2244 76.4477 38.2017 76.4477H35.6705V86.7261ZM50.8068 88.3369C49.9205 88.3369 49.1428 88.1259 48.4737 87.7041C47.8089 87.2822 47.2891 86.692 46.9141 85.9335C46.5433 85.1749 46.358 84.2886 46.358 83.2744C46.358 82.2516 46.5433 81.3589 46.9141 80.5961C47.2891 79.8333 47.8089 79.241 48.4737 78.8191C49.1428 78.3972 49.9205 78.1863 50.8068 78.1863C51.6932 78.1863 52.4688 78.3972 53.1335 78.8191C53.8026 79.241 54.3224 79.8333 54.6932 80.5961C55.0682 81.3589 55.2557 82.2516 55.2557 83.2744C55.2557 84.2886 55.0682 85.1749 54.6932 85.9335C54.3224 86.692 53.8026 87.2822 53.1335 87.7041C52.4688 88.1259 51.6932 88.3369 50.8068 88.3369ZM50.8068 86.9818C51.4801 86.9818 52.0341 86.8092 52.4688 86.464C52.9034 86.1188 53.2251 85.665 53.4339 85.1025C53.6428 84.54 53.7472 83.9306 53.7472 83.2744C53.7472 82.6181 53.6428 82.0066 53.4339 81.4399C53.2251 80.8731 52.9034 80.415 52.4688 80.0656C52.0341 79.7161 51.4801 79.5414 50.8068 79.5414C50.1335 79.5414 49.5795 79.7161 49.1449 80.0656C48.7102 80.415 48.3885 80.8731 48.1797 81.4399C47.9709 82.0066 47.8665 82.6181 47.8665 83.2744C47.8665 83.9306 47.9709 84.54 48.1797 85.1025C48.3885 85.665 48.7102 86.1188 49.1449 86.464C49.5795 86.8092 50.1335 86.9818 50.8068 86.9818ZM63.5925 91.8141C63.3368 91.8141 63.1088 91.7928 62.9086 91.7502C62.7083 91.7119 62.5698 91.6735 62.4931 91.6352L62.8766 90.3056C63.2431 90.3994 63.5669 90.4335 63.8482 90.4079C64.1294 90.3823 64.3787 90.2566 64.5961 90.0308C64.8176 89.8092 65.0201 89.4491 65.2033 88.9505L65.4846 88.1835L61.8539 78.3141H63.4902L66.2005 86.138H66.3027L69.013 78.3141H70.6493L66.4817 89.5641C66.2942 90.0712 66.062 90.491 65.785 90.8234C65.508 91.16 65.1863 91.4093 64.8198 91.5712C64.4576 91.7332 64.0485 91.8141 63.5925 91.8141ZM76.2775 88.3369C75.3912 88.3369 74.6135 88.1259 73.9444 87.7041C73.2797 87.2822 72.7598 86.692 72.3848 85.9335C72.014 85.1749 71.8287 84.2886 71.8287 83.2744C71.8287 82.2516 72.014 81.3589 72.3848 80.5961C72.7598 79.8333 73.2797 79.241 73.9444 78.8191C74.6135 78.3972 75.3912 78.1863 76.2775 78.1863C77.1639 78.1863 77.9395 78.3972 78.6042 78.8191C79.2733 79.241 79.7931 79.8333 80.1639 80.5961C80.5389 81.3589 80.7264 82.2516 80.7264 83.2744C80.7264 84.2886 80.5389 85.1749 80.1639 85.9335C79.7931 86.692 79.2733 87.2822 78.6042 87.7041C77.9395 88.1259 77.1639 88.3369 76.2775 88.3369ZM76.2775 86.9818C76.9508 86.9818 77.5048 86.8092 77.9395 86.464C78.3741 86.1188 78.6958 85.665 78.9047 85.1025C79.1135 84.54 79.2179 83.9306 79.2179 83.2744C79.2179 82.6181 79.1135 82.0066 78.9047 81.4399C78.6958 80.8731 78.3741 80.415 77.9395 80.0656C77.5048 79.7161 76.9508 79.5414 76.2775 79.5414C75.6042 79.5414 75.0502 79.7161 74.6156 80.0656C74.1809 80.415 73.8592 80.8731 73.6504 81.4399C73.4416 82.0066 73.3372 82.6181 73.3372 83.2744C73.3372 83.9306 73.4416 84.54 73.6504 85.1025C73.8592 85.665 74.1809 86.1188 74.6156 86.464C75.0502 86.8092 75.6042 86.9818 76.2775 86.9818ZM89.2166 84.1181V78.3141H90.7251V88.1323H89.2166V86.4704H89.1143C88.8842 86.969 88.5263 87.393 88.0405 87.7424C87.5547 88.0876 86.9411 88.2602 86.1996 88.2602C85.5859 88.2602 85.0405 88.1259 84.5632 87.8575C84.0859 87.5847 83.7109 87.1756 83.4382 86.6302C83.1655 86.0805 83.0291 85.388 83.0291 84.5528V78.3141H84.5376V84.4505C84.5376 85.1664 84.7379 85.7374 85.1385 86.1636C85.5433 86.5897 86.0589 86.8028 86.6854 86.8028C87.0604 86.8028 87.4418 86.7069 87.8295 86.5151C88.2216 86.3234 88.5497 86.0293 88.8139 85.633C89.0824 85.2367 89.2166 84.7318 89.2166 84.1181ZM98.5506 91.8141V78.3141H100.008V79.8738H100.187C100.298 79.7033 100.451 79.486 100.647 79.2218C100.847 78.9533 101.133 78.7147 101.504 78.5059C101.879 78.2928 102.386 78.1863 103.025 78.1863C103.852 78.1863 104.58 78.393 105.211 78.8063C105.842 79.2197 106.334 79.8056 106.688 80.5641C107.041 81.3227 107.218 82.2176 107.218 83.2488C107.218 84.2886 107.041 85.1899 106.688 85.9526C106.334 86.7112 105.844 87.2992 105.218 87.7168C104.591 88.1302 103.869 88.3369 103.051 88.3369C102.42 88.3369 101.915 88.2325 101.536 88.0237C101.156 87.8106 100.865 87.5698 100.66 87.3014C100.455 87.0286 100.298 86.8028 100.187 86.6238H100.059V91.8141H98.5506ZM100.034 83.2232C100.034 83.9647 100.142 84.6188 100.36 85.1856C100.577 85.7481 100.894 86.1891 101.312 86.5087C101.73 86.8241 102.241 86.9818 102.846 86.9818C103.477 86.9818 104.003 86.8156 104.425 86.4832C104.851 86.1465 105.171 85.6948 105.384 85.1281C105.601 84.557 105.71 83.9221 105.71 83.2232C105.71 82.5329 105.603 81.9107 105.39 81.3568C105.181 80.7985 104.864 80.3575 104.438 80.0336C104.016 79.7055 103.485 79.5414 102.846 79.5414C102.232 79.5414 101.717 79.697 101.299 80.008C100.882 80.3149 100.566 80.7453 100.353 81.2992C100.14 81.8489 100.034 82.4903 100.034 83.2232ZM109.519 88.1323V78.3141H110.977V79.7971H111.079C111.258 79.3113 111.582 78.9171 112.051 78.6146C112.519 78.312 113.048 78.1607 113.636 78.1607C113.747 78.1607 113.885 78.1629 114.051 78.1671C114.218 78.1714 114.343 78.1778 114.428 78.1863V79.7204C114.377 79.7076 114.26 79.6884 114.077 79.6629C113.898 79.633 113.708 79.6181 113.508 79.6181C113.031 79.6181 112.605 79.7183 112.23 79.9185C111.859 80.1146 111.565 80.3873 111.347 80.7367C111.134 81.0819 111.028 81.4761 111.028 81.9193V88.1323H109.519ZM120.034 88.3369C119.088 88.3369 118.272 88.1281 117.586 87.7104C116.904 87.2886 116.378 86.7005 116.007 85.9462C115.641 85.1877 115.458 84.3056 115.458 83.2999C115.458 82.2943 115.641 81.4079 116.007 80.6408C116.378 79.8695 116.894 79.2687 117.554 78.8383C118.219 78.4036 118.994 78.1863 119.881 78.1863C120.392 78.1863 120.897 78.2715 121.396 78.442C121.894 78.6124 122.348 78.8894 122.757 79.2729C123.166 79.6522 123.492 80.1551 123.735 80.7815C123.978 81.4079 124.1 82.1792 124.1 83.0954V83.7346H116.531V82.4306H122.566C122.566 81.8766 122.455 81.3823 122.233 80.9477C122.016 80.513 121.705 80.17 121.3 79.9185C120.899 79.6671 120.426 79.5414 119.881 79.5414C119.28 79.5414 118.76 79.6906 118.321 79.9889C117.887 80.2829 117.552 80.6664 117.318 81.1394C117.083 81.6124 116.966 82.1195 116.966 82.6607V83.5301C116.966 84.2715 117.094 84.9001 117.35 85.4157C117.61 85.9271 117.97 86.317 118.43 86.5854C118.89 86.8497 119.425 86.9818 120.034 86.9818C120.431 86.9818 120.789 86.9264 121.108 86.8156C121.432 86.7005 121.711 86.5301 121.945 86.3042C122.18 86.0741 122.361 85.7886 122.489 85.4477L123.946 85.8568C123.793 86.3511 123.535 86.7857 123.173 87.1607C122.811 87.5315 122.363 87.8212 121.83 88.0301C121.298 88.2346 120.699 88.3369 120.034 88.3369ZM130.767 78.3141V79.5926H125.474V78.3141H130.767ZM127.059 88.1323V76.959C127.059 76.3965 127.191 75.9278 127.455 75.5528C127.72 75.1778 128.063 74.8965 128.485 74.709C128.906 74.5215 129.352 74.4278 129.82 74.4278C130.191 74.4278 130.494 74.4576 130.728 74.5173C130.963 74.5769 131.137 74.6323 131.252 74.6835L130.818 75.9874C130.741 75.9619 130.634 75.9299 130.498 75.8916C130.366 75.8532 130.191 75.834 129.974 75.834C129.475 75.834 129.115 75.9597 128.894 76.2112C128.676 76.4626 128.568 76.8312 128.568 77.317V88.1323H127.059ZM136.593 88.3369C135.647 88.3369 134.831 88.1281 134.145 87.7104C133.463 87.2886 132.937 86.7005 132.566 85.9462C132.199 85.1877 132.016 84.3056 132.016 83.2999C132.016 82.2943 132.199 81.4079 132.566 80.6408C132.937 79.8695 133.452 79.2687 134.113 78.8383C134.778 78.4036 135.553 78.1863 136.439 78.1863C136.951 78.1863 137.456 78.2715 137.954 78.442C138.453 78.6124 138.907 78.8894 139.316 79.2729C139.725 79.6522 140.051 80.1551 140.294 80.7815C140.537 81.4079 140.658 82.1792 140.658 83.0954V83.7346H133.09V82.4306H139.124C139.124 81.8766 139.013 81.3823 138.792 80.9477C138.574 80.513 138.263 80.17 137.858 79.9185C137.458 79.6671 136.985 79.5414 136.439 79.5414C135.839 79.5414 135.319 79.6906 134.88 79.9889C134.445 80.2829 134.111 80.6664 133.876 81.1394C133.642 81.6124 133.525 82.1195 133.525 82.6607V83.5301C133.525 84.2715 133.653 84.9001 133.908 85.4157C134.168 85.9271 134.528 86.317 134.988 86.5854C135.449 86.8497 135.983 86.9818 136.593 86.9818C136.989 86.9818 137.347 86.9264 137.667 86.8156C137.991 86.7005 138.27 86.5301 138.504 86.3042C138.738 86.0741 138.92 85.7886 139.047 85.4477L140.505 85.8568C140.351 86.3511 140.094 86.7857 139.731 87.1607C139.369 87.5315 138.922 87.8212 138.389 88.0301C137.856 88.2346 137.258 88.3369 136.593 88.3369ZM142.953 88.1323V78.3141H144.41V79.7971H144.513C144.692 79.3113 145.015 78.9171 145.484 78.6146C145.953 78.312 146.481 78.1607 147.069 78.1607C147.18 78.1607 147.319 78.1629 147.485 78.1671C147.651 78.1714 147.777 78.1778 147.862 78.1863V79.7204C147.811 79.7076 147.694 79.6884 147.51 79.6629C147.331 79.633 147.142 79.6181 146.942 79.6181C146.464 79.6181 146.038 79.7183 145.663 79.9185C145.292 80.1146 144.998 80.3873 144.781 80.7367C144.568 81.0819 144.461 81.4761 144.461 81.9193V88.1323H142.953ZM160.9 84.1181V78.3141H162.409V88.1323H160.9V86.4704H160.798C160.568 86.969 160.21 87.393 159.724 87.7424C159.238 88.0876 158.625 88.2602 157.883 88.2602C157.27 88.2602 156.724 88.1259 156.247 87.8575C155.77 87.5847 155.395 87.1756 155.122 86.6302C154.849 86.0805 154.713 85.388 154.713 84.5528V78.3141H156.221V84.4505C156.221 85.1664 156.422 85.7374 156.822 86.1636C157.227 86.5897 157.743 86.8028 158.369 86.8028C158.744 86.8028 159.125 86.7069 159.513 86.5151C159.905 86.3234 160.233 86.0293 160.498 85.633C160.766 85.2367 160.9 84.7318 160.9 84.1181ZM172.126 80.513L170.771 80.8965C170.686 80.6707 170.56 80.4512 170.394 80.2381C170.232 80.0208 170.01 79.8418 169.729 79.7012C169.448 79.5606 169.088 79.4903 168.649 79.4903C168.048 79.4903 167.547 79.6288 167.147 79.9058C166.751 80.1785 166.552 80.5258 166.552 80.9477C166.552 81.3227 166.689 81.6188 166.961 81.8362C167.234 82.0535 167.66 82.2346 168.24 82.3795L169.697 82.7374C170.575 82.9505 171.229 83.2765 171.66 83.7154C172.09 84.1501 172.305 84.7104 172.305 85.3965C172.305 85.959 172.143 86.4619 171.819 86.9051C171.5 87.3482 171.052 87.6977 170.477 87.9533C169.902 88.209 169.233 88.3369 168.47 88.3369C167.469 88.3369 166.64 88.1195 165.983 87.6849C165.327 87.2502 164.912 86.6153 164.737 85.7801L166.169 85.4221C166.305 85.9505 166.563 86.3468 166.942 86.611C167.326 86.8752 167.827 87.0073 168.444 87.0073C169.148 87.0073 169.706 86.8582 170.119 86.5599C170.537 86.2573 170.746 85.8951 170.746 85.4732C170.746 85.1323 170.626 84.8468 170.388 84.6167C170.149 84.3823 169.782 84.2076 169.288 84.0926L167.652 83.709C166.753 83.496 166.092 83.1657 165.67 82.7183C165.253 82.2666 165.044 81.7019 165.044 81.0244C165.044 80.4704 165.199 79.9803 165.51 79.5542C165.826 79.1281 166.254 78.7935 166.795 78.5506C167.341 78.3078 167.959 78.1863 168.649 78.1863C169.621 78.1863 170.383 78.3994 170.937 78.8255C171.496 79.2516 171.892 79.8141 172.126 80.513ZM174.576 88.1323V78.3141H176.085V88.1323H174.576ZM175.343 76.6778C175.049 76.6778 174.795 76.5776 174.582 76.3774C174.374 76.1771 174.269 75.9363 174.269 75.6551C174.269 75.3738 174.374 75.133 174.582 74.9327C174.795 74.7325 175.049 74.6323 175.343 74.6323C175.637 74.6323 175.888 74.7325 176.097 74.9327C176.31 75.133 176.417 75.3738 176.417 75.6551C176.417 75.9363 176.31 76.1771 176.097 76.3774C175.888 76.5776 175.637 76.6778 175.343 76.6778ZM180.356 82.2261V88.1323H178.847V78.3141H180.305V79.8482H180.433C180.663 79.3497 181.012 78.9491 181.481 78.6465C181.95 78.3397 182.555 78.1863 183.296 78.1863C183.961 78.1863 184.543 78.3227 185.041 78.5954C185.54 78.8639 185.928 79.2729 186.205 79.8227C186.482 80.3681 186.62 81.0585 186.62 81.8937V88.1323H185.112V81.996C185.112 81.2247 184.911 80.6238 184.511 80.1934C184.11 79.7587 183.561 79.5414 182.862 79.5414C182.38 79.5414 181.95 79.6458 181.57 79.8546C181.195 80.0634 180.899 80.3681 180.682 80.7687C180.465 81.1693 180.356 81.6551 180.356 82.2261ZM193.34 92.0187C192.611 92.0187 191.985 91.9249 191.461 91.7374C190.936 91.5542 190.5 91.3113 190.15 91.0087C189.805 90.7104 189.53 90.3908 189.326 90.0499L190.527 89.2062C190.664 89.3852 190.836 89.5897 191.045 89.8198C191.254 90.0542 191.539 90.2566 191.902 90.4271C192.268 90.6018 192.748 90.6891 193.34 90.6891C194.132 90.6891 194.787 90.4974 195.302 90.1139C195.818 89.7303 196.076 89.1295 196.076 88.3113V86.317H195.948C195.837 86.496 195.679 86.7176 195.475 86.9818C195.275 87.2417 194.985 87.4739 194.605 87.6785C194.23 87.8788 193.723 87.9789 193.084 87.9789C192.292 87.9789 191.58 87.7914 190.949 87.4164C190.323 87.0414 189.826 86.496 189.46 85.7801C189.098 85.0641 188.917 84.1948 188.917 83.1721C188.917 82.1664 189.093 81.2907 189.447 80.545C189.801 79.795 190.293 79.2154 190.924 78.8063C191.554 78.393 192.283 78.1863 193.11 78.1863C193.749 78.1863 194.256 78.2928 194.631 78.5059C195.01 78.7147 195.3 78.9533 195.5 79.2218C195.705 79.486 195.863 79.7033 195.973 79.8738H196.127V78.3141H197.584V88.4136C197.584 89.2573 197.392 89.9434 197.009 90.4718C196.63 91.0045 196.118 91.3944 195.475 91.6416C194.836 91.893 194.124 92.0187 193.34 92.0187ZM193.289 86.6238C193.894 86.6238 194.405 86.4853 194.823 86.2083C195.24 85.9313 195.558 85.5329 195.775 85.013C195.993 84.4931 196.101 83.871 196.101 83.1465C196.101 82.4391 195.995 81.8149 195.782 81.2737C195.569 80.7325 195.253 80.3085 194.836 80.0016C194.418 79.6948 193.902 79.5414 193.289 79.5414C192.65 79.5414 192.117 79.7033 191.691 80.0272C191.269 80.3511 190.951 80.7857 190.738 81.3312C190.529 81.8766 190.425 82.4818 190.425 83.1465C190.425 83.8283 190.532 84.4313 190.745 84.9555C190.962 85.4754 191.282 85.8845 191.703 86.1828C192.13 86.4768 192.658 86.6238 193.289 86.6238ZM208.297 88.3624C207.675 88.3624 207.11 88.2453 206.603 88.0109C206.096 87.7722 205.694 87.4292 205.395 86.9818C205.097 86.5301 204.948 85.9846 204.948 85.3454C204.948 84.7829 205.059 84.3269 205.28 83.9775C205.502 83.6238 205.798 83.3468 206.169 83.1465C206.539 82.9462 206.949 82.7971 207.396 82.6991C207.848 82.5968 208.301 82.5158 208.757 82.4562C209.354 82.3795 209.838 82.322 210.208 82.2836C210.583 82.241 210.856 82.1707 211.027 82.0727C211.201 81.9747 211.289 81.8042 211.289 81.5613V81.5102C211.289 80.8795 211.116 80.3894 210.771 80.04C210.43 79.6906 209.912 79.5158 209.218 79.5158C208.498 79.5158 207.933 79.6735 207.524 79.9889C207.115 80.3042 206.827 80.6408 206.661 80.9988L205.229 80.4874C205.485 79.8908 205.826 79.4264 206.252 79.094C206.682 78.7573 207.151 78.5229 207.658 78.3908C208.169 78.2545 208.672 78.1863 209.167 78.1863C209.482 78.1863 209.844 78.2247 210.253 78.3014C210.667 78.3738 211.065 78.5251 211.449 78.7552C211.836 78.9853 212.158 79.3326 212.414 79.7971C212.669 80.2616 212.797 80.8837 212.797 81.6636V88.1323H211.289V86.8028H211.212C211.11 87.0158 210.939 87.2438 210.701 87.4867C210.462 87.7296 210.145 87.9363 209.748 88.1068C209.352 88.2772 208.868 88.3624 208.297 88.3624ZM208.527 87.0073C209.124 87.0073 209.627 86.8901 210.036 86.6558C210.449 86.4214 210.76 86.1188 210.969 85.7481C211.182 85.3774 211.289 84.9874 211.289 84.5783V83.1977C211.225 83.2744 211.084 83.3447 210.867 83.4086C210.654 83.4683 210.407 83.5215 210.125 83.5684C209.848 83.611 209.578 83.6494 209.314 83.6835C209.054 83.7133 208.843 83.7389 208.681 83.7602C208.289 83.8113 207.922 83.8944 207.581 84.0095C207.245 84.1203 206.972 84.2886 206.763 84.5144C206.559 84.736 206.456 85.0386 206.456 85.4221C206.456 85.9462 206.65 86.3426 207.038 86.611C207.43 86.8752 207.926 87.0073 208.527 87.0073ZM221.738 84.1181V78.3141H223.247V88.1323H221.738V86.4704H221.636C221.406 86.969 221.048 87.393 220.562 87.7424C220.076 88.0876 219.463 88.2602 218.721 88.2602C218.107 88.2602 217.562 88.1259 217.085 87.8575C216.607 87.5847 216.232 87.1756 215.96 86.6302C215.687 86.0805 215.551 85.388 215.551 84.5528V78.3141H217.059V84.4505C217.059 85.1664 217.259 85.7374 217.66 86.1636C218.065 86.5897 218.58 86.8028 219.207 86.8028C219.582 86.8028 219.963 86.7069 220.351 86.5151C220.743 86.3234 221.071 86.0293 221.335 85.633C221.604 85.2367 221.738 84.7318 221.738 84.1181ZM229.717 88.3369C228.899 88.3369 228.176 88.1302 227.55 87.7168C226.924 87.2992 226.434 86.7112 226.08 85.9526C225.726 85.1899 225.549 84.2886 225.549 83.2488C225.549 82.2176 225.726 81.3227 226.08 80.5641C226.434 79.8056 226.926 79.2197 227.556 78.8063C228.187 78.393 228.916 78.1863 229.743 78.1863C230.382 78.1863 230.887 78.2928 231.257 78.5059C231.632 78.7147 231.918 78.9533 232.114 79.2218C232.314 79.486 232.47 79.7033 232.581 79.8738H232.708V75.0414H234.217V88.1323H232.76V86.6238H232.581C232.47 86.8028 232.312 87.0286 232.108 87.3014C231.903 87.5698 231.611 87.8106 231.232 88.0237C230.853 88.2325 230.348 88.3369 229.717 88.3369ZM229.922 86.9818C230.527 86.9818 231.038 86.8241 231.456 86.5087C231.873 86.1891 232.191 85.7481 232.408 85.1856C232.625 84.6188 232.734 83.9647 232.734 83.2232C232.734 82.4903 232.627 81.8489 232.414 81.2992C232.201 80.7453 231.886 80.3149 231.468 80.008C231.051 79.697 230.535 79.5414 229.922 79.5414C229.282 79.5414 228.75 79.7055 228.324 80.0336C227.902 80.3575 227.584 80.7985 227.371 81.3568C227.162 81.9107 227.058 82.5329 227.058 83.2232C227.058 83.9221 227.164 84.557 227.377 85.1281C227.595 85.6948 227.914 86.1465 228.336 86.4832C228.762 86.8156 229.291 86.9818 229.922 86.9818ZM237.189 88.1323V78.3141H238.698V88.1323H237.189ZM237.956 76.6778C237.662 76.6778 237.409 76.5776 237.196 76.3774C236.987 76.1771 236.882 75.9363 236.882 75.6551C236.882 75.3738 236.987 75.133 237.196 74.9327C237.409 74.7325 237.662 74.6323 237.956 74.6323C238.25 74.6323 238.502 74.7325 238.711 74.9327C238.924 75.133 239.03 75.3738 239.03 75.6551C239.03 75.9363 238.924 76.1771 238.711 76.3774C238.502 76.5776 238.25 76.6778 237.956 76.6778ZM245.449 88.3369C244.563 88.3369 243.785 88.1259 243.116 87.7041C242.452 87.2822 241.932 86.692 241.557 85.9335C241.186 85.1749 241.001 84.2886 241.001 83.2744C241.001 82.2516 241.186 81.3589 241.557 80.5961C241.932 79.8333 242.452 79.241 243.116 78.8191C243.785 78.3972 244.563 78.1863 245.449 78.1863C246.336 78.1863 247.111 78.3972 247.776 78.8191C248.445 79.241 248.965 79.8333 249.336 80.5961C249.711 81.3589 249.898 82.2516 249.898 83.2744C249.898 84.2886 249.711 85.1749 249.336 85.9335C248.965 86.692 248.445 87.2822 247.776 87.7041C247.111 88.1259 246.336 88.3369 245.449 88.3369ZM245.449 86.9818C246.123 86.9818 246.677 86.8092 247.111 86.464C247.546 86.1188 247.868 85.665 248.077 85.1025C248.285 84.54 248.39 83.9306 248.39 83.2744C248.39 82.6181 248.285 82.0066 248.077 81.4399C247.868 80.8731 247.546 80.415 247.111 80.0656C246.677 79.7161 246.123 79.5414 245.449 79.5414C244.776 79.5414 244.222 79.7161 243.787 80.0656C243.353 80.415 243.031 80.8731 242.822 81.4399C242.613 82.0066 242.509 82.6181 242.509 83.2744C242.509 83.9306 242.613 84.54 242.822 85.1025C243.031 85.665 243.353 86.1188 243.787 86.464C244.222 86.8092 244.776 86.9818 245.449 86.9818ZM261.227 92.0187C260.498 92.0187 259.871 91.9249 259.347 91.7374C258.823 91.5542 258.386 91.3113 258.037 91.0087C257.692 90.7104 257.417 90.3908 257.212 90.0499L258.414 89.2062C258.55 89.3852 258.723 89.5897 258.932 89.8198C259.141 90.0542 259.426 90.2566 259.788 90.4271C260.155 90.6018 260.634 90.6891 261.227 90.6891C262.019 90.6891 262.673 90.4974 263.189 90.1139C263.705 89.7303 263.962 89.1295 263.962 88.3113V86.317H263.835C263.724 86.496 263.566 86.7176 263.362 86.9818C263.161 87.2417 262.871 87.4739 262.492 87.6785C262.117 87.8788 261.61 87.9789 260.971 87.9789C260.178 87.9789 259.467 87.7914 258.836 87.4164C258.21 87.0414 257.713 86.496 257.347 85.7801C256.984 85.0641 256.803 84.1948 256.803 83.1721C256.803 82.1664 256.98 81.2907 257.334 80.545C257.688 79.795 258.18 79.2154 258.81 78.8063C259.441 78.393 260.17 78.1863 260.996 78.1863C261.636 78.1863 262.143 78.2928 262.518 78.5059C262.897 78.7147 263.187 78.9533 263.387 79.2218C263.592 79.486 263.749 79.7033 263.86 79.8738H264.013V78.3141H265.471V88.4136C265.471 89.2573 265.279 89.9434 264.896 90.4718C264.516 91.0045 264.005 91.3944 263.362 91.6416C262.722 91.893 262.011 92.0187 261.227 92.0187ZM261.175 86.6238C261.781 86.6238 262.292 86.4853 262.71 86.2083C263.127 85.9313 263.445 85.5329 263.662 85.013C263.879 84.4931 263.988 83.871 263.988 83.1465C263.988 82.4391 263.881 81.8149 263.668 81.2737C263.455 80.7325 263.14 80.3085 262.722 80.0016C262.305 79.6948 261.789 79.5414 261.175 79.5414C260.536 79.5414 260.004 79.7033 259.577 80.0272C259.156 80.3511 258.838 80.7857 258.625 81.3312C258.416 81.8766 258.312 82.4818 258.312 83.1465C258.312 83.8283 258.418 84.4313 258.631 84.9555C258.849 85.4754 259.168 85.8845 259.59 86.1828C260.016 86.4768 260.545 86.6238 261.175 86.6238ZM274.42 84.1181V78.3141H275.928V88.1323H274.42V86.4704H274.317C274.087 86.969 273.729 87.393 273.244 87.7424C272.758 88.0876 272.144 88.2602 271.403 88.2602C270.789 88.2602 270.244 88.1259 269.766 87.8575C269.289 87.5847 268.914 87.1756 268.641 86.6302C268.369 86.0805 268.232 85.388 268.232 84.5528V78.3141H269.741V84.4505C269.741 85.1664 269.941 85.7374 270.342 86.1636C270.746 86.5897 271.262 86.8028 271.888 86.8028C272.263 86.8028 272.645 86.7069 273.033 86.5151C273.425 86.3234 273.753 86.0293 274.017 85.633C274.286 85.2367 274.42 84.7318 274.42 84.1181ZM278.691 88.1323V78.3141H280.2V88.1323H278.691ZM279.458 76.6778C279.164 76.6778 278.911 76.5776 278.698 76.3774C278.489 76.1771 278.384 75.9363 278.384 75.6551C278.384 75.3738 278.489 75.133 278.698 74.9327C278.911 74.7325 279.164 74.6323 279.458 74.6323C279.752 74.6323 280.004 74.7325 280.213 74.9327C280.426 75.133 280.532 75.3738 280.532 75.6551C280.532 75.9363 280.426 76.1771 280.213 76.3774C280.004 76.5776 279.752 76.6778 279.458 76.6778ZM286.67 88.3369C285.852 88.3369 285.13 88.1302 284.503 87.7168C283.877 87.2992 283.387 86.7112 283.033 85.9526C282.679 85.1899 282.502 84.2886 282.502 83.2488C282.502 82.2176 282.679 81.3227 283.033 80.5641C283.387 79.8056 283.879 79.2197 284.51 78.8063C285.14 78.393 285.869 78.1863 286.696 78.1863C287.335 78.1863 287.84 78.2928 288.211 78.5059C288.586 78.7147 288.871 78.9533 289.067 79.2218C289.267 79.486 289.423 79.7033 289.534 79.8738H289.662V75.0414H291.17V88.1323H289.713V86.6238H289.534C289.423 86.8028 289.265 87.0286 289.061 87.3014C288.856 87.5698 288.564 87.8106 288.185 88.0237C287.806 88.2325 287.301 88.3369 286.67 88.3369ZM286.875 86.9818C287.48 86.9818 287.991 86.8241 288.409 86.5087C288.826 86.1891 289.144 85.7481 289.361 85.1856C289.578 84.6188 289.687 83.9647 289.687 83.2232C289.687 82.4903 289.581 81.8489 289.368 81.2992C289.154 80.7453 288.839 80.3149 288.422 80.008C288.004 79.697 287.488 79.5414 286.875 79.5414C286.235 79.5414 285.703 79.7055 285.277 80.0336C284.855 80.3575 284.537 80.7985 284.324 81.3568C284.115 81.9107 284.011 82.5329 284.011 83.2232C284.011 83.9221 284.118 84.557 284.331 85.1281C284.548 85.6948 284.868 86.1465 285.289 86.4832C285.716 86.8156 286.244 86.9818 286.875 86.9818ZM298.259 88.3369C297.313 88.3369 296.497 88.1281 295.811 87.7104C295.129 87.2886 294.603 86.7005 294.232 85.9462C293.865 85.1877 293.682 84.3056 293.682 83.2999C293.682 82.2943 293.865 81.4079 294.232 80.6408C294.603 79.8695 295.118 79.2687 295.779 78.8383C296.444 78.4036 297.219 78.1863 298.105 78.1863C298.617 78.1863 299.122 78.2715 299.62 78.442C300.119 78.6124 300.573 78.8894 300.982 79.2729C301.391 79.6522 301.717 80.1551 301.96 80.7815C302.203 81.4079 302.324 82.1792 302.324 83.0954V83.7346H294.756V82.4306H300.79C300.79 81.8766 300.679 81.3823 300.458 80.9477C300.24 80.513 299.929 80.17 299.525 79.9185C299.124 79.6671 298.651 79.5414 298.105 79.5414C297.505 79.5414 296.985 79.6906 296.546 79.9889C296.111 80.2829 295.777 80.6664 295.542 81.1394C295.308 81.6124 295.191 82.1195 295.191 82.6607V83.5301C295.191 84.2715 295.319 84.9001 295.574 85.4157C295.834 85.9271 296.194 86.317 296.654 86.5854C297.115 86.8497 297.65 86.9818 298.259 86.9818C298.655 86.9818 299.013 86.9264 299.333 86.8156C299.657 86.7005 299.936 86.5301 300.17 86.3042C300.404 86.0741 300.586 85.7886 300.713 85.4477L302.171 85.8568C302.017 86.3511 301.76 86.7857 301.397 87.1607C301.035 87.5315 300.588 87.8212 300.055 88.0301C299.522 88.2346 298.924 88.3369 298.259 88.3369ZM313.389 88.3369C312.571 88.3369 311.848 88.1302 311.222 87.7168C310.596 87.2992 310.105 86.7112 309.752 85.9526C309.398 85.1899 309.221 84.2886 309.221 83.2488C309.221 82.2176 309.398 81.3227 309.752 80.5641C310.105 79.8056 310.598 79.2197 311.228 78.8063C311.859 78.393 312.588 78.1863 313.414 78.1863C314.054 78.1863 314.559 78.2928 314.929 78.5059C315.304 78.7147 315.59 78.9533 315.786 79.2218C315.986 79.486 316.142 79.7033 316.252 79.8738H316.38V75.0414H317.889V88.1323H316.431V86.6238H316.252C316.142 86.8028 315.984 87.0286 315.779 87.3014C315.575 87.5698 315.283 87.8106 314.904 88.0237C314.525 88.2325 314.02 88.3369 313.389 88.3369ZM313.593 86.9818C314.199 86.9818 314.71 86.8241 315.127 86.5087C315.545 86.1891 315.863 85.7481 316.08 85.1856C316.297 84.6188 316.406 83.9647 316.406 83.2232C316.406 82.4903 316.299 81.8489 316.086 81.2992C315.873 80.7453 315.558 80.3149 315.14 80.008C314.723 79.697 314.207 79.5414 313.593 79.5414C312.954 79.5414 312.422 79.7055 311.995 80.0336C311.574 80.3575 311.256 80.7985 311.043 81.3568C310.834 81.9107 310.73 82.5329 310.73 83.2232C310.73 83.9221 310.836 84.557 311.049 85.1281C311.267 85.6948 311.586 86.1465 312.008 86.4832C312.434 86.8156 312.963 86.9818 313.593 86.9818ZM327.049 84.1181V78.3141H328.557V88.1323H327.049V86.4704H326.946C326.716 86.969 326.358 87.393 325.873 87.7424C325.387 88.0876 324.773 88.2602 324.032 88.2602C323.418 88.2602 322.873 88.1259 322.395 87.8575C321.918 87.5847 321.543 87.1756 321.27 86.6302C320.998 86.0805 320.861 85.388 320.861 84.5528V78.3141H322.37V84.4505C322.37 85.1664 322.57 85.7374 322.971 86.1636C323.375 86.5897 323.891 86.8028 324.517 86.8028C324.892 86.8028 325.274 86.7069 325.662 86.5151C326.054 86.3234 326.382 86.0293 326.646 85.633C326.914 85.2367 327.049 84.7318 327.049 84.1181ZM331.32 88.1323V78.3141H332.778V79.7971H332.88C333.059 79.3113 333.383 78.9171 333.851 78.6146C334.32 78.312 334.849 78.1607 335.437 78.1607C335.547 78.1607 335.686 78.1629 335.852 78.1671C336.018 78.1714 336.144 78.1778 336.229 78.1863V79.7204C336.178 79.7076 336.061 79.6884 335.878 79.6629C335.699 79.633 335.509 79.6181 335.309 79.6181C334.831 79.6181 334.405 79.7183 334.03 79.9185C333.66 80.1146 333.366 80.3873 333.148 80.7367C332.935 81.0819 332.829 81.4761 332.829 81.9193V88.1323H331.32ZM338.017 88.1323V78.3141H339.526V88.1323H338.017ZM338.784 76.6778C338.49 76.6778 338.237 76.5776 338.024 76.3774C337.815 76.1771 337.711 75.9363 337.711 75.6551C337.711 75.3738 337.815 75.133 338.024 74.9327C338.237 74.7325 338.49 74.6323 338.784 74.6323C339.078 74.6323 339.33 74.7325 339.539 74.9327C339.752 75.133 339.858 75.3738 339.858 75.6551C339.858 75.9363 339.752 76.1771 339.539 76.3774C339.33 76.5776 339.078 76.6778 338.784 76.6778ZM343.797 82.2261V88.1323H342.289V78.3141H343.746V79.8482H343.874C344.104 79.3497 344.454 78.9491 344.922 78.6465C345.391 78.3397 345.996 78.1863 346.738 78.1863C347.403 78.1863 347.984 78.3227 348.483 78.5954C348.981 78.8639 349.369 79.2729 349.646 79.8227C349.923 80.3681 350.062 81.0585 350.062 81.8937V88.1323H348.553V81.996C348.553 81.2247 348.353 80.6238 347.952 80.1934C347.552 79.7587 347.002 79.5414 346.303 79.5414C345.822 79.5414 345.391 79.6458 345.012 79.8546C344.637 80.0634 344.341 80.3681 344.123 80.7687C343.906 81.1693 343.797 81.6551 343.797 82.2261ZM356.781 92.0187C356.053 92.0187 355.426 91.9249 354.902 91.7374C354.378 91.5542 353.941 91.3113 353.592 91.0087C353.246 90.7104 352.972 90.3908 352.767 90.0499L353.969 89.2062C354.105 89.3852 354.278 89.5897 354.487 89.8198C354.695 90.0542 354.981 90.2566 355.343 90.4271C355.71 90.6018 356.189 90.6891 356.781 90.6891C357.574 90.6891 358.228 90.4974 358.744 90.1139C359.259 89.7303 359.517 89.1295 359.517 88.3113V86.317H359.389C359.278 86.496 359.121 86.7176 358.916 86.9818C358.716 87.2417 358.426 87.4739 358.047 87.6785C357.672 87.8788 357.165 87.9789 356.526 87.9789C355.733 87.9789 355.021 87.7914 354.391 87.4164C353.764 87.0414 353.268 86.496 352.901 85.7801C352.539 85.0641 352.358 84.1948 352.358 83.1721C352.358 82.1664 352.535 81.2907 352.888 80.545C353.242 79.795 353.734 79.2154 354.365 78.8063C354.996 78.393 355.724 78.1863 356.551 78.1863C357.19 78.1863 357.697 78.2928 358.072 78.5059C358.452 78.7147 358.741 78.9533 358.942 79.2218C359.146 79.486 359.304 79.7033 359.415 79.8738H359.568V78.3141H361.026V88.4136C361.026 89.2573 360.834 89.9434 360.45 90.4718C360.071 91.0045 359.56 91.3944 358.916 91.6416C358.277 91.893 357.565 92.0187 356.781 92.0187ZM356.73 86.6238C357.335 86.6238 357.847 86.4853 358.264 86.2083C358.682 85.9313 358.999 85.5329 359.217 85.013C359.434 84.4931 359.543 83.871 359.543 83.1465C359.543 82.4391 359.436 81.8149 359.223 81.2737C359.01 80.7325 358.695 80.3085 358.277 80.0016C357.859 79.6948 357.344 79.5414 356.73 79.5414C356.091 79.5414 355.558 79.7033 355.132 80.0272C354.71 80.3511 354.393 80.7857 354.18 81.3312C353.971 81.8766 353.866 82.4818 353.866 83.1465C353.866 83.8283 353.973 84.4313 354.186 84.9555C354.403 85.4754 354.723 85.8845 355.145 86.1828C355.571 86.4768 356.099 86.6238 356.73 86.6238ZM373.119 78.3141V79.5926H368.031V78.3141H373.119ZM369.514 75.9619H371.023V85.3198C371.023 85.746 371.085 86.0656 371.208 86.2786C371.336 86.4874 371.498 86.6281 371.694 86.7005C371.894 86.7687 372.105 86.8028 372.327 86.8028C372.493 86.8028 372.629 86.7943 372.736 86.7772C372.842 86.7559 372.928 86.7389 372.991 86.7261L373.298 88.0812C373.196 88.1195 373.053 88.1579 372.87 88.1962C372.687 88.2389 372.455 88.2602 372.173 88.2602C371.747 88.2602 371.33 88.1685 370.92 87.9853C370.516 87.8021 370.179 87.5229 369.911 87.1479C369.646 86.7729 369.514 86.2999 369.514 85.7289V75.9619ZM377.108 82.2261V88.1323H375.599V75.0414H377.108V79.8482H377.236C377.466 79.3411 377.811 78.9384 378.271 78.6401C378.736 78.3376 379.354 78.1863 380.125 78.1863C380.794 78.1863 381.38 78.3205 381.883 78.589C382.386 78.8532 382.776 79.2602 383.053 79.8099C383.334 80.3553 383.474 81.0499 383.474 81.8937V88.1323H381.966V81.996C381.966 81.2161 381.763 80.6131 381.359 80.187C380.958 79.7566 380.402 79.5414 379.69 79.5414C379.196 79.5414 378.753 79.6458 378.361 79.8546C377.973 80.0634 377.666 80.3681 377.44 80.7687C377.219 81.1693 377.108 81.6551 377.108 82.2261ZM390.351 88.3369C389.405 88.3369 388.589 88.1281 387.903 87.7104C387.221 87.2886 386.694 86.7005 386.324 85.9462C385.957 85.1877 385.774 84.3056 385.774 83.2999C385.774 82.2943 385.957 81.4079 386.324 80.6408C386.694 79.8695 387.21 79.2687 387.871 78.8383C388.535 78.4036 389.311 78.1863 390.197 78.1863C390.709 78.1863 391.214 78.2715 391.712 78.442C392.211 78.6124 392.665 78.8894 393.074 79.2729C393.483 79.6522 393.809 80.1551 394.052 80.7815C394.295 81.4079 394.416 82.1792 394.416 83.0954V83.7346H386.848V82.4306H392.882C392.882 81.8766 392.771 81.3823 392.55 80.9477C392.332 80.513 392.021 80.17 391.616 79.9185C391.216 79.6671 390.743 79.5414 390.197 79.5414C389.596 79.5414 389.077 79.6906 388.638 79.9889C388.203 80.2829 387.868 80.6664 387.634 81.1394C387.4 81.6124 387.282 82.1195 387.282 82.6607V83.5301C387.282 84.2715 387.41 84.9001 387.666 85.4157C387.926 85.9271 388.286 86.317 388.746 86.5854C389.206 86.8497 389.741 86.9818 390.351 86.9818C390.747 86.9818 391.105 86.9264 391.425 86.8156C391.748 86.7005 392.028 86.5301 392.262 86.3042C392.496 86.0741 392.677 85.7886 392.805 85.4477L394.263 85.8568C394.109 86.3511 393.851 86.7857 393.489 87.1607C393.127 87.5315 392.68 87.8212 392.147 88.0301C391.614 88.2346 391.015 88.3369 390.351 88.3369ZM409.802 78.3141L406.171 88.1323H404.637L401.006 78.3141H402.643L405.353 86.138H405.455L408.165 78.3141H409.802ZM411.793 88.1323V78.3141H413.301V88.1323H411.793ZM412.56 76.6778C412.266 76.6778 412.012 76.5776 411.799 76.3774C411.59 76.1771 411.486 75.9363 411.486 75.6551C411.486 75.3738 411.59 75.133 411.799 74.9327C412.012 74.7325 412.266 74.6323 412.56 74.6323C412.854 74.6323 413.105 74.7325 413.314 74.9327C413.527 75.133 413.634 75.3738 413.634 75.6551C413.634 75.9363 413.527 76.1771 413.314 76.3774C413.105 76.5776 412.854 76.6778 412.56 76.6778ZM423.019 80.513L421.664 80.8965C421.578 80.6707 421.453 80.4512 421.287 80.2381C421.125 80.0208 420.903 79.8418 420.622 79.7012C420.341 79.5606 419.98 79.4903 419.542 79.4903C418.941 79.4903 418.44 79.6288 418.039 79.9058C417.643 80.1785 417.445 80.5258 417.445 80.9477C417.445 81.3227 417.581 81.6188 417.854 81.8362C418.127 82.0535 418.553 82.2346 419.132 82.3795L420.59 82.7374C421.468 82.9505 422.122 83.2765 422.552 83.7154C422.983 84.1501 423.198 84.7104 423.198 85.3965C423.198 85.959 423.036 86.4619 422.712 86.9051C422.392 87.3482 421.945 87.6977 421.37 87.9533C420.794 88.209 420.125 88.3369 419.363 88.3369C418.361 88.3369 417.532 88.1195 416.876 87.6849C416.22 87.2502 415.804 86.6153 415.63 85.7801L417.061 85.4221C417.198 85.9505 417.456 86.3468 417.835 86.611C418.218 86.8752 418.719 87.0073 419.337 87.0073C420.04 87.0073 420.598 86.8582 421.012 86.5599C421.429 86.2573 421.638 85.8951 421.638 85.4732C421.638 85.1323 421.519 84.8468 421.28 84.6167C421.042 84.3823 420.675 84.2076 420.181 84.0926L418.544 83.709C417.645 83.496 416.985 83.1657 416.563 82.7183C416.145 82.2666 415.936 81.7019 415.936 81.0244C415.936 80.4704 416.092 79.9803 416.403 79.5542C416.718 79.1281 417.147 78.7935 417.688 78.5506C418.233 78.3078 418.851 78.1863 419.542 78.1863C420.513 78.1863 421.276 78.3994 421.83 78.8255C422.388 79.2516 422.784 79.8141 423.019 80.513ZM425.469 88.1323V78.3141H426.977V88.1323H425.469ZM426.236 76.6778C425.942 76.6778 425.688 76.5776 425.475 76.3774C425.266 76.1771 425.162 75.9363 425.162 75.6551C425.162 75.3738 425.266 75.133 425.475 74.9327C425.688 74.7325 425.942 74.6323 426.236 74.6323C426.53 74.6323 426.781 74.7325 426.99 74.9327C427.203 75.133 427.309 75.3738 427.309 75.6551C427.309 75.9363 427.203 76.1771 426.99 76.3774C426.781 76.5776 426.53 76.6778 426.236 76.6778ZM434.01 78.3141V79.5926H428.922V78.3141H434.01ZM430.405 75.9619H431.913V85.3198C431.913 85.746 431.975 86.0656 432.099 86.2786C432.227 86.4874 432.388 86.6281 432.585 86.7005C432.785 86.7687 432.996 86.8028 433.217 86.8028C433.384 86.8028 433.52 86.7943 433.626 86.7772C433.733 86.7559 433.818 86.7389 433.882 86.7261L434.189 88.0812C434.087 88.1195 433.944 88.1579 433.761 88.1962C433.577 88.2389 433.345 88.2602 433.064 88.2602C432.638 88.2602 432.22 88.1685 431.811 87.9853C431.406 87.8021 431.07 87.5229 430.801 87.1479C430.537 86.7729 430.405 86.2999 430.405 85.7289V75.9619ZM438.248 84.4505V84.3738C438.256 83.5599 438.342 82.9122 438.504 82.4306C438.665 81.9491 438.896 81.5592 439.194 81.2609C439.492 80.9626 439.85 80.6877 440.268 80.4363C440.519 80.2829 440.745 80.1018 440.945 79.893C441.146 79.6799 441.303 79.4349 441.418 79.1579C441.538 78.8809 441.597 78.5741 441.597 78.2374C441.597 77.8198 441.499 77.4576 441.303 77.1508C441.107 76.844 440.845 76.6075 440.517 76.4413C440.189 76.2751 439.825 76.192 439.424 76.192C439.075 76.192 438.738 76.2644 438.414 76.4093C438.09 76.5542 437.82 76.7822 437.602 77.0933C437.385 77.4043 437.259 77.8113 437.225 78.3141H435.614C435.648 77.5897 435.836 76.9697 436.177 76.4541C436.522 75.9384 436.976 75.5443 437.538 75.2715C438.105 74.9988 438.734 74.8624 439.424 74.8624C440.174 74.8624 440.826 75.0116 441.38 75.3099C441.938 75.6082 442.369 76.0173 442.671 76.5372C442.978 77.057 443.131 77.6494 443.131 78.3141C443.131 78.7829 443.059 79.2069 442.914 79.5862C442.773 79.9654 442.569 80.3042 442.3 80.6025C442.036 80.9008 441.717 81.165 441.342 81.3951C440.967 81.6295 440.666 81.8766 440.44 82.1366C440.214 82.3923 440.05 82.697 439.948 83.0506C439.846 83.4043 439.79 83.8454 439.782 84.3738V84.4505H438.248ZM439.066 88.2346C438.751 88.2346 438.48 88.1217 438.254 87.8958C438.028 87.67 437.915 87.3994 437.915 87.084C437.915 86.7687 438.028 86.4981 438.254 86.2722C438.48 86.0464 438.751 85.9335 439.066 85.9335C439.381 85.9335 439.652 86.0464 439.878 86.2722C440.104 86.4981 440.217 86.7687 440.217 87.084C440.217 87.2928 440.163 87.4846 440.057 87.6593C439.955 87.834 439.816 87.9747 439.641 88.0812C439.471 88.1835 439.279 88.2346 439.066 88.2346Z" fill="#B4612C"/>
<path d="M37.1484 54H33.5234L39.0469 38H43.4063L48.9219 54H45.2969L41.2891 41.6562H41.1641L37.1484 54ZM36.9219 47.7109H45.4844V50.3516H36.9219V47.7109ZM58.4805 48.8906V42H61.8086V54H58.6133V51.8203H58.4883C58.2174 52.5234 57.7669 53.0885 57.1367 53.5156C56.5117 53.9427 55.7487 54.1563 54.8477 54.1563C54.0456 54.1563 53.3398 53.974 52.7305 53.6094C52.1211 53.2448 51.6445 52.7266 51.3008 52.0547C50.9622 51.3828 50.7904 50.5781 50.7852 49.6406V42H54.1133V49.0469C54.1185 49.7552 54.3086 50.3151 54.6836 50.7266C55.0586 51.138 55.5612 51.3437 56.1914 51.3437C56.5924 51.3437 56.9674 51.2526 57.3164 51.0703C57.6654 50.8828 57.9466 50.6068 58.1602 50.2422C58.3789 49.8776 58.4857 49.4271 58.4805 48.8906ZM68.8926 54.1953C67.9811 54.1953 67.1556 53.9609 66.416 53.4922C65.6816 53.0182 65.0983 52.3229 64.666 51.4062C64.2389 50.4844 64.0254 49.3542 64.0254 48.0156C64.0254 46.6406 64.2467 45.4974 64.6895 44.5859C65.1322 43.6693 65.7207 42.9844 66.4551 42.5313C67.1947 42.0729 68.0046 41.8438 68.8848 41.8438C69.5566 41.8438 70.1165 41.9583 70.5645 42.1875C71.0176 42.4115 71.3822 42.6927 71.6582 43.0312C71.9395 43.3646 72.153 43.6927 72.2988 44.0156H72.4004V38H75.7207V54H72.4395V52.0781H72.2988C72.1426 52.4115 71.9212 52.7422 71.6348 53.0703C71.3535 53.3932 70.9863 53.6615 70.5332 53.875C70.0853 54.0885 69.5384 54.1953 68.8926 54.1953ZM69.9473 51.5469C70.4837 51.5469 70.9368 51.401 71.3066 51.1094C71.6816 50.8125 71.9681 50.3984 72.166 49.8672C72.3691 49.3359 72.4707 48.7135 72.4707 48C72.4707 47.2865 72.3717 46.6667 72.1738 46.1406C71.9759 45.6146 71.6895 45.2083 71.3145 44.9219C70.9395 44.6354 70.4837 44.4922 69.9473 44.4922C69.4004 44.4922 68.9395 44.6406 68.5645 44.9375C68.1895 45.2344 67.9056 45.6458 67.7129 46.1719C67.5202 46.6979 67.4238 47.3073 67.4238 48C67.4238 48.6979 67.5202 49.3151 67.7129 49.8516C67.9108 50.3828 68.1947 50.7995 68.5645 51.1016C68.9395 51.3984 69.4004 51.5469 69.9473 51.5469ZM78.457 54V42H81.7852V54H78.457ZM80.1289 40.4531C79.6341 40.4531 79.2096 40.2891 78.8555 39.9609C78.5065 39.6276 78.332 39.2292 78.332 38.7656C78.332 38.3073 78.5065 37.9141 78.8555 37.5859C79.2096 37.2526 79.6341 37.0859 80.1289 37.0859C80.6237 37.0859 81.0456 37.2526 81.3945 37.5859C81.7487 37.9141 81.9258 38.3073 81.9258 38.7656C81.9258 39.2292 81.7487 39.6276 81.3945 39.9609C81.0456 40.2891 80.6237 40.4531 80.1289 40.4531ZM89.873 54.2344C88.6595 54.2344 87.61 53.9766 86.7246 53.4609C85.8444 52.9401 85.1647 52.2161 84.6855 51.2891C84.2064 50.3568 83.9668 49.276 83.9668 48.0469C83.9668 46.8073 84.2064 45.724 84.6855 44.7969C85.1647 43.8646 85.8444 43.1406 86.7246 42.625C87.61 42.1042 88.6595 41.8438 89.873 41.8438C91.0866 41.8438 92.1335 42.1042 93.0137 42.625C93.8991 43.1406 94.5814 43.8646 95.0605 44.7969C95.5397 45.724 95.7793 46.8073 95.7793 48.0469C95.7793 49.276 95.5397 50.3568 95.0605 51.2891C94.5814 52.2161 93.8991 52.9401 93.0137 53.4609C92.1335 53.9766 91.0866 54.2344 89.873 54.2344ZM89.8887 51.6562C90.4408 51.6562 90.9017 51.5 91.2715 51.1875C91.6413 50.8698 91.9199 50.4375 92.1074 49.8906C92.3001 49.3437 92.3965 48.7214 92.3965 48.0234C92.3965 47.3255 92.3001 46.7031 92.1074 46.1562C91.9199 45.6094 91.6413 45.1771 91.2715 44.8594C90.9017 44.5417 90.4408 44.3828 89.8887 44.3828C89.3314 44.3828 88.8626 44.5417 88.4824 44.8594C88.1074 45.1771 87.8236 45.6094 87.6309 46.1562C87.4434 46.7031 87.3496 47.3255 87.3496 48.0234C87.3496 48.7214 87.4434 49.3437 87.6309 49.8906C87.8236 50.4375 88.1074 50.8698 88.4824 51.1875C88.8626 51.5 89.3314 51.6562 89.8887 51.6562ZM102.488 40.7891V38H115.629V40.7891H110.73V54H107.387V40.7891H102.488ZM121.412 54.2344C120.199 54.2344 119.149 53.9766 118.264 53.4609C117.383 52.9401 116.704 52.2161 116.225 51.2891C115.745 50.3568 115.506 49.276 115.506 48.0469C115.506 46.8073 115.745 45.724 116.225 44.7969C116.704 43.8646 117.383 43.1406 118.264 42.625C119.149 42.1042 120.199 41.8438 121.412 41.8438C122.626 41.8438 123.673 42.1042 124.553 42.625C125.438 43.1406 126.12 43.8646 126.6 44.7969C127.079 45.724 127.318 46.8073 127.318 48.0469C127.318 49.276 127.079 50.3568 126.6 51.2891C126.12 52.2161 125.438 52.9401 124.553 53.4609C123.673 53.9766 122.626 54.2344 121.412 54.2344ZM121.428 51.6562C121.98 51.6562 122.441 51.5 122.811 51.1875C123.18 50.8698 123.459 50.4375 123.646 49.8906C123.839 49.3437 123.936 48.7214 123.936 48.0234C123.936 47.3255 123.839 46.7031 123.646 46.1562C123.459 45.6094 123.18 45.1771 122.811 44.8594C122.441 44.5417 121.98 44.3828 121.428 44.3828C120.87 44.3828 120.402 44.5417 120.021 44.8594C119.646 45.1771 119.363 45.6094 119.17 46.1562C118.982 46.7031 118.889 47.3255 118.889 48.0234C118.889 48.7214 118.982 49.3437 119.17 49.8906C119.363 50.4375 119.646 50.8698 120.021 51.1875C120.402 51.5 120.87 51.6562 121.428 51.6562ZM137.178 48.8906V42H140.506V54H137.311V51.8203H137.186C136.915 52.5234 136.464 53.0885 135.834 53.5156C135.209 53.9427 134.446 54.1563 133.545 54.1563C132.743 54.1563 132.037 53.974 131.428 53.6094C130.818 53.2448 130.342 52.7266 129.998 52.0547C129.66 51.3828 129.488 50.5781 129.482 49.6406V42H132.811V49.0469C132.816 49.7552 133.006 50.3151 133.381 50.7266C133.756 51.138 134.258 51.3437 134.889 51.3437C135.29 51.3437 135.665 51.2526 136.014 51.0703C136.363 50.8828 136.644 50.6068 136.857 50.2422C137.076 49.8776 137.183 49.4271 137.178 48.8906ZM143.168 54V42H146.395V44.0937H146.52C146.738 43.349 147.105 42.7865 147.621 42.4063C148.137 42.0208 148.73 41.8281 149.402 41.8281C149.569 41.8281 149.749 41.8385 149.941 41.8594C150.134 41.8802 150.303 41.9089 150.449 41.9453V44.8984C150.293 44.8516 150.077 44.8099 149.801 44.7734C149.525 44.737 149.272 44.7188 149.043 44.7188C148.553 44.7188 148.116 44.8255 147.73 45.0391C147.35 45.2474 147.048 45.5391 146.824 45.9141C146.605 46.2891 146.496 46.7214 146.496 47.2109V54H143.168Z" fill="#602C0B"/>
<defs>
<filter id="filter0_d_228_1015" x="16" y="0" width="522" height="528" filterUnits="userSpaceOnUse" color-interpolation-filters="sRGB">
<feFlood flood-opacity="0" result="BackgroundImageFix"/>
<feColorMatrix in="SourceAlpha" type="matrix" values="0 0 0 0 0 0 0 0 0 0 0 0 0 0 0 0 0 0 127 0" result="hardAlpha"/>
<feOffset dy="2"/>
<feGaussianBlur stdDeviation="3"/>
<feComposite in2="hardAlpha" operator="out"/>
<feColorMatrix type="matrix" values="0 0 0 0 0.0509804 0 0 0 0 0.0392157 0 0 0 0 0.172549 0 0 0 0.08 0"/>
<feBlend mode="normal" in2="BackgroundImageFix" result="effect1_dropShadow_228_1015"/>
<feBlend mode="normal" in="SourceGraphic" in2="effect1_dropShadow_228_1015" result="shape"/>
</filter>
</defs>
</svg>
