<svg width="1056" height="496" viewBox="0 0 1056 496" fill="none" xmlns="http://www.w3.org/2000/svg">
<g filter="url(#filter0_d_228_620)">
<rect x="6" y="4" width="1044" height="483.132" rx="20" fill="white"/>
<rect x="6.5" y="4.5" width="1043" height="482.132" rx="19.5" stroke="#FFF3EE"/>
</g>
<path d="M63.8888 433.336C63.0877 433.336 62.3675 433.183 61.7283 432.876C61.0934 432.565 60.5863 432.139 60.207 431.598C59.8278 431.056 59.6254 430.438 59.5998 429.744H61.5174C61.5643 430.306 61.8136 430.769 62.2653 431.131C62.717 431.493 63.2582 431.674 63.8888 431.674C64.3917 431.674 64.837 431.559 65.2248 431.329C65.6168 431.095 65.9237 430.773 66.1452 430.364C66.3711 429.955 66.484 429.488 66.484 428.964C66.484 428.431 66.369 427.956 66.1388 427.539C65.9087 427.121 65.5913 426.793 65.1864 426.554C64.7859 426.316 64.3256 426.194 63.8058 426.19C63.4094 426.19 63.011 426.258 62.6104 426.394C62.2099 426.531 61.886 426.71 61.6388 426.931L59.8299 426.663L60.565 420.066H67.7624V421.76H62.2077L61.7923 425.423H61.869C62.1246 425.176 62.4634 424.969 62.8853 424.803C63.3114 424.637 63.7674 424.554 64.2532 424.554C65.0501 424.554 65.7596 424.743 66.3817 425.122C67.0082 425.502 67.5004 426.019 67.8583 426.676C68.2205 427.328 68.3995 428.078 68.3952 428.926C68.3995 429.774 68.2077 430.53 67.82 431.195C67.4364 431.86 66.9038 432.384 66.2219 432.767C65.5444 433.147 64.7667 433.336 63.8888 433.336ZM70.4551 430.6V429.002L76.112 420.066H77.3713V422.419H76.5723L72.5261 428.823V428.926H80.2797V430.6H70.4551ZM76.6618 433.157V430.115L76.6745 429.386V420.066H78.5474V433.157H76.6618ZM91.1445 430.958V422.316H92.864V430.958H91.1445ZM87.6864 427.494V425.781H96.3285V427.494H87.6864Z" fill="#753710"/>
<path d="M39.7734 363.862V362.264L45.4304 353.328H46.6896V355.68H45.8906L41.8445 362.085V362.187H49.598V363.862H39.7734ZM45.9801 366.419V363.376L45.9929 362.648V353.328H47.8658V366.419H45.9801ZM56.1467 366.598C55.3455 366.598 54.6254 366.445 53.9862 366.138C53.3512 365.827 52.8441 365.4 52.4648 364.859C52.0856 364.318 51.8832 363.7 51.8576 363.006H53.7752C53.8221 363.568 54.0714 364.03 54.5231 364.393C54.9748 364.755 55.516 364.936 56.1467 364.936C56.6495 364.936 57.0948 364.821 57.4826 364.591C57.8746 364.356 58.1815 364.035 58.4031 363.626C58.6289 363.217 58.7418 362.75 58.7418 362.226C58.7418 361.693 58.6268 361.218 58.3967 360.8C58.1665 360.383 57.8491 360.055 57.4442 359.816C57.0437 359.577 56.5835 359.456 56.0636 359.452C55.6673 359.452 55.2688 359.52 54.8683 359.656C54.4677 359.793 54.1438 359.972 53.8967 360.193L52.0877 359.925L52.8228 353.328H60.0202V355.022H54.4656L54.0501 358.685H54.1268C54.3825 358.437 54.7212 358.231 55.1431 358.065C55.5692 357.898 56.0252 357.815 56.511 357.815C57.3079 357.815 58.0174 358.005 58.6396 358.384C59.266 358.763 59.7582 359.281 60.1161 359.937C60.4783 360.589 60.6573 361.339 60.6531 362.187C60.6573 363.035 60.4656 363.792 60.0778 364.457C59.6942 365.121 59.1616 365.646 58.4798 366.029C57.8022 366.408 57.0245 366.598 56.1467 366.598ZM68.7981 359.043V360.704H62.9941V359.043H68.7981ZM75.6408 366.598C74.8397 366.598 74.1195 366.445 73.4803 366.138C72.8453 365.827 72.3382 365.4 71.959 364.859C71.5797 364.318 71.3773 363.7 71.3517 363.006H73.2694C73.3162 363.568 73.5655 364.03 74.0172 364.393C74.4689 364.755 75.0101 364.936 75.6408 364.936C76.1436 364.936 76.589 364.821 76.9767 364.591C77.3688 364.356 77.6756 364.035 77.8972 363.626C78.123 363.217 78.236 362.75 78.236 362.226C78.236 361.693 78.1209 361.218 77.8908 360.8C77.6607 360.383 77.3432 360.055 76.9384 359.816C76.5378 359.577 76.0776 359.456 75.5577 359.452C75.1614 359.452 74.763 359.52 74.3624 359.656C73.9618 359.793 73.638 359.972 73.3908 360.193L71.5819 359.925L72.3169 353.328H79.5144V355.022H73.9597L73.5442 358.685H73.6209C73.8766 358.437 74.2154 358.231 74.6373 358.065C75.0634 357.898 75.5194 357.815 76.0051 357.815C76.802 357.815 77.5115 358.005 78.1337 358.384C78.7601 358.763 79.2523 359.281 79.6103 359.937C79.9725 360.589 80.1515 361.339 80.1472 362.187C80.1515 363.035 79.9597 363.792 79.5719 364.457C79.1884 365.121 78.6557 365.646 77.9739 366.029C77.2963 366.408 76.5186 366.598 75.6408 366.598ZM82.207 363.862V362.264L87.864 353.328H89.1232V355.68H88.3242L84.2781 362.085V362.187H92.0316V363.862H82.207ZM88.4137 366.419V363.376L88.4265 362.648V353.328H90.2994V366.419H88.4137Z" fill="#753710"/>
<path d="M44.1664 299.86C43.2885 299.86 42.5044 299.708 41.8141 299.406C41.128 299.103 40.5847 298.684 40.1841 298.147C39.7878 297.605 39.5748 296.979 39.5449 296.267H41.552C41.5776 296.655 41.7076 296.992 41.9419 297.277C42.1806 297.559 42.4917 297.776 42.8752 297.929C43.2587 298.083 43.6848 298.159 44.1536 298.159C44.6692 298.159 45.1252 298.07 45.5215 297.891C45.9221 297.712 46.2353 297.463 46.4611 297.143C46.687 296.819 46.7999 296.446 46.7999 296.024C46.7999 295.585 46.687 295.2 46.4611 294.867C46.2395 294.531 45.9135 294.267 45.4831 294.075C45.057 293.883 44.5414 293.787 43.9363 293.787H42.8304V292.176H43.9363C44.4221 292.176 44.8482 292.089 45.2147 291.914C45.5854 291.74 45.8752 291.497 46.084 291.186C46.2928 290.87 46.3972 290.502 46.3972 290.08C46.3972 289.675 46.3056 289.323 46.1223 289.025C45.9434 288.723 45.6877 288.486 45.3553 288.316C45.0272 288.145 44.6394 288.06 44.1919 288.06C43.7658 288.06 43.3674 288.139 42.9966 288.296C42.6301 288.45 42.3319 288.671 42.1017 288.961C41.8716 289.247 41.748 289.59 41.731 289.99H39.8198C39.8411 289.283 40.0499 288.661 40.4462 288.124C40.8468 287.587 41.3752 287.167 42.0314 286.865C42.6877 286.562 43.4164 286.411 44.2175 286.411C45.057 286.411 45.7814 286.575 46.3908 286.903C47.0044 287.227 47.4775 287.659 47.8098 288.201C48.1465 288.742 48.3127 289.334 48.3084 289.978C48.3127 290.71 48.1081 291.333 47.6948 291.844C47.2857 292.355 46.7402 292.698 46.0584 292.873V292.975C46.9277 293.108 47.601 293.453 48.0783 294.011C48.5598 294.569 48.7985 295.262 48.7942 296.088C48.7985 296.809 48.5982 297.454 48.1934 298.025C47.7928 298.596 47.2452 299.046 46.5506 299.374C45.856 299.698 45.0613 299.86 44.1664 299.86ZM55.5314 299.86C54.7303 299.86 54.0101 299.706 53.3709 299.399C52.736 299.088 52.2289 298.662 51.8496 298.121C51.4703 297.58 51.2679 296.962 51.2424 296.267H53.16C53.2069 296.83 53.4561 297.292 53.9078 297.654C54.3596 298.017 54.9007 298.198 55.5314 298.198C56.0343 298.198 56.4796 298.083 56.8674 297.853C57.2594 297.618 57.5662 297.296 57.7878 296.887C58.0137 296.478 58.1266 296.012 58.1266 295.487C58.1266 294.955 58.0115 294.48 57.7814 294.062C57.5513 293.644 57.2338 293.316 56.829 293.078C56.4284 292.839 55.9682 292.718 55.4483 292.713C55.052 292.713 54.6536 292.782 54.253 292.918C53.8525 293.054 53.5286 293.233 53.2814 293.455L51.4725 293.186L52.2076 286.59H59.405V288.284H53.8503L53.4348 291.946H53.5115C53.7672 291.699 54.106 291.492 54.5279 291.326C54.954 291.16 55.41 291.077 55.8958 291.077C56.6926 291.077 57.4022 291.267 58.0243 291.646C58.6507 292.025 59.1429 292.543 59.5009 293.199C59.8631 293.851 60.0421 294.601 60.0378 295.449C60.0421 296.297 59.8503 297.054 59.4625 297.718C59.079 298.383 58.5463 298.907 57.8645 299.291C57.187 299.67 56.4093 299.86 55.5314 299.86ZM68.1829 292.304V293.966H62.3789V292.304H68.1829ZM70.4297 297.124V295.526L76.0866 286.59H77.3459V288.942H76.5469L72.5007 295.347V295.449H80.2543V297.124H70.4297ZM76.6364 299.681V296.638L76.6491 295.909V286.59H78.522V299.681H76.6364ZM82.207 297.124V295.526L87.864 286.59H89.1232V288.942H88.3242L84.2781 295.347V295.449H92.0316V297.124H82.207ZM88.4137 299.681V296.638L88.4265 295.909V286.59H90.2994V299.681H88.4137Z" fill="#753710"/>
<path d="M40.5229 232.943V231.512L44.9526 226.922C45.4256 226.423 45.8155 225.987 46.1223 225.612C46.4334 225.232 46.6657 224.872 46.8191 224.531C46.9725 224.191 47.0492 223.828 47.0492 223.445C47.0492 223.01 46.9469 222.635 46.7424 222.32C46.5378 222 46.2587 221.755 45.905 221.585C45.5513 221.41 45.1529 221.323 44.7097 221.323C44.2409 221.323 43.8319 221.419 43.4824 221.61C43.133 221.802 42.8645 222.073 42.677 222.422C42.4895 222.771 42.3958 223.181 42.3958 223.649H40.5101C40.5101 222.852 40.6934 222.156 41.0598 221.559C41.4263 220.963 41.9292 220.5 42.5684 220.172C43.2076 219.84 43.9341 219.673 44.748 219.673C45.5705 219.673 46.2949 219.838 46.9213 220.166C47.552 220.49 48.0442 220.933 48.3979 221.495C48.7516 222.053 48.9284 222.684 48.9284 223.387C48.9284 223.873 48.8368 224.348 48.6536 224.813C48.4746 225.277 48.1614 225.795 47.714 226.366C47.2665 226.933 46.6444 227.621 45.8475 228.431L43.2459 231.154V231.249H49.1394V232.943H40.5229ZM55.883 233.122C55.0819 233.122 54.3617 232.969 53.7225 232.662C53.0875 232.351 52.5804 231.925 52.2012 231.384C51.8219 230.843 51.6195 230.225 51.5939 229.53H53.5115C53.5584 230.093 53.8077 230.555 54.2594 230.917C54.7111 231.279 55.2523 231.46 55.883 231.46C56.3858 231.46 56.8311 231.345 57.2189 231.115C57.611 230.881 57.9178 230.559 58.1394 230.15C58.3652 229.741 58.4782 229.274 58.4782 228.75C58.4782 228.218 58.3631 227.742 58.133 227.325C57.9029 226.907 57.5854 226.579 57.1806 226.34C56.78 226.102 56.3198 225.98 55.7999 225.976C55.4036 225.976 55.0051 226.044 54.6046 226.181C54.204 226.317 53.8801 226.496 53.633 226.718L51.824 226.449L52.5591 219.852H59.7566V221.546H54.2019L53.7864 225.209H53.8631C54.1188 224.962 54.4576 224.755 54.8794 224.589C55.3056 224.423 55.7615 224.34 56.2473 224.34C57.0442 224.34 57.7537 224.529 58.3759 224.909C59.0023 225.288 59.4945 225.806 59.8525 226.462C60.2147 227.114 60.3936 227.864 60.3894 228.712C60.3936 229.56 60.2019 230.316 59.8141 230.981C59.4306 231.646 58.8979 232.17 58.2161 232.553C57.5385 232.933 56.7608 233.122 55.883 233.122ZM68.5344 225.567V227.229H62.7305V225.567H68.5344ZM75.4379 233.122C74.56 233.122 73.7759 232.971 73.0856 232.669C72.3995 232.366 71.8562 231.946 71.4556 231.409C71.0593 230.868 70.8462 230.242 70.8164 229.53H72.8235C72.8491 229.918 72.979 230.254 73.2134 230.54C73.4521 230.821 73.7631 231.039 74.1467 231.192C74.5302 231.345 74.9563 231.422 75.4251 231.422C75.9407 231.422 76.3967 231.333 76.793 231.154C77.1935 230.975 77.5067 230.725 77.7326 230.406C77.9585 230.082 78.0714 229.709 78.0714 229.287C78.0714 228.848 77.9585 228.463 77.7326 228.13C77.511 227.794 77.185 227.529 76.7546 227.338C76.3285 227.146 75.8129 227.05 75.2077 227.05H74.1019V225.439H75.2077C75.6935 225.439 76.1197 225.352 76.4862 225.177C76.8569 225.002 77.1467 224.759 77.3555 224.448C77.5643 224.133 77.6687 223.764 77.6687 223.343C77.6687 222.938 77.5771 222.586 77.3938 222.288C77.2148 221.985 76.9592 221.749 76.6268 221.578C76.2987 221.408 75.9109 221.323 75.4634 221.323C75.0373 221.323 74.6388 221.401 74.2681 221.559C73.9016 221.713 73.6033 221.934 73.3732 222.224C73.1431 222.509 73.0195 222.852 73.0025 223.253H71.0913C71.1126 222.546 71.3214 221.923 71.7177 221.387C72.1183 220.85 72.6467 220.43 73.3029 220.127C73.9592 219.825 74.6879 219.673 75.489 219.673C76.3285 219.673 77.0529 219.838 77.6623 220.166C78.2759 220.49 78.7489 220.922 79.0813 221.463C79.418 222.004 79.5842 222.597 79.5799 223.24C79.5842 223.973 79.3796 224.595 78.9663 225.107C78.5572 225.618 78.0117 225.961 77.3299 226.136V226.238C78.1992 226.37 78.8725 226.715 79.3498 227.274C79.8313 227.832 80.07 228.524 80.0657 229.351C80.07 230.071 79.8697 230.717 79.4648 231.288C79.0643 231.859 78.5167 232.308 77.8221 232.637C77.1275 232.96 76.3327 233.122 75.4379 233.122ZM82.207 230.387V228.789L87.864 219.852H89.1232V222.205H88.3242L84.2781 228.61V228.712H92.0316V230.387H82.207ZM88.4137 232.943V229.901L88.4265 229.172V219.852H90.2994V232.943H88.4137Z" fill="#753710"/>
<path d="M49.0051 153.114V166.205H47.0236V155.096H46.9469L43.8148 157.141V155.249L47.0811 153.114H49.0051ZM56.9696 166.384C56.0534 166.384 55.2438 166.226 54.5407 165.911C53.8418 165.596 53.2942 165.161 52.8979 164.607C52.5016 164.053 52.3056 163.422 52.3098 162.715C52.3056 162.161 52.4185 161.652 52.6486 161.187C52.883 160.719 53.2005 160.329 53.601 160.018C54.0016 159.702 54.449 159.502 54.9434 159.417V159.34C54.2914 159.182 53.7694 158.833 53.3773 158.292C52.9853 157.751 52.7914 157.128 52.7956 156.425C52.7914 155.756 52.9682 155.16 53.3262 154.635C53.6884 154.107 54.1848 153.692 54.8155 153.389C55.4462 153.086 56.1642 152.935 56.9696 152.935C57.7665 152.935 58.4782 153.089 59.1046 153.395C59.7353 153.698 60.2317 154.113 60.5939 154.642C60.9561 155.166 61.1394 155.76 61.1436 156.425C61.1394 157.128 60.9391 157.751 60.5428 158.292C60.1465 158.833 59.6309 159.182 58.9959 159.34V159.417C59.486 159.502 59.927 159.702 60.3191 160.018C60.7154 160.329 61.0307 160.719 61.2651 161.187C61.5037 161.652 61.6252 162.161 61.6294 162.715C61.6252 163.422 61.4249 164.053 61.0286 164.607C60.6323 165.161 60.0826 165.596 59.3794 165.911C58.6806 166.226 57.8773 166.384 56.9696 166.384ZM56.9696 164.767C57.5108 164.767 57.9796 164.677 58.3759 164.498C58.7722 164.315 59.079 164.062 59.2963 163.738C59.5137 163.41 59.6245 163.026 59.6287 162.587C59.6245 162.131 59.5051 161.729 59.2708 161.379C59.0407 161.03 58.7275 160.755 58.3311 160.555C57.9348 160.354 57.481 160.254 56.9696 160.254C56.454 160.254 55.9959 160.354 55.5953 160.555C55.1948 160.755 54.8794 161.03 54.6493 161.379C54.4192 161.729 54.3063 162.131 54.3105 162.587C54.3063 163.026 54.4107 163.41 54.6238 163.738C54.8411 164.062 55.15 164.315 55.5506 164.498C55.9512 164.677 56.4242 164.767 56.9696 164.767ZM56.9696 158.675C57.4043 158.675 57.79 158.588 58.1266 158.413C58.4632 158.238 58.7275 157.996 58.9192 157.684C59.1152 157.373 59.2154 157.009 59.2196 156.591C59.2154 156.182 59.1174 155.824 58.9256 155.518C58.7381 155.211 58.476 154.974 58.1394 154.808C57.8027 154.638 57.4128 154.552 56.9696 154.552C56.5179 154.552 56.1216 154.638 55.7807 154.808C55.4441 154.974 55.182 155.211 54.9945 155.518C54.807 155.824 54.7154 156.182 54.7196 156.591C54.7154 157.009 54.8091 157.373 55.0009 157.684C55.1926 157.996 55.4569 158.238 55.7935 158.413C56.1344 158.588 56.5265 158.675 56.9696 158.675ZM69.7298 158.829V160.491H63.9258V158.829H69.7298ZM71.7241 166.205V164.773L76.1538 160.184C76.6268 159.685 77.0167 159.248 77.3235 158.873C77.6346 158.494 77.8668 158.134 78.0202 157.793C78.1737 157.452 78.2504 157.09 78.2504 156.706C78.2504 156.272 78.1481 155.897 77.9435 155.581C77.739 155.262 77.4599 155.017 77.1062 154.846C76.7525 154.672 76.354 154.584 75.9109 154.584C75.4421 154.584 75.033 154.68 74.6836 154.872C74.3342 155.064 74.0657 155.334 73.8782 155.684C73.6907 156.033 73.5969 156.442 73.5969 156.911H71.7113C71.7113 156.114 71.8945 155.417 72.261 154.821C72.6275 154.224 73.1303 153.762 73.7695 153.434C74.4087 153.101 75.1353 152.935 75.9492 152.935C76.7717 152.935 77.4961 153.099 78.1225 153.427C78.7532 153.751 79.2454 154.194 79.5991 154.757C79.9528 155.315 80.1296 155.946 80.1296 156.649C80.1296 157.135 80.038 157.61 79.8548 158.074C79.6758 158.539 79.3626 159.057 78.9151 159.628C78.4677 160.194 77.8455 160.883 77.0487 161.692L74.4471 164.415V164.511H80.3406V166.205H71.7241ZM82.207 163.648V162.05L87.864 153.114H89.1232V155.466H88.3242L84.2781 161.871V161.974H92.0316V163.648H82.207ZM88.4137 166.205V163.162L88.4265 162.434V153.114H90.2994V166.205H88.4137Z" fill="#753710"/>
<path d="M997.291 433.375C996.281 433.37 995.419 433.104 994.703 432.576C993.987 432.047 993.439 431.278 993.06 430.268C992.681 429.258 992.491 428.041 992.491 426.618C992.491 425.199 992.681 423.987 993.06 422.981C993.443 421.975 993.993 421.208 994.709 420.68C995.429 420.152 996.29 419.887 997.291 419.887C998.293 419.887 999.151 420.154 999.867 420.686C1000.58 421.215 1001.13 421.982 1001.51 422.987C1001.89 423.989 1002.09 425.199 1002.09 426.618C1002.09 428.046 1001.9 429.264 1001.52 430.274C1001.14 431.28 1000.59 432.049 999.874 432.582C999.158 433.11 998.297 433.375 997.291 433.375ZM997.291 431.668C998.178 431.668 998.87 431.235 999.369 430.37C999.872 429.505 1000.12 428.255 1000.12 426.618C1000.12 425.532 1000.01 424.613 999.778 423.863C999.552 423.109 999.226 422.538 998.8 422.15C998.378 421.758 997.875 421.562 997.291 421.562C996.409 421.562 995.717 421.997 995.214 422.866C994.711 423.735 994.458 424.986 994.453 426.618C994.453 427.709 994.566 428.632 994.792 429.386C995.022 430.136 995.348 430.705 995.77 431.093C996.192 431.476 996.699 431.668 997.291 431.668ZM1011.19 430.703V430.012C1011.19 429.518 1011.29 429.066 1011.49 428.657C1011.7 428.244 1012 427.914 1012.4 427.666C1012.8 427.415 1013.28 427.289 1013.85 427.289C1014.43 427.289 1014.92 427.413 1015.31 427.66C1015.7 427.907 1016 428.237 1016.2 428.651C1016.4 429.064 1016.5 429.518 1016.5 430.012V430.703C1016.5 431.197 1016.4 431.651 1016.2 432.064C1015.99 432.473 1015.69 432.804 1015.3 433.055C1014.9 433.302 1014.42 433.426 1013.85 433.426C1013.28 433.426 1012.79 433.302 1012.39 433.055C1012 432.804 1011.7 432.473 1011.49 432.064C1011.29 431.651 1011.19 431.197 1011.19 430.703ZM1012.68 430.012V430.703C1012.68 431.069 1012.76 431.402 1012.94 431.7C1013.11 431.998 1013.42 432.147 1013.85 432.147C1014.28 432.147 1014.58 431.998 1014.75 431.7C1014.92 431.402 1015.01 431.069 1015.01 430.703V430.012C1015.01 429.646 1014.93 429.313 1014.76 429.015C1014.6 428.717 1014.29 428.568 1013.85 428.568C1013.43 428.568 1013.12 428.717 1012.94 429.015C1012.76 429.313 1012.68 429.646 1012.68 430.012ZM1004.6 423.211V422.521C1004.6 422.027 1004.7 421.573 1004.91 421.159C1005.12 420.746 1005.42 420.416 1005.82 420.169C1006.22 419.921 1006.7 419.798 1007.27 419.798C1007.85 419.798 1008.33 419.921 1008.73 420.169C1009.12 420.416 1009.41 420.746 1009.61 421.159C1009.81 421.573 1009.91 422.027 1009.91 422.521V423.211C1009.91 423.706 1009.81 424.159 1009.61 424.573C1009.41 424.982 1009.11 425.312 1008.71 425.563C1008.32 425.811 1007.84 425.934 1007.27 425.934C1006.69 425.934 1006.2 425.811 1005.8 425.563C1005.41 425.312 1005.11 424.982 1004.91 424.573C1004.7 424.159 1004.6 423.706 1004.6 423.211ZM1006.1 422.521V423.211C1006.1 423.578 1006.18 423.91 1006.35 424.208C1006.53 424.507 1006.83 424.656 1007.27 424.656C1007.69 424.656 1007.99 424.507 1008.16 424.208C1008.34 423.91 1008.42 423.578 1008.42 423.211V422.521C1008.42 422.154 1008.34 421.822 1008.18 421.524C1008.01 421.225 1007.71 421.076 1007.27 421.076C1006.84 421.076 1006.54 421.225 1006.36 421.524C1006.19 421.822 1006.1 422.154 1006.1 422.521ZM1005.21 433.157L1014.21 420.066H1015.74L1006.74 433.157H1005.21Z" fill="#753710"/>
<path d="M973.372 353.328V366.419H971.391V355.31H971.314L968.182 357.355V355.463L971.448 353.328H973.372ZM981.471 366.598C980.593 366.598 979.809 366.447 979.119 366.144C978.433 365.842 977.889 365.422 977.489 364.885C977.093 364.344 976.879 363.717 976.85 363.006H978.857C978.882 363.393 979.012 363.73 979.247 364.016C979.485 364.297 979.796 364.514 980.18 364.668C980.563 364.821 980.99 364.898 981.458 364.898C981.974 364.898 982.43 364.808 982.826 364.629C983.227 364.45 983.54 364.201 983.766 363.881C983.992 363.557 984.105 363.185 984.105 362.763C984.105 362.324 983.992 361.938 983.766 361.606C983.544 361.269 983.218 361.005 982.788 360.813C982.362 360.621 981.846 360.525 981.241 360.525H980.135V358.915H981.241C981.727 358.915 982.153 358.827 982.519 358.653C982.89 358.478 983.18 358.235 983.389 357.924C983.597 357.609 983.702 357.24 983.702 356.818C983.702 356.413 983.61 356.062 983.427 355.763C983.248 355.461 982.992 355.224 982.66 355.054C982.332 354.883 981.944 354.798 981.497 354.798C981.07 354.798 980.672 354.877 980.301 355.035C979.935 355.188 979.637 355.41 979.406 355.699C979.176 355.985 979.053 356.328 979.036 356.729H977.124C977.146 356.021 977.355 355.399 977.751 354.862C978.151 354.325 978.68 353.905 979.336 353.603C979.992 353.3 980.721 353.149 981.522 353.149C982.362 353.149 983.086 353.313 983.695 353.641C984.309 353.965 984.782 354.398 985.115 354.939C985.451 355.48 985.617 356.072 985.613 356.716C985.617 357.449 985.413 358.071 984.999 358.582C984.59 359.094 984.045 359.437 983.363 359.611V359.714C984.232 359.846 984.906 360.191 985.383 360.749C985.865 361.307 986.103 362 986.099 362.827C986.103 363.547 985.903 364.192 985.498 364.763C985.097 365.334 984.55 365.784 983.855 366.112C983.161 366.436 982.366 366.598 981.471 366.598ZM989.413 366.54C989.064 366.54 988.763 366.417 988.512 366.17C988.26 365.918 988.135 365.616 988.135 365.262C988.135 364.913 988.26 364.614 988.512 364.367C988.763 364.116 989.064 363.99 989.413 363.99C989.763 363.99 990.063 364.116 990.314 364.367C990.566 364.614 990.692 364.913 990.692 365.262C990.692 365.496 990.632 365.712 990.513 365.908C990.398 366.099 990.244 366.253 990.052 366.368C989.861 366.483 989.648 366.54 989.413 366.54ZM997.309 366.598C996.431 366.598 995.647 366.447 994.957 366.144C994.271 365.842 993.727 365.422 993.327 364.885C992.93 364.344 992.717 363.717 992.688 363.006H994.695C994.72 363.393 994.85 363.73 995.085 364.016C995.323 364.297 995.634 364.514 996.018 364.668C996.401 364.821 996.827 364.898 997.296 364.898C997.812 364.898 998.268 364.808 998.664 364.629C999.065 364.45 999.378 364.201 999.604 363.881C999.83 363.557 999.942 363.185 999.942 362.763C999.942 362.324 999.83 361.938 999.604 361.606C999.382 361.269 999.056 361.005 998.626 360.813C998.2 360.621 997.684 360.525 997.079 360.525H995.973V358.915H997.079C997.565 358.915 997.991 358.827 998.357 358.653C998.728 358.478 999.018 358.235 999.227 357.924C999.435 357.609 999.54 357.24 999.54 356.818C999.54 356.413 999.448 356.062 999.265 355.763C999.086 355.461 998.83 355.224 998.498 355.054C998.17 354.883 997.782 354.798 997.335 354.798C996.908 354.798 996.51 354.877 996.139 355.035C995.773 355.188 995.474 355.41 995.244 355.699C995.014 355.985 994.891 356.328 994.874 356.729H992.962C992.984 356.021 993.192 355.399 993.589 354.862C993.989 354.325 994.518 353.905 995.174 353.603C995.83 353.3 996.559 353.149 997.36 353.149C998.2 353.149 998.924 353.313 999.533 353.641C1000.15 353.965 1000.62 354.398 1000.95 354.939C1001.29 355.48 1001.46 356.072 1001.45 356.716C1001.46 357.449 1001.25 358.071 1000.84 358.582C1000.43 359.094 999.883 359.437 999.201 359.611V359.714C1000.07 359.846 1000.74 360.191 1001.22 360.749C1001.7 361.307 1001.94 362 1001.94 362.827C1001.94 363.547 1001.74 364.192 1001.34 364.763C1000.94 365.334 1000.39 365.784 999.693 366.112C998.999 366.436 998.204 366.598 997.309 366.598ZM1011.19 363.964V363.274C1011.19 362.78 1011.29 362.328 1011.49 361.919C1011.7 361.506 1012 361.175 1012.4 360.928C1012.8 360.677 1013.28 360.551 1013.85 360.551C1014.43 360.551 1014.92 360.675 1015.31 360.922C1015.7 361.169 1016 361.499 1016.2 361.913C1016.4 362.326 1016.5 362.78 1016.5 363.274V363.964C1016.5 364.459 1016.4 364.913 1016.2 365.326C1015.99 365.735 1015.69 366.065 1015.3 366.317C1014.9 366.564 1014.42 366.687 1013.85 366.687C1013.28 366.687 1012.79 366.564 1012.39 366.317C1012 366.065 1011.7 365.735 1011.49 365.326C1011.29 364.913 1011.19 364.459 1011.19 363.964ZM1012.68 363.274V363.964C1012.68 364.331 1012.76 364.663 1012.94 364.962C1013.11 365.26 1013.42 365.409 1013.85 365.409C1014.28 365.409 1014.58 365.26 1014.75 364.962C1014.92 364.663 1015.01 364.331 1015.01 363.964V363.274C1015.01 362.908 1014.93 362.575 1014.76 362.277C1014.6 361.979 1014.29 361.829 1013.85 361.829C1013.43 361.829 1013.12 361.979 1012.94 362.277C1012.76 362.575 1012.68 362.908 1012.68 363.274ZM1004.6 356.473V355.783C1004.6 355.288 1004.7 354.834 1004.91 354.421C1005.12 354.008 1005.42 353.677 1005.82 353.43C1006.22 353.183 1006.7 353.06 1007.27 353.06C1007.85 353.06 1008.33 353.183 1008.73 353.43C1009.12 353.677 1009.41 354.008 1009.61 354.421C1009.81 354.834 1009.91 355.288 1009.91 355.783V356.473C1009.91 356.967 1009.81 357.421 1009.61 357.834C1009.41 358.244 1009.11 358.574 1008.71 358.825C1008.32 359.072 1007.84 359.196 1007.27 359.196C1006.69 359.196 1006.2 359.072 1005.8 358.825C1005.41 358.574 1005.11 358.244 1004.91 357.834C1004.7 357.421 1004.6 356.967 1004.6 356.473ZM1006.1 355.783V356.473C1006.1 356.839 1006.18 357.172 1006.35 357.47C1006.53 357.768 1006.83 357.918 1007.27 357.918C1007.69 357.918 1007.99 357.768 1008.16 357.47C1008.34 357.172 1008.42 356.839 1008.42 356.473V355.783C1008.42 355.416 1008.34 355.084 1008.18 354.785C1008.01 354.487 1007.71 354.338 1007.27 354.338C1006.84 354.338 1006.54 354.487 1006.36 354.785C1006.19 355.084 1006.1 355.416 1006.1 355.783ZM1005.21 366.419L1014.21 353.328H1015.74L1006.74 366.419H1005.21Z" fill="#753710"/>
<path d="M967.281 299.681V298.249L971.71 293.659C972.183 293.161 972.573 292.724 972.88 292.349C973.191 291.97 973.423 291.61 973.577 291.269C973.73 290.928 973.807 290.566 973.807 290.182C973.807 289.747 973.705 289.372 973.5 289.057C973.296 288.737 973.017 288.492 972.663 288.322C972.309 288.147 971.911 288.06 971.468 288.06C970.999 288.06 970.59 288.156 970.24 288.348C969.891 288.539 969.622 288.81 969.435 289.159C969.247 289.509 969.154 289.918 969.154 290.387H967.268C967.268 289.59 967.451 288.893 967.818 288.296C968.184 287.7 968.687 287.237 969.326 286.909C969.965 286.577 970.692 286.411 971.506 286.411C972.328 286.411 973.053 286.575 973.679 286.903C974.31 287.227 974.802 287.67 975.156 288.233C975.509 288.791 975.686 289.421 975.686 290.125C975.686 290.61 975.595 291.085 975.411 291.55C975.232 292.014 974.919 292.532 974.472 293.103C974.024 293.67 973.402 294.358 972.605 295.168L970.004 297.891V297.987H975.897V299.681H967.281ZM982.89 299.86C982.306 299.851 981.731 299.745 981.164 299.54C980.602 299.335 980.09 298.995 979.63 298.517C979.17 298.04 978.801 297.399 978.524 296.593C978.252 295.788 978.115 294.782 978.115 293.576C978.115 292.434 978.228 291.42 978.454 290.534C978.684 289.647 979.014 288.899 979.445 288.29C979.875 287.676 980.395 287.21 981.004 286.89C981.614 286.571 982.298 286.411 983.056 286.411C983.836 286.411 984.529 286.564 985.134 286.871C985.739 287.178 986.229 287.602 986.604 288.143C986.983 288.684 987.224 289.3 987.326 289.99H985.377C985.244 289.445 984.982 289 984.59 288.654C984.198 288.309 983.687 288.137 983.056 288.137C982.097 288.137 981.35 288.554 980.813 289.389C980.28 290.225 980.012 291.386 980.007 292.873H980.103C980.329 292.502 980.606 292.187 980.934 291.927C981.267 291.663 981.637 291.46 982.046 291.32C982.46 291.175 982.894 291.103 983.35 291.103C984.109 291.103 984.795 291.288 985.409 291.659C986.026 292.025 986.519 292.532 986.885 293.18C987.252 293.828 987.435 294.569 987.435 295.404C987.435 296.24 987.245 296.996 986.866 297.674C986.491 298.351 985.963 298.888 985.281 299.284C984.599 299.676 983.802 299.868 982.89 299.86ZM982.884 298.198C983.387 298.198 983.836 298.074 984.232 297.827C984.629 297.58 984.942 297.247 985.172 296.83C985.402 296.412 985.517 295.946 985.517 295.43C985.517 294.927 985.404 294.469 985.178 294.056C984.957 293.642 984.65 293.314 984.258 293.071C983.87 292.828 983.427 292.707 982.928 292.707C982.549 292.707 982.198 292.779 981.874 292.924C981.554 293.069 981.273 293.269 981.03 293.525C980.787 293.781 980.595 294.075 980.455 294.407C980.318 294.735 980.25 295.083 980.25 295.449C980.25 295.939 980.363 296.393 980.589 296.811C980.819 297.228 981.132 297.565 981.529 297.821C981.929 298.072 982.381 298.198 982.884 298.198ZM990.45 299.802C990.101 299.802 989.8 299.679 989.549 299.431C989.298 299.18 989.172 298.877 989.172 298.524C989.172 298.174 989.298 297.876 989.549 297.629C989.8 297.377 990.101 297.252 990.45 297.252C990.8 297.252 991.1 297.377 991.352 297.629C991.603 297.876 991.729 298.174 991.729 298.524C991.729 298.758 991.669 298.973 991.55 299.169C991.435 299.361 991.281 299.514 991.089 299.63C990.898 299.745 990.685 299.802 990.45 299.802ZM994.37 299.681L1000.08 288.38V288.284H993.475V286.59H1002.13V288.341L996.435 299.681H994.37ZM1011.19 297.226V296.536C1011.19 296.041 1011.29 295.59 1011.49 295.181C1011.7 294.767 1012 294.437 1012.4 294.19C1012.8 293.938 1013.28 293.813 1013.85 293.813C1014.43 293.813 1014.92 293.936 1015.31 294.184C1015.7 294.431 1016 294.761 1016.2 295.174C1016.4 295.588 1016.5 296.041 1016.5 296.536V297.226C1016.5 297.72 1016.4 298.174 1016.2 298.588C1015.99 298.997 1015.69 299.327 1015.3 299.578C1014.9 299.826 1014.42 299.949 1013.85 299.949C1013.28 299.949 1012.79 299.826 1012.39 299.578C1012 299.327 1011.7 298.997 1011.49 298.588C1011.29 298.174 1011.19 297.72 1011.19 297.226ZM1012.68 296.536V297.226C1012.68 297.593 1012.76 297.925 1012.94 298.223C1013.11 298.522 1013.42 298.671 1013.85 298.671C1014.28 298.671 1014.58 298.522 1014.75 298.223C1014.92 297.925 1015.01 297.593 1015.01 297.226V296.536C1015.01 296.169 1014.93 295.837 1014.76 295.539C1014.6 295.24 1014.29 295.091 1013.85 295.091C1013.43 295.091 1013.12 295.24 1012.94 295.539C1012.76 295.837 1012.68 296.169 1012.68 296.536ZM1004.6 289.735V289.044C1004.6 288.55 1004.7 288.096 1004.91 287.683C1005.12 287.269 1005.42 286.939 1005.82 286.692C1006.22 286.445 1006.7 286.321 1007.27 286.321C1007.85 286.321 1008.33 286.445 1008.73 286.692C1009.12 286.939 1009.41 287.269 1009.61 287.683C1009.81 288.096 1009.91 288.55 1009.91 289.044V289.735C1009.91 290.229 1009.81 290.683 1009.61 291.096C1009.41 291.505 1009.11 291.835 1008.71 292.087C1008.32 292.334 1007.84 292.458 1007.27 292.458C1006.69 292.458 1006.2 292.334 1005.8 292.087C1005.41 291.835 1005.11 291.505 1004.91 291.096C1004.7 290.683 1004.6 290.229 1004.6 289.735ZM1006.1 289.044V289.735C1006.1 290.101 1006.18 290.434 1006.35 290.732C1006.53 291.03 1006.83 291.179 1007.27 291.179C1007.69 291.179 1007.99 291.03 1008.16 290.732C1008.34 290.434 1008.42 290.101 1008.42 289.735V289.044C1008.42 288.678 1008.34 288.345 1008.18 288.047C1008.01 287.749 1007.71 287.6 1007.27 287.6C1006.84 287.6 1006.54 287.749 1006.36 288.047C1006.19 288.345 1006.1 288.678 1006.1 289.044ZM1005.21 299.681L1014.21 286.59H1015.74L1006.74 299.681H1005.21Z" fill="#753710"/>
<path d="M967.281 232.943V231.512L971.71 226.922C972.183 226.423 972.573 225.987 972.88 225.612C973.191 225.232 973.423 224.872 973.577 224.531C973.73 224.191 973.807 223.828 973.807 223.445C973.807 223.01 973.705 222.635 973.5 222.32C973.296 222 973.017 221.755 972.663 221.585C972.309 221.41 971.911 221.323 971.468 221.323C970.999 221.323 970.59 221.419 970.24 221.61C969.891 221.802 969.622 222.073 969.435 222.422C969.247 222.771 969.154 223.181 969.154 223.649H967.268C967.268 222.852 967.451 222.156 967.818 221.559C968.184 220.963 968.687 220.5 969.326 220.172C969.965 219.84 970.692 219.673 971.506 219.673C972.328 219.673 973.053 219.838 973.679 220.166C974.31 220.49 974.802 220.933 975.156 221.495C975.509 222.053 975.686 222.684 975.686 223.387C975.686 223.873 975.595 224.348 975.411 224.813C975.232 225.277 974.919 225.795 974.472 226.366C974.024 226.933 973.402 227.621 972.605 228.431L970.004 231.154V231.249H975.897V232.943H967.281ZM982.89 233.122C982.306 233.114 981.731 233.007 981.164 232.803C980.602 232.598 980.09 232.257 979.63 231.78C979.17 231.303 978.801 230.661 978.524 229.856C978.252 229.051 978.115 228.045 978.115 226.839C978.115 225.697 978.228 224.683 978.454 223.796C978.684 222.91 979.014 222.162 979.445 221.553C979.875 220.939 980.395 220.472 981.004 220.153C981.614 219.833 982.298 219.673 983.056 219.673C983.836 219.673 984.529 219.827 985.134 220.134C985.739 220.441 986.229 220.865 986.604 221.406C986.983 221.947 987.224 222.563 987.326 223.253H985.377C985.244 222.708 984.982 222.262 984.59 221.917C984.198 221.572 983.687 221.399 983.056 221.399C982.097 221.399 981.35 221.817 980.813 222.652C980.28 223.487 980.012 224.649 980.007 226.136H980.103C980.329 225.765 980.606 225.45 980.934 225.19C981.267 224.926 981.637 224.723 982.046 224.583C982.46 224.438 982.894 224.365 983.35 224.365C984.109 224.365 984.795 224.551 985.409 224.921C986.026 225.288 986.519 225.795 986.885 226.443C987.252 227.09 987.435 227.832 987.435 228.667C987.435 229.502 987.245 230.259 986.866 230.936C986.491 231.614 985.963 232.151 985.281 232.547C984.599 232.939 983.802 233.131 982.89 233.122ZM982.884 231.46C983.387 231.46 983.836 231.337 984.232 231.09C984.629 230.843 984.942 230.51 985.172 230.093C985.402 229.675 985.517 229.208 985.517 228.693C985.517 228.19 985.404 227.732 985.178 227.318C984.957 226.905 984.65 226.577 984.258 226.334C983.87 226.091 983.427 225.97 982.928 225.97C982.549 225.97 982.198 226.042 981.874 226.187C981.554 226.332 981.273 226.532 981.03 226.788C980.787 227.044 980.595 227.338 980.455 227.67C980.318 227.998 980.25 228.345 980.25 228.712C980.25 229.202 980.363 229.656 980.589 230.073C980.819 230.491 981.132 230.828 981.529 231.083C981.929 231.335 982.381 231.46 982.884 231.46ZM990.45 233.065C990.101 233.065 989.8 232.941 989.549 232.694C989.298 232.443 989.172 232.14 989.172 231.786C989.172 231.437 989.298 231.139 989.549 230.892C989.8 230.64 990.101 230.514 990.45 230.514C990.8 230.514 991.1 230.64 991.352 230.892C991.603 231.139 991.729 231.437 991.729 231.786C991.729 232.021 991.669 232.236 991.55 232.432C991.435 232.624 991.281 232.777 991.089 232.892C990.898 233.007 990.685 233.065 990.45 233.065ZM994.37 232.943L1000.08 221.642V221.546H993.475V219.852H1002.13V221.604L996.435 232.943H994.37ZM1011.19 230.489V229.798C1011.19 229.304 1011.29 228.852 1011.49 228.443C1011.7 228.03 1012 227.7 1012.4 227.453C1012.8 227.201 1013.28 227.075 1013.85 227.075C1014.43 227.075 1014.92 227.199 1015.31 227.446C1015.7 227.693 1016 228.024 1016.2 228.437C1016.4 228.85 1016.5 229.304 1016.5 229.798V230.489C1016.5 230.983 1016.4 231.437 1016.2 231.85C1015.99 232.259 1015.69 232.59 1015.3 232.841C1014.9 233.088 1014.42 233.212 1013.85 233.212C1013.28 233.212 1012.79 233.088 1012.39 232.841C1012 232.59 1011.7 232.259 1011.49 231.85C1011.29 231.437 1011.19 230.983 1011.19 230.489ZM1012.68 229.798V230.489C1012.68 230.855 1012.76 231.188 1012.94 231.486C1013.11 231.784 1013.42 231.933 1013.85 231.933C1014.28 231.933 1014.58 231.784 1014.75 231.486C1014.92 231.188 1015.01 230.855 1015.01 230.489V229.798C1015.01 229.432 1014.93 229.1 1014.76 228.801C1014.6 228.503 1014.29 228.354 1013.85 228.354C1013.43 228.354 1013.12 228.503 1012.94 228.801C1012.76 229.1 1012.68 229.432 1012.68 229.798ZM1004.6 222.997V222.307C1004.6 221.813 1004.7 221.359 1004.91 220.945C1005.12 220.532 1005.42 220.202 1005.82 219.955C1006.22 219.708 1006.7 219.584 1007.27 219.584C1007.85 219.584 1008.33 219.708 1008.73 219.955C1009.12 220.202 1009.41 220.532 1009.61 220.945C1009.81 221.359 1009.91 221.813 1009.91 222.307V222.997C1009.91 223.492 1009.81 223.945 1009.61 224.359C1009.41 224.768 1009.11 225.098 1008.71 225.35C1008.32 225.597 1007.84 225.72 1007.27 225.72C1006.69 225.72 1006.2 225.597 1005.8 225.35C1005.41 225.098 1005.11 224.768 1004.91 224.359C1004.7 223.945 1004.6 223.492 1004.6 222.997ZM1006.1 222.307V222.997C1006.1 223.364 1006.18 223.696 1006.35 223.994C1006.53 224.293 1006.83 224.442 1007.27 224.442C1007.69 224.442 1007.99 224.293 1008.16 223.994C1008.34 223.696 1008.42 223.364 1008.42 222.997V222.307C1008.42 221.941 1008.34 221.608 1008.18 221.31C1008.01 221.012 1007.71 220.862 1007.27 220.862C1006.84 220.862 1006.54 221.012 1006.36 221.31C1006.19 221.608 1006.1 221.941 1006.1 222.307ZM1005.21 232.943L1014.21 219.852H1015.74L1006.74 232.943H1005.21Z" fill="#753710"/>
<path d="M969.869 166.384C968.992 166.384 968.208 166.233 967.517 165.93C966.831 165.628 966.288 165.208 965.887 164.671C965.491 164.13 965.278 163.503 965.248 162.792H967.255C967.281 163.18 967.411 163.516 967.645 163.802C967.884 164.083 968.195 164.3 968.578 164.454C968.962 164.607 969.388 164.684 969.857 164.684C970.372 164.684 970.828 164.594 971.225 164.415C971.625 164.236 971.938 163.987 972.164 163.667C972.39 163.344 972.503 162.971 972.503 162.549C972.503 162.11 972.39 161.724 972.164 161.392C971.943 161.055 971.617 160.791 971.186 160.599C970.76 160.407 970.244 160.312 969.639 160.312H968.534V158.701H969.639C970.125 158.701 970.551 158.613 970.918 158.439C971.289 158.264 971.578 158.021 971.787 157.71C971.996 157.395 972.1 157.026 972.1 156.604C972.1 156.199 972.009 155.848 971.825 155.55C971.646 155.247 971.391 155.01 971.058 154.84C970.73 154.67 970.343 154.584 969.895 154.584C969.469 154.584 969.07 154.663 968.7 154.821C968.333 154.974 968.035 155.196 967.805 155.486C967.575 155.771 967.451 156.114 967.434 156.515H965.523C965.544 155.807 965.753 155.185 966.149 154.648C966.55 154.111 967.078 153.692 967.735 153.389C968.391 153.086 969.119 152.935 969.921 152.935C970.76 152.935 971.485 153.099 972.094 153.427C972.708 153.751 973.181 154.184 973.513 154.725C973.85 155.266 974.016 155.858 974.012 156.502C974.016 157.235 973.811 157.857 973.398 158.368C972.989 158.88 972.443 159.223 971.762 159.398V159.5C972.631 159.632 973.304 159.977 973.781 160.535C974.263 161.094 974.502 161.786 974.497 162.613C974.502 163.333 974.301 163.979 973.896 164.55C973.496 165.121 972.948 165.57 972.254 165.898C971.559 166.222 970.764 166.384 969.869 166.384ZM981.471 166.384C980.593 166.384 979.809 166.233 979.119 165.93C978.433 165.628 977.889 165.208 977.489 164.671C977.093 164.13 976.879 163.503 976.85 162.792H978.857C978.882 163.18 979.012 163.516 979.247 163.802C979.485 164.083 979.796 164.3 980.18 164.454C980.563 164.607 980.99 164.684 981.458 164.684C981.974 164.684 982.43 164.594 982.826 164.415C983.227 164.236 983.54 163.987 983.766 163.667C983.992 163.344 984.105 162.971 984.105 162.549C984.105 162.11 983.992 161.724 983.766 161.392C983.544 161.055 983.218 160.791 982.788 160.599C982.362 160.407 981.846 160.312 981.241 160.312H980.135V158.701H981.241C981.727 158.701 982.153 158.613 982.519 158.439C982.89 158.264 983.18 158.021 983.389 157.71C983.597 157.395 983.702 157.026 983.702 156.604C983.702 156.199 983.61 155.848 983.427 155.55C983.248 155.247 982.992 155.01 982.66 154.84C982.332 154.67 981.944 154.584 981.497 154.584C981.07 154.584 980.672 154.663 980.301 154.821C979.935 154.974 979.637 155.196 979.406 155.486C979.176 155.771 979.053 156.114 979.036 156.515H977.124C977.146 155.807 977.355 155.185 977.751 154.648C978.151 154.111 978.68 153.692 979.336 153.389C979.992 153.086 980.721 152.935 981.522 152.935C982.362 152.935 983.086 153.099 983.695 153.427C984.309 153.751 984.782 154.184 985.115 154.725C985.451 155.266 985.617 155.858 985.613 156.502C985.617 157.235 985.413 157.857 984.999 158.368C984.59 158.88 984.045 159.223 983.363 159.398V159.5C984.232 159.632 984.906 159.977 985.383 160.535C985.865 161.094 986.103 161.786 986.099 162.613C986.103 163.333 985.903 163.979 985.498 164.55C985.097 165.121 984.55 165.57 983.855 165.898C983.161 166.222 982.366 166.384 981.471 166.384ZM989.413 166.327C989.064 166.327 988.763 166.203 988.512 165.956C988.26 165.704 988.135 165.402 988.135 165.048C988.135 164.699 988.26 164.4 988.512 164.153C988.763 163.902 989.064 163.776 989.413 163.776C989.763 163.776 990.063 163.902 990.314 164.153C990.566 164.4 990.692 164.699 990.692 165.048C990.692 165.282 990.632 165.498 990.513 165.694C990.398 165.885 990.244 166.039 990.052 166.154C989.861 166.269 989.648 166.327 989.413 166.327ZM997.309 166.384C996.431 166.384 995.647 166.233 994.957 165.93C994.271 165.628 993.727 165.208 993.327 164.671C992.93 164.13 992.717 163.503 992.688 162.792H994.695C994.72 163.18 994.85 163.516 995.085 163.802C995.323 164.083 995.634 164.3 996.018 164.454C996.401 164.607 996.827 164.684 997.296 164.684C997.812 164.684 998.268 164.594 998.664 164.415C999.065 164.236 999.378 163.987 999.604 163.667C999.83 163.344 999.942 162.971 999.942 162.549C999.942 162.11 999.83 161.724 999.604 161.392C999.382 161.055 999.056 160.791 998.626 160.599C998.2 160.407 997.684 160.312 997.079 160.312H995.973V158.701H997.079C997.565 158.701 997.991 158.613 998.357 158.439C998.728 158.264 999.018 158.021 999.227 157.71C999.435 157.395 999.54 157.026 999.54 156.604C999.54 156.199 999.448 155.848 999.265 155.55C999.086 155.247 998.83 155.01 998.498 154.84C998.17 154.67 997.782 154.584 997.335 154.584C996.908 154.584 996.51 154.663 996.139 154.821C995.773 154.974 995.474 155.196 995.244 155.486C995.014 155.771 994.891 156.114 994.874 156.515H992.962C992.984 155.807 993.192 155.185 993.589 154.648C993.989 154.111 994.518 153.692 995.174 153.389C995.83 153.086 996.559 152.935 997.36 152.935C998.2 152.935 998.924 153.099 999.533 153.427C1000.15 153.751 1000.62 154.184 1000.95 154.725C1001.29 155.266 1001.46 155.858 1001.45 156.502C1001.46 157.235 1001.25 157.857 1000.84 158.368C1000.43 158.88 999.883 159.223 999.201 159.398V159.5C1000.07 159.632 1000.74 159.977 1001.22 160.535C1001.7 161.094 1001.94 161.786 1001.94 162.613C1001.94 163.333 1001.74 163.979 1001.34 164.55C1000.94 165.121 1000.39 165.57 999.693 165.898C998.999 166.222 998.204 166.384 997.309 166.384ZM1011.19 163.751V163.06C1011.19 162.566 1011.29 162.114 1011.49 161.705C1011.7 161.292 1012 160.961 1012.4 160.714C1012.8 160.463 1013.28 160.337 1013.85 160.337C1014.43 160.337 1014.92 160.461 1015.31 160.708C1015.7 160.955 1016 161.285 1016.2 161.699C1016.4 162.112 1016.5 162.566 1016.5 163.06V163.751C1016.5 164.245 1016.4 164.699 1016.2 165.112C1015.99 165.521 1015.69 165.851 1015.3 166.103C1014.9 166.35 1014.42 166.474 1013.85 166.474C1013.28 166.474 1012.79 166.35 1012.39 166.103C1012 165.851 1011.7 165.521 1011.49 165.112C1011.29 164.699 1011.19 164.245 1011.19 163.751ZM1012.68 163.06V163.751C1012.68 164.117 1012.76 164.449 1012.94 164.748C1013.11 165.046 1013.42 165.195 1013.85 165.195C1014.28 165.195 1014.58 165.046 1014.75 164.748C1014.92 164.449 1015.01 164.117 1015.01 163.751V163.06C1015.01 162.694 1014.93 162.361 1014.76 162.063C1014.6 161.765 1014.29 161.616 1013.85 161.616C1013.43 161.616 1013.12 161.765 1012.94 162.063C1012.76 162.361 1012.68 162.694 1012.68 163.06ZM1004.6 156.259V155.569C1004.6 155.074 1004.7 154.621 1004.91 154.207C1005.12 153.794 1005.42 153.464 1005.82 153.216C1006.22 152.969 1006.7 152.846 1007.27 152.846C1007.85 152.846 1008.33 152.969 1008.73 153.216C1009.12 153.464 1009.41 153.794 1009.61 154.207C1009.81 154.621 1009.91 155.074 1009.91 155.569V156.259C1009.91 156.753 1009.81 157.207 1009.61 157.621C1009.41 158.03 1009.11 158.36 1008.71 158.611C1008.32 158.858 1007.84 158.982 1007.27 158.982C1006.69 158.982 1006.2 158.858 1005.8 158.611C1005.41 158.36 1005.11 158.03 1004.91 157.621C1004.7 157.207 1004.6 156.753 1004.6 156.259ZM1006.1 155.569V156.259C1006.1 156.626 1006.18 156.958 1006.35 157.256C1006.53 157.555 1006.83 157.704 1007.27 157.704C1007.69 157.704 1007.99 157.555 1008.16 157.256C1008.34 156.958 1008.42 156.626 1008.42 156.259V155.569C1008.42 155.202 1008.34 154.87 1008.18 154.572C1008.01 154.273 1007.71 154.124 1007.27 154.124C1006.84 154.124 1006.54 154.273 1006.36 154.572C1006.19 154.87 1006.1 155.202 1006.1 155.569ZM1005.21 166.205L1014.21 153.114H1015.74L1006.74 166.205H1005.21Z" fill="#753710"/>
<rect x="124.5" y="149.705" width="807" height="20.9517" rx="7.5" fill="#FFF3EE" stroke="#FFF3EE"/>
<rect x="124.5" y="215.467" width="807" height="20.9517" rx="7.5" fill="#FFF3EE" stroke="#FFF3EE"/>
<rect x="124.5" y="282.205" width="807" height="20.9517" rx="7.5" fill="#FFF3EE" stroke="#FFF3EE"/>
<rect x="124.5" y="348.942" width="807" height="20.9517" rx="7.5" fill="#FFF3EE" stroke="#FFF3EE"/>
<rect x="124.5" y="415.681" width="807" height="20.9517" rx="7.5" fill="#FFF3EE" stroke="#FFF3EE"/>
<rect x="124.5" y="215.5" width="99" height="21" rx="7.5" fill="#FDD3B8" stroke="#FFF3EE"/>
<rect x="124.5" y="348.5" width="52" height="21" rx="7.5" fill="#FDD3B8" stroke="#FFF3EE"/>
<rect x="124.5" y="282.5" width="99" height="21" rx="7.5" fill="#FDD3B8" stroke="#FFF3EE"/>
<rect x="124.25" y="415.25" width="0.5" height="21.5" rx="0.25" fill="#FDD3B8" stroke="#FFF3EE" stroke-width="0.5"/>
<rect x="124.5" y="149.5" width="213" height="21" rx="7.5" fill="#FDD3B8" stroke="#FFF3EE"/>
<line x1="38" y1="112.705" x2="1018" y2="112.705" stroke="#FFF3EE"/>
<path d="M1001.31 69.2046V85.2046H997.932V72.4155H997.838L994.174 74.7124V71.7124L998.135 69.2046H1001.31ZM1010.96 85.4233C1009.86 85.4233 1008.87 85.2202 1008.01 84.814C1007.15 84.4077 1006.47 83.8478 1005.96 83.1343C1005.46 82.4207 1005.19 81.603 1005.17 80.6812H1008.45C1008.49 81.3009 1008.75 81.8035 1009.23 82.189C1009.72 82.5744 1010.29 82.7671 1010.96 82.7671C1011.49 82.7671 1011.96 82.6499 1012.37 82.4155C1012.78 82.1759 1013.1 81.8452 1013.33 81.4233C1013.56 80.9963 1013.68 80.5067 1013.68 79.9546C1013.68 79.3921 1013.56 78.8973 1013.32 78.4702C1013.09 78.0431 1012.76 77.7098 1012.34 77.4702C1011.93 77.2306 1011.45 77.1082 1010.91 77.103C1010.45 77.103 1009.99 77.1994 1009.55 77.3921C1009.11 77.5848 1008.77 77.8478 1008.52 78.1812L1005.52 77.6421L1006.27 69.2046H1016.05V71.9702H1009.06L1008.65 75.978H1008.74C1009.02 75.5822 1009.45 75.2541 1010.02 74.9937C1010.58 74.7332 1011.22 74.603 1011.92 74.603C1012.89 74.603 1013.74 74.8296 1014.5 75.2827C1015.26 75.7358 1015.85 76.3582 1016.29 77.1499C1016.73 77.9364 1016.94 78.8426 1016.94 79.8687C1016.94 80.9468 1016.69 81.9051 1016.19 82.7437C1015.69 83.577 1014.99 84.2332 1014.09 84.7124C1013.19 85.1864 1012.15 85.4233 1010.96 85.4233Z" fill="#602C0B"/>
<path d="M972.094 44.5199V43.1137H981.912V44.5199H977.796V56.2046H976.21V44.5199H972.094ZM986.719 56.4091C985.833 56.4091 985.055 56.1982 984.386 55.7763C983.721 55.3544 983.201 54.7642 982.826 54.0057C982.455 53.2472 982.27 52.3608 982.27 51.3466C982.27 50.3239 982.455 49.4312 982.826 48.6684C983.201 47.9056 983.721 47.3133 984.386 46.8914C985.055 46.4695 985.833 46.2586 986.719 46.2586C987.605 46.2586 988.381 46.4695 989.046 46.8914C989.715 47.3133 990.235 47.9056 990.605 48.6684C990.98 49.4312 991.168 50.3239 991.168 51.3466C991.168 52.3608 990.98 53.2472 990.605 54.0057C990.235 54.7642 989.715 55.3544 989.046 55.7763C988.381 56.1982 987.605 56.4091 986.719 56.4091ZM986.719 55.054C987.392 55.054 987.946 54.8814 988.381 54.5363C988.816 54.1911 989.137 53.7373 989.346 53.1748C989.555 52.6123 989.659 52.0029 989.659 51.3466C989.659 50.6904 989.555 50.0789 989.346 49.5121C989.137 48.9454 988.816 48.4873 988.381 48.1378C987.946 47.7884 987.392 47.6137 986.719 47.6137C986.046 47.6137 985.492 47.7884 985.057 48.1378C984.622 48.4873 984.301 48.9454 984.092 49.5121C983.883 50.0789 983.779 50.6904 983.779 51.3466C983.779 52.0029 983.883 52.6123 984.092 53.1748C984.301 53.7373 984.622 54.1911 985.057 54.5363C985.492 54.8814 986.046 55.054 986.719 55.054ZM997.74 46.3864V47.6648H992.652V46.3864H997.74ZM994.135 44.0341H995.644V53.3921C995.644 53.8182 995.706 54.1378 995.829 54.3509C995.957 54.5597 996.119 54.7003 996.315 54.7728C996.515 54.841 996.726 54.875 996.948 54.875C997.114 54.875 997.25 54.8665 997.357 54.8495C997.463 54.8282 997.549 54.8111 997.613 54.7983L997.919 56.1535C997.817 56.1918 997.674 56.2302 997.491 56.2685C997.308 56.3111 997.076 56.3324 996.794 56.3324C996.368 56.3324 995.951 56.2408 995.542 56.0576C995.137 55.8743 994.8 55.5952 994.532 55.2202C994.267 54.8452 994.135 54.3722 994.135 53.8012V44.0341ZM1002.9 56.4347C1002.28 56.4347 1001.71 56.3175 1001.2 56.0831C1000.7 55.8445 1000.3 55.5015 999.997 55.054C999.699 54.6023 999.549 54.0569 999.549 53.4177C999.549 52.8552 999.66 52.3992 999.882 52.0498C1000.1 51.6961 1000.4 51.4191 1000.77 51.2188C1001.14 51.0185 1001.55 50.8694 1002 50.7714C1002.45 50.6691 1002.9 50.5881 1003.36 50.5285C1003.96 50.4517 1004.44 50.3942 1004.81 50.3559C1005.19 50.3133 1005.46 50.2429 1005.63 50.1449C1005.8 50.0469 1005.89 49.8765 1005.89 49.6336V49.5824C1005.89 48.9517 1005.72 48.4617 1005.37 48.1123C1005.03 47.7628 1004.51 47.5881 1003.82 47.5881C1003.1 47.5881 1002.53 47.7458 1002.13 48.0611C1001.72 48.3765 1001.43 48.7131 1001.26 49.0711L999.831 48.5597C1000.09 47.9631 1000.43 47.4986 1000.85 47.1662C1001.28 46.8296 1001.75 46.5952 1002.26 46.4631C1002.77 46.3267 1003.27 46.2586 1003.77 46.2586C1004.08 46.2586 1004.45 46.2969 1004.85 46.3736C1005.27 46.4461 1005.67 46.5973 1006.05 46.8275C1006.44 47.0576 1006.76 47.4049 1007.02 47.8694C1007.27 48.3339 1007.4 48.956 1007.4 49.7358V56.2046H1005.89V54.875H1005.81C1005.71 55.0881 1005.54 55.3161 1005.3 55.559C1005.06 55.8019 1004.75 56.0086 1004.35 56.179C1003.95 56.3495 1003.47 56.4347 1002.9 56.4347ZM1003.13 55.0796C1003.73 55.0796 1004.23 54.9624 1004.64 54.728C1005.05 54.4937 1005.36 54.1911 1005.57 53.8204C1005.78 53.4496 1005.89 53.0597 1005.89 52.6506V51.2699C1005.83 51.3466 1005.69 51.4169 1005.47 51.4809C1005.26 51.5405 1005.01 51.5938 1004.73 51.6407C1004.45 51.6833 1004.18 51.7216 1003.92 51.7557C1003.66 51.7856 1003.44 51.8111 1003.28 51.8324C1002.89 51.8836 1002.52 51.9667 1002.18 52.0817C1001.85 52.1925 1001.57 52.3608 1001.36 52.5867C1001.16 52.8083 1001.06 53.1108 1001.06 53.4944C1001.06 54.0185 1001.25 54.4148 1001.64 54.6833C1002.03 54.9475 1002.53 55.0796 1003.13 55.0796ZM1011.66 43.1137V56.2046H1010.15V43.1137H1011.66ZM1015.52 56.3069C1015.21 56.3069 1014.94 56.1939 1014.71 55.9681C1014.49 55.7422 1014.37 55.4716 1014.37 55.1563C1014.37 54.841 1014.49 54.5704 1014.71 54.3445C1014.94 54.1187 1015.21 54.0057 1015.52 54.0057C1015.84 54.0057 1016.11 54.1187 1016.33 54.3445C1016.56 54.5704 1016.67 54.841 1016.67 55.1563C1016.67 55.3651 1016.62 55.5569 1016.51 55.7316C1016.41 55.9063 1016.27 56.0469 1016.1 56.1535C1015.93 56.2557 1015.74 56.3069 1015.52 56.3069ZM1015.52 49.0199C1015.21 49.0199 1014.94 48.907 1014.71 48.6812C1014.49 48.4553 1014.37 48.1847 1014.37 47.8694C1014.37 47.554 1014.49 47.2834 1014.71 47.0576C1014.94 46.8317 1015.21 46.7188 1015.52 46.7188C1015.84 46.7188 1016.11 46.8317 1016.33 47.0576C1016.56 47.2834 1016.67 47.554 1016.67 47.8694C1016.67 48.0782 1016.62 48.2699 1016.51 48.4446C1016.41 48.6194 1016.27 48.76 1016.1 48.8665C1015.93 48.9688 1015.74 49.0199 1015.52 49.0199Z" fill="#753710"/>
<path d="M42.1484 47H38.5234L44.0469 31H48.4063L53.9219 47H50.2969L46.2891 34.6562H46.1641L42.1484 47ZM41.9219 40.7109H50.4844V43.3516H41.9219V40.7109ZM60.6328 51.75C59.5547 51.75 58.6302 51.6016 57.8594 51.3047C57.0938 51.013 56.4844 50.6146 56.0313 50.1094C55.5781 49.6042 55.2839 49.0365 55.1484 48.4062L58.2266 47.9922C58.3203 48.2318 58.4688 48.4557 58.6719 48.6641C58.875 48.8724 59.1432 49.0391 59.4766 49.1641C59.8151 49.2943 60.2266 49.3594 60.7109 49.3594C61.4349 49.3594 62.0313 49.1823 62.5 48.8281C62.974 48.4792 63.2109 47.8932 63.2109 47.0703V44.875H63.0703C62.9245 45.2083 62.7057 45.5234 62.4141 45.8203C62.1224 46.1172 61.7474 46.3594 61.2891 46.5469C60.8307 46.7344 60.2839 46.8281 59.6484 46.8281C58.7474 46.8281 57.9271 46.6198 57.1875 46.2031C56.4531 45.7812 55.8672 45.138 55.4297 44.2734C54.9974 43.4036 54.7813 42.3047 54.7813 40.9766C54.7813 39.6172 55.0026 38.4818 55.4453 37.5703C55.888 36.6589 56.4766 35.9766 57.2109 35.5234C57.9505 35.0703 58.7604 34.8438 59.6406 34.8438C60.3125 34.8438 60.875 34.9583 61.3281 35.1875C61.7813 35.4115 62.1458 35.6927 62.4219 36.0312C62.7031 36.3646 62.9193 36.6927 63.0703 37.0156H63.1953V35H66.5V47.1172C66.5 48.138 66.25 48.9922 65.75 49.6797C65.25 50.3672 64.5573 50.8828 63.6719 51.2266C62.7917 51.5755 61.7786 51.75 60.6328 51.75ZM60.7031 44.3281C61.2396 44.3281 61.6927 44.1953 62.0625 43.9297C62.4375 43.6589 62.724 43.2734 62.9219 42.7734C63.125 42.2682 63.2266 41.6641 63.2266 40.9609C63.2266 40.2578 63.1276 39.6484 62.9297 39.1328C62.7318 38.612 62.4453 38.2083 62.0703 37.9219C61.6953 37.6354 61.2396 37.4922 60.7031 37.4922C60.1563 37.4922 59.6953 37.6406 59.3203 37.9375C58.9453 38.2292 58.6615 38.6354 58.4688 39.1562C58.276 39.6771 58.1797 40.2786 58.1797 40.9609C58.1797 41.6536 58.276 42.2526 58.4688 42.7578C58.6667 43.2578 58.9505 43.6458 59.3203 43.9219C59.6953 44.1927 60.1563 44.3281 60.7031 44.3281ZM74.6172 47.2344C73.3828 47.2344 72.3203 46.9844 71.4297 46.4844C70.5443 45.9792 69.862 45.2656 69.3828 44.3437C68.9036 43.4167 68.6641 42.3203 68.6641 41.0547C68.6641 39.8203 68.9036 38.737 69.3828 37.8047C69.862 36.8724 70.5365 36.1458 71.4063 35.625C72.2813 35.1042 73.3073 34.8438 74.4844 34.8438C75.276 34.8438 76.013 34.9714 76.6953 35.2266C77.3828 35.4766 77.9818 35.8542 78.4922 36.3594C79.0078 36.8646 79.4089 37.5 79.6953 38.2656C79.9818 39.026 80.125 39.9167 80.125 40.9375V41.8516H69.9922V39.7891H76.9922C76.9922 39.3099 76.888 38.8854 76.6797 38.5156C76.4714 38.1458 76.1823 37.8568 75.8125 37.6484C75.4479 37.4349 75.0234 37.3281 74.5391 37.3281C74.0339 37.3281 73.5859 37.4453 73.1953 37.6797C72.8099 37.9089 72.5078 38.2187 72.2891 38.6094C72.0703 38.9948 71.9583 39.4245 71.9531 39.8984V41.8594C71.9531 42.4531 72.0625 42.9661 72.2813 43.3984C72.5052 43.8307 72.8203 44.1641 73.2266 44.3984C73.6328 44.6328 74.1146 44.75 74.6719 44.75C75.0417 44.75 75.3802 44.6979 75.6875 44.5938C75.9948 44.4896 76.2578 44.3333 76.4766 44.125C76.6953 43.9167 76.862 43.6615 76.9766 43.3594L80.0547 43.5625C79.8984 44.3021 79.5781 44.9479 79.0938 45.5C78.6146 46.0469 77.9948 46.474 77.2344 46.7813C76.4792 47.0833 75.6068 47.2344 74.6172 47.2344Z" fill="#602C0B"/>
<path d="M39.5852 83V69.9091H44.0085C45.0355 69.9091 45.875 70.0945 46.527 70.4652C47.1832 70.8317 47.669 71.3281 47.9844 71.9545C48.2997 72.581 48.4574 73.2798 48.4574 74.0511C48.4574 74.8224 48.2997 75.5234 47.9844 76.1541C47.6733 76.7848 47.1918 77.2876 46.5398 77.6626C45.8878 78.0334 45.0526 78.2188 44.0341 78.2188H40.8636V76.8125H43.983C44.6861 76.8125 45.2507 76.6911 45.6768 76.4482C46.103 76.2053 46.4119 75.8771 46.6037 75.4638C46.7997 75.0462 46.8977 74.5753 46.8977 74.0511C46.8977 73.527 46.7997 73.0582 46.6037 72.6449C46.4119 72.2315 46.1009 71.9077 45.6705 71.6733C45.2401 71.4347 44.669 71.3153 43.9574 71.3153H41.1705V83H39.5852ZM53.6957 83.2301C53.0735 83.2301 52.5089 83.1129 52.0018 82.8786C51.4947 82.6399 51.092 82.2969 50.7937 81.8494C50.4954 81.3977 50.3462 80.8523 50.3462 80.2131C50.3462 79.6506 50.457 79.1946 50.6786 78.8452C50.9002 78.4915 51.1964 78.2145 51.5671 78.0142C51.9379 77.8139 52.3469 77.6648 52.7944 77.5668C53.2461 77.4645 53.6999 77.3835 54.1559 77.3239C54.7525 77.2472 55.2362 77.1896 55.6069 77.1513C55.9819 77.1087 56.2546 77.0384 56.4251 76.9403C56.5998 76.8423 56.6871 76.6719 56.6871 76.429V76.3778C56.6871 75.7472 56.5146 75.2571 56.1694 74.9077C55.8285 74.5582 55.3107 74.3835 54.6161 74.3835C53.896 74.3835 53.3313 74.5412 52.9222 74.8565C52.5131 75.1719 52.2255 75.5085 52.0593 75.8665L50.6275 75.3551C50.8832 74.7585 51.2241 74.294 51.6502 73.9616C52.0806 73.625 52.5494 73.3906 53.0565 73.2585C53.5678 73.1222 54.0707 73.054 54.565 73.054C54.8803 73.054 55.2425 73.0923 55.6516 73.169C56.065 73.2415 56.4634 73.3928 56.8469 73.6229C57.2347 73.853 57.5565 74.2003 57.8121 74.6648C58.0678 75.1293 58.1957 75.7514 58.1957 76.5312V83H56.6871V81.6705H56.6104C56.5082 81.8835 56.3377 82.1115 56.0991 82.3544C55.8604 82.5973 55.543 82.804 55.1467 82.9744C54.7504 83.1449 54.2667 83.2301 53.6957 83.2301ZM53.9258 81.875C54.5224 81.875 55.0252 81.7578 55.4343 81.5234C55.8477 81.2891 56.1587 80.9865 56.3675 80.6158C56.5806 80.245 56.6871 79.8551 56.6871 79.446V78.0653C56.6232 78.142 56.4826 78.2124 56.2653 78.2763C56.0522 78.3359 55.805 78.3892 55.5238 78.4361C55.2468 78.4787 54.9762 78.517 54.712 78.5511C54.4521 78.581 54.2411 78.6065 54.0792 78.6278C53.6871 78.679 53.3207 78.7621 52.9798 78.8771C52.6431 78.9879 52.3704 79.1562 52.1616 79.3821C51.957 79.6037 51.8548 79.9062 51.8548 80.2898C51.8548 80.8139 52.0487 81.2102 52.4364 81.4787C52.8285 81.7429 53.3249 81.875 53.9258 81.875ZM60.949 83V73.1818H62.4064V74.6648H62.5087C62.6877 74.179 63.0115 73.7848 63.4803 73.4822C63.949 73.1797 64.4775 73.0284 65.0655 73.0284C65.1763 73.0284 65.3148 73.0305 65.481 73.0348C65.6472 73.0391 65.7729 73.0455 65.8581 73.054V74.5881C65.807 74.5753 65.6898 74.5561 65.5066 74.5305C65.3276 74.5007 65.138 74.4858 64.9377 74.4858C64.4604 74.4858 64.0343 74.5859 63.6593 74.7862C63.2885 74.9822 62.9945 75.255 62.7772 75.6044C62.5641 75.9496 62.4576 76.3437 62.4576 76.7869V83H60.949ZM72.5314 73.1818V74.4602H67.4434V73.1818H72.5314ZM68.9263 70.8295H70.4348V80.1875C70.4348 80.6136 70.4966 80.9332 70.6202 81.1463C70.748 81.3551 70.91 81.4957 71.106 81.5682C71.3063 81.6364 71.5172 81.6705 71.7388 81.6705C71.905 81.6705 72.0414 81.6619 72.1479 81.6449C72.2544 81.6236 72.3397 81.6065 72.4036 81.5938L72.7104 82.9489C72.6081 82.9872 72.4654 83.0256 72.2821 83.0639C72.0989 83.1065 71.8667 83.1278 71.5854 83.1278C71.1593 83.1278 70.7417 83.0362 70.3326 82.853C69.9277 82.6697 69.5911 82.3906 69.3226 82.0156C69.0584 81.6406 68.9263 81.1676 68.9263 80.5966V70.8295ZM74.8006 83V73.1818H76.3091V83H74.8006ZM75.5676 71.5455C75.2736 71.5455 75.0201 71.4453 74.807 71.245C74.5982 71.0447 74.4938 70.804 74.4938 70.5227C74.4938 70.2415 74.5982 70.0007 74.807 69.8004C75.0201 69.6001 75.2736 69.5 75.5676 69.5C75.8617 69.5 76.1131 69.6001 76.3219 69.8004C76.535 70.0007 76.6415 70.2415 76.6415 70.5227C76.6415 70.804 76.535 71.0447 76.3219 71.245C76.1131 71.4453 75.8617 71.5455 75.5676 71.5455ZM83.0607 83.2045C82.1403 83.2045 81.3477 82.9872 80.6829 82.5526C80.0181 82.1179 79.5067 81.5192 79.1488 80.7564C78.7908 79.9936 78.6119 79.1222 78.6119 78.142C78.6119 77.1449 78.7951 76.2649 79.1616 75.5021C79.5323 74.7351 80.0479 74.1364 80.7085 73.706C81.3732 73.2713 82.1488 73.054 83.0352 73.054C83.7255 73.054 84.3477 73.1818 84.9016 73.4375C85.4556 73.6932 85.9094 74.0511 86.2631 74.5114C86.6168 74.9716 86.8363 75.5085 86.9215 76.1222H85.413C85.2979 75.6747 85.0423 75.2784 84.646 74.9332C84.2539 74.5838 83.7255 74.4091 83.0607 74.4091C82.4727 74.4091 81.957 74.5625 81.5138 74.8693C81.0749 75.1719 80.7319 75.6001 80.4847 76.1541C80.2418 76.7038 80.1204 77.3494 80.1204 78.0909C80.1204 78.8494 80.2397 79.5099 80.4783 80.0724C80.7212 80.6349 81.0621 81.0717 81.5011 81.3828C81.9442 81.6939 82.4641 81.8494 83.0607 81.8494C83.4528 81.8494 83.8086 81.7812 84.1282 81.6449C84.4478 81.5085 84.7184 81.3125 84.94 81.0568C85.1616 80.8011 85.3192 80.4943 85.413 80.1364H86.9215C86.8363 80.7159 86.6254 81.2379 86.2887 81.7024C85.9563 82.1626 85.5153 82.5291 84.9656 82.8018C84.4201 83.0703 83.7852 83.2045 83.0607 83.2045ZM89.1268 83V73.1818H90.6353V83H89.1268ZM89.8938 71.5455C89.5998 71.5455 89.3462 71.4453 89.1332 71.245C88.9244 71.0447 88.82 70.804 88.82 70.5227C88.82 70.2415 88.9244 70.0007 89.1332 69.8004C89.3462 69.6001 89.5998 69.5 89.8938 69.5C90.1879 69.5 90.4393 69.6001 90.6481 69.8004C90.8612 70.0007 90.9677 70.2415 90.9677 70.5227C90.9677 70.804 90.8612 71.0447 90.6481 71.245C90.4393 71.4453 90.1879 71.5455 89.8938 71.5455ZM93.3983 86.6818V73.1818H94.8556V74.7415H95.0346C95.1454 74.571 95.2988 74.3537 95.4949 74.0895C95.6951 73.821 95.9806 73.5824 96.3514 73.3736C96.7264 73.1605 97.2335 73.054 97.8727 73.054C98.6994 73.054 99.4281 73.2607 100.059 73.674C100.689 74.0874 101.182 74.6733 101.535 75.4318C101.889 76.1903 102.066 77.0852 102.066 78.1165C102.066 79.1562 101.889 80.0575 101.535 80.8203C101.182 81.5788 100.692 82.1669 100.065 82.5845C99.4387 82.9979 98.7164 83.2045 97.8983 83.2045C97.2676 83.2045 96.7626 83.1001 96.3833 82.8913C96.0041 82.6783 95.7122 82.4375 95.5076 82.169C95.3031 81.8963 95.1454 81.6705 95.0346 81.4915H94.9068V86.6818H93.3983ZM94.8812 78.0909C94.8812 78.8324 94.9899 79.4865 95.2072 80.0533C95.4245 80.6158 95.742 81.0568 96.1596 81.3764C96.5772 81.6918 97.0886 81.8494 97.6937 81.8494C98.3244 81.8494 98.8507 81.6832 99.2726 81.3509C99.6987 81.0142 100.018 80.5625 100.231 79.9957C100.449 79.4247 100.557 78.7898 100.557 78.0909C100.557 77.4006 100.451 76.7784 100.238 76.2244C100.029 75.6662 99.7115 75.2251 99.2853 74.9013C98.8635 74.5732 98.3329 74.4091 97.6937 74.4091C97.0801 74.4091 96.5645 74.5646 96.1468 74.8757C95.7292 75.1825 95.4139 75.6129 95.2008 76.1669C94.9877 76.7166 94.8812 77.358 94.8812 78.0909ZM107.256 83.2301C106.634 83.2301 106.069 83.1129 105.562 82.8786C105.055 82.6399 104.653 82.2969 104.354 81.8494C104.056 81.3977 103.907 80.8523 103.907 80.2131C103.907 79.6506 104.018 79.1946 104.239 78.8452C104.461 78.4915 104.757 78.2145 105.128 78.0142C105.498 77.8139 105.907 77.6648 106.355 77.5668C106.807 77.4645 107.26 77.3835 107.716 77.3239C108.313 77.2472 108.797 77.1896 109.167 77.1513C109.542 77.1087 109.815 77.0384 109.986 76.9403C110.16 76.8423 110.248 76.6719 110.248 76.429V76.3778C110.248 75.7472 110.075 75.2571 109.73 74.9077C109.389 74.5582 108.871 74.3835 108.177 74.3835C107.456 74.3835 106.892 74.5412 106.483 74.8565C106.074 75.1719 105.786 75.5085 105.62 75.8665L104.188 75.3551C104.444 74.7585 104.785 74.294 105.211 73.9616C105.641 73.625 106.11 73.3906 106.617 73.2585C107.128 73.1222 107.631 73.054 108.126 73.054C108.441 73.054 108.803 73.0923 109.212 73.169C109.626 73.2415 110.024 73.3928 110.407 73.6229C110.795 73.853 111.117 74.2003 111.373 74.6648C111.628 75.1293 111.756 75.7514 111.756 76.5312V83H110.248V81.6705H110.171C110.069 81.8835 109.898 82.1115 109.66 82.3544C109.421 82.5973 109.104 82.804 108.707 82.9744C108.311 83.1449 107.827 83.2301 107.256 83.2301ZM107.486 81.875C108.083 81.875 108.586 81.7578 108.995 81.5234C109.408 81.2891 109.719 80.9865 109.928 80.6158C110.141 80.245 110.248 79.8551 110.248 79.446V78.0653C110.184 78.142 110.043 78.2124 109.826 78.2763C109.613 78.3359 109.366 78.3892 109.084 78.4361C108.807 78.4787 108.537 78.517 108.273 78.5511C108.013 78.581 107.802 78.6065 107.64 78.6278C107.248 78.679 106.881 78.7621 106.54 78.8771C106.204 78.9879 105.931 79.1562 105.722 79.3821C105.518 79.6037 105.415 79.9062 105.415 80.2898C105.415 80.8139 105.609 81.2102 105.997 81.4787C106.389 81.7429 106.885 81.875 107.486 81.875ZM116.018 77.0938V83H114.51V73.1818H115.967V74.7159H116.095C116.325 74.2173 116.674 73.8168 117.143 73.5142C117.612 73.2074 118.217 73.054 118.958 73.054C119.623 73.054 120.205 73.1903 120.703 73.4631C121.202 73.7315 121.59 74.1406 121.867 74.6903C122.144 75.2358 122.282 75.9261 122.282 76.7614V83H120.774V76.8636C120.774 76.0923 120.574 75.4915 120.173 75.0611C119.772 74.6264 119.223 74.4091 118.524 74.4091C118.042 74.4091 117.612 74.5135 117.233 74.7223C116.858 74.9311 116.561 75.2358 116.344 75.6364C116.127 76.0369 116.018 76.5227 116.018 77.0938ZM129.309 73.1818V74.4602H124.221V73.1818H129.309ZM125.704 70.8295H127.212V80.1875C127.212 80.6136 127.274 80.9332 127.398 81.1463C127.525 81.3551 127.687 81.4957 127.883 81.5682C128.084 81.6364 128.295 81.6705 128.516 81.6705C128.682 81.6705 128.819 81.6619 128.925 81.6449C129.032 81.6236 129.117 81.6065 129.181 81.5938L129.488 82.9489C129.385 82.9872 129.243 83.0256 129.059 83.0639C128.876 83.1065 128.644 83.1278 128.363 83.1278C127.937 83.1278 127.519 83.0362 127.11 82.853C126.705 82.6697 126.368 82.3906 126.1 82.0156C125.836 81.6406 125.704 81.1676 125.704 80.5966V70.8295ZM138.357 75.3807L137.002 75.7642C136.916 75.5384 136.791 75.3189 136.624 75.1058C136.463 74.8885 136.241 74.7095 135.96 74.5689C135.678 74.4283 135.318 74.358 134.879 74.358C134.279 74.358 133.778 74.4964 133.377 74.7734C132.981 75.0462 132.783 75.3935 132.783 75.8153C132.783 76.1903 132.919 76.4865 133.192 76.7038C133.465 76.9212 133.891 77.1023 134.47 77.2472L135.928 77.6051C136.806 77.8182 137.46 78.1442 137.89 78.5831C138.32 79.0178 138.536 79.5781 138.536 80.2642C138.536 80.8267 138.374 81.3295 138.05 81.7727C137.73 82.2159 137.283 82.5653 136.708 82.821C136.132 83.0767 135.463 83.2045 134.7 83.2045C133.699 83.2045 132.87 82.9872 132.214 82.5526C131.558 82.1179 131.142 81.483 130.968 80.6477L132.399 80.2898C132.536 80.8182 132.794 81.2145 133.173 81.4787C133.556 81.7429 134.057 81.875 134.675 81.875C135.378 81.875 135.936 81.7259 136.35 81.4276C136.767 81.125 136.976 80.7628 136.976 80.3409C136.976 80 136.857 79.7145 136.618 79.4844C136.379 79.25 136.013 79.0753 135.519 78.9602L133.882 78.5767C132.983 78.3636 132.323 78.0334 131.901 77.5859C131.483 77.1342 131.274 76.5696 131.274 75.892C131.274 75.3381 131.43 74.848 131.741 74.4219C132.056 73.9957 132.485 73.6612 133.026 73.4183C133.571 73.1754 134.189 73.054 134.879 73.054C135.851 73.054 136.614 73.267 137.168 73.6932C137.726 74.1193 138.122 74.6818 138.357 75.3807Z" fill="#B4612C"/>
<defs>
<filter id="filter0_d_228_620" x="0" y="0" width="1056" height="495.132" filterUnits="userSpaceOnUse" color-interpolation-filters="sRGB">
<feFlood flood-opacity="0" result="BackgroundImageFix"/>
<feColorMatrix in="SourceAlpha" type="matrix" values="0 0 0 0 0 0 0 0 0 0 0 0 0 0 0 0 0 0 127 0" result="hardAlpha"/>
<feOffset dy="2"/>
<feGaussianBlur stdDeviation="3"/>
<feComposite in2="hardAlpha" operator="out"/>
<feColorMatrix type="matrix" values="0 0 0 0 0.0509804 0 0 0 0 0.0392157 0 0 0 0 0.172549 0 0 0 0.08 0"/>
<feBlend mode="normal" in2="BackgroundImageFix" result="effect1_dropShadow_228_620"/>
<feBlend mode="normal" in="SourceGraphic" in2="effect1_dropShadow_228_620" result="shape"/>
</filter>
</defs>
</svg>
